<svg viewBox="0 0 256 256" xmlns="http://www.w3.org/2000/svg" xmlns:xlink="http://www.w3.org/1999/xlink" fill="none" overflow="hidden"><mask maskUnits="userSpaceOnUse" x="0" y="0" width="256" height="256" id="a"><path d="M181.534 254.252C185.652 255.858 190.252 255.681 194.234 253.764L246.94 228.403C252.479 225.736 256.001 220.131 256 213.983L256 42.018C256 35.868 252.478 30.264 246.94 27.598L194.234 2.238C188.13-0.698579 180.837 0.543498 176.049 5.335L75.149 97.387 31.199 64.026C27.1085 60.9206 21.3849 61.1749 17.586 64.631L3.489 77.453C-1.159 81.68-1.164 88.993 3.478 93.227L41.593 128 3.478 162.773C-1.164 167.008-1.159 174.32 3.489 178.548L17.586 191.37C21.3846 194.826 27.1083 195.081 31.199 191.976L75.149 158.614 176.049 250.667C177.609 252.23 179.477 253.45 181.534 254.252ZM192.039 69.885 115.479 128 192.039 186.115 192.039 69.885Z" fill="#FFFFFF" fill-rule="evenodd" clip-rule="evenodd"/></mask><defs><filter id="b" color-interpolation-filters="sRGB" x="-21.4896" y="40.5225" width="298.822" height="236.149" filterUnits="userSpaceOnUse" primitiveUnits="userSpaceOnUse"><feFlood flood-opacity="0" result="BackgroundImageFix"/><feColorMatrix in="SourceAlpha" type="matrix" values="0.000000 0.000000 0.000000 0.000000 0.000000 0.000000 0.000000 0.000000 0.000000 0.000000 0.000000 0.000000 0.000000 0.000000 0.000000 0.000000 0.000000 0.000000 127.000000 0.000000 "/><feOffset dx="0.000000" dy="0.000000"/><feGaussianBlur stdDeviation="10.666700 10.666700"/><feColorMatrix type="matrix" values="0.000000 0.000000 0.000000 0.000000 0.000000 0.000000 0.000000 0.000000 0.000000 0.000000 0.000000 0.000000 0.000000 0.000000 0.000000 0.000000 0.000000 0.000000 0.250000 0.000000 "/><feBlend in2="BackgroundImageFix" result="effect1_dropShadow" mode="normal"/><feBlend in="SourceGraphic" in2="effect1_dropShadow" result="shape" mode="normal"/></filter><filter id="c" color-interpolation-filters="sRGB" x="154.667" y="-20.6735" width="122.667" height="297.347" filterUnits="userSpaceOnUse" primitiveUnits="userSpaceOnUse"><feFlood flood-opacity="0" result="BackgroundImageFix"/><feColorMatrix in="SourceAlpha" type="matrix" values="0.000000 0.000000 0.000000 0.000000 0.000000 0.000000 0.000000 0.000000 0.000000 0.000000 0.000000 0.000000 0.000000 0.000000 0.000000 0.000000 0.000000 0.000000 127.000000 0.000000 "/><feOffset dx="0.000000" dy="0.000000"/><feGaussianBlur stdDeviation="10.666700 10.666700"/><feColorMatrix type="matrix" values="0.000000 0.000000 0.000000 0.000000 0.000000 0.000000 0.000000 0.000000 0.000000 0.000000 0.000000 0.000000 0.000000 0.000000 0.000000 0.000000 0.000000 0.000000 0.250000 0.000000 "/><feBlend in2="BackgroundImageFix" result="effect1_dropShadow" mode="normal"/><feBlend in="SourceGraphic" in2="effect1_dropShadow" result="shape" mode="normal"/></filter><linearGradient x1="127.844" y1="0.659988" x2="127.844" y2="255.34" gradientUnits="userSpaceOnUse" id="d"><stop offset="0" stop-color="#FFFFFF"/><stop offset="1" stop-color="#FFFFFF" stop-opacity="0"/></linearGradient></defs><g mask="url(#a)"><path d="M246.94 27.638 194.193 2.241C188.087-0.698658 180.791 0.54138 175.999 5.333L3.324 162.773C-1.321 167.008-1.316 174.32 3.335 178.548L17.44 191.37C21.242 194.827 26.9681 195.081 31.062 191.976L239.003 34.226C245.979 28.935 255.999 33.91 255.999 42.666L255.999 42.054C255.999 35.9075 252.478 30.3044 246.94 27.638Z" fill="#0065A9"/><g filter="url(#b)"><path d="M246.94 228.362 194.193 253.759C188.087 256.698 180.791 255.458 175.999 250.667L3.324 93.227C-1.321 88.992-1.316 81.68 3.335 77.452L17.44 64.63C21.2423 61.1737 26.9683 60.9194 31.062 64.025L239.003 221.773C245.979 227.065 255.999 222.09 255.999 213.333L255.999 213.946C255.999 220.092 252.478 225.695 246.94 228.362Z" fill="#007ACC"/></g><g filter="url(#c)"><path d="M194.196 253.763C188.089 256.7 180.792 255.459 176 250.667 181.904 256.571 192 252.389 192 244.039L192 11.961C192 3.611 181.904-0.571 176 5.333 180.792 0.541024 188.088-0.70084 194.196 2.236L246.934 27.6C252.475 30.2646 255.999 35.8686 256 42.017L256 213.982C256 220.131 252.476 225.736 246.934 228.401L194.196 253.762Z" fill="#1F9CF0"/></g><path d="M181.378 254.252C185.496 255.857 190.095 255.68 194.077 253.764L246.783 228.402C252.323 225.736 255.845 220.131 255.844 213.983L255.844 42.018C255.844 35.868 252.322 30.264 246.784 27.598L194.077 2.238C187.973-0.698833 180.68 0.542838 175.892 5.334L74.992 97.387 31.042 64.026C26.9515 60.9206 21.2279 61.1749 17.429 64.631L3.333 77.452C-1.315 81.68-1.32 88.992 3.322 93.227L41.436 128 3.322 162.773C-1.32 167.008-1.315 174.32 3.333 178.548L17.43 191.37C21.2288 194.827 26.9531 195.082 31.044 191.976L74.994 158.614 175.893 250.667C177.453 252.23 179.321 253.45 181.379 254.252ZM191.883 69.885 115.323 128 191.883 186.115 191.883 69.885Z" fill="url(#d)" fill-rule="evenodd" clip-rule="evenodd" opacity="0.25"/></g></svg>