<svg viewBox="0 0 4096 4096" xmlns="http://www.w3.org/2000/svg" xmlns:xlink="http://www.w3.org/1999/xlink" overflow="hidden"><path d="M661.333 3157.35 591.744 3217.08C542.848 3258.98 474.496 3269.77 415.061 3245.03L105.045 3115.79C41.43 3089.29 0 3027.13 0 2958.22L0 1137.81C0 1068.9 41.43 1006.73 105.045 980.239L415.061 851.087C474.496 826.34 542.848 837.135 591.744 879.033L661.334 938.681C602.197 896.399 519.467 933.988 512.427 1006.35 512.135 1009.39 511.992 1012.43 512 1015.48L512 3080.55C512.085 3153.25 590.848 3198.65 653.781 3162.21 656.38 3160.72 658.901 3159.1 661.333 3157.35Z" fill="#52218A"/><path d="M4096 672.868 4096 682.681C4096.04 558.351 3961.43 480.569 3853.74 542.735 3846.1 547.139 3838.84 552.162 3832.02 557.753L661.333 3157.35 591.744 3217.08C542.848 3258.98 474.496 3269.77 415.061 3245.03L105.045 3115.79C41.43 3089.29 0 3027.13 0 2958.22L0 2944.01C0 3019.88 82.133 3067.32 147.84 3029.39 156.743 3024.24 164.79 3017.73 171.69 3010.11L2816 85.348C2892.67 8.676 3009.41-11.164 3107.11 35.898L3950.93 442.212C4039.59 484.836 4095.96 574.479 4096 672.868Z" fill="#6C33AF"/><path d="M4096 3413.35 4096 3423.16C4095.96 3521.55 4039.59 3611.19 3950.93 3653.82L3106.99 4060.13C3009.32 4107.15 2892.63 4087.31 2816 4010.68L171.69 1085.92C120.832 1029.65 28.075 1049.49 4.779 1121.72 1.61559 1131.51 0.00276032 1141.73-0.00100019 1152.01L-0.001 1137.81C-0.001 1068.9 41.429 1006.73 105.045 980.238L415.061 851.086C474.496 826.339 542.848 837.134 591.744 879.032L661.334 938.68 3832.02 3538.28C3928.15 3617.12 4073.64 3562.34 4093.87 3439.63 4095.28 3430.94 4095.99 3422.15 4096 3413.35Z" fill="#854CC7"/><path d="M2816 4010.68C2821.89 4016.57 2828.46 4021.52 2834.82 4026.77 2828.13 4021.91 2821.84 4016.53 2816 4010.68ZM2834.82 69.263C2828.13 74.1221 2821.84 79.5004 2816 85.348 2821.93 79.418 2828.46 74.511 2834.82 69.263ZM3950.93 441.572 3107.11 35.812C3017.6-7.068 2911.32 5.988 2834.82 69.262 2928.85 2.191 3060.27 62.095 3071.32 177.082 3071.79 181.817 3072 186.596 3072 191.375L3072 3904.66C3071.96 4020.15 2946.86 4092.3 2846.85 4034.53 2842.71 4032.14 2838.7 4029.55 2834.82 4026.77 2911.32 4090.04 3017.6 4103.1 3107.11 4060.22L3950.93 3654.46C4039.59 3611.83 4096 3522.15 4096 3423.76L4096 672.313C4096 573.924 4039.64 484.196 3950.93 441.572Z" fill="#B179F1"/></svg>