<?xml version="1.0" encoding="UTF-8"?>
<svg xmlns="http://www.w3.org/2000/svg" xmlns:xlink="http://www.w3.org/1999/xlink" width="233.75" height="196.653" viewBox="0 0 233.75 196.653">
<defs>
<g>
<g id="glyph-0-0">
<path d="M 6.546875 -2.28125 C 6.71875 -2.28125 6.890625 -2.28125 6.890625 -2.484375 C 6.890625 -2.6875 6.71875 -2.6875 6.546875 -2.6875 L 1.171875 -2.6875 C 1 -2.6875 0.828125 -2.6875 0.828125 -2.484375 C 0.828125 -2.28125 1 -2.28125 1.171875 -2.28125 Z M 6.546875 -2.28125 "/>
</g>
<g id="glyph-1-0">
<path d="M 2.921875 -1.640625 L 2.921875 -0.78125 C 2.921875 -0.421875 2.90625 -0.3125 2.171875 -0.3125 L 1.953125 -0.3125 L 1.953125 0 C 2.359375 -0.03125 2.875 -0.03125 3.296875 -0.03125 C 3.71875 -0.03125 4.25 -0.03125 4.65625 0 L 4.65625 -0.3125 L 4.4375 -0.3125 C 3.703125 -0.3125 3.6875 -0.421875 3.6875 -0.78125 L 3.6875 -1.640625 L 4.6875 -1.640625 L 4.6875 -1.953125 L 3.6875 -1.953125 L 3.6875 -6.46875 C 3.6875 -6.671875 3.6875 -6.734375 3.53125 -6.734375 C 3.4375 -6.734375 3.40625 -6.734375 3.328125 -6.609375 L 0.28125 -1.953125 L 0.28125 -1.640625 Z M 2.984375 -1.953125 L 0.5625 -1.953125 L 2.984375 -5.65625 Z M 2.984375 -1.953125 "/>
</g>
<g id="glyph-1-1">
<path d="M 2.875 -3.5 C 3.703125 -3.765625 4.265625 -4.46875 4.265625 -5.25 C 4.265625 -6.0625 3.40625 -6.625 2.4375 -6.625 C 1.4375 -6.625 0.6875 -6.015625 0.6875 -5.265625 C 0.6875 -4.9375 0.90625 -4.75 1.1875 -4.75 C 1.5 -4.75 1.703125 -4.96875 1.703125 -5.25 C 1.703125 -5.75 1.234375 -5.75 1.078125 -5.75 C 1.390625 -6.234375 2.046875 -6.375 2.40625 -6.375 C 2.8125 -6.375 3.359375 -6.15625 3.359375 -5.25 C 3.359375 -5.140625 3.34375 -4.5625 3.078125 -4.125 C 2.78125 -3.640625 2.4375 -3.625 2.203125 -3.609375 C 2.109375 -3.59375 1.875 -3.578125 1.8125 -3.578125 C 1.734375 -3.5625 1.65625 -3.5625 1.65625 -3.453125 C 1.65625 -3.34375 1.734375 -3.34375 1.890625 -3.34375 L 2.328125 -3.34375 C 3.15625 -3.34375 3.515625 -2.671875 3.515625 -1.703125 C 3.515625 -0.34375 2.828125 -0.0625 2.390625 -0.0625 C 1.96875 -0.0625 1.21875 -0.234375 0.875 -0.8125 C 1.21875 -0.765625 1.53125 -0.984375 1.53125 -1.359375 C 1.53125 -1.71875 1.265625 -1.921875 0.96875 -1.921875 C 0.734375 -1.921875 0.421875 -1.78125 0.421875 -1.34375 C 0.421875 -0.4375 1.34375 0.21875 2.421875 0.21875 C 3.640625 0.21875 4.546875 -0.6875 4.546875 -1.703125 C 4.546875 -2.515625 3.921875 -3.296875 2.875 -3.5 Z M 2.875 -3.5 "/>
</g>
<g id="glyph-1-2">
<path d="M 1.265625 -0.765625 L 2.3125 -1.78125 C 3.859375 -3.15625 4.46875 -3.703125 4.46875 -4.6875 C 4.46875 -5.828125 3.5625 -6.625 2.359375 -6.625 C 1.234375 -6.625 0.5 -5.703125 0.5 -4.8125 C 0.5 -4.265625 1 -4.265625 1.03125 -4.265625 C 1.1875 -4.265625 1.546875 -4.375 1.546875 -4.796875 C 1.546875 -5.046875 1.359375 -5.3125 1.015625 -5.3125 C 0.9375 -5.3125 0.921875 -5.3125 0.890625 -5.296875 C 1.109375 -5.9375 1.65625 -6.3125 2.21875 -6.3125 C 3.125 -6.3125 3.5625 -5.5 3.5625 -4.6875 C 3.5625 -3.890625 3.0625 -3.109375 2.515625 -2.5 L 0.609375 -0.375 C 0.5 -0.265625 0.5 -0.234375 0.5 0 L 4.1875 0 L 4.46875 -1.734375 L 4.21875 -1.734375 C 4.15625 -1.4375 4.09375 -1 4 -0.84375 C 3.921875 -0.765625 3.265625 -0.765625 3.046875 -0.765625 Z M 1.265625 -0.765625 "/>
</g>
<g id="glyph-1-3">
<path d="M 2.921875 -6.359375 C 2.921875 -6.59375 2.921875 -6.625 2.6875 -6.625 C 2.078125 -5.984375 1.203125 -5.984375 0.890625 -5.984375 L 0.890625 -5.671875 C 1.078125 -5.671875 1.671875 -5.671875 2.1875 -5.9375 L 2.1875 -0.78125 C 2.1875 -0.421875 2.15625 -0.3125 1.265625 -0.3125 L 0.9375 -0.3125 L 0.9375 0 C 1.296875 -0.03125 2.15625 -0.03125 2.546875 -0.03125 C 2.953125 -0.03125 3.8125 -0.03125 4.15625 0 L 4.15625 -0.3125 L 3.84375 -0.3125 C 2.953125 -0.3125 2.921875 -0.421875 2.921875 -0.78125 Z M 2.921875 -6.359375 "/>
</g>
<g id="glyph-1-4">
<path d="M 6.828125 -3.25 C 6.96875 -3.25 7.171875 -3.25 7.171875 -3.453125 C 7.171875 -3.640625 6.96875 -3.640625 6.84375 -3.640625 L 0.890625 -3.640625 C 0.75 -3.640625 0.5625 -3.640625 0.5625 -3.453125 C 0.5625 -3.25 0.75 -3.25 0.890625 -3.25 Z M 6.84375 -1.328125 C 6.96875 -1.328125 7.171875 -1.328125 7.171875 -1.515625 C 7.171875 -1.71875 6.96875 -1.71875 6.828125 -1.71875 L 0.890625 -1.71875 C 0.75 -1.71875 0.5625 -1.71875 0.5625 -1.515625 C 0.5625 -1.328125 0.75 -1.328125 0.890625 -1.328125 Z M 6.84375 -1.328125 "/>
</g>
<g id="glyph-1-5">
<path d="M 2.21875 -3.515625 L 2.21875 -6.078125 C 2.21875 -6.3125 2.21875 -6.421875 2.4375 -6.453125 C 2.546875 -6.484375 2.828125 -6.484375 3.03125 -6.484375 C 3.921875 -6.484375 5.03125 -6.4375 5.03125 -5 C 5.03125 -4.3125 4.796875 -3.515625 3.328125 -3.515625 Z M 4.328125 -3.375 C 5.28125 -3.625 6.0625 -4.21875 6.0625 -5 C 6.0625 -5.953125 4.921875 -6.78125 3.46875 -6.78125 L 0.34375 -6.78125 L 0.34375 -6.484375 L 0.59375 -6.484375 C 1.34375 -6.484375 1.375 -6.375 1.375 -6.015625 L 1.375 -0.78125 C 1.375 -0.421875 1.34375 -0.3125 0.59375 -0.3125 L 0.34375 -0.3125 L 0.34375 0 C 0.703125 -0.03125 1.40625 -0.03125 1.796875 -0.03125 C 2.1875 -0.03125 2.890625 -0.03125 3.25 0 L 3.25 -0.3125 L 3.015625 -0.3125 C 2.25 -0.3125 2.21875 -0.421875 2.21875 -0.78125 L 2.21875 -3.296875 L 3.375 -3.296875 C 3.53125 -3.296875 3.9375 -3.296875 4.296875 -2.953125 C 4.671875 -2.59375 4.671875 -2.28125 4.671875 -1.625 C 4.671875 -0.96875 4.671875 -0.578125 5.078125 -0.203125 C 5.484375 0.15625 6.03125 0.21875 6.328125 0.21875 C 7.109375 0.21875 7.28125 -0.59375 7.28125 -0.875 C 7.28125 -0.9375 7.28125 -1.046875 7.140625 -1.046875 C 7.03125 -1.046875 7.03125 -0.953125 7.03125 -0.890625 C 6.96875 -0.171875 6.625 0 6.375 0 C 5.890625 0 5.796875 -0.5 5.671875 -1.4375 L 5.53125 -2.21875 C 5.359375 -2.859375 4.875 -3.1875 4.328125 -3.375 Z M 4.328125 -3.375 "/>
</g>
<g id="glyph-1-6">
<path d="M 4.6875 -2.125 C 4.6875 -3.40625 3.6875 -4.453125 2.484375 -4.453125 C 1.25 -4.453125 0.28125 -3.375 0.28125 -2.125 C 0.28125 -0.84375 1.3125 0.109375 2.46875 0.109375 C 3.671875 0.109375 4.6875 -0.859375 4.6875 -2.125 Z M 2.484375 -0.140625 C 2.0625 -0.140625 1.625 -0.34375 1.34375 -0.8125 C 1.109375 -1.25 1.109375 -1.84375 1.109375 -2.203125 C 1.109375 -2.59375 1.109375 -3.125 1.34375 -3.5625 C 1.609375 -4.03125 2.078125 -4.234375 2.46875 -4.234375 C 2.90625 -4.234375 3.34375 -4.015625 3.59375 -3.59375 C 3.859375 -3.15625 3.859375 -2.578125 3.859375 -2.203125 C 3.859375 -1.84375 3.859375 -1.3125 3.640625 -0.875 C 3.421875 -0.421875 2.984375 -0.140625 2.484375 -0.140625 Z M 2.484375 -0.140625 "/>
</g>
<g id="glyph-1-7">
<path d="M 1.71875 -3.96875 L 3.140625 -3.96875 L 3.140625 -4.28125 L 1.71875 -4.28125 L 1.71875 -6.109375 L 1.46875 -6.109375 C 1.453125 -5.296875 1.15625 -4.234375 0.1875 -4.1875 L 0.1875 -3.96875 L 1.03125 -3.96875 L 1.03125 -1.234375 C 1.03125 -0.015625 1.953125 0.109375 2.3125 0.109375 C 3.015625 0.109375 3.296875 -0.59375 3.296875 -1.234375 L 3.296875 -1.796875 L 3.046875 -1.796875 L 3.046875 -1.25 C 3.046875 -0.515625 2.75 -0.140625 2.390625 -0.140625 C 1.71875 -0.140625 1.71875 -1.046875 1.71875 -1.21875 Z M 1.71875 -3.96875 "/>
</g>
<g id="glyph-1-8">
<path d="M 3.3125 -0.75 C 3.34375 -0.359375 3.625 0.0625 4.078125 0.0625 C 4.296875 0.0625 4.90625 -0.078125 4.90625 -0.890625 L 4.90625 -1.4375 L 4.65625 -1.4375 L 4.65625 -0.890625 C 4.65625 -0.3125 4.40625 -0.25 4.296875 -0.25 C 3.96875 -0.25 3.921875 -0.703125 3.921875 -0.75 L 3.921875 -2.734375 C 3.921875 -3.15625 3.921875 -3.53125 3.5625 -3.90625 C 3.1875 -4.296875 2.6875 -4.453125 2.203125 -4.453125 C 1.390625 -4.453125 0.703125 -3.984375 0.703125 -3.328125 C 0.703125 -3.03125 0.90625 -2.859375 1.15625 -2.859375 C 1.4375 -2.859375 1.625 -3.0625 1.625 -3.3125 C 1.625 -3.4375 1.5625 -3.765625 1.109375 -3.78125 C 1.375 -4.125 1.875 -4.234375 2.1875 -4.234375 C 2.671875 -4.234375 3.234375 -3.84375 3.234375 -2.96875 L 3.234375 -2.59375 C 2.734375 -2.5625 2.03125 -2.53125 1.40625 -2.234375 C 0.671875 -1.890625 0.421875 -1.375 0.421875 -0.9375 C 0.421875 -0.140625 1.375 0.109375 2 0.109375 C 2.65625 0.109375 3.125 -0.28125 3.3125 -0.75 Z M 3.234375 -2.390625 L 3.234375 -1.390625 C 3.234375 -0.453125 2.53125 -0.109375 2.078125 -0.109375 C 1.59375 -0.109375 1.1875 -0.453125 1.1875 -0.953125 C 1.1875 -1.5 1.59375 -2.328125 3.234375 -2.390625 Z M 3.234375 -2.390625 "/>
</g>
<g id="glyph-1-9">
<path d="M 1.109375 -2.5 C 1.171875 -3.984375 2 -4.234375 2.34375 -4.234375 C 3.375 -4.234375 3.46875 -2.890625 3.46875 -2.5 Z M 1.109375 -2.296875 L 3.875 -2.296875 C 4.09375 -2.296875 4.125 -2.296875 4.125 -2.5 C 4.125 -3.484375 3.59375 -4.453125 2.34375 -4.453125 C 1.1875 -4.453125 0.28125 -3.421875 0.28125 -2.1875 C 0.28125 -0.859375 1.328125 0.109375 2.46875 0.109375 C 3.671875 0.109375 4.125 -1 4.125 -1.1875 C 4.125 -1.28125 4.046875 -1.296875 4 -1.296875 C 3.90625 -1.296875 3.890625 -1.25 3.859375 -1.15625 C 3.515625 -0.140625 2.625 -0.140625 2.53125 -0.140625 C 2.03125 -0.140625 1.625 -0.4375 1.40625 -0.8125 C 1.109375 -1.28125 1.109375 -1.9375 1.109375 -2.296875 Z M 1.109375 -2.296875 "/>
</g>
<g id="glyph-1-10">
<path d="M 3.78125 -0.546875 L 3.78125 0.109375 L 5.234375 0 L 5.234375 -0.3125 C 4.546875 -0.3125 4.46875 -0.375 4.46875 -0.859375 L 4.46875 -6.890625 L 3.03125 -6.78125 L 3.03125 -6.484375 C 3.734375 -6.484375 3.8125 -6.40625 3.8125 -5.921875 L 3.8125 -3.78125 C 3.515625 -4.140625 3.09375 -4.390625 2.546875 -4.390625 C 1.375 -4.390625 0.34375 -3.421875 0.34375 -2.140625 C 0.34375 -0.875 1.3125 0.109375 2.4375 0.109375 C 3.078125 0.109375 3.53125 -0.234375 3.78125 -0.546875 Z M 3.78125 -3.203125 L 3.78125 -1.171875 C 3.78125 -1 3.78125 -0.96875 3.671875 -0.8125 C 3.375 -0.328125 2.921875 -0.109375 2.5 -0.109375 C 2.046875 -0.109375 1.6875 -0.375 1.453125 -0.75 C 1.1875 -1.15625 1.15625 -1.71875 1.15625 -2.125 C 1.15625 -2.5 1.1875 -3.09375 1.46875 -3.53125 C 1.671875 -3.84375 2.0625 -4.171875 2.59375 -4.171875 C 2.9375 -4.171875 3.359375 -4.03125 3.671875 -3.578125 C 3.78125 -3.40625 3.78125 -3.390625 3.78125 -3.203125 Z M 3.78125 -3.203125 "/>
</g>
<g id="glyph-2-0">
<path d="M 3.3125 -3 C 3.375 -3.265625 3.609375 -4.171875 4.296875 -4.171875 C 4.359375 -4.171875 4.59375 -4.171875 4.796875 -4.046875 C 4.515625 -4 4.328125 -3.75 4.328125 -3.515625 C 4.328125 -3.34375 4.4375 -3.15625 4.703125 -3.15625 C 4.921875 -3.15625 5.234375 -3.34375 5.234375 -3.734375 C 5.234375 -4.25 4.65625 -4.390625 4.3125 -4.390625 C 3.734375 -4.390625 3.390625 -3.859375 3.265625 -3.640625 C 3.015625 -4.296875 2.484375 -4.390625 2.203125 -4.390625 C 1.15625 -4.390625 0.59375 -3.109375 0.59375 -2.859375 C 0.59375 -2.765625 0.703125 -2.765625 0.71875 -2.765625 C 0.796875 -2.765625 0.828125 -2.78125 0.84375 -2.875 C 1.1875 -3.921875 1.84375 -4.171875 2.171875 -4.171875 C 2.359375 -4.171875 2.71875 -4.078125 2.71875 -3.515625 C 2.71875 -3.203125 2.546875 -2.53125 2.171875 -1.140625 C 2.015625 -0.53125 1.671875 -0.109375 1.234375 -0.109375 C 1.171875 -0.109375 0.9375 -0.109375 0.734375 -0.234375 C 0.984375 -0.28125 1.203125 -0.5 1.203125 -0.78125 C 1.203125 -1.046875 0.984375 -1.125 0.828125 -1.125 C 0.53125 -1.125 0.28125 -0.859375 0.28125 -0.546875 C 0.28125 -0.09375 0.78125 0.109375 1.21875 0.109375 C 1.875 0.109375 2.234375 -0.59375 2.265625 -0.640625 C 2.390625 -0.28125 2.75 0.109375 3.34375 0.109375 C 4.359375 0.109375 4.921875 -1.171875 4.921875 -1.421875 C 4.921875 -1.515625 4.84375 -1.515625 4.8125 -1.515625 C 4.71875 -1.515625 4.703125 -1.484375 4.6875 -1.40625 C 4.359375 -0.34375 3.671875 -0.109375 3.359375 -0.109375 C 2.96875 -0.109375 2.8125 -0.421875 2.8125 -0.765625 C 2.8125 -0.984375 2.875 -1.203125 2.984375 -1.640625 Z M 3.3125 -3 "/>
</g>
<g id="glyph-2-1">
<path d="M 4.828125 -3.78125 C 4.875 -3.921875 4.875 -3.9375 4.875 -4.015625 C 4.875 -4.1875 4.734375 -4.28125 4.578125 -4.28125 C 4.484375 -4.28125 4.328125 -4.21875 4.234375 -4.078125 C 4.21875 -4.03125 4.140625 -3.71875 4.09375 -3.53125 C 4.03125 -3.28125 3.953125 -3.015625 3.890625 -2.75 L 3.453125 -0.953125 C 3.40625 -0.8125 2.984375 -0.109375 2.328125 -0.109375 C 1.8125 -0.109375 1.703125 -0.546875 1.703125 -0.921875 C 1.703125 -1.375 1.875 -1.984375 2.21875 -2.859375 C 2.375 -3.265625 2.421875 -3.375 2.421875 -3.578125 C 2.421875 -4.03125 2.09375 -4.390625 1.59375 -4.390625 C 0.65625 -4.390625 0.28125 -2.953125 0.28125 -2.859375 C 0.28125 -2.765625 0.390625 -2.765625 0.40625 -2.765625 C 0.5 -2.765625 0.515625 -2.78125 0.5625 -2.9375 C 0.828125 -3.875 1.234375 -4.171875 1.5625 -4.171875 C 1.65625 -4.171875 1.8125 -4.171875 1.8125 -3.859375 C 1.8125 -3.609375 1.71875 -3.34375 1.65625 -3.15625 C 1.25 -2.109375 1.078125 -1.546875 1.078125 -1.078125 C 1.078125 -0.1875 1.703125 0.109375 2.28125 0.109375 C 2.671875 0.109375 3.015625 -0.0625 3.296875 -0.34375 C 3.15625 0.171875 3.046875 0.671875 2.640625 1.1875 C 2.390625 1.53125 2 1.8125 1.546875 1.8125 C 1.40625 1.8125 0.96875 1.78125 0.796875 1.40625 C 0.953125 1.40625 1.078125 1.40625 1.21875 1.28125 C 1.328125 1.1875 1.421875 1.0625 1.421875 0.875 C 1.421875 0.5625 1.15625 0.53125 1.046875 0.53125 C 0.828125 0.53125 0.5 0.6875 0.5 1.171875 C 0.5 1.671875 0.9375 2.03125 1.546875 2.03125 C 2.578125 2.03125 3.59375 1.140625 3.875 0.015625 Z M 4.828125 -3.78125 "/>
</g>
<g id="glyph-3-0">
<path d="M 3.515625 -1.265625 L 3.28125 -1.265625 C 3.265625 -1.109375 3.1875 -0.703125 3.09375 -0.640625 C 3.046875 -0.59375 2.515625 -0.59375 2.40625 -0.59375 L 1.125 -0.59375 C 1.859375 -1.234375 2.109375 -1.4375 2.515625 -1.765625 C 3.03125 -2.171875 3.515625 -2.609375 3.515625 -3.265625 C 3.515625 -4.109375 2.78125 -4.625 1.890625 -4.625 C 1.03125 -4.625 0.4375 -4.015625 0.4375 -3.375 C 0.4375 -3.03125 0.734375 -2.984375 0.8125 -2.984375 C 0.96875 -2.984375 1.171875 -3.109375 1.171875 -3.359375 C 1.171875 -3.484375 1.125 -3.734375 0.765625 -3.734375 C 0.984375 -4.21875 1.453125 -4.375 1.78125 -4.375 C 2.484375 -4.375 2.84375 -3.828125 2.84375 -3.265625 C 2.84375 -2.65625 2.40625 -2.1875 2.1875 -1.9375 L 0.515625 -0.265625 C 0.4375 -0.203125 0.4375 -0.1875 0.4375 0 L 3.3125 0 Z M 3.515625 -1.265625 "/>
</g>
</g>
<clipPath id="clip-0">
<path clip-rule="nonzero" d="M 49 10.496094 L 189 10.496094 L 189 144 L 49 144 Z M 49 10.496094 "/>
</clipPath>
<clipPath id="clip-1">
<path clip-rule="nonzero" d="M 13.726562 10.496094 L 141 10.496094 L 141 150 L 13.726562 150 Z M 13.726562 10.496094 "/>
</clipPath>
</defs>
<path fill="none" stroke-width="0.3985" stroke-linecap="butt" stroke-linejoin="miter" stroke="rgb(75%, 75%, 75%)" stroke-opacity="1" stroke-miterlimit="10" d="M 6.375554 0.000334649 L 6.375554 175.207386 M 32.664047 0.000334649 L 32.664047 175.207386 M 58.948626 0.000334649 L 58.948626 175.207386 M 85.233206 0.000334649 L 85.233206 175.207386 M 137.806278 0.000334649 L 137.806278 175.207386 M 164.090857 0.000334649 L 164.090857 175.207386 M 190.375437 0.000334649 L 190.375437 175.207386 M 216.663929 0.000334649 L 216.663929 175.207386 " transform="matrix(0.998239, 0, 0, -0.998239, 7.362238, 185.394865)"/>
<path fill="none" stroke-width="0.3985" stroke-linecap="butt" stroke-linejoin="miter" stroke="rgb(75%, 75%, 75%)" stroke-opacity="1" stroke-miterlimit="10" d="M 6.375554 0.000334649 L 216.663929 0.000334649 M 6.375554 29.200205 L 216.663929 29.200205 M 6.375554 87.60386 L 216.663929 87.60386 M 6.375554 116.807644 L 216.663929 116.807644 M 6.375554 146.007515 L 216.663929 146.007515 M 6.375554 175.207386 L 216.663929 175.207386 " transform="matrix(0.998239, 0, 0, -0.998239, 7.362238, 185.394865)"/>
<path fill="none" stroke-width="0.19925" stroke-linecap="butt" stroke-linejoin="miter" stroke="rgb(50%, 50%, 50%)" stroke-opacity="1" stroke-miterlimit="10" d="M 6.375554 56.27524 L 6.375554 60.528826 M 32.664047 56.27524 L 32.664047 60.528826 M 58.948626 56.27524 L 58.948626 60.528826 M 85.233206 56.27524 L 85.233206 60.528826 M 137.806278 56.27524 L 137.806278 60.528826 M 164.090857 56.27524 L 164.090857 60.528826 M 190.375437 56.27524 L 190.375437 60.528826 M 216.663929 56.27524 L 216.663929 60.528826 " transform="matrix(0.998239, 0, 0, -0.998239, 7.362238, 185.394865)"/>
<path fill="none" stroke-width="0.19925" stroke-linecap="butt" stroke-linejoin="miter" stroke="rgb(50%, 50%, 50%)" stroke-opacity="1" stroke-miterlimit="10" d="M 109.392949 0.000334649 L 113.646535 0.000334649 M 109.392949 29.200205 L 113.646535 29.200205 M 109.392949 87.60386 L 113.646535 87.60386 M 109.392949 116.807644 L 113.646535 116.807644 M 109.392949 146.007515 L 113.646535 146.007515 M 109.392949 175.207386 L 113.646535 175.207386 " transform="matrix(0.998239, 0, 0, -0.998239, 7.362238, 185.394865)"/>
<path fill="none" stroke-width="0.3985" stroke-linecap="butt" stroke-linejoin="miter" stroke="rgb(0%, 0%, 0%)" stroke-opacity="1" stroke-miterlimit="10" d="M 6.375554 58.403989 L 214.67214 58.403989 " transform="matrix(0.998239, 0, 0, -0.998239, 7.362238, 185.394865)"/>
<path fill-rule="nonzero" fill="rgb(0%, 0%, 0%)" fill-opacity="1" d="M 223.644531 127.09375 L 220.460938 125.503906 L 221.65625 127.09375 L 220.460938 128.6875 "/>
<path fill="none" stroke-width="0.3985" stroke-linecap="butt" stroke-linejoin="miter" stroke="rgb(0%, 0%, 0%)" stroke-opacity="1" stroke-miterlimit="10" d="M 111.521698 0.000334649 L 111.521698 173.215596 " transform="matrix(0.998239, 0, 0, -0.998239, 7.362238, 185.394865)"/>
<path fill-rule="nonzero" fill="rgb(0%, 0%, 0%)" fill-opacity="1" d="M 118.6875 10.496094 L 117.09375 13.675781 L 118.6875 12.484375 L 120.277344 13.675781 "/>
<g fill="rgb(0%, 0%, 0%)" fill-opacity="1">
<use xlink:href="#glyph-0-0" x="7.374217" y="139.140483"/>
</g>
<g fill="rgb(0%, 0%, 0%)" fill-opacity="1">
<use xlink:href="#glyph-1-0" x="15.10857" y="139.140483"/>
</g>
<g fill="rgb(0%, 0%, 0%)" fill-opacity="1">
<use xlink:href="#glyph-0-0" x="33.612918" y="139.140483"/>
</g>
<g fill="rgb(0%, 0%, 0%)" fill-opacity="1">
<use xlink:href="#glyph-1-1" x="41.348269" y="139.140483"/>
</g>
<g fill="rgb(0%, 0%, 0%)" fill-opacity="1">
<use xlink:href="#glyph-0-0" x="59.851619" y="139.140483"/>
</g>
<g fill="rgb(0%, 0%, 0%)" fill-opacity="1">
<use xlink:href="#glyph-1-2" x="67.58697" y="139.140483"/>
</g>
<g fill="rgb(0%, 0%, 0%)" fill-opacity="1">
<use xlink:href="#glyph-0-0" x="86.091319" y="139.140483"/>
</g>
<g fill="rgb(0%, 0%, 0%)" fill-opacity="1">
<use xlink:href="#glyph-1-3" x="93.826669" y="139.140483"/>
</g>
<g fill="rgb(0%, 0%, 0%)" fill-opacity="1">
<use xlink:href="#glyph-1-3" x="142.436895" y="139.140483"/>
</g>
<g fill="rgb(0%, 0%, 0%)" fill-opacity="1">
<use xlink:href="#glyph-1-2" x="168.675596" y="139.140483"/>
</g>
<g fill="rgb(0%, 0%, 0%)" fill-opacity="1">
<use xlink:href="#glyph-1-1" x="194.915296" y="139.140483"/>
</g>
<g fill="rgb(0%, 0%, 0%)" fill-opacity="1">
<use xlink:href="#glyph-1-0" x="221.153997" y="139.140483"/>
</g>
<g fill="rgb(0%, 0%, 0%)" fill-opacity="1">
<use xlink:href="#glyph-0-0" x="100.340176" y="188.184942"/>
</g>
<g fill="rgb(0%, 0%, 0%)" fill-opacity="1">
<use xlink:href="#glyph-1-2" x="108.075527" y="188.184942"/>
</g>
<g fill="rgb(0%, 0%, 0%)" fill-opacity="1">
<use xlink:href="#glyph-0-0" x="100.340176" y="159.035377"/>
</g>
<g fill="rgb(0%, 0%, 0%)" fill-opacity="1">
<use xlink:href="#glyph-1-3" x="108.075527" y="159.035377"/>
</g>
<g fill="rgb(0%, 0%, 0%)" fill-opacity="1">
<use xlink:href="#glyph-1-3" x="108.075527" y="101.150517"/>
</g>
<g fill="rgb(0%, 0%, 0%)" fill-opacity="1">
<use xlink:href="#glyph-1-2" x="108.075527" y="72.000952"/>
</g>
<g fill="rgb(0%, 0%, 0%)" fill-opacity="1">
<use xlink:href="#glyph-1-1" x="108.075527" y="42.851387"/>
</g>
<g fill="rgb(0%, 0%, 0%)" fill-opacity="1">
<use xlink:href="#glyph-1-0" x="108.075527" y="13.701823"/>
</g>
<g clip-path="url(#clip-0)">
<path fill="none" stroke-width="1.19553" stroke-linecap="butt" stroke-linejoin="miter" stroke="rgb(19.216919%, 44.706726%, 71.763611%)" stroke-opacity="1" stroke-miterlimit="10" d="M 58.948626 175.207386 L 59.4769 172.871239 L 60.005175 170.558572 L 60.533449 168.273297 L 61.061723 166.007587 L 61.589997 163.765356 L 62.118272 161.546604 L 62.646546 159.351331 L 63.17482 157.179537 L 63.703095 155.035135 L 64.231369 152.910299 L 64.759643 150.808941 L 65.287917 148.734975 L 65.816192 146.680575 L 66.344466 144.649654 L 66.87274 142.646125 L 67.401014 140.662162 L 67.929289 138.705591 L 68.457563 136.768585 L 68.985837 134.858971 L 69.514111 132.968923 L 70.042386 131.106267 L 70.57066 129.26709 L 71.098934 127.447479 L 71.627208 125.65526 L 72.155483 123.886519 L 72.68767 122.141258 L 73.215944 120.415562 L 73.744219 118.717258 L 74.272493 117.042433 L 74.800767 115.391086 L 75.329041 113.763219 L 75.857316 112.158831 L 76.38559 110.577921 L 76.913864 109.02049 L 77.442138 107.486538 L 77.970413 105.976065 L 78.498687 104.489071 L 79.026961 103.025555 L 79.555236 101.585519 L 80.08351 100.172874 L 80.611784 98.779796 L 81.140058 97.410196 L 81.668333 96.064075 L 82.196607 94.745346 L 82.724881 93.446182 L 83.253155 92.170498 L 83.78143 90.922205 L 84.309704 89.693478 L 84.837978 88.492144 L 85.366252 87.310374 L 85.894527 86.155997 L 86.422801 85.021186 L 86.951075 83.913767 L 87.47935 82.829826 L 88.007624 81.765451 L 88.535898 80.728468 L 89.064172 79.714964 L 89.592447 78.721026 L 90.120721 77.75448 L 90.648995 76.811413 L 91.177269 75.891824 L 91.705544 74.995714 L 92.233818 74.11917 L 92.762092 73.270018 L 93.290366 72.444345 L 93.818641 71.642151 L 94.346915 70.863436 L 94.875189 70.108199 L 95.403463 69.376441 L 95.931738 68.672076 L 96.460012 67.987276 L 96.992199 67.325955 L 97.520474 66.688112 L 98.048748 66.073749 L 98.577022 65.482864 L 99.105296 64.919372 L 99.633571 64.375445 L 100.161845 63.854997 L 100.690119 63.361941 L 101.218393 62.888451 L 101.746668 62.442353 L 102.274942 62.01582 L 102.803216 61.616679 L 103.331491 61.237105 L 103.859765 60.884922 L 104.388039 60.552305 L 104.916313 60.24708 L 105.444588 59.96142 L 105.972862 59.703153 L 106.501136 59.468364 L 107.02941 59.257054 L 107.557685 59.06531 L 108.085959 58.900958 L 108.614233 58.760085 L 109.142507 58.642691 L 109.670782 58.548776 L 110.199056 58.478339 L 110.72733 58.431381 L 111.255605 58.403989 L 111.783879 58.403989 L 112.312153 58.431381 L 112.840427 58.478339 L 113.368702 58.548776 L 113.896976 58.642691 L 114.42525 58.760085 L 114.953524 58.900958 L 115.481799 59.06531 L 116.010073 59.257054 L 116.538347 59.468364 L 117.066621 59.703153 L 117.594896 59.965333 L 118.12317 60.24708 L 118.651444 60.552305 L 119.179718 60.884922 L 119.707993 61.237105 L 120.236267 61.616679 L 120.764541 62.01582 L 121.296729 62.442353 L 121.825003 62.888451 L 122.353277 63.361941 L 122.881551 63.85891 L 123.409826 64.375445 L 123.9381 64.919372 L 124.466374 65.486778 L 124.994649 66.073749 L 125.522923 66.688112 L 126.051197 67.325955 L 126.579471 67.987276 L 127.107746 68.672076 L 127.63602 69.380355 L 128.164294 70.112112 L 128.692568 70.863436 L 129.220843 71.642151 L 129.749117 72.448258 L 130.277391 73.273932 L 130.805665 74.123084 L 131.33394 74.995714 L 131.862214 75.891824 L 132.390488 76.811413 L 132.918762 77.75448 L 133.447037 78.724939 L 133.975311 79.714964 L 134.503585 80.728468 L 135.03186 81.765451 L 135.560134 82.829826 L 136.088408 83.913767 L 136.616682 85.025099 L 137.144957 86.155997 L 137.673231 87.314288 L 138.201505 88.492144 L 138.729779 89.697391 L 139.258054 90.922205 L 139.786328 92.174411 L 140.314602 93.446182 L 140.842876 94.745346 L 141.371151 96.067988 L 141.899425 97.410196 L 142.427699 98.779796 L 142.955973 100.172874 L 143.484248 101.589432 L 144.012522 103.029469 L 144.540796 104.492984 L 145.069071 105.976065 L 145.597345 107.486538 L 146.129532 109.02049 L 146.657806 110.577921 L 147.186081 112.158831 L 147.714355 113.763219 L 148.242629 115.391086 L 148.770904 117.046346 L 149.299178 118.721171 L 149.827452 120.419475 L 150.355726 122.141258 L 150.884001 123.886519 L 151.412275 125.659173 L 151.940549 127.451392 L 152.468823 129.26709 L 152.997098 131.110181 L 153.525372 132.972836 L 154.053646 134.858971 L 154.58192 136.772498 L 155.110195 138.705591 L 155.638469 140.666075 L 156.166743 142.646125 L 156.695017 144.653567 L 157.223292 146.684488 L 157.751566 148.734975 L 158.27984 150.812854 L 158.808115 152.910299 L 159.336389 155.035135 L 159.864663 157.18345 L 160.392937 159.355245 L 160.921212 161.546604 L 161.449486 163.765356 L 161.97776 166.007587 L 162.506034 168.273297 L 163.034309 170.562485 L 163.562583 172.875153 L 164.090857 175.211299 " transform="matrix(0.998239, 0, 0, -0.998239, 7.362238, 185.394865)"/>
</g>
<g clip-path="url(#clip-1)">
<path fill="none" stroke-width="1.19553" stroke-linecap="butt" stroke-linejoin="miter" stroke="rgb(100%, 0%, 0%)" stroke-opacity="1" stroke-miterlimit="10" d="M 0.0010446 99.699384 L 1.859787 98.462831 L 3.706791 97.241931 L 5.538142 96.040596 L 7.35384 94.851 L 9.153885 93.680971 L 10.938278 92.530507 L 12.707019 91.391782 L 14.46402 90.272623 L 16.205368 89.169117 L 17.931064 88.081264 L 19.641108 87.012976 L 21.335499 85.96034 L 23.014237 84.923357 L 24.681236 83.902027 L 26.328669 82.900263 L 27.964362 81.914151 L 29.584403 80.943691 L 31.192705 79.988884 L 32.781441 79.053643 L 34.354524 78.134055 L 35.915868 77.230119 L 37.46156 76.345749 L 38.991598 75.473118 L 40.505985 74.620053 L 42.008631 73.786553 L 43.491712 72.964793 L 44.963054 72.162599 L 46.418743 71.376057 L 47.854867 70.605168 L 49.283164 69.853845 L 50.691895 69.118174 L 52.084974 68.398156 L 53.466313 67.69379 L 54.832 67.00899 L 56.182034 66.339843 L 57.516416 65.686348 L 58.835145 65.052419 L 60.142135 64.430229 L 61.429559 63.827605 L 62.705243 63.240634 L 63.965275 62.673228 L 65.209654 62.121475 L 66.438381 61.585374 L 67.655369 61.064926 L 68.85279 60.564044 L 70.038473 60.074901 L 71.208502 59.609237 L 72.362879 59.155313 L 73.501604 58.717041 L 74.624676 58.298334 L 75.736008 57.895281 L 76.831688 57.511793 L 77.911716 57.143957 L 78.97609 56.787861 L 80.024813 56.455244 L 81.057882 56.134367 L 82.079213 55.833055 L 83.080977 55.547395 L 84.071002 55.277388 L 85.045375 55.026947 L 86.004095 54.788245 L 86.951075 54.56911 L 87.87849 54.369539 L 88.794165 54.181708 L 89.694188 54.013443 L 90.578559 53.860831 L 91.447276 53.727784 L 92.300341 53.606476 L 93.137754 53.504735 L 93.963427 53.418646 L 94.773447 53.352122 L 95.567815 53.297338 L 96.346531 53.26212 L 97.109594 53.242554 L 97.860917 53.242554 L 98.592675 53.258207 L 99.312693 53.289512 L 100.017059 53.33647 L 100.705772 53.39908 L 101.378832 53.481256 L 102.040153 53.579084 L 102.681909 53.696479 L 103.311925 53.825612 L 103.926288 53.974312 L 104.524999 54.138664 L 105.108057 54.318668 L 105.675463 54.518239 L 106.231129 54.733461 L 106.771143 54.964337 L 107.291591 55.214778 L 107.8003 55.476959 L 108.297269 55.758705 L 108.774672 56.056104 L 109.236423 56.373068 L 109.686434 56.705685 L 110.120793 57.053955 L 110.539499 57.417877 L 110.942553 57.797452 L 111.329954 58.196593 L 111.705616 58.611386 L 112.061712 59.045745 L 112.406068 59.491843 L 112.734772 59.957507 L 113.047824 60.438824 L 113.349136 60.939706 L 113.630882 61.452327 L 113.900889 61.984515 L 114.15133 62.532355 L 114.390032 63.099761 L 114.613081 63.682819 L 114.824391 64.28153 L 115.016135 64.895893 L 115.196139 65.525909 L 115.356578 66.175491 L 115.505277 66.840725 L 115.638324 67.521612 L 115.759632 68.222064 L 115.861373 68.938169 L 115.951376 69.669927 L 116.021812 70.417337 L 116.080509 71.184313 L 116.123554 71.966942 L 116.150946 72.765223 L 116.166599 73.579157 L 116.162685 74.412656 L 116.147033 75.261808 L 116.115728 76.126613 L 116.06877 77.00707 L 116.00616 77.907093 L 115.927897 78.822768 L 115.837895 79.754096 L 115.728327 80.70499 L 115.607019 81.671536 L 115.470059 82.653735 L 115.317447 83.651586 L 115.153095 84.669003 L 114.969177 85.69816 L 114.77352 86.746882 L 114.558297 87.81517 L 114.331335 88.895197 L 114.092633 89.99479 L 113.834366 91.110036 L 113.560446 92.244847 L 113.274786 93.395311 L 112.973474 94.557515 L 112.652596 95.743197 L 112.323892 96.940619 L 111.975623 98.157606 L 111.6117 99.390246 L 111.236039 100.638538 L 110.840811 101.906397 L 110.433845 103.185994 L 110.011225 104.489071 L 109.576866 105.803887 L 109.122942 107.134355 L 108.657278 108.48439 L 108.172048 109.850076 L 107.675079 111.235329 L 107.162457 112.632321 L 106.634183 114.048878 L 106.094169 115.481089 L 105.53459 116.932865 L 104.963271 118.400293 L 104.3763 119.879461 L 103.773676 121.382108 L 103.155399 122.896494 L 102.52147 124.430446 L 101.875801 125.980051 L 101.210567 127.545308 L 100.533594 129.13013 L 99.840967 130.730606 L 99.132688 132.346734 L 98.408757 133.978514 L 97.673086 135.62986 L 96.91785 137.292946 L 96.150874 138.979511 L 95.368245 140.677814 L 94.569964 142.395684 L 93.759944 144.129206 L 92.930357 145.878381 L 92.089032 147.643208 L 91.22814 149.427602 L 90.355509 151.227647 L 89.467226 153.043345 L 88.56329 154.878609 L 87.647615 156.725613 L 86.712374 158.592182 L 85.765393 160.478316 L 84.80276 162.376191 L 83.824474 164.293631 L 82.830536 166.226723 L 81.824858 168.175468 L 80.799615 170.143779 L 79.762632 172.127742 L 78.709997 174.127358 L 77.641709 176.14654 L 76.557768 178.177461 L 75.458175 180.227948 L 74.346843 182.294087 " transform="matrix(0.998239, 0, 0, -0.998239, 7.362238, 185.394865)"/>
</g>
<g fill="rgb(0%, 0%, 0%)" fill-opacity="1">
<use xlink:href="#glyph-2-0" x="214.442839" y="123.581936"/>
</g>
<g fill="rgb(0%, 0%, 0%)" fill-opacity="1">
<use xlink:href="#glyph-2-1" x="122.197608" y="18.292722"/>
</g>
<path fill-rule="nonzero" fill="rgb(100%, 100%, 100%)" fill-opacity="1" stroke-width="0.3985" stroke-linecap="butt" stroke-linejoin="miter" stroke="rgb(0%, 0%, 0%)" stroke-opacity="1" stroke-miterlimit="10" d="M 153.290583 145.037055 L 216.464359 145.037055 L 216.464359 175.007815 L 153.290583 175.007815 Z M 153.290583 145.037055 " transform="matrix(0.998239, 0, 0, -0.998239, 7.362238, 185.394865)"/>
<path fill="none" stroke-width="1.19553" stroke-linecap="butt" stroke-linejoin="miter" stroke="rgb(19.216919%, 44.706726%, 71.763611%)" stroke-opacity="1" stroke-miterlimit="10" d="M -0.00189112 -0.00110318 L 17.00854 -0.00110318 " transform="matrix(0.998239, 0, 0, -0.998239, 163.958919, 19.467649)"/>
<g fill="rgb(0%, 0%, 0%)" fill-opacity="1">
<use xlink:href="#glyph-2-1" x="186.676833" y="22.768824"/>
</g>
<g fill="rgb(0%, 0%, 0%)" fill-opacity="1">
<use xlink:href="#glyph-1-4" x="194.671725" y="22.768824"/>
</g>
<g fill="rgb(0%, 0%, 0%)" fill-opacity="1">
<use xlink:href="#glyph-2-0" x="205.169202" y="22.768824"/>
</g>
<g fill="rgb(0%, 0%, 0%)" fill-opacity="1">
<use xlink:href="#glyph-3-0" x="210.853173" y="19.160191"/>
</g>
<path fill="none" stroke-width="1.19553" stroke-linecap="butt" stroke-linejoin="miter" stroke="rgb(100%, 0%, 0%)" stroke-opacity="1" stroke-miterlimit="10" d="M -0.00189112 0.000263078 L 17.00854 0.000263078 " transform="matrix(0.998239, 0, 0, -0.998239, 163.958919, 32.437763)"/>
<g fill="rgb(0%, 0%, 0%)" fill-opacity="1">
<use xlink:href="#glyph-1-5" x="183.523397" y="35.144986"/>
<use xlink:href="#glyph-1-6" x="190.843949" y="35.144986"/>
<use xlink:href="#glyph-1-7" x="195.816475" y="35.144986"/>
<use xlink:href="#glyph-1-8" x="199.684106" y="35.144986"/>
<use xlink:href="#glyph-1-7" x="204.656632" y="35.144986"/>
<use xlink:href="#glyph-1-9" x="208.524262" y="35.144986"/>
<use xlink:href="#glyph-1-10" x="212.943843" y="35.144986"/>
</g>
</svg>
