<?xml version="1.0" encoding="UTF-8"?>
<svg xmlns="http://www.w3.org/2000/svg" xmlns:xlink="http://www.w3.org/1999/xlink" width="240.15" height="203.813" viewBox="0 0 240.15 203.813">
<defs>
<g>
<g id="glyph-0-0">
<path d="M 4.5625 -3.171875 C 4.5625 -3.96875 4.515625 -4.765625 4.171875 -5.5 C 3.703125 -6.453125 2.890625 -6.609375 2.484375 -6.609375 C 1.890625 -6.609375 1.15625 -6.34375 0.75 -5.421875 C 0.4375 -4.75 0.390625 -3.96875 0.390625 -3.171875 C 0.390625 -2.4375 0.421875 -1.53125 0.828125 -0.78125 C 1.265625 0.015625 1.984375 0.21875 2.46875 0.21875 C 3 0.21875 3.765625 0.015625 4.203125 -0.9375 C 4.515625 -1.625 4.5625 -2.390625 4.5625 -3.171875 Z M 2.46875 0 C 2.078125 0 1.5 -0.25 1.3125 -1.203125 C 1.203125 -1.796875 1.203125 -2.703125 1.203125 -3.296875 C 1.203125 -3.921875 1.203125 -4.578125 1.296875 -5.125 C 1.484375 -6.296875 2.21875 -6.390625 2.46875 -6.390625 C 2.796875 -6.390625 3.453125 -6.21875 3.640625 -5.234375 C 3.734375 -4.671875 3.734375 -3.921875 3.734375 -3.296875 C 3.734375 -2.546875 3.734375 -1.875 3.625 -1.234375 C 3.484375 -0.296875 2.921875 0 2.46875 0 Z M 2.46875 0 "/>
</g>
<g id="glyph-0-1">
<path d="M 4.453125 -2 C 4.453125 -3.171875 3.640625 -4.171875 2.5625 -4.171875 C 2.09375 -4.171875 1.671875 -4.015625 1.3125 -3.65625 L 1.3125 -5.59375 C 1.515625 -5.53125 1.828125 -5.46875 2.15625 -5.46875 C 3.375 -5.46875 4.0625 -6.375 4.0625 -6.5 C 4.0625 -6.5625 4.03125 -6.609375 3.96875 -6.609375 C 3.953125 -6.609375 3.9375 -6.609375 3.890625 -6.578125 C 3.6875 -6.484375 3.203125 -6.296875 2.546875 -6.296875 C 2.140625 -6.296875 1.6875 -6.359375 1.21875 -6.5625 C 1.140625 -6.59375 1.125 -6.59375 1.09375 -6.59375 C 1 -6.59375 1 -6.515625 1 -6.359375 L 1 -3.421875 C 1 -3.25 1 -3.171875 1.140625 -3.171875 C 1.203125 -3.171875 1.234375 -3.1875 1.265625 -3.25 C 1.375 -3.40625 1.75 -3.953125 2.546875 -3.953125 C 3.0625 -3.953125 3.3125 -3.5 3.390625 -3.3125 C 3.546875 -2.953125 3.578125 -2.5625 3.578125 -2.0625 C 3.578125 -1.71875 3.578125 -1.125 3.328125 -0.703125 C 3.09375 -0.3125 2.734375 -0.0625 2.265625 -0.0625 C 1.546875 -0.0625 0.984375 -0.578125 0.8125 -1.171875 C 0.84375 -1.15625 0.875 -1.15625 0.984375 -1.15625 C 1.3125 -1.15625 1.484375 -1.40625 1.484375 -1.640625 C 1.484375 -1.875 1.3125 -2.125 0.984375 -2.125 C 0.84375 -2.125 0.5 -2.046875 0.5 -1.59375 C 0.5 -0.75 1.1875 0.21875 2.296875 0.21875 C 3.4375 0.21875 4.453125 -0.734375 4.453125 -2 Z M 4.453125 -2 "/>
</g>
<g id="glyph-0-2">
<path d="M 2.921875 -6.34375 C 2.921875 -6.59375 2.921875 -6.609375 2.6875 -6.609375 C 2.078125 -5.96875 1.203125 -5.96875 0.890625 -5.96875 L 0.890625 -5.671875 C 1.078125 -5.671875 1.671875 -5.671875 2.1875 -5.921875 L 2.1875 -0.78125 C 2.1875 -0.421875 2.15625 -0.3125 1.265625 -0.3125 L 0.9375 -0.3125 L 0.9375 0 C 1.296875 -0.03125 2.15625 -0.03125 2.546875 -0.03125 C 2.953125 -0.03125 3.8125 -0.03125 4.15625 0 L 4.15625 -0.3125 L 3.84375 -0.3125 C 2.953125 -0.3125 2.921875 -0.421875 2.921875 -0.78125 Z M 2.921875 -6.34375 "/>
</g>
<g id="glyph-0-3">
<path d="M 1.265625 -0.765625 L 2.3125 -1.78125 C 3.859375 -3.15625 4.453125 -3.6875 4.453125 -4.6875 C 4.453125 -5.8125 3.5625 -6.609375 2.34375 -6.609375 C 1.234375 -6.609375 0.5 -5.6875 0.5 -4.8125 C 0.5 -4.25 0.984375 -4.25 1.015625 -4.25 C 1.1875 -4.25 1.53125 -4.375 1.53125 -4.78125 C 1.53125 -5.046875 1.359375 -5.296875 1.015625 -5.296875 C 0.9375 -5.296875 0.90625 -5.296875 0.890625 -5.28125 C 1.109375 -5.9375 1.640625 -6.296875 2.21875 -6.296875 C 3.125 -6.296875 3.546875 -5.5 3.546875 -4.6875 C 3.546875 -3.890625 3.0625 -3.109375 2.515625 -2.484375 L 0.609375 -0.359375 C 0.5 -0.265625 0.5 -0.234375 0.5 0 L 4.171875 0 L 4.453125 -1.71875 L 4.203125 -1.71875 C 4.15625 -1.421875 4.09375 -0.984375 3.984375 -0.84375 C 3.921875 -0.765625 3.265625 -0.765625 3.046875 -0.765625 Z M 1.265625 -0.765625 "/>
</g>
<g id="glyph-0-4">
<path d="M 2.875 -3.5 C 3.6875 -3.765625 4.265625 -4.453125 4.265625 -5.234375 C 4.265625 -6.046875 3.390625 -6.609375 2.4375 -6.609375 C 1.4375 -6.609375 0.6875 -6.015625 0.6875 -5.265625 C 0.6875 -4.9375 0.90625 -4.75 1.1875 -4.75 C 1.5 -4.75 1.703125 -4.953125 1.703125 -5.25 C 1.703125 -5.75 1.234375 -5.75 1.078125 -5.75 C 1.390625 -6.234375 2.046875 -6.359375 2.40625 -6.359375 C 2.8125 -6.359375 3.359375 -6.140625 3.359375 -5.25 C 3.359375 -5.125 3.328125 -4.546875 3.078125 -4.125 C 2.78125 -3.640625 2.4375 -3.609375 2.1875 -3.609375 C 2.109375 -3.59375 1.875 -3.578125 1.8125 -3.578125 C 1.71875 -3.5625 1.65625 -3.546875 1.65625 -3.453125 C 1.65625 -3.34375 1.71875 -3.34375 1.890625 -3.34375 L 2.328125 -3.34375 C 3.140625 -3.34375 3.515625 -2.671875 3.515625 -1.703125 C 3.515625 -0.34375 2.828125 -0.0625 2.390625 -0.0625 C 1.96875 -0.0625 1.21875 -0.234375 0.875 -0.8125 C 1.21875 -0.765625 1.53125 -0.984375 1.53125 -1.359375 C 1.53125 -1.71875 1.265625 -1.921875 0.96875 -1.921875 C 0.734375 -1.921875 0.421875 -1.78125 0.421875 -1.34375 C 0.421875 -0.4375 1.34375 0.21875 2.421875 0.21875 C 3.625 0.21875 4.53125 -0.6875 4.53125 -1.703125 C 4.53125 -2.515625 3.90625 -3.28125 2.875 -3.5 Z M 2.875 -3.5 "/>
</g>
<g id="glyph-0-5">
<path d="M 2.921875 -1.640625 L 2.921875 -0.78125 C 2.921875 -0.421875 2.890625 -0.3125 2.15625 -0.3125 L 1.953125 -0.3125 L 1.953125 0 C 2.359375 -0.03125 2.875 -0.03125 3.296875 -0.03125 C 3.703125 -0.03125 4.234375 -0.03125 4.640625 0 L 4.640625 -0.3125 L 4.4375 -0.3125 C 3.703125 -0.3125 3.6875 -0.421875 3.6875 -0.78125 L 3.6875 -1.640625 L 4.671875 -1.640625 L 4.671875 -1.9375 L 3.6875 -1.9375 L 3.6875 -6.453125 C 3.6875 -6.65625 3.6875 -6.71875 3.515625 -6.71875 C 3.4375 -6.71875 3.40625 -6.71875 3.328125 -6.59375 L 0.28125 -1.9375 L 0.28125 -1.640625 Z M 2.96875 -1.9375 L 0.5625 -1.9375 L 2.96875 -5.640625 Z M 2.96875 -1.9375 "/>
</g>
<g id="glyph-1-0">
<path d="M 1.90625 -0.53125 C 1.90625 -0.8125 1.671875 -1.046875 1.375 -1.046875 C 1.09375 -1.046875 0.859375 -0.8125 0.859375 -0.53125 C 0.859375 -0.234375 1.09375 0 1.375 0 C 1.671875 0 1.90625 -0.234375 1.90625 -0.53125 Z M 1.90625 -0.53125 "/>
</g>
<g id="glyph-2-0">
<path d="M 3.109375 -3.03125 C 3.046875 -3.15625 2.8125 -3.5 2.328125 -3.5 C 1.375 -3.5 0.34375 -2.390625 0.34375 -1.21875 C 0.34375 -0.390625 0.875 0.078125 1.484375 0.078125 C 2 0.078125 2.421875 -0.328125 2.578125 -0.484375 C 2.71875 0.0625 3.25 0.078125 3.34375 0.078125 C 3.71875 0.078125 3.890625 -0.21875 3.953125 -0.359375 C 4.125 -0.640625 4.234375 -1.109375 4.234375 -1.140625 C 4.234375 -1.1875 4.203125 -1.234375 4.109375 -1.234375 C 4.015625 -1.234375 4 -1.1875 3.9375 -0.984375 C 3.828125 -0.5625 3.6875 -0.140625 3.375 -0.140625 C 3.1875 -0.140625 3.125 -0.296875 3.125 -0.515625 C 3.125 -0.65625 3.1875 -0.921875 3.234375 -1.125 C 3.28125 -1.3125 3.40625 -1.796875 3.4375 -1.9375 L 3.59375 -2.546875 C 3.640625 -2.734375 3.71875 -3.0625 3.71875 -3.109375 C 3.71875 -3.28125 3.578125 -3.34375 3.46875 -3.34375 C 3.34375 -3.34375 3.15625 -3.265625 3.109375 -3.03125 Z M 2.578125 -0.859375 C 2.171875 -0.3125 1.765625 -0.140625 1.515625 -0.140625 C 1.140625 -0.140625 0.953125 -0.46875 0.953125 -0.890625 C 0.953125 -1.265625 1.171875 -2.109375 1.34375 -2.453125 C 1.578125 -2.9375 1.96875 -3.28125 2.328125 -3.28125 C 2.84375 -3.28125 3 -2.703125 3 -2.609375 C 3 -2.578125 2.796875 -1.796875 2.75 -1.59375 C 2.65625 -1.21875 2.65625 -1.203125 2.578125 -0.859375 Z M 2.578125 -0.859375 "/>
</g>
<g id="glyph-2-1">
<path d="M 1.9375 -5.265625 C 1.9375 -5.28125 1.96875 -5.390625 1.96875 -5.390625 C 1.96875 -5.4375 1.9375 -5.515625 1.84375 -5.515625 C 1.8125 -5.515625 1.5625 -5.484375 1.375 -5.46875 L 0.9375 -5.4375 C 0.765625 -5.421875 0.6875 -5.40625 0.6875 -5.265625 C 0.6875 -5.15625 0.796875 -5.15625 0.890625 -5.15625 C 1.265625 -5.15625 1.265625 -5.109375 1.265625 -5.046875 C 1.265625 -5 1.1875 -4.671875 1.140625 -4.5 L 0.453125 -1.734375 C 0.390625 -1.453125 0.390625 -1.34375 0.390625 -1.203125 C 0.390625 -0.390625 0.890625 0.078125 1.5 0.078125 C 2.46875 0.078125 3.5 -1.046875 3.5 -2.203125 C 3.5 -2.984375 2.984375 -3.5 2.34375 -3.5 C 1.90625 -3.5 1.5625 -3.21875 1.390625 -3.0625 Z M 1.5 -0.140625 C 1.21875 -0.140625 0.921875 -0.359375 0.921875 -0.9375 C 0.921875 -1.15625 0.953125 -1.359375 1.0625 -1.734375 C 1.109375 -1.96875 1.171875 -2.1875 1.234375 -2.421875 C 1.265625 -2.5625 1.265625 -2.578125 1.359375 -2.703125 C 1.640625 -3.03125 2 -3.28125 2.328125 -3.28125 C 2.71875 -3.28125 2.875 -2.890625 2.875 -2.53125 C 2.875 -2.234375 2.703125 -1.390625 2.453125 -0.921875 C 2.25 -0.484375 1.875 -0.140625 1.5 -0.140625 Z M 1.5 -0.140625 "/>
</g>
<g id="glyph-3-0">
<path d="M 5.796875 -2.640625 C 5.921875 -2.640625 6.078125 -2.640625 6.078125 -2.828125 C 6.078125 -3.015625 5.890625 -3.015625 5.765625 -3.015625 L 0.78125 -3.015625 C 0.65625 -3.015625 0.46875 -3.015625 0.46875 -2.828125 C 0.46875 -2.640625 0.625 -2.640625 0.75 -2.640625 Z M 5.765625 -0.953125 C 5.890625 -0.953125 6.078125 -0.953125 6.078125 -1.140625 C 6.078125 -1.328125 5.921875 -1.328125 5.796875 -1.328125 L 0.75 -1.328125 C 0.625 -1.328125 0.46875 -1.328125 0.46875 -1.140625 C 0.46875 -0.953125 0.65625 -0.953125 0.78125 -0.953125 Z M 5.765625 -0.953125 "/>
</g>
<g id="glyph-3-1">
<path d="M 2.5 -5.0625 C 2.5 -5.265625 2.46875 -5.28125 2.265625 -5.28125 C 1.9375 -4.953125 1.515625 -4.765625 0.765625 -4.765625 L 0.765625 -4.515625 C 0.96875 -4.515625 1.40625 -4.515625 1.859375 -4.71875 L 1.859375 -0.65625 C 1.859375 -0.359375 1.84375 -0.265625 1.09375 -0.265625 L 0.8125 -0.265625 L 0.8125 0 C 1.140625 -0.03125 1.8125 -0.03125 2.171875 -0.03125 C 2.53125 -0.03125 3.21875 -0.03125 3.546875 0 L 3.546875 -0.265625 L 3.265625 -0.265625 C 2.515625 -0.265625 2.5 -0.359375 2.5 -0.65625 Z M 2.5 -5.0625 "/>
</g>
<g id="glyph-3-2">
<path d="M 3.875 -2.53125 C 3.875 -3.375 3.796875 -3.890625 3.53125 -4.40625 C 3.1875 -5.109375 2.546875 -5.28125 2.109375 -5.28125 C 1.109375 -5.28125 0.734375 -4.53125 0.625 -4.3125 C 0.34375 -3.734375 0.328125 -2.9375 0.328125 -2.53125 C 0.328125 -2.015625 0.34375 -1.203125 0.734375 -0.578125 C 1.09375 0.015625 1.6875 0.171875 2.109375 0.171875 C 2.484375 0.171875 3.171875 0.046875 3.5625 -0.734375 C 3.859375 -1.3125 3.875 -2.015625 3.875 -2.53125 Z M 2.109375 -0.0625 C 1.828125 -0.0625 1.28125 -0.1875 1.125 -1.015625 C 1.03125 -1.46875 1.03125 -2.21875 1.03125 -2.625 C 1.03125 -3.171875 1.03125 -3.734375 1.125 -4.171875 C 1.28125 -4.984375 1.90625 -5.0625 2.109375 -5.0625 C 2.375 -5.0625 2.921875 -4.921875 3.078125 -4.203125 C 3.171875 -3.765625 3.171875 -3.171875 3.171875 -2.625 C 3.171875 -2.15625 3.171875 -1.4375 3.078125 -1 C 2.90625 -0.171875 2.359375 -0.0625 2.109375 -0.0625 Z M 2.109375 -0.0625 "/>
</g>
<g id="glyph-3-3">
<path d="M 1.109375 -4.453125 C 1.21875 -4.421875 1.53125 -4.34375 1.859375 -4.34375 C 2.859375 -4.34375 3.453125 -5.046875 3.453125 -5.171875 C 3.453125 -5.25 3.40625 -5.28125 3.359375 -5.28125 C 3.34375 -5.28125 3.328125 -5.28125 3.265625 -5.234375 C 2.953125 -5.125 2.59375 -5.03125 2.15625 -5.03125 C 1.6875 -5.03125 1.296875 -5.140625 1.0625 -5.234375 C 0.96875 -5.28125 0.953125 -5.28125 0.953125 -5.28125 C 0.84375 -5.28125 0.84375 -5.1875 0.84375 -5.046875 L 0.84375 -2.71875 C 0.84375 -2.578125 0.84375 -2.484375 0.96875 -2.484375 C 1.046875 -2.484375 1.0625 -2.515625 1.109375 -2.578125 C 1.203125 -2.703125 1.5 -3.109375 2.171875 -3.109375 C 2.625 -3.109375 2.828125 -2.734375 2.90625 -2.59375 C 3.046875 -2.296875 3.0625 -1.9375 3.0625 -1.625 C 3.0625 -1.328125 3.046875 -0.90625 2.828125 -0.5625 C 2.671875 -0.3125 2.359375 -0.078125 1.9375 -0.078125 C 1.421875 -0.078125 0.90625 -0.390625 0.734375 -0.90625 C 0.75 -0.90625 0.796875 -0.90625 0.8125 -0.90625 C 1.03125 -0.90625 1.203125 -1.046875 1.203125 -1.296875 C 1.203125 -1.59375 0.96875 -1.6875 0.8125 -1.6875 C 0.671875 -1.6875 0.421875 -1.609375 0.421875 -1.265625 C 0.421875 -0.5625 1.046875 0.171875 1.953125 0.171875 C 2.9375 0.171875 3.78125 -0.609375 3.78125 -1.59375 C 3.78125 -2.515625 3.125 -3.328125 2.1875 -3.328125 C 1.78125 -3.328125 1.40625 -3.203125 1.109375 -2.921875 Z M 1.109375 -4.453125 "/>
</g>
<g id="glyph-3-4">
<path d="M 2.234375 -1.625 C 2.359375 -1.734375 2.703125 -2 2.828125 -2.109375 C 3.3125 -2.5625 3.78125 -3 3.78125 -3.71875 C 3.78125 -4.671875 3 -5.28125 2 -5.28125 C 1.046875 -5.28125 0.421875 -4.5625 0.421875 -3.84375 C 0.421875 -3.453125 0.734375 -3.40625 0.84375 -3.40625 C 1.015625 -3.40625 1.25 -3.53125 1.25 -3.828125 C 1.25 -4.234375 0.859375 -4.234375 0.765625 -4.234375 C 0.984375 -4.8125 1.53125 -5.015625 1.90625 -5.015625 C 2.65625 -5.015625 3.03125 -4.390625 3.03125 -3.71875 C 3.03125 -2.890625 2.453125 -2.296875 1.515625 -1.328125 L 0.515625 -0.296875 C 0.421875 -0.21875 0.421875 -0.203125 0.421875 0 L 3.5625 0 L 3.78125 -1.421875 L 3.546875 -1.421875 C 3.515625 -1.265625 3.453125 -0.859375 3.359375 -0.71875 C 3.3125 -0.65625 2.703125 -0.65625 2.578125 -0.65625 L 1.171875 -0.65625 Z M 2.234375 -1.625 "/>
</g>
</g>
<clipPath id="clip-0">
<path clip-rule="nonzero" d="M 25.589844 9.464844 L 233 9.464844 L 233 184.058594 L 25.589844 184.058594 Z M 25.589844 9.464844 "/>
</clipPath>
<clipPath id="clip-1">
<path clip-rule="nonzero" d="M 25.589844 68 L 233 68 L 233 184.058594 L 25.589844 184.058594 Z M 25.589844 68 "/>
</clipPath>
<clipPath id="clip-2">
<path clip-rule="nonzero" d="M 25.589844 138 L 233 138 L 233 184.058594 L 25.589844 184.058594 Z M 25.589844 138 "/>
</clipPath>
</defs>
<path fill="none" stroke-width="0.19925" stroke-linecap="butt" stroke-linejoin="miter" stroke="rgb(50%, 50%, 50%)" stroke-opacity="1" stroke-miterlimit="10" d="M -0.000582162 -2.126549 L -0.000582162 2.126734 M 23.896201 -2.126549 L 23.896201 2.126734 M 47.792984 -2.126549 L 47.792984 2.126734 M 71.689768 -2.126549 L 71.689768 2.126734 M 95.586551 -2.126549 L 95.586551 2.126734 M 119.483334 -2.126549 L 119.483334 2.126734 M 143.380117 -2.126549 L 143.380117 2.126734 M 167.276901 -2.126549 L 167.276901 2.126734 M 191.173684 -2.126549 L 191.173684 2.126734 " transform="matrix(0.996473, 0, 0, -0.996473, 25.590424, 184.056733)"/>
<path fill="none" stroke-width="0.19925" stroke-linecap="butt" stroke-linejoin="miter" stroke="rgb(50%, 50%, 50%)" stroke-opacity="1" stroke-miterlimit="10" d="M -2.125263 -0.00186735 L 2.124099 -0.00186735 M -2.125263 24.847494 L 2.124099 24.847494 M -2.125263 49.692936 L 2.124099 49.692936 M -2.125263 74.542298 L 2.124099 74.542298 M -2.125263 99.387739 L 2.124099 99.387739 M -2.125263 124.233181 L 2.124099 124.233181 M -2.125263 149.082543 L 2.124099 149.082543 M -2.125263 173.927984 L 2.124099 173.927984 " transform="matrix(0.996473, 0, 0, -0.996473, 25.590424, 184.056733)"/>
<path fill="none" stroke-width="0.3985" stroke-linecap="butt" stroke-linejoin="miter" stroke="rgb(0%, 0%, 0%)" stroke-opacity="1" stroke-miterlimit="10" d="M -0.000582162 -0.00186735 L 208.296576 -0.00186735 " transform="matrix(0.996473, 0, 0, -0.996473, 25.590424, 184.056733)"/>
<path fill-rule="nonzero" fill="rgb(0%, 0%, 0%)" fill-opacity="1" d="M 235.136719 184.058594 L 231.960938 182.46875 L 233.152344 184.058594 L 231.960938 185.644531 "/>
<path fill="none" stroke-width="0.3985" stroke-linecap="butt" stroke-linejoin="miter" stroke="rgb(0%, 0%, 0%)" stroke-opacity="1" stroke-miterlimit="10" d="M -0.000582162 -0.00186735 L -0.000582162 173.218451 " transform="matrix(0.996473, 0, 0, -0.996473, 25.590424, 184.056733)"/>
<path fill-rule="nonzero" fill="rgb(0%, 0%, 0%)" fill-opacity="1" d="M 25.589844 9.464844 L 24.003906 12.640625 L 25.589844 11.449219 L 27.179688 12.640625 "/>
<g fill="rgb(0%, 0%, 0%)" fill-opacity="1">
<use xlink:href="#glyph-0-0" x="23.109206" y="196.080177"/>
</g>
<g fill="rgb(0%, 0%, 0%)" fill-opacity="1">
<use xlink:href="#glyph-0-0" x="43.060589" y="196.080177"/>
</g>
<g fill="rgb(0%, 0%, 0%)" fill-opacity="1">
<use xlink:href="#glyph-1-0" x="48.024021" y="196.080177"/>
</g>
<g fill="rgb(0%, 0%, 0%)" fill-opacity="1">
<use xlink:href="#glyph-0-1" x="50.781262" y="196.080177"/>
</g>
<g fill="rgb(0%, 0%, 0%)" fill-opacity="1">
<use xlink:href="#glyph-0-2" x="70.732645" y="196.080177"/>
</g>
<g fill="rgb(0%, 0%, 0%)" fill-opacity="1">
<use xlink:href="#glyph-0-2" x="90.685024" y="196.080177"/>
</g>
<g fill="rgb(0%, 0%, 0%)" fill-opacity="1">
<use xlink:href="#glyph-1-0" x="95.648457" y="196.080177"/>
</g>
<g fill="rgb(0%, 0%, 0%)" fill-opacity="1">
<use xlink:href="#glyph-0-1" x="98.405698" y="196.080177"/>
</g>
<g fill="rgb(0%, 0%, 0%)" fill-opacity="1">
<use xlink:href="#glyph-0-3" x="118.35708" y="196.080177"/>
</g>
<g fill="rgb(0%, 0%, 0%)" fill-opacity="1">
<use xlink:href="#glyph-0-3" x="138.308463" y="196.080177"/>
</g>
<g fill="rgb(0%, 0%, 0%)" fill-opacity="1">
<use xlink:href="#glyph-1-0" x="143.272892" y="196.080177"/>
</g>
<g fill="rgb(0%, 0%, 0%)" fill-opacity="1">
<use xlink:href="#glyph-0-1" x="146.030133" y="196.080177"/>
</g>
<g fill="rgb(0%, 0%, 0%)" fill-opacity="1">
<use xlink:href="#glyph-0-4" x="165.981516" y="196.080177"/>
</g>
<g fill="rgb(0%, 0%, 0%)" fill-opacity="1">
<use xlink:href="#glyph-0-4" x="185.932899" y="196.080177"/>
</g>
<g fill="rgb(0%, 0%, 0%)" fill-opacity="1">
<use xlink:href="#glyph-1-0" x="190.897328" y="196.080177"/>
</g>
<g fill="rgb(0%, 0%, 0%)" fill-opacity="1">
<use xlink:href="#glyph-0-1" x="193.654568" y="196.080177"/>
</g>
<g fill="rgb(0%, 0%, 0%)" fill-opacity="1">
<use xlink:href="#glyph-0-5" x="213.605951" y="196.080177"/>
</g>
<g fill="rgb(0%, 0%, 0%)" fill-opacity="1">
<use xlink:href="#glyph-0-0" x="15.000905" y="187.255411"/>
</g>
<g fill="rgb(0%, 0%, 0%)" fill-opacity="1">
<use xlink:href="#glyph-0-0" x="7.279235" y="162.497043"/>
</g>
<g fill="rgb(0%, 0%, 0%)" fill-opacity="1">
<use xlink:href="#glyph-1-0" x="12.243664" y="162.497043"/>
</g>
<g fill="rgb(0%, 0%, 0%)" fill-opacity="1">
<use xlink:href="#glyph-0-1" x="15.000905" y="162.497043"/>
</g>
<g fill="rgb(0%, 0%, 0%)" fill-opacity="1">
<use xlink:href="#glyph-0-2" x="15.000905" y="137.737677"/>
</g>
<g fill="rgb(0%, 0%, 0%)" fill-opacity="1">
<use xlink:href="#glyph-0-2" x="7.279235" y="112.979308"/>
</g>
<g fill="rgb(0%, 0%, 0%)" fill-opacity="1">
<use xlink:href="#glyph-1-0" x="12.243664" y="112.979308"/>
</g>
<g fill="rgb(0%, 0%, 0%)" fill-opacity="1">
<use xlink:href="#glyph-0-1" x="15.000905" y="112.979308"/>
</g>
<g fill="rgb(0%, 0%, 0%)" fill-opacity="1">
<use xlink:href="#glyph-0-3" x="15.000905" y="88.219943"/>
</g>
<g fill="rgb(0%, 0%, 0%)" fill-opacity="1">
<use xlink:href="#glyph-0-3" x="7.279235" y="63.461574"/>
</g>
<g fill="rgb(0%, 0%, 0%)" fill-opacity="1">
<use xlink:href="#glyph-1-0" x="12.243664" y="63.461574"/>
</g>
<g fill="rgb(0%, 0%, 0%)" fill-opacity="1">
<use xlink:href="#glyph-0-1" x="15.000905" y="63.461574"/>
</g>
<g fill="rgb(0%, 0%, 0%)" fill-opacity="1">
<use xlink:href="#glyph-0-4" x="15.000905" y="38.702209"/>
</g>
<g fill="rgb(0%, 0%, 0%)" fill-opacity="1">
<use xlink:href="#glyph-0-4" x="7.279235" y="13.94384"/>
</g>
<g fill="rgb(0%, 0%, 0%)" fill-opacity="1">
<use xlink:href="#glyph-1-0" x="12.243664" y="13.94384"/>
</g>
<g fill="rgb(0%, 0%, 0%)" fill-opacity="1">
<use xlink:href="#glyph-0-1" x="15.000905" y="13.94384"/>
</g>
<g clip-path="url(#clip-0)">
<path fill="none" stroke-width="1.19553" stroke-linecap="butt" stroke-linejoin="miter" stroke="rgb(19.216919%, 44.706726%, 71.763611%)" stroke-opacity="1" stroke-miterlimit="10" d="M 0.477667 159.282581 L 2.402424 68.289777 L 4.331102 49.003003 L 6.255859 39.316495 L 8.184537 33.193336 L 10.109294 28.869492 L 12.034051 25.607989 L 13.962729 23.036419 L 15.887486 20.943099 L 17.812243 19.194745 L 19.740921 17.712956 L 21.665678 16.438931 L 23.590435 15.32955 L 25.519113 14.353451 L 27.44387 13.487114 L 29.368627 12.710939 L 31.297305 12.013166 L 33.222062 11.382033 L 35.150739 10.809702 L 37.075497 10.284412 L 39.000254 9.806163 L 40.928931 9.363194 L 42.853689 8.955506 L 44.778446 8.579179 L 46.707123 8.230292 L 48.631881 7.904926 L 50.556638 7.60308 L 52.485315 7.316915 L 54.410073 7.050349 L 56.33875 6.803385 L 58.263507 6.56818 L 60.188265 6.344736 L 62.116942 6.136972 L 64.041699 5.940968 L 65.966457 5.752804 L 67.895134 5.576401 L 69.819891 5.411758 L 71.744649 5.251034 L 73.673326 5.098152 L 75.598083 4.957029 L 77.526761 4.819826 L 79.451518 4.686544 L 81.376275 4.561101 L 83.304953 4.443499 L 85.22971 4.329817 L 87.154467 4.220054 L 89.083145 4.114212 L 92.932659 3.918209 L 94.861337 3.828047 L 96.786094 3.737885 L 98.710851 3.651643 L 100.639529 3.569322 L 102.564286 3.49092 L 104.492964 3.416439 L 106.417721 3.341957 L 108.342478 3.271396 L 110.271156 3.204755 L 112.195913 3.138114 L 114.12067 3.075392 L 116.049348 3.012671 L 119.898862 2.895069 L 121.82754 2.840188 L 123.752297 2.785307 L 125.680974 2.734346 L 129.530489 2.632424 L 131.459166 2.585383 L 133.383924 2.542262 L 135.308681 2.495221 L 137.237358 2.4521 L 139.162116 2.408979 L 141.086873 2.369779 L 143.01555 2.330578 L 144.940308 2.291377 L 146.868985 2.252176 L 150.7185 2.181615 L 152.647177 2.146334 L 154.571934 2.114974 L 156.496692 2.079693 L 158.425369 2.048332 L 162.274884 1.985611 L 164.203561 1.958171 L 166.128318 1.92681 L 168.056996 1.89937 L 171.90651 1.844488 L 173.835188 1.820968 L 175.759945 1.793527 L 177.684702 1.770007 L 179.61338 1.742566 L 183.462894 1.695526 L 185.391572 1.675925 L 189.241086 1.628884 L 191.169764 1.609284 " transform="matrix(0.996473, 0, 0, -0.996473, 25.590424, 184.056733)"/>
</g>
<g clip-path="url(#clip-1)">
<path fill="none" stroke-width="1.19553" stroke-linecap="butt" stroke-linejoin="miter" stroke="rgb(100%, 50%, 0%)" stroke-opacity="1" stroke-miterlimit="10" d="M 0.477667 -0.00186735 L 13.962729 -0.00186735 L 15.887486 0.00205273 L 17.812243 0.00205273 L 19.740921 0.017733 L 21.665678 0.103975 L 23.590435 0.441101 L 25.519113 1.444641 L 27.44387 3.816287 L 29.368627 8.465497 L 31.297305 16.203727 L 33.222062 27.20346 L 35.150739 41.13933 L 37.075497 56.447227 L 39.000254 71.55128 L 40.928931 84.797217 L 42.853689 94.013315 L 44.778446 99.011412 L 46.707123 99.497502 L 48.631881 95.883191 L 50.556638 89.11714 L 52.485315 79.775599 L 54.410073 69.626522 L 56.33875 59.18736 L 58.263507 49.222527 L 60.188265 40.037789 L 62.116942 31.962432 L 64.041699 25.11406 L 65.966457 19.47699 L 67.895134 14.906182 L 69.819891 11.248751 L 71.744649 8.402776 L 73.673326 6.207533 L 75.598083 4.572861 L 77.526761 3.338037 L 79.451518 2.412899 L 81.376275 1.742566 L 83.304953 1.240797 L 85.22971 0.88407 L 87.154467 0.629265 L 89.083145 0.445021 L 91.007902 0.315659 L 92.932659 0.221577 L 94.861337 0.154936 L 96.786094 0.107895 L 98.710851 0.0765342 L 100.639529 0.0530137 L 102.564286 0.0373334 L 104.492964 0.0255732 L 106.417721 0.017733 L 108.342478 0.013813 L 110.271156 0.00989288 L 112.195913 0.0059728 L 114.12067 0.0059728 L 116.049348 0.00205273 L 131.459166 0.00205273 L 133.383924 -0.00186735 L 191.169764 -0.00186735 " transform="matrix(0.996473, 0, 0, -0.996473, 25.590424, 184.056733)"/>
</g>
<g clip-path="url(#clip-2)">
<path fill="none" stroke-width="1.19553" stroke-linecap="butt" stroke-linejoin="miter" stroke="rgb(75%, 0%, 25%)" stroke-opacity="1" stroke-miterlimit="10" d="M 0.477667 1.127115 L 2.402424 9.15935 L 4.331102 16.395811 L 6.255859 21.601671 L 8.184537 25.012138 L 10.109294 27.046657 L 12.034051 28.093317 L 13.962729 28.469645 L 15.887486 28.348122 L 17.812243 27.920834 L 19.740921 27.242661 L 21.665678 26.446885 L 23.590435 25.568788 L 25.519113 24.647571 L 27.44387 23.710672 L 29.368627 22.777694 L 31.297305 21.860396 L 33.222062 20.970539 L 35.150739 20.108123 L 37.075497 19.280986 L 39.000254 18.493051 L 40.928931 17.732556 L 42.853689 17.011262 L 44.778446 16.329169 L 46.707123 15.674517 L 48.631881 15.051224 L 50.556638 14.463213 L 52.485315 13.906562 L 54.410073 13.377352 L 56.33875 12.871662 L 58.263507 12.393413 L 60.188265 11.938684 L 62.116942 11.511396 L 64.041699 11.099788 L 65.966457 10.7117 L 67.895134 10.339293 L 69.819891 9.986486 L 71.744649 9.65328 L 73.673326 9.331834 L 75.598083 9.026068 L 77.526761 8.735982 L 79.451518 8.457657 L 81.376275 8.195012 L 83.304953 7.940207 L 85.22971 7.701082 L 87.154467 7.465877 L 89.083145 7.246353 L 91.007902 7.034669 L 92.932659 6.830825 L 94.861337 6.638741 L 96.786094 6.450578 L 98.710851 6.274174 L 100.639529 6.101691 L 102.564286 5.937048 L 104.492964 5.776325 L 106.417721 5.623442 L 108.342478 5.478399 L 110.271156 5.337276 L 114.12067 5.070711 L 116.049348 4.949189 L 117.974105 4.827666 L 119.898862 4.710064 L 121.82754 4.596382 L 123.752297 4.48662 L 125.680974 4.384698 L 127.605732 4.282776 L 129.530489 4.184774 L 131.459166 4.090692 L 133.383924 3.99661 L 135.308681 3.906448 L 137.237358 3.820207 L 141.086873 3.655564 L 143.01555 3.581082 L 144.940308 3.502681 L 146.868985 3.432119 L 150.7185 3.290996 L 152.647177 3.224355 L 156.496692 3.098913 L 158.425369 3.036192 L 160.350126 2.97739 L 162.274884 2.922509 L 164.203561 2.863708 L 166.128318 2.808827 L 168.056996 2.757866 L 171.90651 2.655944 L 173.835188 2.608903 L 177.684702 2.514821 L 179.61338 2.471701 L 183.462894 2.385459 L 185.391572 2.342338 L 189.241086 2.263937 L 191.169764 2.224736 " transform="matrix(0.996473, 0, 0, -0.996473, 25.590424, 184.056733)"/>
</g>
<path fill-rule="nonzero" fill="rgb(100%, 100%, 100%)" fill-opacity="1" stroke-width="0.3985" stroke-linecap="butt" stroke-linejoin="miter" stroke="rgb(0%, 0%, 0%)" stroke-opacity="1" stroke-miterlimit="10" d="M 113.136731 134.47634 L 205.881809 134.47634 L 205.881809 171.505377 L 113.136731 171.505377 Z M 113.136731 134.47634 " transform="matrix(0.996473, 0, 0, -0.996473, 25.590424, 184.056733)"/>
<path fill="none" stroke-width="1.19553" stroke-linecap="butt" stroke-linejoin="miter" stroke="rgb(19.216919%, 44.706726%, 71.763611%)" stroke-opacity="1" stroke-miterlimit="10" d="M 0.00060064 -0.00164798 L 17.00981 -0.00164798 " transform="matrix(0.996473, 0, 0, -0.996473, 141.901745, 20.63117)"/>
<g fill="rgb(0%, 0%, 0%)" fill-opacity="1">
<use xlink:href="#glyph-2-0" x="161.430624" y="22.645042"/>
</g>
<g fill="rgb(0%, 0%, 0%)" fill-opacity="1">
<use xlink:href="#glyph-3-0" x="168.256464" y="22.645042"/>
</g>
<g fill="rgb(0%, 0%, 0%)" fill-opacity="1">
<use xlink:href="#glyph-3-1" x="177.162611" y="22.645042"/>
</g>
<g fill="rgb(0%, 0%, 0%)" fill-opacity="1">
<use xlink:href="#glyph-2-1" x="189.822133" y="22.645042"/>
</g>
<g fill="rgb(0%, 0%, 0%)" fill-opacity="1">
<use xlink:href="#glyph-3-0" x="195.77606" y="22.645042"/>
</g>
<g fill="rgb(0%, 0%, 0%)" fill-opacity="1">
<use xlink:href="#glyph-3-1" x="204.682207" y="22.645042"/>
</g>
<path fill="none" stroke-width="1.19553" stroke-linecap="butt" stroke-linejoin="miter" stroke="rgb(100%, 50%, 0%)" stroke-opacity="1" stroke-miterlimit="10" d="M 0.00060064 0.00185855 L 17.00981 0.00185855 " transform="matrix(0.996473, 0, 0, -0.996473, 141.901745, 31.607321)"/>
<g fill="rgb(0%, 0%, 0%)" fill-opacity="1">
<use xlink:href="#glyph-2-0" x="161.430624" y="33.620196"/>
</g>
<g fill="rgb(0%, 0%, 0%)" fill-opacity="1">
<use xlink:href="#glyph-3-0" x="168.256464" y="33.620196"/>
</g>
<g fill="rgb(0%, 0%, 0%)" fill-opacity="1">
<use xlink:href="#glyph-3-1" x="177.162611" y="33.620196"/>
<use xlink:href="#glyph-3-2" x="181.38219" y="33.620196"/>
<use xlink:href="#glyph-3-2" x="185.601769" y="33.620196"/>
</g>
<g fill="rgb(0%, 0%, 0%)" fill-opacity="1">
<use xlink:href="#glyph-2-1" x="198.260267" y="33.620196"/>
</g>
<g fill="rgb(0%, 0%, 0%)" fill-opacity="1">
<use xlink:href="#glyph-3-0" x="204.214193" y="33.620196"/>
</g>
<g fill="rgb(0%, 0%, 0%)" fill-opacity="1">
<use xlink:href="#glyph-3-1" x="213.12034" y="33.620196"/>
<use xlink:href="#glyph-3-2" x="217.33992" y="33.620196"/>
<use xlink:href="#glyph-3-2" x="221.559499" y="33.620196"/>
</g>
<path fill="none" stroke-width="1.19553" stroke-linecap="butt" stroke-linejoin="miter" stroke="rgb(75%, 0%, 25%)" stroke-opacity="1" stroke-miterlimit="10" d="M 0.00060064 0.000445008 L 17.00981 0.000445008 " transform="matrix(0.996473, 0, 0, -0.996473, 141.901745, 42.582475)"/>
<g fill="rgb(0%, 0%, 0%)" fill-opacity="1">
<use xlink:href="#glyph-2-0" x="161.430624" y="44.59535"/>
</g>
<g fill="rgb(0%, 0%, 0%)" fill-opacity="1">
<use xlink:href="#glyph-3-0" x="168.256464" y="44.59535"/>
</g>
<g fill="rgb(0%, 0%, 0%)" fill-opacity="1">
<use xlink:href="#glyph-3-3" x="177.162611" y="44.59535"/>
</g>
<g fill="rgb(0%, 0%, 0%)" fill-opacity="1">
<use xlink:href="#glyph-2-1" x="189.822133" y="44.59535"/>
</g>
<g fill="rgb(0%, 0%, 0%)" fill-opacity="1">
<use xlink:href="#glyph-3-0" x="195.77606" y="44.59535"/>
</g>
<g fill="rgb(0%, 0%, 0%)" fill-opacity="1">
<use xlink:href="#glyph-3-4" x="204.682207" y="44.59535"/>
</g>
</svg>
