<svg xmlns="http://www.w3.org/2000/svg" viewBox="0 0 19687 4272" width="19687" height="4272">

    <defs>
      
<linearGradient id="paint0_linear_766_100" x1="902" y1="311" x2="902" y2="4151.5" gradientUnits="userSpaceOnUse">
<stop stop-color="#F4CA3A"/>
<stop offset="1" stop-color="#BA6300"/>
</linearGradient>
<linearGradient id="paint1_linear_766_100" x1="979.375" y1="855.122" x2="979.375" y2="4151.5" gradientUnits="userSpaceOnUse">
<stop stop-color="#D41217"/>
<stop offset="1" stop-color="#662669"/>
</linearGradient>
<linearGradient id="paint2_linear_766_100" x1="2629.62" y1="1034.25" x2="2629.63" y2="3410" gradientUnits="userSpaceOnUse">
<stop stop-color="#D41217"/>
<stop offset="1" stop-color="#662669"/>
</linearGradient>
<linearGradient id="paint3_linear_766_100" x1="1064.38" y1="120" x2="1064.38" y2="1216" gradientUnits="userSpaceOnUse">
<stop stop-color="#0055F3"/>
<stop offset="1" stop-color="#00D841"/>
</linearGradient>
<linearGradient id="paint4_linear_766_100" x1="2708.5" y1="1128" x2="2708.5" y2="2868.75" gradientUnits="userSpaceOnUse">
<stop stop-color="#0055F3"/>
<stop offset="1" stop-color="#00D841"/>
</linearGradient>
<linearGradient id="paint5_linear_766_100" x1="1140.88" y1="2963" x2="1140.88" y2="3599" gradientUnits="userSpaceOnUse">
<stop stop-color="#0055F3"/>
<stop offset="1" stop-color="#00D841"/>
</linearGradient>
<linearGradient id="paint6_linear_766_100" x1="2390.21" y1="1317" x2="2390.21" y2="2132.5" gradientUnits="userSpaceOnUse">
<stop stop-color="#F4CA3A"/>
<stop offset="1" stop-color="#BA6300"/>
</linearGradient>

      <radialGradient id="glowGrad" gradientUnits="userSpaceOnUse" cx="1588" cy="2360" r="3000">
        <stop id="g0" offset="0" stop-color="#ffffff" stop-opacity="1"/>
        <stop id="g1" offset="0.55" stop-color="#ffffff" stop-opacity="0.300"/>
        <stop offset="1" stop-color="#ffffff" stop-opacity="0"/>
      </radialGradient>
      <mask id="shapeMask" maskUnits="userSpaceOnUse" x="0" y="0" width="3696" height="4272"><path d="M426 484.5L1684 1216V3410L1380 3230.5V1408.62L426 855.122V4151.5L120 3975V311L426 484.5Z" fill="#fff" stroke="#fff" stroke-width="30" stroke-linejoin="round" stroke-linecap="round"/><path d="M749 1044V3599L1532.75 3148L1532 3512L749 3968L426 4151.5V855.122L749 1044Z" fill="#fff" stroke="#fff" stroke-width="30" stroke-linejoin="round" stroke-linecap="round"/><path d="M2005.75 2868.75L3575.25 1953V2322L2007 3236.5L1684 3410V1216L2008.75 1034.25L2005.75 2868.75Z" fill="#fff" stroke="#fff" stroke-width="30" stroke-linejoin="round" stroke-linecap="round"/><path d="M443 120L2008.75 1034.25L1684 1216L120 311L443 120Z" fill="#fff" stroke="#fff" stroke-width="30" stroke-linejoin="round" stroke-linecap="round"/><path d="M3575.25 1953L3260.75 2136.85L2005.75 2868.75L2008.5 2479L2939.42 1951.75L1841.75 1317L2166 1128L3575.25 1953Z" fill="#fff" stroke="#fff" stroke-width="30" stroke-linejoin="round" stroke-linecap="round"/><path d="M1222.5 2963L1532.75 3148L749 3599V3233L1222.5 2963Z" fill="#fff" stroke="#fff" stroke-width="30" stroke-linejoin="round" stroke-linecap="round"/><path d="M1841.75 1317L2939.42 1951.75L2621 2132.5L1841 1678.58L1841.75 1317Z" fill="#fff" stroke="#fff" stroke-width="30" stroke-linejoin="round" stroke-linecap="round"/></mask>
      <filter id="specFilter" x="-20%" y="-20%" width="140%" height="140%">
        <feGaussianBlur in="SourceAlpha" stdDeviation="63" result="blur" id="fBlur"/>
        <feSpecularLighting in="blur" surfaceScale="22" specularConstant="0.1" specularExponent="60" lighting-color="#ffffff" result="spec" id="fSpec">
          <fePointLight id="fLight" x="1588" y="2360" z="1660"/>
        </feSpecularLighting>
        <feComposite in="spec" in2="SourceAlpha" operator="in" result="specClip"/>
        <feMerge><feMergeNode in="SourceGraphic"/><feMergeNode in="specClip"/></feMerge>
      </filter>
    </defs>
    <g id="shapeGroup">
    <path d="M426 484.5L1684 1216V3410L1380 3230.5V1408.62L426 855.122V4151.5L120 3975V311L426 484.5Z" fill="url(#paint0_linear_766_100)" fill-opacity="1" stroke="#111111" stroke-width="30" stroke-linecap="round" stroke-linejoin="round"/>
    <path d="M749 1044V3599L1532.75 3148L1532 3512L749 3968L426 4151.5V855.122L749 1044Z" fill="url(#paint1_linear_766_100)" fill-opacity="1" stroke="#111111" stroke-width="30" stroke-linecap="round" stroke-linejoin="round"/>
    <path d="M2005.75 2868.75L3575.25 1953V2322L2007 3236.5L1684 3410V1216L2008.75 1034.25L2005.75 2868.75Z" fill="url(#paint2_linear_766_100)" fill-opacity="1" stroke="#111111" stroke-width="30" stroke-linecap="round" stroke-linejoin="round"/>
    <path d="M443 120L2008.75 1034.25L1684 1216L120 311L443 120Z" fill="url(#paint3_linear_766_100)" fill-opacity="1" stroke="#111111" stroke-width="30" stroke-linecap="round" stroke-linejoin="round"/>
    <path d="M3575.25 1953L3260.75 2136.85L2005.75 2868.75L2008.5 2479L2939.42 1951.75L1841.75 1317L2166 1128L3575.25 1953Z" fill="url(#paint4_linear_766_100)" fill-opacity="1" stroke="#111111" stroke-width="30" stroke-linecap="round" stroke-linejoin="round"/>
    <path d="M1222.5 2963L1532.75 3148L749 3599V3233L1222.5 2963Z" fill="url(#paint5_linear_766_100)" fill-opacity="1" stroke="#111111" stroke-width="30" stroke-linecap="round" stroke-linejoin="round"/>
    <path d="M1841.75 1317L2939.42 1951.75L2621 2132.5L1841 1678.58L1841.75 1317Z" fill="url(#paint6_linear_766_100)" fill-opacity="1" stroke="#111111" stroke-width="30" stroke-linecap="round" stroke-linejoin="round"/>
    </g>
    <rect id="glowRect" x="0" y="0" width="3696" height="4272" fill="url(#glowGrad)" mask="url(#shapeMask)" style="mix-blend-mode: overlay;"/>
  
<g fill="#ffffff"><g transform="translate(3876.0,2021.6) scale(11.1200)"><path d="M72.09 -49.09C72.09 -60.09 62.20 -68.59 45.59 -68.59L3.91 -68.59L3.91 -63.91L14.70 -63.91L14.70 -4.70L3.91 -4.70L3.91 0.00C7.70 -0.30 17.50 -0.30 21.80 -0.30C26.09 -0.30 35.91 -0.30 39.70 0.00L39.70 -4.70L28.91 -4.70L28.91 -30.20L46.59 -30.20C60.50 -30.20 72.09 -37.41 72.09 -49.09ZM56.80 -49.09C56.80 -42.00 56.80 -34.30 41.70 -34.30L28.30 -34.30L28.30 -63.91L41.80 -63.91C56.80 -63.91 56.80 -56.30 56.80 -49.09Z M131.15 0.00L131.15 -2.29L129.82 -2.29C125.38 -2.29 124.34 -2.81 123.53 -5.25L107.54 -51.50C107.17 -52.47 107.02 -52.98 105.84 -52.98C104.66 -52.98 104.43 -52.54 104.06 -51.50L88.75 -7.25C87.41 -3.48 84.45 -2.37 80.46 -2.29L80.46 0.00L88.01 -0.22L96.52 0.00L96.52 -2.29C92.82 -2.29 90.97 -4.14 90.97 -6.07C90.97 -6.29 91.04 -7.03 91.11 -7.18L94.52 -16.87L112.80 -16.87L116.72 -5.55C116.79 -5.25 116.94 -4.81 116.94 -4.51C116.94 -2.29 112.80 -2.29 110.80 -2.29L110.80 0.00C113.46 -0.22 118.64 -0.22 121.45 -0.22L131.15 0.00ZM111.98 -19.17L95.33 -19.17L103.62 -43.22L111.98 -19.17Z M184.84 -33.45L183.43 -50.10L138.22 -50.10L136.81 -33.45L138.66 -33.45C139.70 -45.36 140.81 -47.80 151.98 -47.80C153.32 -47.80 155.24 -47.80 155.98 -47.66C157.53 -47.36 157.53 -46.55 157.53 -44.84L157.53 -5.85C157.53 -3.33 157.53 -2.29 149.76 -2.29L146.80 -2.29L146.80 0.00C149.84 -0.22 157.39 -0.22 160.79 -0.22C164.19 -0.22 171.82 -0.22 174.85 0.00L174.85 -2.29L171.89 -2.29C164.12 -2.29 164.12 -3.33 164.12 -5.85L164.12 -44.84C164.12 -46.32 164.12 -47.36 165.45 -47.66C166.27 -47.80 168.26 -47.80 169.67 -47.80C180.84 -47.80 181.95 -45.36 182.99 -33.45L184.84 -33.45Z M238.53 -33.45L237.12 -50.10L191.91 -50.10L190.50 -33.45L192.35 -33.45C193.39 -45.36 194.50 -47.80 205.67 -47.80C207.01 -47.80 208.93 -47.80 209.67 -47.66C211.22 -47.36 211.22 -46.55 211.22 -44.84L211.22 -5.85C211.22 -3.33 211.22 -2.29 203.45 -2.29L200.49 -2.29L200.49 0.00C203.53 -0.22 211.08 -0.22 214.48 -0.22C217.88 -0.22 225.51 -0.22 228.54 0.00L228.54 -2.29L225.58 -2.29C217.81 -2.29 217.81 -3.33 217.81 -5.85L217.81 -44.84C217.81 -46.32 217.81 -47.36 219.14 -47.66C219.96 -47.80 221.95 -47.80 223.36 -47.80C234.53 -47.80 235.64 -45.36 236.68 -33.45L238.53 -33.45Z M289.78 -19.09L287.93 -19.09C286.08 -7.70 284.38 -2.29 271.65 -2.29L261.81 -2.29C258.33 -2.29 258.18 -2.81 258.18 -5.25L258.18 -25.01L264.84 -25.01C272.02 -25.01 272.83 -22.64 272.83 -16.35L274.68 -16.35L274.68 -35.96L272.83 -35.96C272.83 -29.60 272.02 -27.31 264.84 -27.31L258.18 -27.31L258.18 -45.07C258.18 -47.51 258.33 -48.03 261.81 -48.03L271.35 -48.03C282.67 -48.03 284.67 -43.96 285.86 -33.67L287.71 -33.67L285.63 -50.32L243.97 -50.32L243.97 -48.03L245.75 -48.03C251.45 -48.03 251.59 -47.21 251.59 -44.55L251.59 -5.77C251.59 -3.11 251.45 -2.29 245.75 -2.29L243.97 -2.29L243.97 0.00L286.67 0.00L289.78 -19.09Z M346.95 -6.51C346.95 -6.96 346.95 -7.77 346.00 -7.77C345.17 -7.77 345.17 -7.10 345.10 -6.59C344.65 -1.33 342.06 0.00 340.21 0.00C336.59 0.00 336.00 -3.77 334.96 -10.66L334.00 -16.58C332.68 -21.31 329.04 -23.75 324.97 -25.16C332.15 -26.94 337.92 -31.45 337.92 -37.22C337.92 -44.33 329.48 -50.54 318.62 -50.54L295.37 -50.54L295.37 -48.25L297.16 -48.25C302.84 -48.25 302.99 -47.43 302.99 -44.77L302.99 -5.77C302.99 -3.11 302.84 -2.29 297.16 -2.29L295.37 -2.29L295.37 0.00C298.03 -0.22 303.29 -0.22 306.17 -0.22C309.06 -0.22 314.31 -0.22 316.98 0.00L316.98 -2.29L315.20 -2.29C309.50 -2.29 309.37 -3.11 309.37 -5.77L309.37 -24.49L317.88 -24.49C319.05 -24.49 322.16 -24.49 324.75 -21.98C327.56 -19.31 327.56 -17.02 327.56 -12.06C327.56 -7.25 327.56 -4.29 330.59 -1.48C333.63 1.18 337.70 1.63 339.92 1.63C345.69 1.63 346.95 -4.44 346.95 -6.51ZM330.30 -37.22C330.30 -32.12 328.52 -26.12 317.57 -26.12L309.37 -26.12L309.37 -45.29C309.37 -46.99 309.37 -47.88 310.98 -48.10C311.72 -48.25 313.87 -48.25 315.35 -48.25C322.01 -48.25 330.30 -47.95 330.30 -37.22Z M402.93 -48.25L402.93 -50.54L394.29 -50.32L385.63 -50.54L385.63 -48.25C393.24 -48.25 393.24 -44.77 393.24 -42.77L393.24 -11.17L367.13 -49.58C366.45 -50.47 366.39 -50.54 364.97 -50.54L352.39 -50.54L352.39 -48.25L354.55 -48.25C355.66 -48.25 357.14 -48.17 358.25 -48.10C359.94 -47.88 360.01 -47.80 360.01 -46.40L360.01 -7.77C360.01 -5.77 360.01 -2.29 352.39 -2.29L352.39 0.00L361.05 -0.22L369.72 0.00L369.72 -2.29C362.10 -2.29 362.10 -5.77 362.10 -7.77L362.10 -46.25C362.47 -45.88 362.53 -45.81 362.84 -45.36L393.03 -0.96C393.68 -0.07 393.77 0.00 394.29 0.00C395.31 0.00 395.31 -0.52 395.31 -1.92L395.31 -42.77C395.31 -44.77 395.31 -48.25 402.93 -48.25Z M525.73 -9.50C525.73 -11.70 524.34 -11.70 523.34 -11.70C521.23 -11.70 521.14 -10.70 521.03 -9.41C520.53 -4.70 517.64 -2.50 514.64 -2.50C508.64 -2.50 507.73 -9.59 507.23 -13.80C507.03 -14.91 506.23 -21.80 506.14 -22.30C504.73 -29.30 499.23 -32.41 494.93 -34.00C506.53 -37.00 511.64 -43.50 511.64 -50.09C511.64 -60.20 500.64 -68.59 481.84 -68.59L443.84 -68.59L443.84 -63.91L454.64 -63.91L454.64 -4.70L443.84 -4.70L443.84 0.00C447.43 -0.30 457.23 -0.30 461.43 -0.30C465.64 -0.30 475.43 -0.30 479.03 0.00L479.03 -4.70L468.23 -4.70L468.23 -32.50L479.93 -32.50C481.34 -32.50 485.73 -32.50 488.84 -29.09C492.03 -25.59 492.03 -23.70 492.03 -16.41C492.03 -9.80 492.03 -4.91 499.03 -1.50C503.43 0.70 509.64 1.09 513.73 1.09C524.43 1.09 525.73 -7.91 525.73 -9.50ZM496.34 -50.00C496.34 -44.41 496.34 -36.09 479.84 -36.09L468.23 -36.09L468.23 -63.91L480.03 -63.91C496.14 -63.91 496.34 -56.09 496.34 -50.00Z M579.98 -19.09L578.13 -19.09C576.28 -7.70 574.58 -2.29 561.85 -2.29L552.01 -2.29C548.53 -2.29 548.38 -2.81 548.38 -5.25L548.38 -25.01L555.04 -25.01C562.22 -25.01 563.03 -22.64 563.03 -16.35L564.88 -16.35L564.88 -35.96L563.03 -35.96C563.03 -29.60 562.22 -27.31 555.04 -27.31L548.38 -27.31L548.38 -45.07C548.38 -47.51 548.53 -48.03 552.01 -48.03L561.55 -48.03C572.87 -48.03 574.87 -43.96 576.06 -33.67L577.91 -33.67L575.83 -50.32L534.17 -50.32L534.17 -48.03L535.95 -48.03C541.65 -48.03 541.79 -47.21 541.79 -44.55L541.79 -5.77C541.79 -3.11 541.65 -2.29 535.95 -2.29L534.17 -2.29L534.17 0.00L576.87 0.00L579.98 -19.09Z M632.19 -17.24C632.19 -17.98 632.19 -18.50 631.23 -18.50C630.41 -18.50 630.41 -18.06 630.34 -17.32C629.75 -6.73 621.83 -0.67 613.76 -0.67C609.25 -0.67 594.75 -3.18 594.75 -25.23C594.75 -47.36 609.18 -49.88 613.69 -49.88C621.76 -49.88 628.34 -43.14 629.82 -32.34C629.97 -31.30 629.97 -31.08 631.01 -31.08C632.19 -31.08 632.19 -31.30 632.19 -32.86L632.19 -50.39C632.19 -51.65 632.19 -52.17 631.38 -52.17C631.08 -52.17 630.78 -52.17 630.19 -51.28L626.49 -45.81C623.75 -48.47 619.98 -52.17 612.88 -52.17C599.04 -52.17 587.12 -40.40 587.12 -25.31C587.12 -9.99 599.11 1.63 612.88 1.63C624.94 1.63 632.19 -8.66 632.19 -17.24Z M688.54 -25.09C688.54 -40.18 677.37 -52.17 663.90 -52.17C650.66 -52.17 639.33 -40.33 639.33 -25.09C639.33 -9.92 650.73 1.63 663.90 1.63C677.37 1.63 688.54 -10.14 688.54 -25.09ZM680.92 -26.12C680.92 -6.51 670.78 -0.30 663.98 -0.30C656.87 -0.30 646.96 -6.81 646.96 -26.12C646.96 -45.29 657.76 -50.32 663.90 -50.32C670.34 -50.32 680.92 -45.07 680.92 -26.12Z M745.93 -17.91L745.93 -20.20L736.90 -19.98C733.94 -19.98 727.65 -19.98 724.99 -20.20L724.99 -17.91L727.36 -17.91C734.02 -17.91 734.24 -17.09 734.24 -14.36L734.24 -9.62C734.24 -1.33 724.84 -0.67 722.77 -0.67C717.96 -0.67 703.31 -3.26 703.31 -25.31C703.31 -47.43 717.88 -49.88 722.32 -49.88C730.24 -49.88 736.98 -43.22 738.46 -32.34C738.60 -31.30 738.60 -31.08 739.64 -31.08C740.82 -31.08 740.82 -31.30 740.82 -32.86L740.82 -50.39C740.82 -51.65 740.82 -52.17 740.01 -52.17C739.71 -52.17 739.42 -52.17 738.83 -51.28L735.13 -45.81C732.76 -48.17 728.76 -52.17 721.44 -52.17C707.67 -52.17 695.68 -40.48 695.68 -25.31C695.68 -10.14 707.52 1.63 721.58 1.63C726.99 1.63 732.91 -0.30 735.42 -4.66C736.38 -3.03 739.34 -0.07 740.16 -0.07C740.82 -0.07 740.82 -0.67 740.82 -1.78L740.82 -14.65C740.82 -17.54 741.12 -17.91 745.93 -17.91Z M801.91 -48.25L801.91 -50.54L793.26 -50.32L784.60 -50.54L784.60 -48.25C792.22 -48.25 792.22 -44.77 792.22 -42.77L792.22 -11.17L766.10 -49.58C765.43 -50.47 765.36 -50.54 763.95 -50.54L751.37 -50.54L751.37 -48.25L753.52 -48.25C754.63 -48.25 756.11 -48.17 757.22 -48.10C758.92 -47.88 758.99 -47.80 758.99 -46.40L758.99 -7.77C758.99 -5.77 758.99 -2.29 751.37 -2.29L751.37 0.00L760.03 -0.22L768.69 0.00L768.69 -2.29C761.07 -2.29 761.07 -5.77 761.07 -7.77L761.07 -46.25C761.44 -45.88 761.51 -45.81 761.81 -45.36L792.00 -0.96C792.66 -0.07 792.74 0.00 793.26 0.00C794.29 0.00 794.29 -0.52 794.29 -1.92L794.29 -42.77C794.29 -44.77 794.29 -48.25 801.91 -48.25Z M829.55 0.00L829.55 -2.29L827.63 -2.29C821.78 -2.29 821.56 -3.11 821.56 -5.77L821.56 -44.77C821.56 -47.43 821.78 -48.25 827.63 -48.25L829.55 -48.25L829.55 -50.54C826.96 -50.32 821.12 -50.32 818.30 -50.32C815.42 -50.32 809.57 -50.32 806.98 -50.54L806.98 -48.25L808.91 -48.25C814.75 -48.25 814.97 -47.43 814.97 -44.77L814.97 -5.77C814.97 -3.11 814.75 -2.29 808.91 -2.29L806.98 -2.29L806.98 0.00C809.57 -0.22 815.42 -0.22 818.23 -0.22C821.12 -0.22 826.96 -0.22 829.55 0.00Z M883.24 -33.45L881.83 -50.10L836.62 -50.10L835.21 -33.45L837.06 -33.45C838.10 -45.36 839.21 -47.80 850.38 -47.80C851.72 -47.80 853.64 -47.80 854.38 -47.66C855.93 -47.36 855.93 -46.55 855.93 -44.84L855.93 -5.85C855.93 -3.33 855.93 -2.29 848.16 -2.29L845.20 -2.29L845.20 0.00C848.24 -0.22 855.79 -0.22 859.19 -0.22C862.59 -0.22 870.22 -0.22 873.25 0.00L873.25 -2.29L870.29 -2.29C862.52 -2.29 862.52 -3.33 862.52 -5.85L862.52 -44.84C862.52 -46.32 862.52 -47.36 863.85 -47.66C864.67 -47.80 866.66 -47.80 868.07 -47.80C879.24 -47.80 880.35 -45.36 881.39 -33.45L883.24 -33.45Z M910.88 0.00L910.88 -2.29L908.96 -2.29C903.11 -2.29 902.89 -3.11 902.89 -5.77L902.89 -44.77C902.89 -47.43 903.11 -48.25 908.96 -48.25L910.88 -48.25L910.88 -50.54C908.29 -50.32 902.45 -50.32 899.63 -50.32C896.75 -50.32 890.90 -50.32 888.31 -50.54L888.31 -48.25L890.24 -48.25C896.08 -48.25 896.30 -47.43 896.30 -44.77L896.30 -5.77C896.30 -3.11 896.08 -2.29 890.24 -2.29L888.31 -2.29L888.31 0.00C890.90 -0.22 896.75 -0.22 899.56 -0.22C902.45 -0.22 908.29 -0.22 910.88 0.00Z M967.23 -25.09C967.23 -40.18 956.06 -52.17 942.59 -52.17C929.35 -52.17 918.02 -40.33 918.02 -25.09C918.02 -9.92 929.42 1.63 942.59 1.63C956.06 1.63 967.23 -10.14 967.23 -25.09ZM959.61 -26.12C959.61 -6.51 949.47 -0.30 942.67 -0.30C935.56 -0.30 925.65 -6.81 925.65 -26.12C925.65 -45.29 936.45 -50.32 942.59 -50.32C949.03 -50.32 959.61 -45.07 959.61 -26.12Z M1023.21 -48.25L1023.21 -50.54L1014.56 -50.32L1005.90 -50.54L1005.90 -48.25C1013.52 -48.25 1013.52 -44.77 1013.52 -42.77L1013.52 -11.17L987.40 -49.58C986.73 -50.47 986.66 -50.54 985.25 -50.54L972.67 -50.54L972.67 -48.25L974.82 -48.25C975.93 -48.25 977.41 -48.17 978.52 -48.10C980.22 -47.88 980.29 -47.80 980.29 -46.40L980.29 -7.77C980.29 -5.77 980.29 -2.29 972.67 -2.29L972.67 0.00L981.33 -0.22L989.99 0.00L989.99 -2.29C982.37 -2.29 982.37 -5.77 982.37 -7.77L982.37 -46.25C982.74 -45.88 982.81 -45.81 983.11 -45.36L1013.30 -0.96C1013.96 -0.07 1014.04 0.00 1014.56 0.00C1015.59 0.00 1015.59 -0.52 1015.59 -1.92L1015.59 -42.77C1015.59 -44.77 1015.59 -48.25 1023.21 -48.25Z M1129.28 -38.00L1129.28 -40.94L1120.06 -40.66C1119.02 -40.66 1111.03 -40.76 1108.47 -40.94L1108.47 -38.00C1112.84 -38.00 1115.22 -36.19 1115.22 -33.81C1115.22 -32.86 1114.74 -32.21 1114.64 -31.91C1109.42 -22.71 1105.14 -16.24 1101.06 -11.21C1099.83 -12.63 1089.47 -25.65 1085.29 -36.57C1090.42 -42.27 1096.87 -49.49 1096.87 -55.77C1096.87 -60.13 1095.36 -68.01 1088.62 -68.01C1082.73 -68.01 1075.69 -62.79 1075.69 -52.72C1075.69 -48.73 1076.27 -41.89 1079.59 -33.44L1070.94 -24.22C1066.67 -19.86 1064.20 -17.29 1064.20 -12.16C1064.20 -3.89 1071.99 2.09 1081.39 2.09C1089.47 2.09 1095.08 -1.99 1098.59 -5.14C1105.14 0.56 1110.75 2.09 1115.31 2.09C1122.52 2.09 1128.52 -3.32 1128.70 -11.49L1126.32 -11.49C1126.04 -3.99 1119.97 -0.86 1115.69 -0.86C1110.56 -0.86 1105.62 -5.70 1102.57 -9.31C1106.95 -14.34 1110.75 -20.81 1115.12 -28.31C1118.83 -34.59 1120.82 -37.91 1129.28 -38.00ZM1094.50 -55.86C1094.50 -49.59 1086.81 -41.32 1084.52 -38.86C1081.97 -46.46 1081.67 -51.97 1081.67 -54.91C1081.67 -62.89 1085.47 -65.94 1088.80 -65.94C1094.50 -65.94 1094.50 -55.86 1094.50 -55.86ZM1096.78 -6.93C1090.70 -1.51 1084.82 -0.86 1082.15 -0.86C1074.27 -0.86 1072.08 -10.06 1072.08 -15.20C1072.08 -22.89 1075.32 -26.32 1080.44 -31.26C1082.53 -26.79 1083.96 -23.94 1088.04 -18.05C1089.85 -15.39 1093.27 -10.45 1096.78 -6.93Z"/></g><g transform="translate(3876.0,3013.2) scale(11.1200)"><path d="M40.30 0.00L40.30 -4.70L28.91 -4.70L28.91 -63.91L40.30 -63.91L40.30 -68.59C36.20 -68.30 26.41 -68.30 21.80 -68.30C17.20 -68.30 7.41 -68.30 3.30 -68.59L3.30 -63.91L14.70 -63.91L14.70 -4.70L3.30 -4.70L3.30 0.00C7.41 -0.30 17.20 -0.30 21.80 -0.30C26.41 -0.30 36.20 -0.30 40.30 0.00Z M99.28 -48.25L99.28 -50.54L90.63 -50.32L81.97 -50.54L81.97 -48.25C89.59 -48.25 89.59 -44.77 89.59 -42.77L89.59 -11.17L63.47 -49.58C62.80 -50.47 62.73 -50.54 61.32 -50.54L48.74 -50.54L48.74 -48.25L50.89 -48.25C52.00 -48.25 53.48 -48.17 54.59 -48.10C56.29 -47.88 56.36 -47.80 56.36 -46.40L56.36 -7.77C56.36 -5.77 56.36 -2.29 48.74 -2.29L48.74 0.00L57.40 -0.22L66.06 0.00L66.06 -2.29C58.44 -2.29 58.44 -5.77 58.44 -7.77L58.44 -46.25C58.81 -45.88 58.88 -45.81 59.18 -45.36L89.37 -0.96C90.03 -0.07 90.11 0.00 90.63 0.00C91.66 0.00 91.66 -0.52 91.66 -1.92L91.66 -42.77C91.66 -44.77 91.66 -48.25 99.28 -48.25Z M152.97 -33.45L151.56 -50.10L106.35 -50.10L104.94 -33.45L106.79 -33.45C107.83 -45.36 108.94 -47.80 120.11 -47.80C121.45 -47.80 123.37 -47.80 124.11 -47.66C125.66 -47.36 125.66 -46.55 125.66 -44.84L125.66 -5.85C125.66 -3.33 125.66 -2.29 117.89 -2.29L114.93 -2.29L114.93 0.00C117.97 -0.22 125.52 -0.22 128.92 -0.22C132.32 -0.22 139.95 -0.22 142.98 0.00L142.98 -2.29L140.02 -2.29C132.25 -2.29 132.25 -3.33 132.25 -5.85L132.25 -44.84C132.25 -46.32 132.25 -47.36 133.58 -47.66C134.40 -47.80 136.39 -47.80 137.80 -47.80C148.97 -47.80 150.08 -45.36 151.12 -33.45L152.97 -33.45Z M204.22 -19.09L202.37 -19.09C200.52 -7.70 198.82 -2.29 186.09 -2.29L176.25 -2.29C172.77 -2.29 172.62 -2.81 172.62 -5.25L172.62 -25.01L179.28 -25.01C186.46 -25.01 187.27 -22.64 187.27 -16.35L189.12 -16.35L189.12 -35.96L187.27 -35.96C187.27 -29.60 186.46 -27.31 179.28 -27.31L172.62 -27.31L172.62 -45.07C172.62 -47.51 172.77 -48.03 176.25 -48.03L185.79 -48.03C197.11 -48.03 199.11 -43.96 200.30 -33.67L202.15 -33.67L200.07 -50.32L158.41 -50.32L158.41 -48.03L160.19 -48.03C165.89 -48.03 166.03 -47.21 166.03 -44.55L166.03 -5.77C166.03 -3.11 165.89 -2.29 160.19 -2.29L158.41 -2.29L158.41 0.00L201.11 0.00L204.22 -19.09Z M250.29 -19.09L248.44 -19.09C247.62 -11.54 246.59 -2.29 233.56 -2.29L227.50 -2.29C224.02 -2.29 223.87 -2.81 223.87 -5.25L223.87 -44.70C223.87 -47.21 223.87 -48.25 230.90 -48.25L233.34 -48.25L233.34 -50.54C230.68 -50.32 223.94 -50.32 220.91 -50.32C218.02 -50.32 212.25 -50.32 209.66 -50.54L209.66 -48.25L211.44 -48.25C217.14 -48.25 217.28 -47.43 217.28 -44.77L217.28 -5.77C217.28 -3.11 217.14 -2.29 211.44 -2.29L209.66 -2.29L209.66 0.00L248.22 0.00L250.29 -19.09Z M296.36 -19.09L294.51 -19.09C293.69 -11.54 292.66 -2.29 279.63 -2.29L273.57 -2.29C270.09 -2.29 269.94 -2.81 269.94 -5.25L269.94 -44.70C269.94 -47.21 269.94 -48.25 276.97 -48.25L279.41 -48.25L279.41 -50.54C276.75 -50.32 270.01 -50.32 266.98 -50.32C264.09 -50.32 258.32 -50.32 255.73 -50.54L255.73 -48.25L257.51 -48.25C263.21 -48.25 263.35 -47.43 263.35 -44.77L263.35 -5.77C263.35 -3.11 263.21 -2.29 257.51 -2.29L255.73 -2.29L255.73 0.00L294.29 0.00L296.36 -19.09Z M324.00 0.00L324.00 -2.29L322.08 -2.29C316.23 -2.29 316.01 -3.11 316.01 -5.77L316.01 -44.77C316.01 -47.43 316.23 -48.25 322.08 -48.25L324.00 -48.25L324.00 -50.54C321.41 -50.32 315.57 -50.32 312.75 -50.32C309.87 -50.32 304.02 -50.32 301.43 -50.54L301.43 -48.25L303.36 -48.25C309.20 -48.25 309.42 -47.43 309.42 -44.77L309.42 -5.77C309.42 -3.11 309.20 -2.29 303.36 -2.29L301.43 -2.29L301.43 0.00C304.02 -0.22 309.87 -0.22 312.68 -0.22C315.57 -0.22 321.41 -0.22 324.00 0.00Z M381.39 -17.91L381.39 -20.20L372.36 -19.98C369.40 -19.98 363.11 -19.98 360.45 -20.20L360.45 -17.91L362.82 -17.91C369.48 -17.91 369.70 -17.09 369.70 -14.36L369.70 -9.62C369.70 -1.33 360.30 -0.67 358.23 -0.67C353.42 -0.67 338.77 -3.26 338.77 -25.31C338.77 -47.43 353.34 -49.88 357.78 -49.88C365.70 -49.88 372.44 -43.22 373.92 -32.34C374.06 -31.30 374.06 -31.08 375.10 -31.08C376.28 -31.08 376.28 -31.30 376.28 -32.86L376.28 -50.39C376.28 -51.65 376.28 -52.17 375.47 -52.17C375.17 -52.17 374.88 -52.17 374.29 -51.28L370.59 -45.81C368.22 -48.17 364.22 -52.17 356.90 -52.17C343.13 -52.17 331.14 -40.48 331.14 -25.31C331.14 -10.14 342.98 1.63 357.04 1.63C362.45 1.63 368.37 -0.30 370.88 -4.66C371.84 -3.03 374.80 -0.07 375.62 -0.07C376.28 -0.07 376.28 -0.67 376.28 -1.78L376.28 -14.65C376.28 -17.54 376.58 -17.91 381.39 -17.91Z M432.64 -19.09L430.79 -19.09C428.94 -7.70 427.24 -2.29 414.51 -2.29L404.67 -2.29C401.19 -2.29 401.04 -2.81 401.04 -5.25L401.04 -25.01L407.70 -25.01C414.88 -25.01 415.69 -22.64 415.69 -16.35L417.54 -16.35L417.54 -35.96L415.69 -35.96C415.69 -29.60 414.88 -27.31 407.70 -27.31L401.04 -27.31L401.04 -45.07C401.04 -47.51 401.19 -48.03 404.67 -48.03L414.21 -48.03C425.53 -48.03 427.53 -43.96 428.72 -33.67L430.57 -33.67L428.49 -50.32L386.83 -50.32L386.83 -48.03L388.61 -48.03C394.31 -48.03 394.45 -47.21 394.45 -44.55L394.45 -5.77C394.45 -3.11 394.31 -2.29 388.61 -2.29L386.83 -2.29L386.83 0.00L429.53 0.00L432.64 -19.09Z M488.62 -48.25L488.62 -50.54L479.97 -50.32L471.31 -50.54L471.31 -48.25C478.93 -48.25 478.93 -44.77 478.93 -42.77L478.93 -11.17L452.81 -49.58C452.14 -50.47 452.07 -50.54 450.66 -50.54L438.08 -50.54L438.08 -48.25L440.23 -48.25C441.34 -48.25 442.82 -48.17 443.93 -48.10C445.63 -47.88 445.70 -47.80 445.70 -46.40L445.70 -7.77C445.70 -5.77 445.70 -2.29 438.08 -2.29L438.08 0.00L446.74 -0.22L455.40 0.00L455.40 -2.29C447.78 -2.29 447.78 -5.77 447.78 -7.77L447.78 -46.25C448.15 -45.88 448.22 -45.81 448.52 -45.36L478.71 -0.96C479.37 -0.07 479.45 0.00 479.97 0.00C481.00 0.00 481.00 -0.52 481.00 -1.92L481.00 -42.77C481.00 -44.77 481.00 -48.25 488.62 -48.25Z M542.31 -33.45L540.90 -50.10L495.69 -50.10L494.28 -33.45L496.13 -33.45C497.17 -45.36 498.28 -47.80 509.45 -47.80C510.79 -47.80 512.71 -47.80 513.45 -47.66C515.00 -47.36 515.00 -46.55 515.00 -44.84L515.00 -5.85C515.00 -3.33 515.00 -2.29 507.23 -2.29L504.27 -2.29L504.27 0.00C507.31 -0.22 514.86 -0.22 518.26 -0.22C521.66 -0.22 529.29 -0.22 532.32 0.00L532.32 -2.29L529.36 -2.29C521.59 -2.29 521.59 -3.33 521.59 -5.85L521.59 -44.84C521.59 -46.32 521.59 -47.36 522.92 -47.66C523.74 -47.80 525.73 -47.80 527.14 -47.80C538.31 -47.80 539.42 -45.36 540.46 -33.45L542.31 -33.45Z M636.71 -20.30C636.71 -31.41 628.60 -39.50 619.51 -41.41L605.01 -44.50C601.01 -45.41 595.40 -48.80 595.40 -54.91C595.40 -59.20 598.21 -65.41 608.21 -65.41C616.21 -65.41 626.31 -62.00 628.60 -48.41C629.01 -46.00 629.01 -45.80 631.10 -45.80C633.51 -45.80 633.51 -46.30 633.51 -48.59L633.51 -66.91C633.51 -68.80 633.51 -69.70 631.71 -69.70C630.90 -69.70 630.81 -69.59 629.71 -68.59L625.21 -64.20C619.40 -68.80 612.90 -69.70 608.10 -69.70C592.90 -69.70 585.71 -60.09 585.71 -49.59C585.71 -43.09 589.01 -38.50 591.10 -36.30C596.01 -31.41 599.40 -30.70 610.31 -28.30C619.10 -26.41 620.81 -26.09 623.01 -24.00C624.51 -22.50 627.01 -19.91 627.01 -15.30C627.01 -10.50 624.40 -3.59 614.01 -3.59C606.40 -3.59 591.21 -5.59 590.40 -20.50C590.31 -22.30 590.31 -22.80 588.10 -22.80C585.71 -22.80 585.71 -22.20 585.71 -19.91L585.71 -1.70C585.71 0.20 585.71 1.09 587.51 1.09C588.40 1.09 588.60 0.91 589.40 0.20L594.01 -4.41C600.60 0.50 609.90 1.09 614.01 1.09C630.51 1.09 636.71 -10.20 636.71 -20.30Z M697.32 -48.25L697.32 -50.54C695.03 -50.39 692.07 -50.32 690.07 -50.32L681.56 -50.54L681.56 -48.25C684.59 -48.25 685.78 -46.84 685.78 -45.36C685.78 -44.55 685.33 -43.59 685.04 -43.14L672.83 -23.31L659.43 -45.14C658.92 -45.88 658.92 -46.03 658.92 -46.40C658.92 -47.95 660.77 -48.25 664.10 -48.25L664.10 -50.54C661.43 -50.32 656.03 -50.32 653.14 -50.32L643.52 -50.54L643.52 -48.25L644.86 -48.25C649.89 -48.25 650.48 -47.43 651.66 -45.51L667.20 -20.20L667.20 -5.77C667.20 -3.11 667.06 -2.29 661.36 -2.29L659.58 -2.29L659.58 0.00C662.25 -0.22 667.50 -0.22 670.39 -0.22C673.27 -0.22 678.53 -0.22 681.19 0.00L681.19 -2.29L679.49 -2.29C673.79 -2.29 673.57 -3.03 673.57 -5.92L673.57 -20.20L687.85 -43.44C690.59 -47.95 694.95 -48.25 697.32 -48.25Z M737.25 -13.76C737.25 -21.16 732.36 -27.23 726.15 -28.71L716.67 -31.01C712.09 -32.12 709.20 -36.11 709.20 -40.40C709.20 -45.58 713.20 -50.10 718.97 -50.10C731.33 -50.10 732.95 -37.96 733.40 -34.63C733.47 -34.19 733.47 -33.74 734.29 -33.74C735.25 -33.74 735.25 -34.11 735.25 -35.52L735.25 -50.39C735.25 -51.65 735.25 -52.17 734.43 -52.17C733.92 -52.17 733.84 -52.10 733.32 -51.21L730.73 -46.99C728.51 -49.14 725.48 -52.17 718.89 -52.17C710.68 -52.17 704.46 -45.66 704.46 -37.81C704.46 -31.67 708.39 -26.27 714.16 -24.27C714.97 -23.98 718.75 -23.09 723.93 -21.83C725.92 -21.31 728.14 -20.79 730.22 -18.06C731.77 -16.13 732.51 -13.69 732.51 -11.25C732.51 -5.99 728.81 -0.67 722.59 -0.67C720.45 -0.67 714.82 -1.04 710.90 -4.66C706.61 -8.66 706.39 -13.39 706.31 -16.06C706.24 -16.80 705.65 -16.80 705.43 -16.80C704.46 -16.80 704.46 -16.28 704.46 -14.95L704.46 -0.15C704.46 1.11 704.46 1.63 705.28 1.63C705.80 1.63 705.87 1.48 706.39 0.67C706.39 0.67 706.61 0.37 709.05 -3.55C711.35 -1.04 716.08 1.63 722.67 1.63C731.33 1.63 737.25 -5.62 737.25 -13.76Z M790.94 -33.45L789.53 -50.10L744.32 -50.10L742.91 -33.45L744.76 -33.45C745.80 -45.36 746.91 -47.80 758.08 -47.80C759.42 -47.80 761.34 -47.80 762.08 -47.66C763.63 -47.36 763.63 -46.55 763.63 -44.84L763.63 -5.85C763.63 -3.33 763.63 -2.29 755.86 -2.29L752.90 -2.29L752.90 0.00C755.94 -0.22 763.49 -0.22 766.89 -0.22C770.29 -0.22 777.92 -0.22 780.95 0.00L780.95 -2.29L777.99 -2.29C770.22 -2.29 770.22 -3.33 770.22 -5.85L770.22 -44.84C770.22 -46.32 770.22 -47.36 771.55 -47.66C772.37 -47.80 774.36 -47.80 775.77 -47.80C786.94 -47.80 788.05 -45.36 789.09 -33.45L790.94 -33.45Z M842.19 -19.09L840.34 -19.09C838.49 -7.70 836.79 -2.29 824.06 -2.29L814.22 -2.29C810.74 -2.29 810.59 -2.81 810.59 -5.25L810.59 -25.01L817.25 -25.01C824.43 -25.01 825.24 -22.64 825.24 -16.35L827.09 -16.35L827.09 -35.96L825.24 -35.96C825.24 -29.60 824.43 -27.31 817.25 -27.31L810.59 -27.31L810.59 -45.07C810.59 -47.51 810.74 -48.03 814.22 -48.03L823.76 -48.03C835.08 -48.03 837.08 -43.96 838.27 -33.67L840.12 -33.67L838.04 -50.32L796.38 -50.32L796.38 -48.03L798.16 -48.03C803.86 -48.03 804.00 -47.21 804.00 -44.55L804.00 -5.77C804.00 -3.11 803.86 -2.29 798.16 -2.29L796.38 -2.29L796.38 0.00L839.08 0.00L842.19 -19.09Z M910.24 0.00L910.24 -2.29L908.46 -2.29C902.76 -2.29 902.61 -3.11 902.61 -5.77L902.61 -44.77C902.61 -47.43 902.76 -48.25 908.46 -48.25L910.24 -48.25L910.24 -50.54L897.73 -50.54C895.81 -50.54 895.81 -50.47 895.29 -49.14L879.08 -7.47L863.02 -48.91C862.36 -50.54 862.14 -50.54 860.43 -50.54L847.93 -50.54L847.93 -48.25L849.70 -48.25C855.40 -48.25 855.55 -47.43 855.55 -44.77L855.55 -7.77C855.55 -5.77 855.55 -2.29 847.93 -2.29L847.93 0.00L856.59 -0.22L865.24 0.00L865.24 -2.29C857.62 -2.29 857.62 -5.77 857.62 -7.77L857.62 -47.66L857.70 -47.66L875.53 -1.63C875.90 -0.67 876.27 0.00 877.01 0.00C877.82 0.00 878.05 -0.59 878.34 -1.41L896.55 -48.25L896.62 -48.25L896.62 -5.77C896.62 -3.11 896.47 -2.29 890.77 -2.29L889.00 -2.29L889.00 0.00C891.74 -0.22 896.77 -0.22 899.65 -0.22C902.54 -0.22 907.50 -0.22 910.24 0.00Z M1052.34 0.00L1052.34 -4.70L1041.54 -4.70L1041.54 -63.91L1052.34 -63.91L1052.34 -68.59L1030.24 -68.59C1028.04 -68.59 1026.95 -68.59 1025.84 -66.09L1001.84 -13.20L977.84 -66.09C976.74 -68.59 975.65 -68.59 973.45 -68.59L951.24 -68.59L951.24 -63.91L962.04 -63.91L962.04 -7.59C962.04 -5.41 961.95 -5.30 959.15 -5.00C956.74 -4.70 956.54 -4.70 953.74 -4.70L951.24 -4.70L951.24 0.00C955.04 -0.30 960.74 -0.30 964.65 -0.30C968.84 -0.30 974.04 -0.30 978.15 0.00L978.15 -4.70L975.65 -4.70C973.84 -4.70 972.15 -4.80 970.34 -5.00C967.45 -5.30 967.34 -5.41 967.34 -7.59L967.34 -62.59L967.45 -62.59L994.65 -2.50C995.54 -0.50 996.74 0.00 997.84 0.00C999.84 0.00 1000.65 -1.50 1001.04 -2.41L1028.95 -63.91L1029.04 -63.91L1029.04 -4.70L1018.24 -4.70L1018.24 0.00C1021.84 -0.30 1031.15 -0.30 1035.24 -0.30C1039.34 -0.30 1048.74 -0.30 1052.34 0.00Z M1111.69 -25.09C1111.69 -40.18 1100.52 -52.17 1087.05 -52.17C1073.81 -52.17 1062.48 -40.33 1062.48 -25.09C1062.48 -9.92 1073.88 1.63 1087.05 1.63C1100.52 1.63 1111.69 -10.14 1111.69 -25.09ZM1104.07 -26.12C1104.07 -6.51 1093.93 -0.30 1087.13 -0.30C1080.02 -0.30 1070.11 -6.81 1070.11 -26.12C1070.11 -45.29 1080.91 -50.32 1087.05 -50.32C1093.49 -50.32 1104.07 -45.07 1104.07 -26.12Z M1167.01 -24.86C1167.01 -38.92 1157.02 -50.54 1144.36 -50.54L1117.28 -50.54L1117.28 -48.25L1119.06 -48.25C1124.75 -48.25 1124.90 -47.43 1124.90 -44.77L1124.90 -5.77C1124.90 -3.11 1124.75 -2.29 1119.06 -2.29L1117.28 -2.29L1117.28 0.00L1144.36 0.00C1156.80 0.00 1167.01 -10.95 1167.01 -24.86ZM1159.61 -24.86C1159.61 -16.65 1158.20 -12.21 1155.54 -8.58C1154.06 -6.59 1149.84 -2.29 1142.37 -2.29L1134.89 -2.29C1131.41 -2.29 1131.27 -2.81 1131.27 -5.25L1131.27 -45.29C1131.27 -47.73 1131.41 -48.25 1134.89 -48.25L1142.29 -48.25C1146.88 -48.25 1151.99 -46.62 1155.76 -41.37C1158.94 -37.00 1159.61 -30.64 1159.61 -24.86Z M1218.26 -19.09L1216.41 -19.09C1214.56 -7.70 1212.86 -2.29 1200.13 -2.29L1190.29 -2.29C1186.81 -2.29 1186.66 -2.81 1186.66 -5.25L1186.66 -25.01L1193.32 -25.01C1200.50 -25.01 1201.31 -22.64 1201.31 -16.35L1203.16 -16.35L1203.16 -35.96L1201.31 -35.96C1201.31 -29.60 1200.50 -27.31 1193.32 -27.31L1186.66 -27.31L1186.66 -45.07C1186.66 -47.51 1186.81 -48.03 1190.29 -48.03L1199.83 -48.03C1211.15 -48.03 1213.15 -43.96 1214.34 -33.67L1216.19 -33.67L1214.11 -50.32L1172.45 -50.32L1172.45 -48.03L1174.23 -48.03C1179.93 -48.03 1180.07 -47.21 1180.07 -44.55L1180.07 -5.77C1180.07 -3.11 1179.93 -2.29 1174.23 -2.29L1172.45 -2.29L1172.45 0.00L1215.15 0.00L1218.26 -19.09Z M1264.33 -19.09L1262.48 -19.09C1261.66 -11.54 1260.63 -2.29 1247.60 -2.29L1241.54 -2.29C1238.06 -2.29 1237.91 -2.81 1237.91 -5.25L1237.91 -44.70C1237.91 -47.21 1237.91 -48.25 1244.94 -48.25L1247.38 -48.25L1247.38 -50.54C1244.72 -50.32 1237.98 -50.32 1234.95 -50.32C1232.06 -50.32 1226.29 -50.32 1223.70 -50.54L1223.70 -48.25L1225.48 -48.25C1231.18 -48.25 1231.32 -47.43 1231.32 -44.77L1231.32 -5.77C1231.32 -3.11 1231.18 -2.29 1225.48 -2.29L1223.70 -2.29L1223.70 0.00L1262.26 0.00L1264.33 -19.09Z M1291.97 0.00L1291.97 -2.29L1290.05 -2.29C1284.20 -2.29 1283.98 -3.11 1283.98 -5.77L1283.98 -44.77C1283.98 -47.43 1284.20 -48.25 1290.05 -48.25L1291.97 -48.25L1291.97 -50.54C1289.38 -50.32 1283.54 -50.32 1280.72 -50.32C1277.84 -50.32 1271.99 -50.32 1269.40 -50.54L1269.40 -48.25L1271.33 -48.25C1277.17 -48.25 1277.39 -47.43 1277.39 -44.77L1277.39 -5.77C1277.39 -3.11 1277.17 -2.29 1271.33 -2.29L1269.40 -2.29L1269.40 0.00C1271.99 -0.22 1277.84 -0.22 1280.65 -0.22C1283.54 -0.22 1289.38 -0.22 1291.97 0.00Z M1347.95 -48.25L1347.95 -50.54L1339.30 -50.32L1330.64 -50.54L1330.64 -48.25C1338.26 -48.25 1338.26 -44.77 1338.26 -42.77L1338.26 -11.17L1312.14 -49.58C1311.47 -50.47 1311.40 -50.54 1309.99 -50.54L1297.41 -50.54L1297.41 -48.25L1299.56 -48.25C1300.67 -48.25 1302.15 -48.17 1303.26 -48.10C1304.96 -47.88 1305.03 -47.80 1305.03 -46.40L1305.03 -7.77C1305.03 -5.77 1305.03 -2.29 1297.41 -2.29L1297.41 0.00L1306.07 -0.22L1314.73 0.00L1314.73 -2.29C1307.11 -2.29 1307.11 -5.77 1307.11 -7.77L1307.11 -46.25C1307.48 -45.88 1307.55 -45.81 1307.85 -45.36L1338.04 -0.96C1338.70 -0.07 1338.78 0.00 1339.30 0.00C1340.33 0.00 1340.33 -0.52 1340.33 -1.92L1340.33 -42.77C1340.33 -44.77 1340.33 -48.25 1347.95 -48.25Z M1405.34 -17.91L1405.34 -20.20L1396.31 -19.98C1393.35 -19.98 1387.06 -19.98 1384.40 -20.20L1384.40 -17.91L1386.77 -17.91C1393.43 -17.91 1393.65 -17.09 1393.65 -14.36L1393.65 -9.62C1393.65 -1.33 1384.25 -0.67 1382.18 -0.67C1377.37 -0.67 1362.72 -3.26 1362.72 -25.31C1362.72 -47.43 1377.29 -49.88 1381.73 -49.88C1389.65 -49.88 1396.39 -43.22 1397.87 -32.34C1398.01 -31.30 1398.01 -31.08 1399.05 -31.08C1400.23 -31.08 1400.23 -31.30 1400.23 -32.86L1400.23 -50.39C1400.23 -51.65 1400.23 -52.17 1399.42 -52.17C1399.12 -52.17 1398.83 -52.17 1398.24 -51.28L1394.54 -45.81C1392.17 -48.17 1388.17 -52.17 1380.85 -52.17C1367.08 -52.17 1355.09 -40.48 1355.09 -25.31C1355.09 -10.14 1366.93 1.63 1380.99 1.63C1386.40 1.63 1392.32 -0.30 1394.83 -4.66C1395.79 -3.03 1398.75 -0.07 1399.57 -0.07C1400.23 -0.07 1400.23 -0.67 1400.23 -1.78L1400.23 -14.65C1400.23 -17.54 1400.53 -17.91 1405.34 -17.91Z"/></g></g>
</svg>