<?xml version="1.0" encoding="UTF-8"?>
<svg xmlns="http://www.w3.org/2000/svg" xmlns:xlink="http://www.w3.org/1999/xlink" width="170.97" height="150.5" viewBox="0 0 170.97 150.5">
<defs>
<g>
<g id="glyph-0-0">
<path d="M 0.875 0 L 4.859375 0 L 4.859375 -0.75 L 3.40625 -0.75 L 3.40625 -7.078125 L 2.703125 -7.078125 C 2.3125 -6.84375 1.84375 -6.671875 1.203125 -6.546875 L 1.203125 -5.96875 L 2.5 -5.96875 L 2.5 -0.75 L 0.875 -0.75 Z M 0.875 0 "/>
</g>
<g id="glyph-0-1">
<path d="M 0.4375 0 L 5.015625 0 L 5.015625 -0.78125 L 2.953125 -0.78125 C 2.59375 -0.78125 2.140625 -0.75 1.765625 -0.71875 C 3.4375 -2.46875 4.65625 -3.796875 4.65625 -5.125 C 4.65625 -6.375 3.84375 -7.203125 2.546875 -7.203125 C 1.625 -7.203125 0.984375 -6.78125 0.390625 -6.125 L 0.921875 -5.625 C 1.328125 -6.09375 1.828125 -6.46875 2.4375 -6.46875 C 3.328125 -6.46875 3.765625 -5.890625 3.765625 -5.09375 C 3.765625 -3.921875 2.5625 -2.65625 0.4375 -0.53125 Z M 0.4375 0 "/>
</g>
<g id="glyph-0-2">
<path d="M 0.75 1.890625 C 1.640625 1.515625 2.1875 0.765625 2.1875 -0.1875 C 2.1875 -0.859375 1.90625 -1.25 1.421875 -1.25 C 1.0625 -1.25 0.75 -1.015625 0.75 -0.609375 C 0.75 -0.21875 1.046875 0.015625 1.40625 0.015625 L 1.515625 0.015625 C 1.515625 0.609375 1.140625 1.078125 0.53125 1.34375 Z M 0.75 1.890625 "/>
</g>
<g id="glyph-0-3">
<path d="M 2.609375 0.125 C 3.90625 0.125 4.953125 -0.625 4.953125 -1.890625 C 4.953125 -2.859375 4.265625 -3.484375 3.40625 -3.6875 L 3.40625 -3.734375 C 4.171875 -4.015625 4.703125 -4.546875 4.703125 -5.421875 C 4.703125 -6.546875 3.8125 -7.203125 2.578125 -7.203125 C 1.75 -7.203125 1.09375 -6.828125 0.5625 -6.3125 L 1.046875 -5.75 C 1.453125 -6.171875 1.96875 -6.46875 2.546875 -6.46875 C 3.3125 -6.46875 3.78125 -6.03125 3.78125 -5.34375 C 3.78125 -4.609375 3.28125 -4.03125 1.765625 -4.03125 L 1.765625 -3.328125 C 3.453125 -3.328125 4.03125 -2.765625 4.03125 -1.921875 C 4.03125 -1.125 3.421875 -0.625 2.546875 -0.625 C 1.71875 -0.625 1.1875 -1.015625 0.75 -1.453125 L 0.28125 -0.875 C 0.765625 -0.34375 1.484375 0.125 2.609375 0.125 Z M 2.609375 0.125 "/>
</g>
<g id="glyph-0-4">
<path d="M 3.375 0 L 4.234375 0 L 4.234375 -1.953125 L 5.203125 -1.953125 L 5.203125 -2.671875 L 4.234375 -2.671875 L 4.234375 -7.078125 L 3.21875 -7.078125 L 0.203125 -2.546875 L 0.203125 -1.953125 L 3.375 -1.953125 Z M 3.375 -2.671875 L 1.140625 -2.671875 L 2.796875 -5.09375 C 3 -5.453125 3.203125 -5.765625 3.390625 -6.109375 L 3.421875 -6.109375 C 3.40625 -5.734375 3.375 -5.109375 3.375 -4.75 Z M 3.375 -2.671875 "/>
</g>
<g id="glyph-0-5">
<path d="M 2.59375 0.125 C 3.8125 0.125 4.984375 -0.734375 4.984375 -2.265625 C 4.984375 -3.796875 3.984375 -4.46875 2.78125 -4.46875 C 2.34375 -4.46875 2.03125 -4.375 1.703125 -4.1875 L 1.890625 -6.296875 L 4.625 -6.296875 L 4.625 -7.078125 L 1.09375 -7.078125 L 0.859375 -3.671875 L 1.34375 -3.359375 C 1.75 -3.640625 2.0625 -3.796875 2.546875 -3.796875 C 3.46875 -3.796875 4.0625 -3.21875 4.0625 -2.234375 C 4.0625 -1.25 3.375 -0.625 2.515625 -0.625 C 1.671875 -0.625 1.125 -1.015625 0.71875 -1.421875 L 0.265625 -0.828125 C 0.765625 -0.34375 1.453125 0.125 2.59375 0.125 Z M 2.59375 0.125 "/>
</g>
</g>
</defs>
<path fill="none" stroke-width="0.79701" stroke-linecap="butt" stroke-linejoin="miter" stroke="rgb(0%, 0%, 0%)" stroke-opacity="1" stroke-miterlimit="10" d="M -0.00183534 0.00153052 L -0.00183534 28.345384 L 141.733111 28.345384 L 141.733111 0.00153052 Z M -0.00183534 0.00153052 " transform="matrix(0.996689, 0, 0, -0.996689, 25.044798, 32.622619)"/>
<g fill="rgb(0%, 0%, 0%)" fill-opacity="1">
<use xlink:href="#glyph-0-0" x="7.549921" y="22.035791"/>
</g>
<g fill="rgb(0%, 0%, 0%)" fill-opacity="1">
<use xlink:href="#glyph-0-1" x="31.167457" y="21.157709"/>
<use xlink:href="#glyph-0-2" x="36.678391" y="21.157709"/>
</g>
<g fill="rgb(0%, 0%, 0%)" fill-opacity="1">
<use xlink:href="#glyph-0-3" x="41.653126" y="21.157709"/>
</g>
<path fill="none" stroke-width="0.79701" stroke-linecap="butt" stroke-linejoin="miter" stroke="rgb(0%, 0%, 0%)" stroke-opacity="1" stroke-miterlimit="10" d="M -0.00183534 -28.346243 L -0.00183534 0.00153052 L 141.733111 0.00153052 L 141.733111 -28.346243 Z M -0.00183534 -28.346243 " transform="matrix(0.996689, 0, 0, -0.996689, 25.044798, 32.622619)"/>
<g fill="rgb(0%, 0%, 0%)" fill-opacity="1">
<use xlink:href="#glyph-0-1" x="7.549921" y="50.353712"/>
</g>
<g fill="rgb(0%, 0%, 0%)" fill-opacity="1">
<use xlink:href="#glyph-0-1" x="31.570119" y="49.409848"/>
<use xlink:href="#glyph-0-2" x="37.081053" y="49.409848"/>
</g>
<g fill="rgb(0%, 0%, 0%)" fill-opacity="1">
<use xlink:href="#glyph-0-3" x="42.055789" y="49.409848"/>
<use xlink:href="#glyph-0-2" x="47.566723" y="49.409848"/>
</g>
<g fill="rgb(0%, 0%, 0%)" fill-opacity="1">
<use xlink:href="#glyph-0-4" x="52.551388" y="49.409848"/>
</g>
<path fill="none" stroke-width="0.79701" stroke-linecap="butt" stroke-linejoin="miter" stroke="rgb(0%, 0%, 0%)" stroke-opacity="1" stroke-miterlimit="10" d="M -0.00183534 -56.694016 L -0.00183534 -28.346243 L 141.733111 -28.346243 L 141.733111 -56.694016 Z M -0.00183534 -56.694016 " transform="matrix(0.996689, 0, 0, -0.996689, 25.044798, 32.622619)"/>
<g fill="rgb(0%, 0%, 0%)" fill-opacity="1">
<use xlink:href="#glyph-0-3" x="7.549921" y="78.542063"/>
</g>
<g fill="rgb(0%, 0%, 0%)" fill-opacity="1">
<use xlink:href="#glyph-0-4" x="31.167457" y="77.598199"/>
<use xlink:href="#glyph-0-2" x="36.678391" y="77.598199"/>
</g>
<g fill="rgb(0%, 0%, 0%)" fill-opacity="1">
<use xlink:href="#glyph-0-5" x="41.653126" y="77.598199"/>
</g>
<path fill="none" stroke-width="0.79701" stroke-linecap="butt" stroke-linejoin="miter" stroke="rgb(0%, 0%, 0%)" stroke-opacity="1" stroke-miterlimit="10" d="M -0.00183534 -85.041789 L -0.00183534 -56.694016 L 141.733111 -56.694016 L 141.733111 -85.041789 Z M -0.00183534 -85.041789 " transform="matrix(0.996689, 0, 0, -0.996689, 25.044798, 32.622619)"/>
<g fill="rgb(0%, 0%, 0%)" fill-opacity="1">
<use xlink:href="#glyph-0-4" x="7.549921" y="106.795199"/>
</g>
<g fill="rgb(0%, 0%, 0%)" fill-opacity="1">
<use xlink:href="#glyph-0-0" x="31.167457" y="105.851334"/>
<use xlink:href="#glyph-0-2" x="36.678391" y="105.851334"/>
</g>
<g fill="rgb(0%, 0%, 0%)" fill-opacity="1">
<use xlink:href="#glyph-0-4" x="41.653126" y="105.851334"/>
</g>
<path fill="none" stroke-width="0.79701" stroke-linecap="butt" stroke-linejoin="miter" stroke="rgb(0%, 0%, 0%)" stroke-opacity="1" stroke-miterlimit="10" d="M -0.00183534 -113.385642 L -0.00183534 -85.041789 L 141.733111 -85.041789 L 141.733111 -113.385642 Z M -0.00183534 -113.385642 " transform="matrix(0.996689, 0, 0, -0.996689, 25.044798, 32.622619)"/>
<g fill="rgb(0%, 0%, 0%)" fill-opacity="1">
<use xlink:href="#glyph-0-5" x="7.549921" y="134.98355"/>
</g>
<g fill="rgb(0%, 0%, 0%)" fill-opacity="1">
<use xlink:href="#glyph-0-4" x="30.764795" y="135.048334"/>
</g>
</svg>
