<?xml version="1.0" encoding="UTF-8"?>
<svg xmlns="http://www.w3.org/2000/svg" xmlns:xlink="http://www.w3.org/1999/xlink" width="391.05" height="73.57" viewBox="0 0 391.05 73.57">
<defs>
<g>
<g id="glyph-0-0">
<path d="M 1.96875 0 L 2.90625 0 C 3.015625 -2.75 3.375 -4.375 5.03125 -6.515625 L 5.03125 -7.0625 L 0.484375 -7.0625 L 0.484375 -6.28125 L 4.015625 -6.28125 C 2.609375 -4.34375 2.09375 -2.671875 1.96875 0 Z M 1.96875 0 "/>
</g>
<g id="glyph-0-1">
<path d="M 2.609375 0.125 C 3.90625 0.125 4.9375 -0.625 4.9375 -1.875 C 4.9375 -2.859375 4.265625 -3.484375 3.40625 -3.6875 L 3.40625 -3.71875 C 4.171875 -4 4.703125 -4.546875 4.703125 -5.40625 C 4.703125 -6.53125 3.796875 -7.1875 2.578125 -7.1875 C 1.75 -7.1875 1.09375 -6.8125 0.5625 -6.3125 L 1.046875 -5.734375 C 1.453125 -6.15625 1.96875 -6.453125 2.546875 -6.453125 C 3.3125 -6.453125 3.78125 -6.015625 3.78125 -5.34375 C 3.78125 -4.59375 3.265625 -4.015625 1.765625 -4.015625 L 1.765625 -3.3125 C 3.453125 -3.3125 4.015625 -2.765625 4.015625 -1.921875 C 4.015625 -1.125 3.421875 -0.625 2.546875 -0.625 C 1.71875 -0.625 1.171875 -1.015625 0.75 -1.453125 L 0.28125 -0.875 C 0.765625 -0.34375 1.46875 0.125 2.609375 0.125 Z M 2.609375 0.125 "/>
</g>
<g id="glyph-0-2">
<path d="M 2.78125 0.125 C 4.125 0.125 5.046875 -0.6875 5.046875 -1.75 C 5.046875 -2.6875 4.453125 -3.203125 3.828125 -3.578125 L 3.828125 -3.609375 C 4.25 -3.9375 4.78125 -4.578125 4.78125 -5.3125 C 4.78125 -6.40625 4.03125 -7.1875 2.796875 -7.1875 C 1.671875 -7.1875 0.796875 -6.46875 0.796875 -5.390625 C 0.796875 -4.640625 1.265625 -4.125 1.78125 -3.75 L 1.78125 -3.71875 C 1.125 -3.359375 0.453125 -2.71875 0.453125 -1.796875 C 0.453125 -0.6875 1.421875 0.125 2.78125 0.125 Z M 3.265625 -3.84375 C 2.421875 -4.1875 1.625 -4.53125 1.625 -5.390625 C 1.625 -6.078125 2.109375 -6.515625 2.78125 -6.515625 C 3.5625 -6.515625 4.015625 -5.96875 4.015625 -5.265625 C 4.015625 -4.75 3.75 -4.28125 3.265625 -3.84375 Z M 2.78125 -0.546875 C 1.90625 -0.546875 1.265625 -1.109375 1.265625 -1.875 C 1.265625 -2.546875 1.6875 -3.0625 2.265625 -3.421875 C 3.28125 -3.015625 4.1875 -2.703125 4.1875 -1.765625 C 4.1875 -1.046875 3.625 -0.546875 2.78125 -0.546875 Z M 2.78125 -0.546875 "/>
</g>
<g id="glyph-0-3">
<path d="M 0.875 0 L 4.859375 0 L 4.859375 -0.75 L 3.390625 -0.75 L 3.390625 -7.0625 L 2.703125 -7.0625 C 2.3125 -6.828125 1.84375 -6.65625 1.203125 -6.53125 L 1.203125 -5.96875 L 2.5 -5.96875 L 2.5 -0.75 L 0.875 -0.75 Z M 0.875 0 "/>
</g>
<g id="glyph-0-4">
<path d="M 0.4375 0 L 5 0 L 5 -0.78125 L 2.953125 -0.78125 C 2.578125 -0.78125 2.140625 -0.75 1.765625 -0.71875 C 3.4375 -2.46875 4.65625 -3.796875 4.65625 -5.125 C 4.65625 -6.375 3.828125 -7.1875 2.53125 -7.1875 C 1.609375 -7.1875 0.984375 -6.78125 0.390625 -6.125 L 0.921875 -5.609375 C 1.328125 -6.078125 1.828125 -6.453125 2.421875 -6.453125 C 3.328125 -6.453125 3.765625 -5.890625 3.765625 -5.078125 C 3.765625 -3.921875 2.5625 -2.65625 0.4375 -0.53125 Z M 0.4375 0 "/>
</g>
<g id="glyph-0-5">
<path d="M 2.96875 0.125 C 4.09375 0.125 5.046875 -0.78125 5.046875 -2.125 C 5.046875 -3.578125 4.265625 -4.3125 3.03125 -4.3125 C 2.46875 -4.3125 1.828125 -3.96875 1.390625 -3.40625 C 1.421875 -5.671875 2.265625 -6.4375 3.265625 -6.4375 C 3.703125 -6.4375 4.140625 -6.234375 4.421875 -5.890625 L 4.921875 -6.453125 C 4.53125 -6.875 3.984375 -7.1875 3.21875 -7.1875 C 1.8125 -7.1875 0.53125 -6.109375 0.53125 -3.265625 C 0.53125 -1 1.578125 0.125 2.96875 0.125 Z M 1.40625 -2.6875 C 1.890625 -3.390625 2.4375 -3.640625 2.890625 -3.640625 C 3.765625 -3.640625 4.203125 -3.046875 4.203125 -2.125 C 4.203125 -1.203125 3.671875 -0.578125 2.96875 -0.578125 C 2.078125 -0.578125 1.53125 -1.3125 1.40625 -2.6875 Z M 1.40625 -2.6875 "/>
</g>
<g id="glyph-0-6">
<path d="M 3.375 0 L 4.21875 0 L 4.21875 -1.953125 L 5.1875 -1.953125 L 5.1875 -2.671875 L 4.21875 -2.671875 L 4.21875 -7.0625 L 3.21875 -7.0625 L 0.203125 -2.546875 L 0.203125 -1.953125 L 3.375 -1.953125 Z M 3.375 -2.671875 L 1.140625 -2.671875 L 2.796875 -5.09375 C 3 -5.453125 3.203125 -5.75 3.375 -6.09375 L 3.421875 -6.09375 C 3.390625 -5.71875 3.375 -5.109375 3.375 -4.75 Z M 3.375 -2.671875 "/>
</g>
</g>
<clipPath id="clip-0">
<path clip-rule="nonzero" d="M 0.664062 15 L 25 15 L 25 41 L 0.664062 41 Z M 0.664062 15 "/>
</clipPath>
<clipPath id="clip-1">
<path clip-rule="nonzero" d="M 27 49 L 53 49 L 53 73.140625 L 27 73.140625 Z M 27 49 "/>
</clipPath>
<clipPath id="clip-2">
<path clip-rule="nonzero" d="M 140 49 L 166 49 L 166 73.140625 L 140 73.140625 Z M 140 49 "/>
</clipPath>
<clipPath id="clip-3">
<path clip-rule="nonzero" d="M 365 0 L 389.441406 0 L 389.441406 24 L 365 24 Z M 365 0 "/>
</clipPath>
<clipPath id="clip-4">
<path clip-rule="nonzero" d="M 345 49 L 372 49 L 372 73.140625 L 345 73.140625 Z M 345 49 "/>
</clipPath>
</defs>
<path fill="none" stroke-width="0.3985" stroke-linecap="butt" stroke-linejoin="miter" stroke="rgb(0%, 0%, 0%)" stroke-opacity="1" stroke-miterlimit="10" d="M 7.088132 -0.000462892 C 7.088132 3.912902 3.913434 7.087599 0.0000696276 7.087599 C -3.913295 7.087599 -7.087993 3.912902 -7.087993 -0.000462892 C -7.087993 -3.913828 -3.913295 -7.088525 0.0000696276 -7.088525 C 3.913434 -7.088525 7.088132 -3.913828 7.088132 -0.000462892 Z M 7.088132 -0.000462892 " transform="matrix(0.994189, 0, 0, -0.994189, 40.050712, 11.210477)"/>
<g fill="rgb(0%, 0%, 0%)" fill-opacity="1">
<use xlink:href="#glyph-0-0" x="37.301779" y="14.741837"/>
</g>
<g clip-path="url(#clip-0)">
<path fill="none" stroke-width="0.3985" stroke-linecap="butt" stroke-linejoin="miter" stroke="rgb(0%, 0%, 0%)" stroke-opacity="1" stroke-miterlimit="10" d="M -21.260188 -17.009455 C -21.260188 -13.09609 -24.430957 -9.921393 -28.348251 -9.921393 C -32.261616 -9.921393 -35.432384 -13.09609 -35.432384 -17.009455 C -35.432384 -20.92282 -32.261616 -24.093588 -28.348251 -24.093588 C -24.430957 -24.093588 -21.260188 -20.92282 -21.260188 -17.009455 Z M -21.260188 -17.009455 " transform="matrix(0.994189, 0, 0, -0.994189, 40.050712, 11.210477)"/>
</g>
<g fill="rgb(0%, 0%, 0%)" fill-opacity="1">
<use xlink:href="#glyph-0-1" x="6.371559" y="31.651007"/>
<use xlink:href="#glyph-0-0" x="11.868673" y="31.651007"/>
</g>
<path fill="none" stroke-width="0.3985" stroke-linecap="butt" stroke-linejoin="miter" stroke="rgb(0%, 0%, 0%)" stroke-opacity="1" stroke-miterlimit="10" d="M -6.247169 -3.748806 L -22.101012 -13.261112 " transform="matrix(0.994189, 0, 0, -0.994189, 40.050712, 11.210477)"/>
<path fill="none" stroke-width="0.3985" stroke-linecap="butt" stroke-linejoin="miter" stroke="rgb(0%, 0%, 0%)" stroke-opacity="1" stroke-miterlimit="10" d="M 35.432523 -17.009455 C 35.432523 -13.09609 32.261755 -9.921393 28.34839 -9.921393 C 24.431096 -9.921393 21.260328 -13.09609 21.260328 -17.009455 C 21.260328 -20.92282 24.431096 -24.093588 28.34839 -24.093588 C 32.261755 -24.093588 35.432523 -20.92282 35.432523 -17.009455 Z M 35.432523 -17.009455 " transform="matrix(0.994189, 0, 0, -0.994189, 40.050712, 11.210477)"/>
<g fill="rgb(0%, 0%, 0%)" fill-opacity="1">
<use xlink:href="#glyph-0-2" x="65.48406" y="31.651007"/>
</g>
<path fill="none" stroke-width="0.3985" stroke-linecap="butt" stroke-linejoin="miter" stroke="rgb(0%, 0%, 0%)" stroke-opacity="1" stroke-miterlimit="10" d="M 6.247309 -3.748806 L 22.101151 -13.261112 " transform="matrix(0.994189, 0, 0, -0.994189, 40.050712, 11.210477)"/>
<path fill="none" stroke-width="0.3985" stroke-linecap="butt" stroke-linejoin="miter" stroke="rgb(0%, 0%, 0%)" stroke-opacity="1" stroke-miterlimit="10" d="M 17.009062 -34.014518 C 17.009062 -30.101154 13.834364 -26.930385 9.921 -26.930385 C 6.007635 -26.930385 2.832937 -30.101154 2.832937 -34.014518 C 2.832937 -37.931812 6.007635 -41.102581 9.921 -41.102581 C 13.834364 -41.102581 17.009062 -37.931812 17.009062 -34.014518 Z M 17.009062 -34.014518 " transform="matrix(0.994189, 0, 0, -0.994189, 40.050712, 11.210477)"/>
<g fill="rgb(0%, 0%, 0%)" fill-opacity="1">
<use xlink:href="#glyph-0-3" x="44.417191" y="48.560177"/>
<use xlink:href="#glyph-0-0" x="49.914305" y="48.560177"/>
</g>
<path fill="none" stroke-width="0.3985" stroke-linecap="butt" stroke-linejoin="miter" stroke="rgb(0%, 0%, 0%)" stroke-opacity="1" stroke-miterlimit="10" d="M 22.993053 -21.94831 L 15.276337 -29.075663 " transform="matrix(0.994189, 0, 0, -0.994189, 40.050712, 11.210477)"/>
<g clip-path="url(#clip-1)">
<path fill="none" stroke-width="0.3985" stroke-linecap="butt" stroke-linejoin="miter" stroke="rgb(0%, 0%, 0%)" stroke-opacity="1" stroke-miterlimit="10" d="M 7.088132 -51.023511 C 7.088132 -47.110146 3.913434 -43.939377 0.0000696276 -43.939377 C -3.913295 -43.939377 -7.087993 -47.110146 -7.087993 -51.023511 C -7.087993 -54.936875 -3.913295 -58.111573 0.0000696276 -58.111573 C 3.913434 -58.111573 7.088132 -54.936875 7.088132 -51.023511 Z M 7.088132 -51.023511 " transform="matrix(0.994189, 0, 0, -0.994189, 40.050712, 11.210477)"/>
</g>
<g fill="rgb(0%, 0%, 0%)" fill-opacity="1">
<use xlink:href="#glyph-0-4" x="34.55384" y="65.469346"/>
<use xlink:href="#glyph-0-5" x="40.050954" y="65.469346"/>
</g>
<path fill="none" stroke-width="0.3985" stroke-linecap="butt" stroke-linejoin="miter" stroke="rgb(0%, 0%, 0%)" stroke-opacity="1" stroke-miterlimit="10" d="M 6.251238 -40.308906 L 3.669831 -44.729123 " transform="matrix(0.994189, 0, 0, -0.994189, 40.050712, 11.210477)"/>
<path fill="none" stroke-width="0.3985" stroke-linecap="butt" stroke-linejoin="miter" stroke="rgb(0%, 0%, 0%)" stroke-opacity="1" stroke-miterlimit="10" d="M 53.859914 -34.014518 C 53.859914 -30.101154 50.685216 -26.930385 46.771852 -26.930385 C 42.858487 -26.930385 39.683789 -30.101154 39.683789 -34.014518 C 39.683789 -37.931812 42.858487 -41.102581 46.771852 -41.102581 C 50.685216 -41.102581 53.859914 -37.931812 53.859914 -34.014518 Z M 53.859914 -34.014518 " transform="matrix(0.994189, 0, 0, -0.994189, 40.050712, 11.210477)"/>
<g fill="rgb(0%, 0%, 0%)" fill-opacity="1">
<use xlink:href="#glyph-0-3" x="81.054057" y="48.560177"/>
<use xlink:href="#glyph-0-2" x="86.55117" y="48.560177"/>
</g>
<path fill="none" stroke-width="0.3985" stroke-linecap="butt" stroke-linejoin="miter" stroke="rgb(0%, 0%, 0%)" stroke-opacity="1" stroke-miterlimit="10" d="M 33.699799 -21.94831 L 41.420443 -29.075663 " transform="matrix(0.994189, 0, 0, -0.994189, 40.050712, 11.210477)"/>
<path fill="none" stroke-width="0.3985" stroke-linecap="butt" stroke-linejoin="miter" stroke="rgb(0%, 0%, 0%)" stroke-opacity="1" stroke-miterlimit="10" d="M 177.166268 -0.000462892 C 177.166268 3.912902 173.995499 7.087599 170.082134 7.087599 C 166.16877 7.087599 162.994072 3.912902 162.994072 -0.000462892 C 162.994072 -3.913828 166.16877 -7.088525 170.082134 -7.088525 C 173.995499 -7.088525 177.166268 -3.913828 177.166268 -0.000462892 Z M 177.166268 -0.000462892 " transform="matrix(0.994189, 0, 0, -0.994189, 40.050712, 11.210477)"/>
<g fill="rgb(0%, 0%, 0%)" fill-opacity="1">
<use xlink:href="#glyph-0-0" x="206.39447" y="14.741837"/>
</g>
<path fill="none" stroke-width="0.3985" stroke-linecap="butt" stroke-linejoin="miter" stroke="rgb(0%, 0%, 0%)" stroke-opacity="1" stroke-miterlimit="10" d="M 148.821876 -17.009455 C 148.821876 -13.09609 145.647179 -9.921393 141.733814 -9.921393 C 137.820449 -9.921393 134.645751 -13.09609 134.645751 -17.009455 C 134.645751 -20.92282 137.820449 -24.093588 141.733814 -24.093588 C 145.647179 -24.093588 148.821876 -20.92282 148.821876 -17.009455 Z M 148.821876 -17.009455 " transform="matrix(0.994189, 0, 0, -0.994189, 40.050712, 11.210477)"/>
<g fill="rgb(0%, 0%, 0%)" fill-opacity="1">
<use xlink:href="#glyph-0-2" x="178.212189" y="31.651007"/>
</g>
<path fill="none" stroke-width="0.3985" stroke-linecap="butt" stroke-linejoin="miter" stroke="rgb(0%, 0%, 0%)" stroke-opacity="1" stroke-miterlimit="10" d="M 163.834895 -3.748806 L 147.981053 -13.261112 " transform="matrix(0.994189, 0, 0, -0.994189, 40.050712, 11.210477)"/>
<path fill="none" stroke-width="0.3985" stroke-linecap="butt" stroke-linejoin="miter" stroke="rgb(0%, 0%, 0%)" stroke-opacity="1" stroke-miterlimit="10" d="M 130.394486 -34.014518 C 130.394486 -30.101154 127.223717 -26.930385 123.310352 -26.930385 C 119.393058 -26.930385 116.22229 -30.101154 116.22229 -34.014518 C 116.22229 -37.931812 119.393058 -41.102581 123.310352 -41.102581 C 127.223717 -41.102581 130.394486 -37.931812 130.394486 -34.014518 Z M 130.394486 -34.014518 " transform="matrix(0.994189, 0, 0, -0.994189, 40.050712, 11.210477)"/>
<g fill="rgb(0%, 0%, 0%)" fill-opacity="1">
<use xlink:href="#glyph-0-3" x="157.145321" y="48.560177"/>
<use xlink:href="#glyph-0-0" x="162.642434" y="48.560177"/>
</g>
<path fill="none" stroke-width="0.3985" stroke-linecap="butt" stroke-linejoin="miter" stroke="rgb(0%, 0%, 0%)" stroke-opacity="1" stroke-miterlimit="10" d="M 136.382405 -21.94831 L 128.661761 -29.075663 " transform="matrix(0.994189, 0, 0, -0.994189, 40.050712, 11.210477)"/>
<g clip-path="url(#clip-2)">
<path fill="none" stroke-width="0.3985" stroke-linecap="butt" stroke-linejoin="miter" stroke="rgb(0%, 0%, 0%)" stroke-opacity="1" stroke-miterlimit="10" d="M 120.473556 -51.023511 C 120.473556 -47.110146 117.302787 -43.939377 113.385493 -43.939377 C 109.472129 -43.939377 106.30136 -47.110146 106.30136 -51.023511 C 106.30136 -54.936875 109.472129 -58.111573 113.385493 -58.111573 C 117.302787 -58.111573 120.473556 -54.936875 120.473556 -51.023511 Z M 120.473556 -51.023511 " transform="matrix(0.994189, 0, 0, -0.994189, 40.050712, 11.210477)"/>
</g>
<g fill="rgb(0%, 0%, 0%)" fill-opacity="1">
<use xlink:href="#glyph-0-4" x="147.28197" y="65.469346"/>
<use xlink:href="#glyph-0-5" x="152.779083" y="65.469346"/>
</g>
<path fill="none" stroke-width="0.3985" stroke-linecap="butt" stroke-linejoin="miter" stroke="rgb(0%, 0%, 0%)" stroke-opacity="1" stroke-miterlimit="10" d="M 119.636661 -40.308906 L 117.059184 -44.729123 " transform="matrix(0.994189, 0, 0, -0.994189, 40.050712, 11.210477)"/>
<path fill="none" stroke-width="0.3985" stroke-linecap="butt" stroke-linejoin="miter" stroke="rgb(0%, 0%, 0%)" stroke-opacity="1" stroke-miterlimit="10" d="M 167.245338 -34.014518 C 167.245338 -30.101154 164.074569 -26.930385 160.161204 -26.930385 C 156.243911 -26.930385 153.073142 -30.101154 153.073142 -34.014518 C 153.073142 -37.931812 156.243911 -41.102581 160.161204 -41.102581 C 164.074569 -41.102581 167.245338 -37.931812 167.245338 -34.014518 Z M 167.245338 -34.014518 " transform="matrix(0.994189, 0, 0, -0.994189, 40.050712, 11.210477)"/>
<g fill="rgb(0%, 0%, 0%)" fill-opacity="1">
<use xlink:href="#glyph-0-3" x="193.782186" y="48.560177"/>
<use xlink:href="#glyph-0-2" x="199.2793" y="48.560177"/>
</g>
<path fill="none" stroke-width="0.3985" stroke-linecap="butt" stroke-linejoin="miter" stroke="rgb(0%, 0%, 0%)" stroke-opacity="1" stroke-miterlimit="10" d="M 147.089151 -21.94831 L 154.805867 -29.075663 " transform="matrix(0.994189, 0, 0, -0.994189, 40.050712, 11.210477)"/>
<path fill="none" stroke-width="0.3985" stroke-linecap="butt" stroke-linejoin="miter" stroke="rgb(0%, 0%, 0%)" stroke-opacity="1" stroke-miterlimit="10" d="M 205.514588 -17.009455 C 205.514588 -13.09609 202.339891 -9.921393 198.426526 -9.921393 C 194.513161 -9.921393 191.342392 -13.09609 191.342392 -17.009455 C 191.342392 -20.92282 194.513161 -24.093588 198.426526 -24.093588 C 202.339891 -24.093588 205.514588 -20.92282 205.514588 -17.009455 Z M 205.514588 -17.009455 " transform="matrix(0.994189, 0, 0, -0.994189, 40.050712, 11.210477)"/>
<g fill="rgb(0%, 0%, 0%)" fill-opacity="1">
<use xlink:href="#glyph-0-1" x="231.827818" y="31.651007"/>
<use xlink:href="#glyph-0-0" x="237.324932" y="31.651007"/>
</g>
<path fill="none" stroke-width="0.3985" stroke-linecap="butt" stroke-linejoin="miter" stroke="rgb(0%, 0%, 0%)" stroke-opacity="1" stroke-miterlimit="10" d="M 176.329373 -3.748806 L 192.179287 -13.261112 " transform="matrix(0.994189, 0, 0, -0.994189, 40.050712, 11.210477)"/>
<g clip-path="url(#clip-3)">
<path fill="none" stroke-width="0.3985" stroke-linecap="butt" stroke-linejoin="miter" stroke="rgb(0%, 0%, 0%)" stroke-opacity="1" stroke-miterlimit="10" d="M 347.248332 -0.000462892 C 347.248332 3.912902 344.077564 7.087599 340.16027 7.087599 C 336.246905 7.087599 333.076137 3.912902 333.076137 -0.000462892 C 333.076137 -3.913828 336.246905 -7.088525 340.16027 -7.088525 C 344.077564 -7.088525 347.248332 -3.913828 347.248332 -0.000462892 Z M 347.248332 -0.000462892 " transform="matrix(0.994189, 0, 0, -0.994189, 40.050712, 11.210477)"/>
</g>
<g fill="rgb(0%, 0%, 0%)" fill-opacity="1">
<use xlink:href="#glyph-0-5" x="375.487162" y="14.741837"/>
</g>
<path fill="none" stroke-width="0.3985" stroke-linecap="butt" stroke-linejoin="miter" stroke="rgb(0%, 0%, 0%)" stroke-opacity="1" stroke-miterlimit="10" d="M 318.900012 -17.009455 C 318.900012 -13.09609 315.729243 -9.921393 311.815879 -9.921393 C 307.902514 -9.921393 304.727816 -13.09609 304.727816 -17.009455 C 304.727816 -20.92282 307.902514 -24.093588 311.815879 -24.093588 C 315.729243 -24.093588 318.900012 -20.92282 318.900012 -17.009455 Z M 318.900012 -17.009455 " transform="matrix(0.994189, 0, 0, -0.994189, 40.050712, 11.210477)"/>
<g fill="rgb(0%, 0%, 0%)" fill-opacity="1">
<use xlink:href="#glyph-0-3" x="344.556942" y="31.715629"/>
<use xlink:href="#glyph-0-4" x="350.054056" y="31.715629"/>
</g>
<path fill="none" stroke-width="0.3985" stroke-linecap="butt" stroke-linejoin="miter" stroke="rgb(0%, 0%, 0%)" stroke-opacity="1" stroke-miterlimit="10" d="M 333.913031 -3.748806 L 318.063118 -13.261112 " transform="matrix(0.994189, 0, 0, -0.994189, 40.050712, 11.210477)"/>
<path fill="none" stroke-width="0.3985" stroke-linecap="butt" stroke-linejoin="miter" stroke="rgb(0%, 0%, 0%)" stroke-opacity="1" stroke-miterlimit="10" d="M 300.47655 -34.014518 C 300.47655 -30.101154 297.301853 -26.930385 293.388488 -26.930385 C 289.475123 -26.930385 286.304355 -30.101154 286.304355 -34.014518 C 286.304355 -37.931812 289.475123 -41.102581 293.388488 -41.102581 C 297.301853 -41.102581 300.47655 -37.931812 300.47655 -34.014518 Z M 300.47655 -34.014518 " transform="matrix(0.994189, 0, 0, -0.994189, 40.050712, 11.210477)"/>
<g fill="rgb(0%, 0%, 0%)" fill-opacity="1">
<use xlink:href="#glyph-0-3" x="326.238012" y="48.560177"/>
<use xlink:href="#glyph-0-2" x="331.735126" y="48.560177"/>
</g>
<path fill="none" stroke-width="0.3985" stroke-linecap="butt" stroke-linejoin="miter" stroke="rgb(0%, 0%, 0%)" stroke-opacity="1" stroke-miterlimit="10" d="M 306.460541 -21.94831 L 298.743826 -29.075663 " transform="matrix(0.994189, 0, 0, -0.994189, 40.050712, 11.210477)"/>
<path fill="none" stroke-width="0.3985" stroke-linecap="butt" stroke-linejoin="miter" stroke="rgb(0%, 0%, 0%)" stroke-opacity="1" stroke-miterlimit="10" d="M 337.327402 -34.014518 C 337.327402 -30.101154 334.152705 -26.930385 330.23934 -26.930385 C 326.325975 -26.930385 323.155207 -30.101154 323.155207 -34.014518 C 323.155207 -37.931812 326.325975 -41.102581 330.23934 -41.102581 C 334.152705 -41.102581 337.327402 -37.931812 337.327402 -34.014518 Z M 337.327402 -34.014518 " transform="matrix(0.994189, 0, 0, -0.994189, 40.050712, 11.210477)"/>
<g fill="rgb(0%, 0%, 0%)" fill-opacity="1">
<use xlink:href="#glyph-0-4" x="362.874878" y="48.624799"/>
<use xlink:href="#glyph-0-6" x="368.371991" y="48.624799"/>
</g>
<path fill="none" stroke-width="0.3985" stroke-linecap="butt" stroke-linejoin="miter" stroke="rgb(0%, 0%, 0%)" stroke-opacity="1" stroke-miterlimit="10" d="M 317.167287 -21.94831 L 324.887932 -29.075663 " transform="matrix(0.994189, 0, 0, -0.994189, 40.050712, 11.210477)"/>
<g clip-path="url(#clip-4)">
<path fill="none" stroke-width="0.3985" stroke-linecap="butt" stroke-linejoin="miter" stroke="rgb(0%, 0%, 0%)" stroke-opacity="1" stroke-miterlimit="10" d="M 327.406473 -51.023511 C 327.406473 -47.110146 324.231775 -43.939377 320.31841 -43.939377 C 316.405045 -43.939377 313.234277 -47.110146 313.234277 -51.023511 C 313.234277 -54.936875 316.405045 -58.111573 320.31841 -58.111573 C 324.231775 -58.111573 327.406473 -54.936875 327.406473 -51.023511 Z M 327.406473 -51.023511 " transform="matrix(0.994189, 0, 0, -0.994189, 40.050712, 11.210477)"/>
</g>
<g fill="rgb(0%, 0%, 0%)" fill-opacity="1">
<use xlink:href="#glyph-0-1" x="353.011527" y="65.469346"/>
<use xlink:href="#glyph-0-1" x="358.508641" y="65.469346"/>
</g>
<path fill="none" stroke-width="0.3985" stroke-linecap="butt" stroke-linejoin="miter" stroke="rgb(0%, 0%, 0%)" stroke-opacity="1" stroke-miterlimit="10" d="M 326.569578 -40.308906 L 323.988172 -44.729123 " transform="matrix(0.994189, 0, 0, -0.994189, 40.050712, 11.210477)"/>
<path fill="none" stroke-width="0.3985" stroke-linecap="butt" stroke-linejoin="miter" stroke="rgb(0%, 0%, 0%)" stroke-opacity="1" stroke-miterlimit="10" d="M 70.868906 -34.014518 L 98.403907 -34.014518 " transform="matrix(0.994189, 0, 0, -0.994189, 40.050712, 11.210477)"/>
<path fill-rule="nonzero" fill="rgb(0%, 0%, 0%)" fill-opacity="1" stroke-width="0.3985" stroke-linecap="butt" stroke-linejoin="miter" stroke="rgb(0%, 0%, 0%)" stroke-opacity="1" stroke-miterlimit="10" d="M -5.203076 2.335436 L 0.297637 0.00156162 L -5.203076 -2.336242 Z M -5.203076 2.335436 " transform="matrix(0.994189, 0, 0, -0.994189, 137.88378, 45.028896)"/>
</svg>
