<?xml version="1.0" encoding="UTF-8"?>
<svg xmlns="http://www.w3.org/2000/svg" xmlns:xlink="http://www.w3.org/1999/xlink" width="301.23" height="84.38" viewBox="0 0 301.23 84.38">
<defs>
<g>
<g id="glyph-0-0">
<path d="M 2.59375 0.125 C 3.890625 0.125 4.9375 -0.625 4.9375 -1.875 C 4.9375 -2.84375 4.25 -3.46875 3.40625 -3.671875 L 3.40625 -3.71875 C 4.15625 -4 4.6875 -4.546875 4.6875 -5.40625 C 4.6875 -6.53125 3.796875 -7.1875 2.578125 -7.1875 C 1.734375 -7.1875 1.09375 -6.8125 0.546875 -6.296875 L 1.03125 -5.734375 C 1.453125 -6.15625 1.953125 -6.453125 2.546875 -6.453125 C 3.296875 -6.453125 3.765625 -6.015625 3.765625 -5.328125 C 3.765625 -4.59375 3.265625 -4.015625 1.765625 -4.015625 L 1.765625 -3.3125 C 3.4375 -3.3125 4.015625 -2.765625 4.015625 -1.921875 C 4.015625 -1.125 3.40625 -0.625 2.546875 -0.625 C 1.71875 -0.625 1.171875 -1.015625 0.75 -1.453125 L 0.28125 -0.875 C 0.765625 -0.34375 1.46875 0.125 2.59375 0.125 Z M 2.59375 0.125 "/>
</g>
<g id="glyph-0-1">
<path d="M 0.875 0 L 4.84375 0 L 4.84375 -0.75 L 3.390625 -0.75 L 3.390625 -7.046875 L 2.703125 -7.046875 C 2.296875 -6.8125 1.84375 -6.640625 1.203125 -6.53125 L 1.203125 -5.953125 L 2.5 -5.953125 L 2.5 -0.75 L 0.875 -0.75 Z M 0.875 0 "/>
</g>
<g id="glyph-0-2">
<path d="M 2.75 0.125 C 4.15625 0.125 5 -1.1875 5 -3.546875 C 5 -5.90625 4.15625 -7.1875 2.75 -7.1875 C 1.328125 -7.1875 0.5 -5.921875 0.5 -3.546875 C 0.5 -1.1875 1.328125 0.125 2.75 0.125 Z M 2.75 -0.609375 C 1.921875 -0.609375 1.359375 -1.484375 1.359375 -3.546875 C 1.359375 -5.625 1.921875 -6.453125 2.75 -6.453125 C 3.578125 -6.453125 4.140625 -5.625 4.140625 -3.546875 C 4.140625 -1.484375 3.578125 -0.609375 2.75 -0.609375 Z M 2.75 -0.609375 "/>
</g>
<g id="glyph-0-3">
<path d="M 0.4375 0 L 5 0 L 5 -0.78125 L 2.953125 -0.78125 C 2.578125 -0.78125 2.140625 -0.734375 1.765625 -0.71875 C 3.4375 -2.46875 4.65625 -3.78125 4.65625 -5.109375 C 4.65625 -6.359375 3.828125 -7.1875 2.53125 -7.1875 C 1.609375 -7.1875 0.984375 -6.765625 0.390625 -6.109375 L 0.921875 -5.609375 C 1.328125 -6.078125 1.828125 -6.453125 2.421875 -6.453125 C 3.328125 -6.453125 3.765625 -5.875 3.765625 -5.078125 C 3.765625 -3.921875 2.5625 -2.65625 0.4375 -0.53125 Z M 0.4375 0 "/>
</g>
<g id="glyph-0-4">
<path d="M 3.359375 0 L 4.21875 0 L 4.21875 -1.953125 L 5.1875 -1.953125 L 5.1875 -2.671875 L 4.21875 -2.671875 L 4.21875 -7.046875 L 3.21875 -7.046875 L 0.203125 -2.546875 L 0.203125 -1.953125 L 3.359375 -1.953125 Z M 3.359375 -2.671875 L 1.140625 -2.671875 L 2.796875 -5.078125 C 3 -5.4375 3.1875 -5.75 3.375 -6.078125 L 3.40625 -6.078125 C 3.390625 -5.71875 3.359375 -5.09375 3.359375 -4.734375 Z M 3.359375 -2.671875 "/>
</g>
<g id="glyph-0-5">
<path d="M 2.765625 0.125 C 4.125 0.125 5.03125 -0.6875 5.03125 -1.734375 C 5.03125 -2.6875 4.4375 -3.1875 3.8125 -3.578125 L 3.8125 -3.609375 C 4.25 -3.9375 4.78125 -4.5625 4.78125 -5.3125 C 4.78125 -6.40625 4.03125 -7.1875 2.796875 -7.1875 C 1.65625 -7.1875 0.796875 -6.453125 0.796875 -5.375 C 0.796875 -4.640625 1.25 -4.109375 1.78125 -3.75 L 1.78125 -3.703125 C 1.125 -3.359375 0.453125 -2.71875 0.453125 -1.796875 C 0.453125 -0.6875 1.421875 0.125 2.765625 0.125 Z M 3.265625 -3.84375 C 2.40625 -4.171875 1.625 -4.53125 1.625 -5.375 C 1.625 -6.0625 2.109375 -6.515625 2.78125 -6.515625 C 3.546875 -6.515625 4 -5.953125 4 -5.265625 C 4 -4.734375 3.734375 -4.265625 3.265625 -3.84375 Z M 2.78125 -0.546875 C 1.90625 -0.546875 1.25 -1.109375 1.25 -1.875 C 1.25 -2.546875 1.6875 -3.0625 2.25 -3.421875 C 3.28125 -3 4.171875 -2.703125 4.171875 -1.765625 C 4.171875 -1.046875 3.625 -0.546875 2.78125 -0.546875 Z M 2.78125 -0.546875 "/>
</g>
<g id="glyph-0-6">
<path d="M 1.953125 0 L 2.890625 0 C 3.015625 -2.75 3.359375 -4.359375 5.03125 -6.5 L 5.03125 -7.046875 L 0.484375 -7.046875 L 0.484375 -6.265625 L 4 -6.265625 C 2.609375 -4.34375 2.09375 -2.65625 1.953125 0 Z M 1.953125 0 "/>
</g>
<g id="glyph-0-7">
<path d="M 2.96875 0.125 C 4.09375 0.125 5.046875 -0.78125 5.046875 -2.125 C 5.046875 -3.578125 4.25 -4.296875 3.03125 -4.296875 C 2.46875 -4.296875 1.828125 -3.96875 1.390625 -3.40625 C 1.421875 -5.65625 2.25 -6.421875 3.25 -6.421875 C 3.703125 -6.421875 4.140625 -6.21875 4.40625 -5.875 L 4.921875 -6.4375 C 4.515625 -6.859375 3.96875 -7.1875 3.21875 -7.1875 C 1.8125 -7.1875 0.53125 -6.09375 0.53125 -3.265625 C 0.53125 -1 1.578125 0.125 2.96875 0.125 Z M 1.40625 -2.6875 C 1.890625 -3.375 2.4375 -3.625 2.890625 -3.625 C 3.765625 -3.625 4.203125 -3.046875 4.203125 -2.125 C 4.203125 -1.203125 3.65625 -0.578125 2.953125 -0.578125 C 2.0625 -0.578125 1.515625 -1.3125 1.40625 -2.6875 Z M 1.40625 -2.6875 "/>
</g>
<g id="glyph-1-0">
<path d="M 7.546875 -6 C 7.640625 -6.34375 7.65625 -6.453125 8.375 -6.453125 C 8.640625 -6.453125 8.71875 -6.453125 8.71875 -6.640625 C 8.71875 -6.75 8.609375 -6.75 8.578125 -6.75 C 8.296875 -6.75 7.59375 -6.71875 7.3125 -6.71875 C 7.015625 -6.71875 6.3125 -6.75 6.03125 -6.75 C 5.953125 -6.75 5.84375 -6.75 5.84375 -6.5625 C 5.84375 -6.453125 5.9375 -6.453125 6.125 -6.453125 C 6.140625 -6.453125 6.328125 -6.453125 6.5 -6.421875 C 6.671875 -6.40625 6.765625 -6.40625 6.765625 -6.265625 C 6.765625 -6.234375 6.75 -6.21875 6.71875 -6.078125 L 6.125 -3.671875 L 3.109375 -3.671875 L 3.703125 -6 C 3.78125 -6.34375 3.8125 -6.453125 4.53125 -6.453125 C 4.78125 -6.453125 4.859375 -6.453125 4.859375 -6.640625 C 4.859375 -6.75 4.75 -6.75 4.734375 -6.75 C 4.453125 -6.75 3.734375 -6.71875 3.46875 -6.71875 C 3.171875 -6.71875 2.46875 -6.75 2.1875 -6.75 C 2.109375 -6.75 2 -6.75 2 -6.5625 C 2 -6.453125 2.09375 -6.453125 2.28125 -6.453125 C 2.296875 -6.453125 2.484375 -6.453125 2.65625 -6.421875 C 2.828125 -6.40625 2.921875 -6.40625 2.921875 -6.265625 C 2.921875 -6.234375 2.90625 -6.203125 2.875 -6.078125 L 1.546875 -0.765625 C 1.453125 -0.390625 1.4375 -0.3125 0.65625 -0.3125 C 0.46875 -0.3125 0.390625 -0.3125 0.390625 -0.109375 C 0.390625 0 0.5 0 0.53125 0 C 0.796875 0 1.5 -0.03125 1.78125 -0.03125 C 1.984375 -0.03125 2.203125 -0.015625 2.40625 -0.015625 C 2.625 -0.015625 2.84375 0 3.0625 0 C 3.140625 0 3.25 0 3.25 -0.203125 C 3.25 -0.3125 3.171875 -0.3125 2.984375 -0.3125 C 2.609375 -0.3125 2.328125 -0.3125 2.328125 -0.484375 C 2.328125 -0.546875 2.359375 -0.59375 2.359375 -0.65625 L 3.03125 -3.359375 L 6.046875 -3.359375 C 5.640625 -1.71875 5.40625 -0.78125 5.375 -0.640625 C 5.265625 -0.3125 5.078125 -0.3125 4.46875 -0.3125 C 4.328125 -0.3125 4.234375 -0.3125 4.234375 -0.109375 C 4.234375 0 4.359375 0 4.375 0 C 4.65625 0 5.34375 -0.03125 5.625 -0.03125 C 5.828125 -0.03125 6.046875 -0.015625 6.265625 -0.015625 C 6.484375 -0.015625 6.703125 0 6.90625 0 C 6.984375 0 7.09375 0 7.09375 -0.203125 C 7.09375 -0.3125 7.015625 -0.3125 6.828125 -0.3125 C 6.453125 -0.3125 6.1875 -0.3125 6.1875 -0.484375 C 6.1875 -0.546875 6.203125 -0.59375 6.21875 -0.65625 Z M 7.546875 -6 "/>
</g>
<g id="glyph-2-0">
<path d="M 2.3125 -4.40625 C 2.3125 -4.59375 2.3125 -4.59375 2.109375 -4.59375 C 1.671875 -4.15625 1.03125 -4.15625 0.75 -4.15625 L 0.75 -3.90625 C 0.921875 -3.90625 1.375 -3.90625 1.765625 -4.09375 L 1.765625 -0.5625 C 1.765625 -0.34375 1.765625 -0.25 1.0625 -0.25 L 0.796875 -0.25 L 0.796875 0 C 0.921875 0 1.78125 -0.03125 2.03125 -0.03125 C 2.25 -0.03125 3.125 0 3.28125 0 L 3.28125 -0.25 L 3.015625 -0.25 C 2.3125 -0.25 2.3125 -0.34375 2.3125 -0.5625 Z M 2.3125 -4.40625 "/>
</g>
<g id="glyph-2-1">
<path d="M 3.5 -1.265625 L 3.265625 -1.265625 C 3.234375 -1.109375 3.171875 -0.703125 3.078125 -0.625 C 3.03125 -0.59375 2.484375 -0.59375 2.390625 -0.59375 L 1.125 -0.59375 C 1.84375 -1.234375 2.09375 -1.421875 2.5 -1.75 C 3.015625 -2.15625 3.5 -2.59375 3.5 -3.25 C 3.5 -4.078125 2.765625 -4.59375 1.875 -4.59375 C 1.015625 -4.59375 0.4375 -4 0.4375 -3.359375 C 0.4375 -3 0.734375 -2.96875 0.796875 -2.96875 C 0.96875 -2.96875 1.171875 -3.09375 1.171875 -3.34375 C 1.171875 -3.453125 1.125 -3.703125 0.765625 -3.703125 C 0.96875 -4.1875 1.453125 -4.34375 1.765625 -4.34375 C 2.46875 -4.34375 2.828125 -3.8125 2.828125 -3.25 C 2.828125 -2.640625 2.390625 -2.171875 2.171875 -1.921875 L 0.5 -0.265625 C 0.4375 -0.203125 0.4375 -0.1875 0.4375 0 L 3.28125 0 Z M 3.5 -1.265625 "/>
</g>
</g>
<clipPath id="clip-0">
<path clip-rule="nonzero" d="M 0.714844 32 L 25 32 L 25 58 L 0.714844 58 Z M 0.714844 32 "/>
</clipPath>
</defs>
<path fill="none" stroke-width="0.3985" stroke-linecap="butt" stroke-linejoin="miter" stroke="rgb(0%, 0%, 0%)" stroke-opacity="1" stroke-miterlimit="10" d="M 7.087746 -0.00157244 C 7.087746 3.913705 3.91224 7.085276 0.000897458 7.085276 C -3.91438 7.085276 -7.085951 3.913705 -7.085951 -0.00157244 C -7.085951 -3.912915 -3.91438 -7.088421 0.000897458 -7.088421 C 3.91224 -7.088421 7.087746 -3.912915 7.087746 -0.00157244 Z M 7.087746 -0.00157244 " transform="matrix(0.992706, 0, 0, -0.992706, 58.335047, 11.193752)"/>
<g fill="rgb(0%, 0%, 0%)" fill-opacity="1">
<use xlink:href="#glyph-0-0" x="55.590215" y="14.719843"/>
</g>
<path fill="none" stroke-width="0.3985" stroke-linecap="butt" stroke-linejoin="miter" stroke="rgb(0%, 0%, 0%)" stroke-opacity="1" stroke-miterlimit="10" d="M -21.259648 -17.008435 C -21.259648 -13.093158 -24.43122 -9.921586 -28.346497 -9.921586 C -32.261774 -9.921586 -35.433345 -13.093158 -35.433345 -17.008435 C -35.433345 -20.923712 -32.261774 -24.095284 -28.346497 -24.095284 C -24.43122 -24.095284 -21.259648 -20.923712 -21.259648 -17.008435 Z M -21.259648 -17.008435 " transform="matrix(0.992706, 0, 0, -0.992706, 58.335047, 11.193752)"/>
<g fill="rgb(0%, 0%, 0%)" fill-opacity="1">
<use xlink:href="#glyph-0-1" x="24.706142" y="31.603784"/>
<use xlink:href="#glyph-0-2" x="30.195054" y="31.603784"/>
</g>
<path fill="none" stroke-width="0.3985" stroke-linecap="butt" stroke-linejoin="miter" stroke="rgb(0%, 0%, 0%)" stroke-opacity="1" stroke-miterlimit="10" d="M -6.247806 -3.747647 L -22.097793 -13.258426 " transform="matrix(0.992706, 0, 0, -0.992706, 58.335047, 11.193752)"/>
<g clip-path="url(#clip-0)">
<path fill="none" stroke-width="0.3985" stroke-linecap="butt" stroke-linejoin="miter" stroke="rgb(0%, 0%, 0%)" stroke-opacity="1" stroke-miterlimit="10" d="M -39.687028 -34.015298 C -39.687028 -30.103955 -42.8586 -26.928449 -46.773877 -26.928449 C -50.685219 -26.928449 -53.860726 -30.103955 -53.860726 -34.015298 C -53.860726 -37.930575 -50.685219 -41.102146 -46.773877 -41.102146 C -42.8586 -41.102146 -39.687028 -37.930575 -39.687028 -34.015298 Z M -39.687028 -34.015298 " transform="matrix(0.992706, 0, 0, -0.992706, 58.335047, 11.193752)"/>
</g>
<g fill="rgb(0%, 0%, 0%)" fill-opacity="1">
<use xlink:href="#glyph-0-3" x="6.414544" y="48.552252"/>
<use xlink:href="#glyph-0-1" x="11.903456" y="48.552252"/>
</g>
<path fill="none" stroke-width="0.3985" stroke-linecap="butt" stroke-linejoin="miter" stroke="rgb(0%, 0%, 0%)" stroke-opacity="1" stroke-miterlimit="10" d="M -33.701966 -21.950735 L -41.418407 -29.072998 " transform="matrix(0.992706, 0, 0, -0.992706, 58.335047, 11.193752)"/>
<path fill="none" stroke-width="0.3985" stroke-linecap="butt" stroke-linejoin="miter" stroke="rgb(0%, 0%, 0%)" stroke-opacity="1" stroke-miterlimit="10" d="M -2.836203 -34.015298 C -2.836203 -30.103955 -6.007774 -26.928449 -9.923051 -26.928449 C -13.834394 -26.928449 -17.0099 -30.103955 -17.0099 -34.015298 C -17.0099 -37.930575 -13.834394 -41.102146 -9.923051 -41.102146 C -6.007774 -41.102146 -2.836203 -37.930575 -2.836203 -34.015298 Z M -2.836203 -34.015298 " transform="matrix(0.992706, 0, 0, -0.992706, 58.335047, 11.193752)"/>
<g fill="rgb(0%, 0%, 0%)" fill-opacity="1">
<use xlink:href="#glyph-0-1" x="42.996748" y="48.487726"/>
<use xlink:href="#glyph-0-4" x="48.48566" y="48.487726"/>
</g>
<path fill="none" stroke-width="0.3985" stroke-linecap="butt" stroke-linejoin="miter" stroke="rgb(0%, 0%, 0%)" stroke-opacity="1" stroke-miterlimit="10" d="M -22.994962 -21.950735 L -15.274586 -29.072998 " transform="matrix(0.992706, 0, 0, -0.992706, 58.335047, 11.193752)"/>
<path fill="none" stroke-width="0.3985" stroke-linecap="butt" stroke-linejoin="miter" stroke="rgb(0%, 0%, 0%)" stroke-opacity="1" stroke-miterlimit="10" d="M -12.756217 -51.026095 C -12.756217 -47.110818 -15.927788 -43.939247 -19.843065 -43.939247 C -23.758343 -43.939247 -26.929914 -47.110818 -26.929914 -51.026095 C -26.929914 -54.937437 -23.758343 -58.109009 -19.843065 -58.109009 C -15.927788 -58.109009 -12.756217 -54.937437 -12.756217 -51.026095 Z M -12.756217 -51.026095 " transform="matrix(0.992706, 0, 0, -0.992706, 58.335047, 11.193752)"/>
<g fill="rgb(0%, 0%, 0%)" fill-opacity="1">
<use xlink:href="#glyph-0-3" x="33.148113" y="65.371668"/>
<use xlink:href="#glyph-0-0" x="38.637025" y="65.371668"/>
</g>
<path fill="none" stroke-width="0.3985" stroke-linecap="butt" stroke-linejoin="miter" stroke="rgb(0%, 0%, 0%)" stroke-opacity="1" stroke-miterlimit="10" d="M -13.590427 -40.311221 L -16.171755 -44.730172 " transform="matrix(0.992706, 0, 0, -0.992706, 58.335047, 11.193752)"/>
<path fill="none" stroke-width="0.3985" stroke-linecap="butt" stroke-linejoin="miter" stroke="rgb(0%, 0%, 0%)" stroke-opacity="1" stroke-miterlimit="10" d="M 35.43514 -17.008435 C 35.43514 -13.093158 32.259634 -9.921586 28.348292 -9.921586 C 24.433014 -9.921586 21.261443 -13.093158 21.261443 -17.008435 C 21.261443 -20.923712 24.433014 -24.095284 28.348292 -24.095284 C 32.259634 -24.095284 35.43514 -20.923712 35.43514 -17.008435 Z M 35.43514 -17.008435 " transform="matrix(0.992706, 0, 0, -0.992706, 58.335047, 11.193752)"/>
<g fill="rgb(0%, 0%, 0%)" fill-opacity="1">
<use xlink:href="#glyph-0-5" x="83.730448" y="31.603784"/>
</g>
<path fill="none" stroke-width="0.3985" stroke-linecap="butt" stroke-linejoin="miter" stroke="rgb(0%, 0%, 0%)" stroke-opacity="1" stroke-miterlimit="10" d="M 6.245666 -3.747647 L 22.099588 -13.258426 " transform="matrix(0.992706, 0, 0, -0.992706, 58.335047, 11.193752)"/>
<path fill="none" stroke-width="0.3985" stroke-linecap="butt" stroke-linejoin="miter" stroke="rgb(0%, 0%, 0%)" stroke-opacity="1" stroke-miterlimit="10" d="M 17.00776 -34.015298 C 17.00776 -30.103955 13.836189 -26.928449 9.920911 -26.928449 C 6.005634 -26.928449 2.834063 -30.103955 2.834063 -34.015298 C 2.834063 -37.930575 6.005634 -41.102146 9.920911 -41.102146 C 13.836189 -41.102146 17.00776 -37.930575 17.00776 -34.015298 Z M 17.00776 -34.015298 " transform="matrix(0.992706, 0, 0, -0.992706, 58.335047, 11.193752)"/>
<g fill="rgb(0%, 0%, 0%)" fill-opacity="1">
<use xlink:href="#glyph-0-1" x="62.695011" y="48.487726"/>
<use xlink:href="#glyph-0-6" x="68.183923" y="48.487726"/>
</g>
<path fill="none" stroke-width="0.3985" stroke-linecap="butt" stroke-linejoin="miter" stroke="rgb(0%, 0%, 0%)" stroke-opacity="1" stroke-miterlimit="10" d="M 22.992822 -21.950735 L 15.276381 -29.072998 " transform="matrix(0.992706, 0, 0, -0.992706, 58.335047, 11.193752)"/>
<path fill="none" stroke-width="0.3985" stroke-linecap="butt" stroke-linejoin="miter" stroke="rgb(0%, 0%, 0%)" stroke-opacity="1" stroke-miterlimit="10" d="M 7.087746 -51.026095 C 7.087746 -47.110818 3.91224 -43.939247 0.000897458 -43.939247 C -3.91438 -43.939247 -7.085951 -47.110818 -7.085951 -51.026095 C -7.085951 -54.937437 -3.91438 -58.109009 0.000897458 -58.109009 C 3.91224 -58.109009 7.087746 -54.937437 7.087746 -51.026095 Z M 7.087746 -51.026095 " transform="matrix(0.992706, 0, 0, -0.992706, 58.335047, 11.193752)"/>
<g fill="rgb(0%, 0%, 0%)" fill-opacity="1">
<use xlink:href="#glyph-0-3" x="52.846376" y="65.371668"/>
<use xlink:href="#glyph-0-7" x="58.335288" y="65.371668"/>
</g>
<path fill="none" stroke-width="0.3985" stroke-linecap="butt" stroke-linejoin="miter" stroke="rgb(0%, 0%, 0%)" stroke-opacity="1" stroke-miterlimit="10" d="M 6.249601 -40.311221 L 3.672208 -44.730172 " transform="matrix(0.992706, 0, 0, -0.992706, 58.335047, 11.193752)"/>
<path fill="none" stroke-width="0.3985" stroke-linecap="butt" stroke-linejoin="miter" stroke="rgb(0%, 0%, 0%)" stroke-opacity="1" stroke-miterlimit="10" d="M 177.168176 -0.00157244 C 177.168176 3.913705 173.996605 7.085276 170.081328 7.085276 C 166.166051 7.085276 162.994479 3.913705 162.994479 -0.00157244 C 162.994479 -3.912915 166.166051 -7.088421 170.081328 -7.088421 C 173.996605 -7.088421 177.168176 -3.912915 177.168176 -0.00157244 Z M 177.168176 -0.00157244 " transform="matrix(0.992706, 0, 0, -0.992706, 58.335047, 11.193752)"/>
<g fill="rgb(0%, 0%, 0%)" fill-opacity="1">
<use xlink:href="#glyph-0-7" x="224.430624" y="14.719843"/>
</g>
<path fill="none" stroke-width="0.3985" stroke-linecap="butt" stroke-linejoin="miter" stroke="rgb(0%, 0%, 0%)" stroke-opacity="1" stroke-miterlimit="10" d="M 148.820782 -17.008435 C 148.820782 -13.093158 145.649211 -9.921586 141.733934 -9.921586 C 137.818656 -9.921586 134.647085 -13.093158 134.647085 -17.008435 C 134.647085 -20.923712 137.818656 -24.095284 141.733934 -24.095284 C 145.649211 -24.095284 148.820782 -20.923712 148.820782 -17.008435 Z M 148.820782 -17.008435 " transform="matrix(0.992706, 0, 0, -0.992706, 58.335047, 11.193752)"/>
<g fill="rgb(0%, 0%, 0%)" fill-opacity="1">
<use xlink:href="#glyph-0-1" x="193.546551" y="31.66831"/>
<use xlink:href="#glyph-0-3" x="199.035463" y="31.66831"/>
</g>
<path fill="none" stroke-width="0.3985" stroke-linecap="butt" stroke-linejoin="miter" stroke="rgb(0%, 0%, 0%)" stroke-opacity="1" stroke-miterlimit="10" d="M 163.832624 -3.747647 L 147.982637 -13.258426 " transform="matrix(0.992706, 0, 0, -0.992706, 58.335047, 11.193752)"/>
<path fill="none" stroke-width="0.3985" stroke-linecap="butt" stroke-linejoin="miter" stroke="rgb(0%, 0%, 0%)" stroke-opacity="1" stroke-miterlimit="10" d="M 130.393402 -34.015298 C 130.393402 -30.103955 127.221831 -26.928449 123.310488 -26.928449 C 119.395211 -26.928449 116.22364 -30.103955 116.22364 -34.015298 C 116.22364 -37.930575 119.395211 -41.102146 123.310488 -41.102146 C 127.221831 -41.102146 130.393402 -37.930575 130.393402 -34.015298 Z M 130.393402 -34.015298 " transform="matrix(0.992706, 0, 0, -0.992706, 58.335047, 11.193752)"/>
<g fill="rgb(0%, 0%, 0%)" fill-opacity="1">
<use xlink:href="#glyph-0-1" x="175.254953" y="48.487726"/>
<use xlink:href="#glyph-0-5" x="180.743865" y="48.487726"/>
</g>
<path fill="none" stroke-width="0.3985" stroke-linecap="butt" stroke-linejoin="miter" stroke="rgb(0%, 0%, 0%)" stroke-opacity="1" stroke-miterlimit="10" d="M 136.382399 -21.950735 L 128.662023 -29.072998 " transform="matrix(0.992706, 0, 0, -0.992706, 58.335047, 11.193752)"/>
<path fill="none" stroke-width="0.3985" stroke-linecap="butt" stroke-linejoin="miter" stroke="rgb(0%, 0%, 0%)" stroke-opacity="1" stroke-miterlimit="10" d="M 167.248162 -34.015298 C 167.248162 -30.103955 164.072656 -26.928449 160.161314 -26.928449 C 156.246037 -26.928449 153.074465 -30.103955 153.074465 -34.015298 C 153.074465 -37.930575 156.246037 -41.102146 160.161314 -41.102146 C 164.072656 -41.102146 167.248162 -37.930575 167.248162 -34.015298 Z M 167.248162 -34.015298 " transform="matrix(0.992706, 0, 0, -0.992706, 58.335047, 11.193752)"/>
<g fill="rgb(0%, 0%, 0%)" fill-opacity="1">
<use xlink:href="#glyph-0-3" x="211.837157" y="48.552252"/>
<use xlink:href="#glyph-0-4" x="217.326069" y="48.552252"/>
</g>
<path fill="none" stroke-width="0.3985" stroke-linecap="butt" stroke-linejoin="miter" stroke="rgb(0%, 0%, 0%)" stroke-opacity="1" stroke-miterlimit="10" d="M 147.089403 -21.950735 L 154.805844 -29.072998 " transform="matrix(0.992706, 0, 0, -0.992706, 58.335047, 11.193752)"/>
<path fill="none" stroke-width="0.3985" stroke-linecap="butt" stroke-linejoin="miter" stroke="rgb(0%, 0%, 0%)" stroke-opacity="1" stroke-miterlimit="10" d="M 157.324213 -51.026095 C 157.324213 -47.110818 154.152642 -43.939247 150.237365 -43.939247 C 146.326023 -43.939247 143.150516 -47.110818 143.150516 -51.026095 C 143.150516 -54.937437 146.326023 -58.109009 150.237365 -58.109009 C 154.152642 -58.109009 157.324213 -54.937437 157.324213 -51.026095 Z M 157.324213 -51.026095 " transform="matrix(0.992706, 0, 0, -0.992706, 58.335047, 11.193752)"/>
<g fill="rgb(0%, 0%, 0%)" fill-opacity="1">
<use xlink:href="#glyph-0-0" x="201.988522" y="65.371668"/>
<use xlink:href="#glyph-0-0" x="207.477434" y="65.371668"/>
</g>
<path fill="none" stroke-width="0.3985" stroke-linecap="butt" stroke-linejoin="miter" stroke="rgb(0%, 0%, 0%)" stroke-opacity="1" stroke-miterlimit="10" d="M 156.490004 -40.311221 L 153.908675 -44.730172 " transform="matrix(0.992706, 0, 0, -0.992706, 58.335047, 11.193752)"/>
<path fill="none" stroke-width="0.3985" stroke-linecap="butt" stroke-linejoin="miter" stroke="rgb(0%, 0%, 0%)" stroke-opacity="1" stroke-miterlimit="10" d="M 205.515571 -17.008435 C 205.515571 -13.093158 202.340064 -9.921586 198.428722 -9.921586 C 194.513445 -9.921586 191.341874 -13.093158 191.341874 -17.008435 C 191.341874 -20.923712 194.513445 -24.095284 198.428722 -24.095284 C 202.340064 -24.095284 205.515571 -20.923712 205.515571 -17.008435 Z M 205.515571 -17.008435 " transform="matrix(0.992706, 0, 0, -0.992706, 58.335047, 11.193752)"/>
<g fill="rgb(0%, 0%, 0%)" fill-opacity="1">
<use xlink:href="#glyph-0-6" x="252.570858" y="31.603784"/>
</g>
<path fill="none" stroke-width="0.3985" stroke-linecap="butt" stroke-linejoin="miter" stroke="rgb(0%, 0%, 0%)" stroke-opacity="1" stroke-miterlimit="10" d="M 176.330032 -3.747647 L 192.180018 -13.258426 " transform="matrix(0.992706, 0, 0, -0.992706, 58.335047, 11.193752)"/>
<path fill="none" stroke-width="0.3985" stroke-linecap="butt" stroke-linejoin="miter" stroke="rgb(0%, 0%, 0%)" stroke-opacity="1" stroke-miterlimit="10" d="M 187.08819 -34.015298 C 187.08819 -30.103955 183.916619 -26.928449 180.001342 -26.928449 C 176.09 -26.928449 172.914493 -30.103955 172.914493 -34.015298 C 172.914493 -37.930575 176.09 -41.102146 180.001342 -41.102146 C 183.916619 -41.102146 187.08819 -37.930575 187.08819 -34.015298 Z M 187.08819 -34.015298 " transform="matrix(0.992706, 0, 0, -0.992706, 58.335047, 11.193752)"/>
<g fill="rgb(0%, 0%, 0%)" fill-opacity="1">
<use xlink:href="#glyph-0-0" x="231.53542" y="48.487726"/>
<use xlink:href="#glyph-0-6" x="237.024332" y="48.487726"/>
</g>
<path fill="none" stroke-width="0.3985" stroke-linecap="butt" stroke-linejoin="miter" stroke="rgb(0%, 0%, 0%)" stroke-opacity="1" stroke-miterlimit="10" d="M 193.073252 -21.950735 L 185.356812 -29.072998 " transform="matrix(0.992706, 0, 0, -0.992706, 58.335047, 11.193752)"/>
<path fill="none" stroke-width="0.3985" stroke-linecap="butt" stroke-linejoin="miter" stroke="rgb(0%, 0%, 0%)" stroke-opacity="1" stroke-miterlimit="10" d="M 223.939016 -34.015298 C 223.939016 -30.103955 220.767445 -26.928449 216.852167 -26.928449 C 212.940825 -26.928449 209.765319 -30.103955 209.765319 -34.015298 C 209.765319 -37.930575 212.940825 -41.102146 216.852167 -41.102146 C 220.767445 -41.102146 223.939016 -37.930575 223.939016 -34.015298 Z M 223.939016 -34.015298 " transform="matrix(0.992706, 0, 0, -0.992706, 58.335047, 11.193752)"/>
<g fill="rgb(0%, 0%, 0%)" fill-opacity="1">
<use xlink:href="#glyph-0-1" x="268.117624" y="48.487726"/>
<use xlink:href="#glyph-0-5" x="273.606537" y="48.487726"/>
</g>
<path fill="none" stroke-width="0.3985" stroke-linecap="butt" stroke-linejoin="miter" stroke="rgb(0%, 0%, 0%)" stroke-opacity="1" stroke-miterlimit="10" d="M 203.780257 -21.950735 L 211.500633 -29.072998 " transform="matrix(0.992706, 0, 0, -0.992706, 58.335047, 11.193752)"/>
<g fill="rgb(0%, 0%, 0%)" fill-opacity="1">
<use xlink:href="#glyph-1-0" x="80.145788" y="70.110846"/>
</g>
<g fill="rgb(0%, 0%, 0%)" fill-opacity="1">
<use xlink:href="#glyph-2-0" x="88.367378" y="71.593948"/>
</g>
<g fill="rgb(0%, 0%, 0%)" fill-opacity="1">
<use xlink:href="#glyph-1-0" x="277.12643" y="70.110846"/>
</g>
<g fill="rgb(0%, 0%, 0%)" fill-opacity="1">
<use xlink:href="#glyph-2-1" x="285.34802" y="71.593948"/>
</g>
</svg>
