<?xml version="1.0" encoding="UTF-8"?>
<svg xmlns="http://www.w3.org/2000/svg" xmlns:xlink="http://www.w3.org/1999/xlink" width="141.81" height="151.23" viewBox="0 0 141.81 151.23">
<defs>
<g>
<g id="glyph-0-0">
<path d="M 2.75 0.125 C 4.15625 0.125 5.015625 -1.1875 5.015625 -3.5625 C 5.015625 -5.90625 4.15625 -7.1875 2.75 -7.1875 C 1.34375 -7.1875 0.5 -5.921875 0.5 -3.5625 C 0.5 -1.1875 1.34375 0.125 2.75 0.125 Z M 2.75 -0.609375 C 1.9375 -0.609375 1.359375 -1.484375 1.359375 -3.5625 C 1.359375 -5.625 1.9375 -6.46875 2.75 -6.46875 C 3.578125 -6.46875 4.140625 -5.625 4.140625 -3.5625 C 4.140625 -1.484375 3.578125 -0.609375 2.75 -0.609375 Z M 2.75 -0.609375 "/>
</g>
<g id="glyph-0-1">
<path d="M 0.875 0 L 4.859375 0 L 4.859375 -0.75 L 3.390625 -0.75 L 3.390625 -7.0625 L 2.703125 -7.0625 C 2.3125 -6.828125 1.84375 -6.65625 1.203125 -6.53125 L 1.203125 -5.96875 L 2.5 -5.96875 L 2.5 -0.75 L 0.875 -0.75 Z M 0.875 0 "/>
</g>
<g id="glyph-0-2">
<path d="M 0.4375 0 L 5 0 L 5 -0.78125 L 2.953125 -0.78125 C 2.578125 -0.78125 2.140625 -0.75 1.765625 -0.71875 C 3.4375 -2.46875 4.65625 -3.796875 4.65625 -5.125 C 4.65625 -6.375 3.828125 -7.1875 2.53125 -7.1875 C 1.609375 -7.1875 0.984375 -6.78125 0.390625 -6.125 L 0.921875 -5.609375 C 1.328125 -6.078125 1.828125 -6.453125 2.421875 -6.453125 C 3.328125 -6.453125 3.765625 -5.890625 3.765625 -5.078125 C 3.765625 -3.921875 2.5625 -2.65625 0.4375 -0.53125 Z M 0.4375 0 "/>
</g>
<g id="glyph-0-3">
<path d="M 2.609375 0.125 C 3.90625 0.125 4.9375 -0.625 4.9375 -1.875 C 4.9375 -2.859375 4.265625 -3.484375 3.40625 -3.6875 L 3.40625 -3.71875 C 4.171875 -4 4.703125 -4.546875 4.703125 -5.40625 C 4.703125 -6.53125 3.796875 -7.1875 2.578125 -7.1875 C 1.75 -7.1875 1.09375 -6.8125 0.5625 -6.3125 L 1.046875 -5.734375 C 1.453125 -6.15625 1.96875 -6.453125 2.546875 -6.453125 C 3.3125 -6.453125 3.78125 -6.015625 3.78125 -5.34375 C 3.78125 -4.59375 3.265625 -4.015625 1.765625 -4.015625 L 1.765625 -3.3125 C 3.453125 -3.3125 4.015625 -2.765625 4.015625 -1.921875 C 4.015625 -1.125 3.421875 -0.625 2.546875 -0.625 C 1.71875 -0.625 1.171875 -1.015625 0.75 -1.453125 L 0.28125 -0.875 C 0.765625 -0.34375 1.46875 0.125 2.609375 0.125 Z M 2.609375 0.125 "/>
</g>
<g id="glyph-0-4">
<path d="M 3.375 0 L 4.21875 0 L 4.21875 -1.953125 L 5.1875 -1.953125 L 5.1875 -2.671875 L 4.21875 -2.671875 L 4.21875 -7.0625 L 3.21875 -7.0625 L 0.203125 -2.546875 L 0.203125 -1.953125 L 3.375 -1.953125 Z M 3.375 -2.671875 L 1.140625 -2.671875 L 2.796875 -5.09375 C 3 -5.453125 3.203125 -5.75 3.375 -6.09375 L 3.421875 -6.09375 C 3.390625 -5.71875 3.375 -5.109375 3.375 -4.75 Z M 3.375 -2.671875 "/>
</g>
<g id="glyph-0-5">
<path d="M 2.59375 0.125 C 3.8125 0.125 4.96875 -0.734375 4.96875 -2.265625 C 4.96875 -3.78125 3.984375 -4.46875 2.78125 -4.46875 C 2.34375 -4.46875 2.015625 -4.375 1.6875 -4.1875 L 1.875 -6.28125 L 4.609375 -6.28125 L 4.609375 -7.0625 L 1.09375 -7.0625 L 0.859375 -3.671875 L 1.34375 -3.359375 C 1.75 -3.640625 2.0625 -3.796875 2.546875 -3.796875 C 3.453125 -3.796875 4.046875 -3.203125 4.046875 -2.234375 C 4.046875 -1.25 3.375 -0.625 2.5 -0.625 C 1.671875 -0.625 1.125 -1.015625 0.71875 -1.421875 L 0.265625 -0.828125 C 0.765625 -0.34375 1.453125 0.125 2.59375 0.125 Z M 2.59375 0.125 "/>
</g>
<g id="glyph-0-6">
<path d="M 2.96875 0.125 C 4.09375 0.125 5.046875 -0.78125 5.046875 -2.125 C 5.046875 -3.578125 4.265625 -4.3125 3.03125 -4.3125 C 2.46875 -4.3125 1.828125 -3.96875 1.390625 -3.40625 C 1.421875 -5.671875 2.265625 -6.4375 3.265625 -6.4375 C 3.703125 -6.4375 4.140625 -6.234375 4.421875 -5.890625 L 4.921875 -6.453125 C 4.53125 -6.875 3.984375 -7.1875 3.21875 -7.1875 C 1.8125 -7.1875 0.53125 -6.109375 0.53125 -3.265625 C 0.53125 -1 1.578125 0.125 2.96875 0.125 Z M 1.40625 -2.6875 C 1.890625 -3.390625 2.4375 -3.640625 2.890625 -3.640625 C 3.765625 -3.640625 4.203125 -3.046875 4.203125 -2.125 C 4.203125 -1.203125 3.671875 -0.578125 2.96875 -0.578125 C 2.078125 -0.578125 1.53125 -1.3125 1.40625 -2.6875 Z M 1.40625 -2.6875 "/>
</g>
<g id="glyph-0-7">
<path d="M 1.96875 0 L 2.90625 0 C 3.015625 -2.75 3.375 -4.375 5.03125 -6.515625 L 5.03125 -7.0625 L 0.484375 -7.0625 L 0.484375 -6.28125 L 4.015625 -6.28125 C 2.609375 -4.34375 2.09375 -2.671875 1.96875 0 Z M 1.96875 0 "/>
</g>
<g id="glyph-0-8">
<path d="M 2.78125 0.125 C 4.125 0.125 5.046875 -0.6875 5.046875 -1.75 C 5.046875 -2.6875 4.453125 -3.203125 3.828125 -3.578125 L 3.828125 -3.609375 C 4.25 -3.9375 4.78125 -4.578125 4.78125 -5.3125 C 4.78125 -6.40625 4.03125 -7.1875 2.796875 -7.1875 C 1.671875 -7.1875 0.796875 -6.46875 0.796875 -5.390625 C 0.796875 -4.640625 1.265625 -4.125 1.78125 -3.75 L 1.78125 -3.71875 C 1.125 -3.359375 0.453125 -2.71875 0.453125 -1.796875 C 0.453125 -0.6875 1.421875 0.125 2.78125 0.125 Z M 3.265625 -3.84375 C 2.421875 -4.1875 1.625 -4.53125 1.625 -5.390625 C 1.625 -6.078125 2.109375 -6.515625 2.78125 -6.515625 C 3.5625 -6.515625 4.015625 -5.96875 4.015625 -5.265625 C 4.015625 -4.75 3.75 -4.28125 3.265625 -3.84375 Z M 2.78125 -0.546875 C 1.90625 -0.546875 1.265625 -1.109375 1.265625 -1.875 C 1.265625 -2.546875 1.6875 -3.0625 2.265625 -3.421875 C 3.28125 -3.015625 4.1875 -2.703125 4.1875 -1.765625 C 4.1875 -1.046875 3.625 -0.546875 2.78125 -0.546875 Z M 2.78125 -0.546875 "/>
</g>
<g id="glyph-0-9">
<path d="M 2.265625 0.125 C 3.671875 0.125 4.96875 -0.953125 4.96875 -3.796875 C 4.96875 -6.0625 3.90625 -7.1875 2.515625 -7.1875 C 1.390625 -7.1875 0.4375 -6.28125 0.4375 -4.921875 C 0.4375 -3.484375 1.234375 -2.75 2.453125 -2.75 C 3.03125 -2.75 3.65625 -3.09375 4.109375 -3.640625 C 4.078125 -1.390625 3.234375 -0.625 2.234375 -0.625 C 1.796875 -0.625 1.359375 -0.828125 1.0625 -1.171875 L 0.578125 -0.609375 C 0.953125 -0.1875 1.5 0.125 2.265625 0.125 Z M 4.09375 -4.375 C 3.609375 -3.6875 3.046875 -3.421875 2.609375 -3.421875 C 1.71875 -3.421875 1.28125 -4 1.28125 -4.921875 C 1.28125 -5.859375 1.828125 -6.484375 2.53125 -6.484375 C 3.421875 -6.484375 3.96875 -5.75 4.09375 -4.375 Z M 4.09375 -4.375 "/>
</g>
<g id="glyph-1-0">
<path d="M 2.90625 -1.640625 L 2.90625 -0.765625 C 2.90625 -0.421875 2.890625 -0.3125 2.15625 -0.3125 L 1.953125 -0.3125 L 1.953125 0 C 2.359375 -0.03125 2.875 -0.03125 3.28125 -0.03125 C 3.703125 -0.03125 4.234375 -0.03125 4.640625 0 L 4.640625 -0.3125 L 4.421875 -0.3125 C 3.6875 -0.3125 3.671875 -0.421875 3.671875 -0.765625 L 3.671875 -1.640625 L 4.671875 -1.640625 L 4.671875 -1.9375 L 3.671875 -1.9375 L 3.671875 -6.453125 C 3.671875 -6.640625 3.671875 -6.703125 3.515625 -6.703125 C 3.421875 -6.703125 3.390625 -6.703125 3.3125 -6.59375 L 0.28125 -1.9375 L 0.28125 -1.640625 Z M 2.96875 -1.9375 L 0.5625 -1.9375 L 2.96875 -5.640625 Z M 2.96875 -1.9375 "/>
</g>
<g id="glyph-1-1">
<path d="M 3.640625 -3.15625 L 3.640625 -2.828125 C 3.640625 -0.515625 2.609375 -0.0625 2.03125 -0.0625 C 1.859375 -0.0625 1.328125 -0.078125 1.0625 -0.421875 C 1.5 -0.421875 1.578125 -0.703125 1.578125 -0.875 C 1.578125 -1.171875 1.34375 -1.328125 1.125 -1.328125 C 0.953125 -1.328125 0.65625 -1.234375 0.65625 -0.859375 C 0.65625 -0.1875 1.203125 0.21875 2.046875 0.21875 C 3.3125 0.21875 4.53125 -1.125 4.53125 -3.265625 C 4.53125 -5.921875 3.390625 -6.59375 2.5 -6.59375 C 1.96875 -6.59375 1.46875 -6.421875 1.046875 -5.96875 C 0.640625 -5.53125 0.421875 -5.109375 0.421875 -4.375 C 0.421875 -3.125 1.28125 -2.15625 2.390625 -2.15625 C 3 -2.15625 3.40625 -2.578125 3.640625 -3.15625 Z M 2.40625 -2.390625 C 2.25 -2.390625 1.796875 -2.390625 1.484375 -3.015625 C 1.3125 -3.375 1.3125 -3.875 1.3125 -4.359375 C 1.3125 -4.890625 1.3125 -5.359375 1.515625 -5.71875 C 1.78125 -6.21875 2.15625 -6.34375 2.5 -6.34375 C 2.96875 -6.34375 3.28125 -6.015625 3.453125 -5.5625 C 3.578125 -5.25 3.609375 -4.625 3.609375 -4.171875 C 3.609375 -3.34375 3.28125 -2.390625 2.40625 -2.390625 Z M 2.40625 -2.390625 "/>
</g>
<g id="glyph-1-2">
<path d="M 4.453125 -1.984375 C 4.453125 -3.171875 3.640625 -4.15625 2.5625 -4.15625 C 2.09375 -4.15625 1.671875 -4 1.3125 -3.65625 L 1.3125 -5.59375 C 1.5 -5.53125 1.828125 -5.453125 2.15625 -5.453125 C 3.375 -5.453125 4.0625 -6.359375 4.0625 -6.484375 C 4.0625 -6.546875 4.03125 -6.59375 3.96875 -6.59375 C 3.953125 -6.59375 3.9375 -6.59375 3.890625 -6.5625 C 3.6875 -6.484375 3.203125 -6.28125 2.53125 -6.28125 C 2.140625 -6.28125 1.6875 -6.34375 1.21875 -6.5625 C 1.140625 -6.59375 1.125 -6.59375 1.09375 -6.59375 C 1 -6.59375 1 -6.515625 1 -6.34375 L 1 -3.421875 C 1 -3.234375 1 -3.15625 1.140625 -3.15625 C 1.203125 -3.15625 1.234375 -3.1875 1.265625 -3.25 C 1.375 -3.40625 1.75 -3.9375 2.546875 -3.9375 C 3.0625 -3.9375 3.3125 -3.484375 3.390625 -3.3125 C 3.546875 -2.9375 3.5625 -2.5625 3.5625 -2.0625 C 3.5625 -1.71875 3.5625 -1.125 3.328125 -0.703125 C 3.09375 -0.3125 2.71875 -0.0625 2.265625 -0.0625 C 1.546875 -0.0625 0.984375 -0.578125 0.8125 -1.171875 C 0.84375 -1.15625 0.875 -1.15625 0.984375 -1.15625 C 1.3125 -1.15625 1.46875 -1.390625 1.46875 -1.640625 C 1.46875 -1.875 1.3125 -2.125 0.984375 -2.125 C 0.84375 -2.125 0.5 -2.046875 0.5 -1.59375 C 0.5 -0.75 1.171875 0.21875 2.28125 0.21875 C 3.4375 0.21875 4.453125 -0.734375 4.453125 -1.984375 Z M 4.453125 -1.984375 "/>
</g>
<g id="glyph-1-3">
<path d="M 1.609375 -4.53125 C 1.15625 -4.828125 1.125 -5.15625 1.125 -5.328125 C 1.125 -5.9375 1.765625 -6.34375 2.46875 -6.34375 C 3.1875 -6.34375 3.828125 -5.828125 3.828125 -5.125 C 3.828125 -4.5625 3.4375 -4.078125 2.84375 -3.734375 Z M 3.0625 -3.59375 C 3.78125 -3.953125 4.265625 -4.46875 4.265625 -5.125 C 4.265625 -6.03125 3.375 -6.59375 2.484375 -6.59375 C 1.484375 -6.59375 0.6875 -5.859375 0.6875 -4.9375 C 0.6875 -4.765625 0.703125 -4.3125 1.125 -3.859375 C 1.234375 -3.734375 1.59375 -3.484375 1.84375 -3.3125 C 1.265625 -3.03125 0.421875 -2.484375 0.421875 -1.5 C 0.421875 -0.453125 1.421875 0.21875 2.46875 0.21875 C 3.59375 0.21875 4.53125 -0.609375 4.53125 -1.671875 C 4.53125 -2.015625 4.421875 -2.46875 4.046875 -2.875 C 3.859375 -3.09375 3.6875 -3.1875 3.0625 -3.59375 Z M 2.078125 -3.171875 L 3.28125 -2.390625 C 3.5625 -2.203125 4.03125 -1.90625 4.03125 -1.3125 C 4.03125 -0.578125 3.28125 -0.0625 2.484375 -0.0625 C 1.625 -0.0625 0.90625 -0.671875 0.90625 -1.5 C 0.90625 -2.078125 1.234375 -2.703125 2.078125 -3.171875 Z M 2.078125 -3.171875 "/>
</g>
<g id="glyph-1-4">
<path d="M 1.3125 -3.25 L 1.3125 -3.484375 C 1.3125 -6 2.53125 -6.34375 3.046875 -6.34375 C 3.28125 -6.34375 3.6875 -6.296875 3.90625 -5.953125 C 3.765625 -5.953125 3.375 -5.953125 3.375 -5.515625 C 3.375 -5.203125 3.609375 -5.046875 3.828125 -5.046875 C 3.984375 -5.046875 4.28125 -5.140625 4.28125 -5.53125 C 4.28125 -6.125 3.84375 -6.59375 3.015625 -6.59375 C 1.75 -6.59375 0.421875 -5.3125 0.421875 -3.125 C 0.421875 -0.484375 1.5625 0.21875 2.484375 0.21875 C 3.59375 0.21875 4.53125 -0.71875 4.53125 -2.015625 C 4.53125 -3.28125 3.640625 -4.234375 2.546875 -4.234375 C 1.875 -4.234375 1.5 -3.71875 1.3125 -3.25 Z M 2.484375 -0.0625 C 1.859375 -0.0625 1.5625 -0.65625 1.5 -0.796875 C 1.328125 -1.265625 1.328125 -2.0625 1.328125 -2.234375 C 1.328125 -3.015625 1.640625 -4 2.53125 -4 C 2.6875 -4 3.15625 -4 3.453125 -3.390625 C 3.640625 -3.015625 3.640625 -2.515625 3.640625 -2.03125 C 3.640625 -1.5625 3.640625 -1.0625 3.46875 -0.703125 C 3.171875 -0.109375 2.71875 -0.0625 2.484375 -0.0625 Z M 2.484375 -0.0625 "/>
</g>
<g id="glyph-1-5">
<path d="M 2.90625 -6.34375 C 2.90625 -6.578125 2.90625 -6.59375 2.6875 -6.59375 C 2.078125 -5.96875 1.203125 -5.96875 0.875 -5.96875 L 0.875 -5.65625 C 1.078125 -5.65625 1.671875 -5.65625 2.171875 -5.90625 L 2.171875 -0.78125 C 2.171875 -0.421875 2.15625 -0.3125 1.265625 -0.3125 L 0.9375 -0.3125 L 0.9375 0 C 1.28125 -0.03125 2.15625 -0.03125 2.546875 -0.03125 C 2.9375 -0.03125 3.796875 -0.03125 4.15625 0 L 4.15625 -0.3125 L 3.828125 -0.3125 C 2.9375 -0.3125 2.90625 -0.421875 2.90625 -0.78125 Z M 2.90625 -6.34375 "/>
</g>
</g>
</defs>
<path fill="none" stroke-width="0.3985" stroke-linecap="butt" stroke-linejoin="miter" stroke="rgb(0%, 0%, 0%)" stroke-opacity="1" stroke-miterlimit="10" d="M 0.00186709 -0.00133803 L 0.00186709 -14.1747 L 113.388761 -14.1747 L 113.388761 -0.00133803 Z M 0.00186709 -0.00133803 " transform="matrix(0.994934, 0, 0, -0.994934, 24.384861, 4.158825)"/>
<g fill="rgb(0%, 0%, 0%)" fill-opacity="1">
<use xlink:href="#glyph-0-0" x="7.532665" y="16.153752"/>
</g>
<path fill="none" stroke-width="0.3985" stroke-linecap="butt" stroke-linejoin="miter" stroke="rgb(0%, 0%, 0%)" stroke-opacity="1" stroke-miterlimit="10" d="M 0.00186709 -14.1747 L 0.00186709 -28.348062 L 113.388761 -28.348062 L 113.388761 -14.1747 Z M 0.00186709 -14.1747 " transform="matrix(0.994934, 0, 0, -0.994934, 24.384861, 4.158825)"/>
<g fill="rgb(0%, 0%, 0%)" fill-opacity="1">
<use xlink:href="#glyph-0-1" x="7.532665" y="30.254954"/>
</g>
<path fill="none" stroke-width="0.3985" stroke-linecap="butt" stroke-linejoin="miter" stroke="rgb(0%, 0%, 0%)" stroke-opacity="1" stroke-miterlimit="10" d="M 0.00186709 -28.348062 L 0.00186709 -42.521423 L 113.388761 -42.521423 L 113.388761 -28.348062 Z M 0.00186709 -28.348062 " transform="matrix(0.994934, 0, 0, -0.994934, 24.384861, 4.158825)"/>
<g fill="rgb(0%, 0%, 0%)" fill-opacity="1">
<use xlink:href="#glyph-0-2" x="7.532665" y="44.420828"/>
</g>
<path fill="none" stroke-width="0.3985" stroke-linecap="butt" stroke-linejoin="miter" stroke="rgb(0%, 0%, 0%)" stroke-opacity="1" stroke-miterlimit="10" d="M 0.00186709 -42.521423 L 0.00186709 -56.694785 L 113.388761 -56.694785 L 113.388761 -42.521423 Z M 0.00186709 -42.521423 " transform="matrix(0.994934, 0, 0, -0.994934, 24.384861, 4.158825)"/>
<g fill="rgb(0%, 0%, 0%)" fill-opacity="1">
<use xlink:href="#glyph-0-3" x="7.532665" y="58.458354"/>
</g>
<path fill="none" stroke-width="0.3985" stroke-linecap="butt" stroke-linejoin="miter" stroke="rgb(0%, 0%, 0%)" stroke-opacity="1" stroke-miterlimit="10" d="M 0.00186709 -56.694785 L 0.00186709 -70.868147 L 113.388761 -70.868147 L 113.388761 -56.694785 Z M 0.00186709 -56.694785 " transform="matrix(0.994934, 0, 0, -0.994934, 24.384861, 4.158825)"/>
<g fill="rgb(0%, 0%, 0%)" fill-opacity="1">
<use xlink:href="#glyph-0-4" x="7.532665" y="72.559557"/>
</g>
<path fill="none" stroke-width="0.3985" stroke-linecap="butt" stroke-linejoin="miter" stroke="rgb(0%, 0%, 0%)" stroke-opacity="1" stroke-miterlimit="10" d="M 0.00186709 -70.868147 L 0.00186709 -85.041509 L 113.388761 -85.041509 L 113.388761 -70.868147 Z M 0.00186709 -70.868147 " transform="matrix(0.994934, 0, 0, -0.994934, 24.384861, 4.158825)"/>
<g fill="rgb(0%, 0%, 0%)" fill-opacity="1">
<use xlink:href="#glyph-0-5" x="7.532665" y="86.597084"/>
</g>
<path fill="none" stroke-width="0.3985" stroke-linecap="butt" stroke-linejoin="miter" stroke="rgb(0%, 0%, 0%)" stroke-opacity="1" stroke-miterlimit="10" d="M 0.00186709 -85.041509 L 0.00186709 -99.21487 L 113.388761 -99.21487 L 113.388761 -85.041509 Z M 0.00186709 -85.041509 " transform="matrix(0.994934, 0, 0, -0.994934, 24.384861, 4.158825)"/>
<g fill="rgb(0%, 0%, 0%)" fill-opacity="1">
<use xlink:href="#glyph-0-6" x="7.532665" y="100.762957"/>
</g>
<path fill="none" stroke-width="0.3985" stroke-linecap="butt" stroke-linejoin="miter" stroke="rgb(0%, 0%, 0%)" stroke-opacity="1" stroke-miterlimit="10" d="M 0.00186709 -99.21487 L 0.00186709 -113.388232 L 113.388761 -113.388232 L 113.388761 -99.21487 Z M 0.00186709 -99.21487 " transform="matrix(0.994934, 0, 0, -0.994934, 24.384861, 4.158825)"/>
<g fill="rgb(0%, 0%, 0%)" fill-opacity="1">
<use xlink:href="#glyph-0-7" x="7.532665" y="114.865155"/>
</g>
<path fill="none" stroke-width="0.3985" stroke-linecap="butt" stroke-linejoin="miter" stroke="rgb(0%, 0%, 0%)" stroke-opacity="1" stroke-miterlimit="10" d="M 0.00186709 -113.388232 L 0.00186709 -127.561594 L 113.388761 -127.561594 L 113.388761 -113.388232 Z M 0.00186709 -113.388232 " transform="matrix(0.994934, 0, 0, -0.994934, 24.384861, 4.158825)"/>
<g fill="rgb(0%, 0%, 0%)" fill-opacity="1">
<use xlink:href="#glyph-0-8" x="7.532665" y="128.966357"/>
</g>
<path fill="none" stroke-width="0.3985" stroke-linecap="butt" stroke-linejoin="miter" stroke="rgb(0%, 0%, 0%)" stroke-opacity="1" stroke-miterlimit="10" d="M 0.00186709 -127.561594 L 0.00186709 -141.734956 L 113.388761 -141.734956 L 113.388761 -127.561594 Z M 0.00186709 -127.561594 " transform="matrix(0.994934, 0, 0, -0.994934, 24.384861, 4.158825)"/>
<g fill="rgb(0%, 0%, 0%)" fill-opacity="1">
<use xlink:href="#glyph-0-9" x="7.532665" y="143.06756"/>
</g>
<g fill="rgb(0%, 0%, 0%)" fill-opacity="1">
<use xlink:href="#glyph-1-0" x="75.834899" y="15.813484"/>
<use xlink:href="#glyph-1-1" x="80.790965" y="15.813484"/>
</g>
<g fill="rgb(0%, 0%, 0%)" fill-opacity="1">
<use xlink:href="#glyph-1-2" x="75.834899" y="29.915682"/>
<use xlink:href="#glyph-1-3" x="80.790965" y="29.915682"/>
</g>
<g fill="rgb(0%, 0%, 0%)" fill-opacity="1">
<use xlink:href="#glyph-1-4" x="75.834899" y="44.016884"/>
<use xlink:href="#glyph-1-1" x="80.790965" y="44.016884"/>
</g>
<g fill="rgb(0%, 0%, 0%)" fill-opacity="1">
<use xlink:href="#glyph-1-5" x="75.834899" y="128.627085"/>
<use xlink:href="#glyph-1-3" x="80.790965" y="128.627085"/>
</g>
<g fill="rgb(0%, 0%, 0%)" fill-opacity="1">
<use xlink:href="#glyph-1-3" x="75.834899" y="142.728287"/>
<use xlink:href="#glyph-1-1" x="80.790965" y="142.728287"/>
</g>
</svg>
