<?xml version="1.0" encoding="UTF-8"?>
<svg xmlns="http://www.w3.org/2000/svg" xmlns:xlink="http://www.w3.org/1999/xlink" width="351.68" height="79.18" viewBox="0 0 351.68 79.18">
<defs>
<g>
<g id="glyph-0-0">
<path d="M 2.578125 0.125 C 3.796875 0.125 4.953125 -0.734375 4.953125 -2.25 C 4.953125 -3.765625 3.96875 -4.453125 2.765625 -4.453125 C 2.34375 -4.453125 2.015625 -4.34375 1.6875 -4.15625 L 1.875 -6.25 L 4.59375 -6.25 L 4.59375 -7.03125 L 1.078125 -7.03125 L 0.84375 -3.640625 L 1.328125 -3.34375 C 1.75 -3.625 2.046875 -3.78125 2.53125 -3.78125 C 3.4375 -3.78125 4.03125 -3.1875 4.03125 -2.21875 C 4.03125 -1.25 3.359375 -0.625 2.5 -0.625 C 1.65625 -0.625 1.125 -1 0.71875 -1.421875 L 0.265625 -0.828125 C 0.765625 -0.34375 1.453125 0.125 2.578125 0.125 Z M 2.578125 0.125 "/>
</g>
<g id="glyph-0-1">
<path d="M 0.4375 0 L 4.984375 0 L 4.984375 -0.78125 L 2.9375 -0.78125 C 2.578125 -0.78125 2.125 -0.734375 1.75 -0.703125 C 3.421875 -2.453125 4.640625 -3.78125 4.640625 -5.09375 C 4.640625 -6.34375 3.8125 -7.15625 2.53125 -7.15625 C 1.609375 -7.15625 0.96875 -6.75 0.390625 -6.09375 L 0.921875 -5.59375 C 1.328125 -6.046875 1.828125 -6.421875 2.421875 -6.421875 C 3.3125 -6.421875 3.75 -5.859375 3.75 -5.0625 C 3.75 -3.90625 2.546875 -2.640625 0.4375 -0.53125 Z M 0.4375 0 "/>
</g>
<g id="glyph-0-2">
<path d="M 0.875 0 L 4.828125 0 L 4.828125 -0.75 L 3.375 -0.75 L 3.375 -7.03125 L 2.6875 -7.03125 C 2.296875 -6.796875 1.828125 -6.625 1.1875 -6.5 L 1.1875 -5.9375 L 2.484375 -5.9375 L 2.484375 -0.75 L 0.875 -0.75 Z M 0.875 0 "/>
</g>
<g id="glyph-0-3">
<path d="M 3.359375 0 L 4.203125 0 L 4.203125 -1.9375 L 5.171875 -1.9375 L 5.171875 -2.65625 L 4.203125 -2.65625 L 4.203125 -7.03125 L 3.203125 -7.03125 L 0.203125 -2.53125 L 0.203125 -1.9375 L 3.359375 -1.9375 Z M 3.359375 -2.65625 L 1.140625 -2.65625 L 2.78125 -5.0625 C 2.984375 -5.421875 3.1875 -5.734375 3.359375 -6.0625 L 3.40625 -6.0625 C 3.375 -5.703125 3.359375 -5.078125 3.359375 -4.71875 Z M 3.359375 -2.65625 "/>
</g>
<g id="glyph-0-4">
<path d="M 2.59375 0.125 C 3.890625 0.125 4.921875 -0.625 4.921875 -1.875 C 4.921875 -2.84375 4.234375 -3.453125 3.390625 -3.671875 L 3.390625 -3.703125 C 4.15625 -3.984375 4.671875 -4.53125 4.671875 -5.390625 C 4.671875 -6.5 3.78125 -7.15625 2.5625 -7.15625 C 1.734375 -7.15625 1.09375 -6.78125 0.546875 -6.28125 L 1.03125 -5.703125 C 1.453125 -6.125 1.953125 -6.421875 2.53125 -6.421875 C 3.296875 -6.421875 3.75 -6 3.75 -5.3125 C 3.75 -4.578125 3.25 -4 1.75 -4 L 1.75 -3.296875 C 3.4375 -3.296875 4 -2.75 4 -1.90625 C 4 -1.109375 3.40625 -0.625 2.53125 -0.625 C 1.71875 -0.625 1.171875 -1.015625 0.75 -1.453125 L 0.28125 -0.875 C 0.765625 -0.34375 1.46875 0.125 2.59375 0.125 Z M 2.59375 0.125 "/>
</g>
<g id="glyph-0-5">
<path d="M 2.765625 0.125 C 4.109375 0.125 5.015625 -0.6875 5.015625 -1.734375 C 5.015625 -2.6875 4.421875 -3.1875 3.8125 -3.5625 L 3.8125 -3.59375 C 4.234375 -3.921875 4.765625 -4.5625 4.765625 -5.296875 C 4.765625 -6.375 4.015625 -7.15625 2.78125 -7.15625 C 1.65625 -7.15625 0.796875 -6.4375 0.796875 -5.359375 C 0.796875 -4.625 1.25 -4.09375 1.78125 -3.734375 L 1.78125 -3.703125 C 1.125 -3.34375 0.453125 -2.71875 0.453125 -1.796875 C 0.453125 -0.6875 1.421875 0.125 2.765625 0.125 Z M 3.25 -3.828125 C 2.40625 -4.15625 1.609375 -4.515625 1.609375 -5.359375 C 1.609375 -6.046875 2.09375 -6.484375 2.765625 -6.484375 C 3.546875 -6.484375 4 -5.9375 4 -5.25 C 4 -4.71875 3.734375 -4.265625 3.25 -3.828125 Z M 2.765625 -0.546875 C 1.90625 -0.546875 1.25 -1.109375 1.25 -1.875 C 1.25 -2.53125 1.671875 -3.046875 2.25 -3.40625 C 3.265625 -3 4.15625 -2.6875 4.15625 -1.765625 C 4.15625 -1.046875 3.609375 -0.546875 2.765625 -0.546875 Z M 2.765625 -0.546875 "/>
</g>
<g id="glyph-0-6">
<path d="M 1.953125 0 L 2.890625 0 C 3 -2.734375 3.359375 -4.34375 5.015625 -6.484375 L 5.015625 -7.03125 L 0.484375 -7.03125 L 0.484375 -6.25 L 4 -6.25 C 2.609375 -4.328125 2.078125 -2.65625 1.953125 0 Z M 1.953125 0 "/>
</g>
</g>
<clipPath id="clip-0">
<path clip-rule="nonzero" d="M 42 50 L 73 50 L 73 78.367188 L 42 78.367188 Z M 42 50 "/>
</clipPath>
<clipPath id="clip-1">
<path clip-rule="nonzero" d="M 229 50 L 260 50 L 260 78.367188 L 229 78.367188 Z M 229 50 "/>
</clipPath>
</defs>
<path fill="none" stroke-width="0.3985" stroke-linecap="butt" stroke-linejoin="miter" stroke="rgb(0%, 0%, 0%)" stroke-opacity="1" stroke-miterlimit="10" d="M 9.202073 0.000461985 C 9.202073 5.083816 5.081715 9.200228 -0.00163981 9.200228 C -5.081047 9.200228 -9.201406 5.083816 -9.201406 0.000461985 C -9.201406 -5.082892 -5.081047 -9.203251 -0.00163981 -9.203251 C 5.081715 -9.203251 9.202073 -5.082892 9.202073 0.000461985 Z M 9.202073 0.000461985 " transform="matrix(0.98975, 0, 0, -0.98975, 92.689123, 6.117645)"/>
<g fill="rgb(0%, 0%, 0%)" fill-opacity="1">
<use xlink:href="#glyph-0-0" x="89.952464" y="9.568903"/>
</g>
<path fill="none" stroke-width="0.3985" stroke-linecap="butt" stroke-linejoin="miter" stroke="rgb(0%, 0%, 0%)" stroke-opacity="1" stroke-miterlimit="10" d="M -33.319713 -19.843564 C -33.319713 -14.76021 -37.440071 -10.639851 -42.519479 -10.639851 C -47.602833 -10.639851 -51.723192 -14.76021 -51.723192 -19.843564 C -51.723192 -24.922972 -47.602833 -29.043331 -42.519479 -29.043331 C -37.440071 -29.043331 -33.319713 -24.922972 -33.319713 -19.843564 Z M -33.319713 -19.843564 " transform="matrix(0.98975, 0, 0, -0.98975, 92.689123, 6.117645)"/>
<g fill="rgb(0%, 0%, 0%)" fill-opacity="1">
<use xlink:href="#glyph-0-1" x="47.868294" y="29.33619"/>
</g>
<path fill="none" stroke-width="0.3985" stroke-linecap="butt" stroke-linejoin="miter" stroke="rgb(0%, 0%, 0%)" stroke-opacity="1" stroke-miterlimit="10" d="M -8.518626 -3.973869 L -34.002492 -15.869234 " transform="matrix(0.98975, 0, 0, -0.98975, 92.689123, 6.117645)"/>
<path fill="none" stroke-width="0.3985" stroke-linecap="butt" stroke-linejoin="miter" stroke="rgb(0%, 0%, 0%)" stroke-opacity="1" stroke-miterlimit="10" d="M -54.616126 -39.683644 C -54.616126 -34.62397 -58.720698 -30.523345 -63.780372 -30.523345 C -68.840046 -30.523345 -72.944618 -34.62397 -72.944618 -39.683644 C -72.944618 -44.747265 -68.840046 -48.84789 -63.780372 -48.84789 C -58.720698 -48.84789 -54.616126 -44.747265 -54.616126 -39.683644 Z M -54.616126 -39.683644 " transform="matrix(0.98975, 0, 0, -0.98975, 92.689123, 6.117645)"/>
<g fill="rgb(0%, 0%, 0%)" fill-opacity="1">
<use xlink:href="#glyph-0-2" x="26.826209" y="48.911465"/>
</g>
<path fill="none" stroke-width="0.3985" stroke-linecap="butt" stroke-linejoin="miter" stroke="rgb(0%, 0%, 0%)" stroke-opacity="1" stroke-miterlimit="10" d="M -49.39069 -26.256958 L -56.936788 -33.297877 " transform="matrix(0.98975, 0, 0, -0.98975, 92.689123, 6.117645)"/>
<path fill="none" stroke-width="0.3985" stroke-linecap="butt" stroke-linejoin="miter" stroke="rgb(0%, 0%, 0%)" stroke-opacity="1" stroke-miterlimit="10" d="M -12.098287 -39.683644 C -12.098287 -34.62397 -16.198912 -30.523345 -21.258586 -30.523345 C -26.322207 -30.523345 -30.422832 -34.62397 -30.422832 -39.683644 C -30.422832 -44.747265 -26.322207 -48.84789 -21.258586 -48.84789 C -16.198912 -48.84789 -12.098287 -44.747265 -12.098287 -39.683644 Z M -12.098287 -39.683644 " transform="matrix(0.98975, 0, 0, -0.98975, 92.689123, 6.117645)"/>
<g fill="rgb(0%, 0%, 0%)" fill-opacity="1">
<use xlink:href="#glyph-0-3" x="68.910379" y="48.911465"/>
</g>
<path fill="none" stroke-width="0.3985" stroke-linecap="butt" stroke-linejoin="miter" stroke="rgb(0%, 0%, 0%)" stroke-opacity="1" stroke-miterlimit="10" d="M -35.648268 -26.256958 L -28.106117 -33.297877 " transform="matrix(0.98975, 0, 0, -0.98975, 92.689123, 6.117645)"/>
<g clip-path="url(#clip-0)">
<path fill="none" stroke-width="0.3985" stroke-linecap="butt" stroke-linejoin="miter" stroke="rgb(0%, 0%, 0%)" stroke-opacity="1" stroke-miterlimit="10" d="M -26.144605 -59.52767 C -26.144605 -54.396955 -30.304431 -50.241076 -35.435146 -50.241076 C -40.561914 -50.241076 -44.72174 -54.396955 -44.72174 -59.52767 C -44.72174 -64.658385 -40.561914 -68.814264 -35.435146 -68.814264 C -30.304431 -68.814264 -26.144605 -64.658385 -26.144605 -59.52767 Z M -26.144605 -59.52767 " transform="matrix(0.98975, 0, 0, -0.98975, 92.689123, 6.117645)"/>
</g>
<g fill="rgb(0%, 0%, 0%)" fill-opacity="1">
<use xlink:href="#glyph-0-4" x="54.882653" y="68.551075"/>
</g>
<path fill="none" stroke-width="0.3985" stroke-linecap="butt" stroke-linejoin="miter" stroke="rgb(0%, 0%, 0%)" stroke-opacity="1" stroke-miterlimit="10" d="M -26.70109 -47.304729 L -29.921601 -51.807918 " transform="matrix(0.98975, 0, 0, -0.98975, 92.689123, 6.117645)"/>
<path fill="none" stroke-width="0.3985" stroke-linecap="butt" stroke-linejoin="miter" stroke="rgb(0%, 0%, 0%)" stroke-opacity="1" stroke-miterlimit="10" d="M 51.80674 -19.843564 C 51.80674 -14.712849 47.650861 -10.55697 42.520146 -10.55697 C 37.389431 -10.55697 33.233552 -14.712849 33.233552 -19.843564 C 33.233552 -24.970332 37.389431 -29.130158 42.520146 -29.130158 C 47.650861 -29.130158 51.80674 -24.970332 51.80674 -19.843564 Z M 51.80674 -19.843564 " transform="matrix(0.98975, 0, 0, -0.98975, 92.689123, 6.117645)"/>
<g fill="rgb(0%, 0%, 0%)" fill-opacity="1">
<use xlink:href="#glyph-0-5" x="132.037624" y="29.271856"/>
</g>
<path fill="none" stroke-width="0.3985" stroke-linecap="butt" stroke-linejoin="miter" stroke="rgb(0%, 0%, 0%)" stroke-opacity="1" stroke-miterlimit="10" d="M 8.519294 -3.973869 L 33.924225 -15.829767 " transform="matrix(0.98975, 0, 0, -0.98975, 92.689123, 6.117645)"/>
<path fill="none" stroke-width="0.3985" stroke-linecap="butt" stroke-linejoin="miter" stroke="rgb(0%, 0%, 0%)" stroke-opacity="1" stroke-miterlimit="10" d="M 30.423499 -39.683644 C 30.423499 -34.62397 26.318927 -30.523345 21.259253 -30.523345 C 16.199579 -30.523345 12.098954 -34.62397 12.098954 -39.683644 C 12.098954 -44.747265 16.199579 -48.84789 21.259253 -48.84789 C 26.318927 -48.84789 30.423499 -44.747265 30.423499 -39.683644 Z M 30.423499 -39.683644 " transform="matrix(0.98975, 0, 0, -0.98975, 92.689123, 6.117645)"/>
<g fill="rgb(0%, 0%, 0%)" fill-opacity="1">
<use xlink:href="#glyph-0-6" x="110.994549" y="48.911465"/>
</g>
<path fill="none" stroke-width="0.3985" stroke-linecap="butt" stroke-linejoin="miter" stroke="rgb(0%, 0%, 0%)" stroke-opacity="1" stroke-miterlimit="10" d="M 35.585788 -26.316158 L 28.102837 -33.297877 " transform="matrix(0.98975, 0, 0, -0.98975, 92.689123, 6.117645)"/>
<path fill-rule="nonzero" fill="rgb(75.762939%, 83.410645%, 91.529846%)" fill-opacity="1" stroke-width="0.3985" stroke-linecap="butt" stroke-linejoin="miter" stroke="rgb(0%, 0%, 0%)" stroke-opacity="1" stroke-miterlimit="10" d="M 198.008432 0.000461985 C 198.008432 5.060136 193.90386 9.164708 188.844186 9.164708 C 183.784512 9.164708 179.67994 5.060136 179.67994 0.000461985 C 179.67994 -5.059212 183.784512 -9.163784 188.844186 -9.163784 C 193.90386 -9.163784 198.008432 -5.059212 198.008432 0.000461985 Z M 198.008432 0.000461985 " transform="matrix(0.98975, 0, 0, -0.98975, 92.689123, 6.117645)"/>
<g fill="rgb(0%, 0%, 0%)" fill-opacity="1">
<use xlink:href="#glyph-0-6" x="276.860813" y="9.633237"/>
</g>
<path fill="none" stroke-width="0.3985" stroke-linecap="butt" stroke-linejoin="miter" stroke="rgb(0%, 0%, 0%)" stroke-opacity="1" stroke-miterlimit="10" d="M 155.526113 -19.843564 C 155.526113 -14.76021 151.405755 -10.639851 146.3224 -10.639851 C 141.242993 -10.639851 137.122634 -14.76021 137.122634 -19.843564 C 137.122634 -24.922972 141.242993 -29.043331 146.3224 -29.043331 C 151.405755 -29.043331 155.526113 -24.922972 155.526113 -19.843564 Z M 155.526113 -19.843564 " transform="matrix(0.98975, 0, 0, -0.98975, 92.689123, 6.117645)"/>
<g fill="rgb(0%, 0%, 0%)" fill-opacity="1">
<use xlink:href="#glyph-0-1" x="234.776643" y="29.33619"/>
</g>
<path fill="none" stroke-width="0.3985" stroke-linecap="butt" stroke-linejoin="miter" stroke="rgb(0%, 0%, 0%)" stroke-opacity="1" stroke-miterlimit="10" d="M 180.358773 -3.958082 L 154.843334 -15.869234 " transform="matrix(0.98975, 0, 0, -0.98975, 92.689123, 6.117645)"/>
<path fill="none" stroke-width="0.3985" stroke-linecap="butt" stroke-linejoin="miter" stroke="rgb(0%, 0%, 0%)" stroke-opacity="1" stroke-miterlimit="10" d="M 134.225753 -39.683644 C 134.225753 -34.62397 130.125128 -30.523345 125.065454 -30.523345 C 120.001833 -30.523345 115.901208 -34.62397 115.901208 -39.683644 C 115.901208 -44.747265 120.001833 -48.84789 125.065454 -48.84789 C 130.125128 -48.84789 134.225753 -44.747265 134.225753 -39.683644 Z M 134.225753 -39.683644 " transform="matrix(0.98975, 0, 0, -0.98975, 92.689123, 6.117645)"/>
<g fill="rgb(0%, 0%, 0%)" fill-opacity="1">
<use xlink:href="#glyph-0-2" x="213.734558" y="48.911465"/>
</g>
<path fill="none" stroke-width="0.3985" stroke-linecap="butt" stroke-linejoin="miter" stroke="rgb(0%, 0%, 0%)" stroke-opacity="1" stroke-miterlimit="10" d="M 139.451189 -26.256958 L 131.909038 -33.297877 " transform="matrix(0.98975, 0, 0, -0.98975, 92.689123, 6.117645)"/>
<path fill="none" stroke-width="0.3985" stroke-linecap="butt" stroke-linejoin="miter" stroke="rgb(0%, 0%, 0%)" stroke-opacity="1" stroke-miterlimit="10" d="M 176.747539 -39.683644 C 176.747539 -34.62397 172.642967 -30.523345 167.583293 -30.523345 C 162.523619 -30.523345 158.419047 -34.62397 158.419047 -39.683644 C 158.419047 -44.747265 162.523619 -48.84789 167.583293 -48.84789 C 172.642967 -48.84789 176.747539 -44.747265 176.747539 -39.683644 Z M 176.747539 -39.683644 " transform="matrix(0.98975, 0, 0, -0.98975, 92.689123, 6.117645)"/>
<g fill="rgb(0%, 0%, 0%)" fill-opacity="1">
<use xlink:href="#glyph-0-3" x="255.818728" y="48.911465"/>
</g>
<path fill="none" stroke-width="0.3985" stroke-linecap="butt" stroke-linejoin="miter" stroke="rgb(0%, 0%, 0%)" stroke-opacity="1" stroke-miterlimit="10" d="M 153.197558 -26.256958 L 160.739709 -33.297877 " transform="matrix(0.98975, 0, 0, -0.98975, 92.689123, 6.117645)"/>
<g clip-path="url(#clip-1)">
<path fill="none" stroke-width="0.3985" stroke-linecap="butt" stroke-linejoin="miter" stroke="rgb(0%, 0%, 0%)" stroke-opacity="1" stroke-miterlimit="10" d="M 162.697274 -59.52767 C 162.697274 -54.396955 158.541395 -50.241076 153.41068 -50.241076 C 148.279965 -50.241076 144.124086 -54.396955 144.124086 -59.52767 C 144.124086 -64.658385 148.279965 -68.814264 153.41068 -68.814264 C 158.541395 -68.814264 162.697274 -64.658385 162.697274 -59.52767 Z M 162.697274 -59.52767 " transform="matrix(0.98975, 0, 0, -0.98975, 92.689123, 6.117645)"/>
</g>
<g fill="rgb(0%, 0%, 0%)" fill-opacity="1">
<use xlink:href="#glyph-0-4" x="241.791001" y="68.551075"/>
</g>
<path fill="none" stroke-width="0.3985" stroke-linecap="butt" stroke-linejoin="miter" stroke="rgb(0%, 0%, 0%)" stroke-opacity="1" stroke-miterlimit="10" d="M 162.140789 -47.304729 L 158.924225 -51.807918 " transform="matrix(0.98975, 0, 0, -0.98975, 92.689123, 6.117645)"/>
<path fill="none" stroke-width="0.3985" stroke-linecap="butt" stroke-linejoin="miter" stroke="rgb(0%, 0%, 0%)" stroke-opacity="1" stroke-miterlimit="10" d="M 240.652566 -19.843564 C 240.652566 -14.712849 236.49274 -10.55697 231.365972 -10.55697 C 226.235257 -10.55697 222.075431 -14.712849 222.075431 -19.843564 C 222.075431 -24.970332 226.235257 -29.130158 231.365972 -29.130158 C 236.49274 -29.130158 240.652566 -24.970332 240.652566 -19.843564 Z M 240.652566 -19.843564 " transform="matrix(0.98975, 0, 0, -0.98975, 92.689123, 6.117645)"/>
<g fill="rgb(0%, 0%, 0%)" fill-opacity="1">
<use xlink:href="#glyph-0-5" x="318.944983" y="29.271856"/>
</g>
<path fill="none" stroke-width="0.3985" stroke-linecap="butt" stroke-linejoin="miter" stroke="rgb(0%, 0%, 0%)" stroke-opacity="1" stroke-miterlimit="10" d="M 197.329599 -3.958082 L 222.766105 -15.829767 " transform="matrix(0.98975, 0, 0, -0.98975, 92.689123, 6.117645)"/>
</svg>
