<?xml version="1.0" encoding="UTF-8"?>
<svg xmlns="http://www.w3.org/2000/svg" xmlns:xlink="http://www.w3.org/1999/xlink" width="493.49" height="214.39" viewBox="0 0 493.49 214.39">
<defs>
<g>
<g id="glyph-0-0">
<path d="M 2.859375 -6.78125 C 2.859375 -6.796875 2.859375 -6.890625 2.71875 -6.890625 C 2.5 -6.890625 1.765625 -6.8125 1.515625 -6.796875 C 1.4375 -6.78125 1.328125 -6.78125 1.328125 -6.59375 C 1.328125 -6.484375 1.40625 -6.484375 1.5625 -6.484375 C 2.03125 -6.484375 2.0625 -6.40625 2.0625 -6.3125 L 2.03125 -6.109375 L 0.59375 -0.390625 C 0.546875 -0.25 0.546875 -0.234375 0.546875 -0.171875 C 0.546875 0.0625 0.75 0.109375 0.828125 0.109375 C 0.96875 0.109375 1.109375 0.015625 1.171875 -0.09375 C 1.21875 -0.1875 1.671875 -2.03125 1.734375 -2.28125 C 2.0625 -2.25 2.875 -2.09375 2.875 -1.4375 C 2.875 -1.359375 2.875 -1.328125 2.859375 -1.21875 C 2.828125 -1.109375 2.8125 -0.984375 2.8125 -0.875 C 2.8125 -0.28125 3.203125 0.109375 3.734375 0.109375 C 4.03125 0.109375 4.296875 -0.046875 4.515625 -0.421875 C 4.765625 -0.859375 4.875 -1.40625 4.875 -1.421875 C 4.875 -1.515625 4.78125 -1.515625 4.75 -1.515625 C 4.65625 -1.515625 4.640625 -1.484375 4.609375 -1.34375 C 4.40625 -0.609375 4.1875 -0.109375 3.75 -0.109375 C 3.5625 -0.109375 3.421875 -0.21875 3.421875 -0.578125 C 3.421875 -0.75 3.46875 -0.96875 3.515625 -1.140625 C 3.546875 -1.296875 3.546875 -1.34375 3.546875 -1.4375 C 3.546875 -2.09375 2.921875 -2.375 2.078125 -2.484375 C 2.390625 -2.65625 2.703125 -2.984375 2.9375 -3.21875 C 3.40625 -3.75 3.859375 -4.171875 4.359375 -4.171875 C 4.40625 -4.171875 4.421875 -4.171875 4.4375 -4.15625 C 4.5625 -4.140625 4.578125 -4.140625 4.65625 -4.078125 C 4.671875 -4.078125 4.671875 -4.0625 4.6875 -4.046875 C 4.21875 -4.015625 4.125 -3.625 4.125 -3.515625 C 4.125 -3.34375 4.234375 -3.15625 4.5 -3.15625 C 4.765625 -3.15625 5.046875 -3.375 5.046875 -3.765625 C 5.046875 -4.0625 4.8125 -4.390625 4.375 -4.390625 C 4.09375 -4.390625 3.640625 -4.3125 2.921875 -3.515625 C 2.578125 -3.140625 2.203125 -2.75 1.8125 -2.59375 Z M 2.859375 -6.78125 "/>
</g>
<g id="glyph-0-1">
<path d="M 1.78125 -1.140625 C 1.375 -0.484375 1 -0.34375 0.5625 -0.3125 C 0.4375 -0.296875 0.34375 -0.296875 0.34375 -0.109375 C 0.34375 -0.046875 0.390625 0 0.484375 0 C 0.75 0 1.046875 -0.03125 1.328125 -0.03125 C 1.65625 -0.03125 2 0 2.328125 0 C 2.390625 0 2.515625 0 2.515625 -0.1875 C 2.515625 -0.296875 2.421875 -0.3125 2.359375 -0.3125 C 2.125 -0.328125 1.890625 -0.40625 1.890625 -0.65625 C 1.890625 -0.78125 1.953125 -0.890625 2.03125 -1.03125 L 2.78125 -2.296875 L 5.28125 -2.296875 C 5.296875 -2.09375 5.4375 -0.734375 5.4375 -0.640625 C 5.4375 -0.34375 4.921875 -0.3125 4.71875 -0.3125 C 4.578125 -0.3125 4.484375 -0.3125 4.484375 -0.109375 C 4.484375 0 4.59375 0 4.625 0 C 5.03125 0 5.453125 -0.03125 5.859375 -0.03125 C 6.109375 -0.03125 6.734375 0 6.984375 0 C 7.046875 0 7.171875 0 7.171875 -0.203125 C 7.171875 -0.3125 7.0625 -0.3125 6.9375 -0.3125 C 6.3125 -0.3125 6.3125 -0.375 6.296875 -0.671875 L 5.6875 -6.875 C 5.671875 -7.078125 5.671875 -7.109375 5.5 -7.109375 C 5.34375 -7.109375 5.296875 -7.046875 5.234375 -6.953125 Z M 2.96875 -2.609375 L 4.921875 -5.890625 L 5.25 -2.609375 Z M 2.96875 -2.609375 "/>
</g>
<g id="glyph-0-2">
<path d="M 1.59375 -0.78125 C 1.484375 -0.390625 1.46875 -0.3125 0.6875 -0.3125 C 0.515625 -0.3125 0.421875 -0.3125 0.421875 -0.109375 C 0.421875 0 0.5 0 0.6875 0 L 4.234375 0 C 5.796875 0 6.96875 -1.171875 6.96875 -2.140625 C 6.96875 -2.859375 6.40625 -3.4375 5.4375 -3.546875 C 6.46875 -3.734375 7.515625 -4.46875 7.515625 -5.421875 C 7.515625 -6.15625 6.859375 -6.78125 5.671875 -6.78125 L 2.328125 -6.78125 C 2.140625 -6.78125 2.03125 -6.78125 2.03125 -6.59375 C 2.03125 -6.484375 2.125 -6.484375 2.3125 -6.484375 C 2.328125 -6.484375 2.53125 -6.484375 2.6875 -6.453125 C 2.875 -6.4375 2.96875 -6.421875 2.96875 -6.296875 C 2.96875 -6.265625 2.953125 -6.234375 2.921875 -6.109375 Z M 3.09375 -3.640625 L 3.703125 -6.109375 C 3.796875 -6.453125 3.8125 -6.484375 4.25 -6.484375 L 5.53125 -6.484375 C 6.40625 -6.484375 6.609375 -5.890625 6.609375 -5.453125 C 6.609375 -4.578125 5.75 -3.640625 4.546875 -3.640625 Z M 2.640625 -0.3125 C 2.5 -0.3125 2.484375 -0.3125 2.421875 -0.3125 C 2.328125 -0.328125 2.296875 -0.34375 2.296875 -0.421875 C 2.296875 -0.453125 2.296875 -0.46875 2.34375 -0.640625 L 3.03125 -3.421875 L 4.90625 -3.421875 C 5.859375 -3.421875 6.046875 -2.6875 6.046875 -2.25 C 6.046875 -1.265625 5.171875 -0.3125 4 -0.3125 Z M 2.640625 -0.3125 "/>
</g>
<g id="glyph-0-3">
<path d="M 7.546875 -6.90625 C 7.546875 -6.9375 7.53125 -7 7.4375 -7 C 7.40625 -7 7.40625 -7 7.296875 -6.890625 L 6.59375 -6.125 C 6.515625 -6.265625 6.046875 -7 4.953125 -7 C 2.734375 -7 0.5 -4.8125 0.5 -2.5 C 0.5 -0.859375 1.671875 0.21875 3.1875 0.21875 C 4.046875 0.21875 4.8125 -0.171875 5.34375 -0.640625 C 6.265625 -1.453125 6.421875 -2.359375 6.421875 -2.390625 C 6.421875 -2.484375 6.328125 -2.484375 6.3125 -2.484375 C 6.25 -2.484375 6.203125 -2.46875 6.1875 -2.390625 C 6.09375 -2.09375 5.859375 -1.390625 5.171875 -0.8125 C 4.484375 -0.265625 3.859375 -0.09375 3.34375 -0.09375 C 2.453125 -0.09375 1.40625 -0.609375 1.40625 -2.15625 C 1.40625 -2.71875 1.609375 -4.328125 2.609375 -5.5 C 3.203125 -6.203125 4.140625 -6.703125 5.03125 -6.703125 C 6.046875 -6.703125 6.625 -5.9375 6.625 -4.78125 C 6.625 -4.375 6.59375 -4.375 6.59375 -4.265625 C 6.59375 -4.171875 6.703125 -4.171875 6.75 -4.171875 C 6.875 -4.171875 6.875 -4.1875 6.921875 -4.375 Z M 7.546875 -6.90625 "/>
</g>
<g id="glyph-0-4">
<path d="M 1.578125 -0.78125 C 1.484375 -0.390625 1.453125 -0.3125 0.671875 -0.3125 C 0.5 -0.3125 0.390625 -0.3125 0.390625 -0.125 C 0.390625 0 0.484375 0 0.671875 0 L 3.96875 0 C 6.03125 0 7.984375 -2.09375 7.984375 -4.265625 C 7.984375 -5.671875 7.140625 -6.78125 5.65625 -6.78125 L 2.3125 -6.78125 C 2.125 -6.78125 2.015625 -6.78125 2.015625 -6.59375 C 2.015625 -6.484375 2.109375 -6.484375 2.3125 -6.484375 C 2.4375 -6.484375 2.609375 -6.46875 2.734375 -6.453125 C 2.890625 -6.4375 2.953125 -6.40625 2.953125 -6.296875 C 2.953125 -6.265625 2.9375 -6.234375 2.90625 -6.109375 Z M 3.734375 -6.109375 C 3.8125 -6.453125 3.828125 -6.484375 4.265625 -6.484375 L 5.328125 -6.484375 C 6.296875 -6.484375 7.125 -5.953125 7.125 -4.640625 C 7.125 -4.15625 6.921875 -2.53125 6.078125 -1.4375 C 5.796875 -1.0625 5.015625 -0.3125 3.78125 -0.3125 L 2.65625 -0.3125 C 2.53125 -0.3125 2.5 -0.3125 2.4375 -0.3125 C 2.34375 -0.328125 2.3125 -0.34375 2.3125 -0.421875 C 2.3125 -0.453125 2.3125 -0.46875 2.359375 -0.640625 Z M 3.734375 -6.109375 "/>
</g>
<g id="glyph-1-0">
<path d="M 1.890625 -2.328125 C 2.4375 -2.328125 2.828125 -1.953125 2.828125 -1.203125 C 2.828125 -0.34375 2.328125 -0.078125 1.921875 -0.078125 C 1.640625 -0.078125 1.03125 -0.15625 0.75 -0.5625 C 1.078125 -0.578125 1.140625 -0.8125 1.140625 -0.953125 C 1.140625 -1.1875 0.984375 -1.34375 0.765625 -1.34375 C 0.5625 -1.34375 0.375 -1.21875 0.375 -0.9375 C 0.375 -0.28125 1.09375 0.140625 1.9375 0.140625 C 2.90625 0.140625 3.578125 -0.5 3.578125 -1.203125 C 3.578125 -1.75 3.125 -2.28125 2.359375 -2.453125 C 3.09375 -2.71875 3.359375 -3.234375 3.359375 -3.65625 C 3.359375 -4.203125 2.71875 -4.609375 1.953125 -4.609375 C 1.1875 -4.609375 0.59375 -4.234375 0.59375 -3.6875 C 0.59375 -3.453125 0.75 -3.3125 0.953125 -3.3125 C 1.171875 -3.3125 1.3125 -3.484375 1.3125 -3.671875 C 1.3125 -3.875 1.171875 -4.015625 0.953125 -4.03125 C 1.203125 -4.34375 1.671875 -4.421875 1.9375 -4.421875 C 2.25 -4.421875 2.6875 -4.265625 2.6875 -3.65625 C 2.6875 -3.359375 2.59375 -3.046875 2.40625 -2.828125 C 2.171875 -2.5625 1.984375 -2.546875 1.640625 -2.53125 C 1.453125 -2.515625 1.453125 -2.515625 1.40625 -2.515625 C 1.390625 -2.515625 1.34375 -2.5 1.34375 -2.421875 C 1.34375 -2.328125 1.40625 -2.328125 1.515625 -2.328125 Z M 1.890625 -2.328125 "/>
</g>
<g id="glyph-1-1">
<path d="M 2.328125 -4.421875 C 2.328125 -4.609375 2.3125 -4.609375 2.125 -4.609375 C 1.671875 -4.171875 1.046875 -4.171875 0.765625 -4.171875 L 0.765625 -3.921875 C 0.921875 -3.921875 1.390625 -3.921875 1.765625 -4.109375 L 1.765625 -0.5625 C 1.765625 -0.34375 1.765625 -0.25 1.078125 -0.25 L 0.8125 -0.25 L 0.8125 0 C 0.9375 0 1.78125 -0.03125 2.046875 -0.03125 C 2.265625 -0.03125 3.140625 0 3.28125 0 L 3.28125 -0.25 L 3.03125 -0.25 C 2.328125 -0.25 2.328125 -0.34375 2.328125 -0.5625 Z M 2.328125 -4.421875 "/>
</g>
<g id="glyph-1-2">
<path d="M 3.515625 -1.265625 L 3.28125 -1.265625 C 3.25 -1.109375 3.1875 -0.703125 3.09375 -0.625 C 3.03125 -0.59375 2.5 -0.59375 2.40625 -0.59375 L 1.125 -0.59375 C 1.859375 -1.234375 2.09375 -1.4375 2.515625 -1.765625 C 3.03125 -2.171875 3.515625 -2.59375 3.515625 -3.265625 C 3.515625 -4.109375 2.78125 -4.609375 1.890625 -4.609375 C 1.015625 -4.609375 0.4375 -4.015625 0.4375 -3.375 C 0.4375 -3.015625 0.734375 -2.984375 0.8125 -2.984375 C 0.96875 -2.984375 1.171875 -3.09375 1.171875 -3.34375 C 1.171875 -3.484375 1.125 -3.71875 0.765625 -3.71875 C 0.984375 -4.21875 1.453125 -4.359375 1.78125 -4.359375 C 2.46875 -4.359375 2.84375 -3.828125 2.84375 -3.265625 C 2.84375 -2.65625 2.40625 -2.171875 2.1875 -1.921875 L 0.5 -0.265625 C 0.4375 -0.203125 0.4375 -0.1875 0.4375 0 L 3.296875 0 Z M 3.515625 -1.265625 "/>
</g>
</g>
<clipPath id="clip-0">
<path clip-rule="nonzero" d="M 0.445312 104 L 45 104 L 45 173 L 0.445312 173 Z M 0.445312 104 "/>
</clipPath>
<clipPath id="clip-1">
<path clip-rule="nonzero" d="M 22 147 L 68 147 L 68 213.78125 L 22 213.78125 Z M 22 147 "/>
</clipPath>
<clipPath id="clip-2">
<path clip-rule="nonzero" d="M 57 147 L 103 147 L 103 213.78125 L 57 213.78125 Z M 57 147 "/>
</clipPath>
<clipPath id="clip-3">
<path clip-rule="nonzero" d="M 156 147 L 203 147 L 203 213.78125 L 156 213.78125 Z M 156 147 "/>
</clipPath>
<clipPath id="clip-4">
<path clip-rule="nonzero" d="M 192 147 L 238 147 L 238 213.78125 L 192 213.78125 Z M 192 147 "/>
</clipPath>
<clipPath id="clip-5">
<path clip-rule="nonzero" d="M 448 104 L 492.535156 104 L 492.535156 173 L 448 173 Z M 448 104 "/>
</clipPath>
</defs>
<path fill="none" stroke-width="0.3985" stroke-linecap="butt" stroke-linejoin="miter" stroke="rgb(0%, 0%, 0%)" stroke-opacity="1" stroke-miterlimit="10" d="M 9.919498 -0.000429142 C 9.919498 5.479964 5.481124 9.922255 0.000730911 9.922255 C -5.479662 9.922255 -9.921953 5.479964 -9.921953 -0.000429142 C -9.921953 -5.480822 -5.479662 -9.923113 0.000730911 -9.923113 C 5.481124 -9.923113 9.919498 -5.480822 9.919498 -0.000429142 Z M 9.919498 -0.000429142 " transform="matrix(0.997163, 0, 0, -0.997163, 80.936771, 14.065978)"/>
<g fill="rgb(0%, 0%, 0%)" fill-opacity="1">
<use xlink:href="#glyph-0-0" x="76.122469" y="16.770284"/>
</g>
<g fill="rgb(0%, 0%, 0%)" fill-opacity="1">
<use xlink:href="#glyph-1-0" x="81.293755" y="18.260045"/>
</g>
<path fill="none" stroke-width="0.3985" stroke-linecap="butt" stroke-linejoin="miter" stroke="rgb(0%, 0%, 0%)" stroke-opacity="1" stroke-miterlimit="10" d="M -29.054361 -42.519502 C -29.054361 -37.039109 -33.496652 -32.600736 -38.977045 -32.600736 C -44.457437 -32.600736 -48.899729 -37.039109 -48.899729 -42.519502 C -48.899729 -47.999895 -44.457437 -52.442186 -38.977045 -52.442186 C -33.496652 -52.442186 -29.054361 -47.999895 -29.054361 -42.519502 Z M -29.054361 -42.519502 " transform="matrix(0.997163, 0, 0, -0.997163, 80.936771, 14.065978)"/>
<g fill="rgb(0%, 0%, 0%)" fill-opacity="1">
<use xlink:href="#glyph-0-0" x="37.256055" y="59.169646"/>
</g>
<g fill="rgb(0%, 0%, 0%)" fill-opacity="1">
<use xlink:href="#glyph-1-1" x="42.427341" y="60.659407"/>
</g>
<path fill="none" stroke-width="0.3985" stroke-linecap="butt" stroke-linejoin="miter" stroke="rgb(0%, 0%, 0%)" stroke-opacity="1" stroke-miterlimit="10" d="M -7.783072 -6.467998 L -38.977045 -32.40095 " transform="matrix(0.997163, 0, 0, -0.997163, 80.936771, 14.065978)"/>
<g clip-path="url(#clip-0)">
<path fill="none" stroke-width="0.3985" stroke-linecap="butt" stroke-linejoin="miter" stroke="rgb(0%, 0%, 0%)" stroke-opacity="1" stroke-miterlimit="10" d="M -59.527538 -96.798503 L -76.536734 -153.494518 L -42.518342 -153.494518 Z M -59.527538 -96.798503 " transform="matrix(0.997163, 0, 0, -0.997163, 80.936771, 14.065978)"/>
</g>
<g fill="rgb(0%, 0%, 0%)" fill-opacity="1">
<use xlink:href="#glyph-0-1" x="17.852264" y="158.792191"/>
</g>
<path fill="none" stroke-width="0.3985" stroke-linecap="butt" stroke-linejoin="miter" stroke="rgb(0%, 0%, 0%)" stroke-opacity="1" stroke-miterlimit="10" d="M -42.588855 -51.972102 L -59.527538 -96.277494 " transform="matrix(0.997163, 0, 0, -0.997163, 80.936771, 14.065978)"/>
<path fill-rule="nonzero" fill="rgb(75.762939%, 83.410645%, 91.529846%)" fill-opacity="1" stroke-width="0.3985" stroke-linecap="butt" stroke-linejoin="miter" stroke="rgb(0%, 0%, 0%)" stroke-opacity="1" stroke-miterlimit="10" d="M -8.503867 -85.038575 C -8.503867 -79.5621 -12.946158 -75.119809 -18.426551 -75.119809 C -23.903027 -75.119809 -28.345318 -79.5621 -28.345318 -85.038575 C -28.345318 -90.518968 -23.903027 -94.961259 -18.426551 -94.961259 C -12.946158 -94.961259 -8.503867 -90.518968 -8.503867 -85.038575 Z M -8.503867 -85.038575 " transform="matrix(0.997163, 0, 0, -0.997163, 80.936771, 14.065978)"/>
<g fill="rgb(0%, 0%, 0%)" fill-opacity="1">
<use xlink:href="#glyph-0-0" x="57.749745" y="101.570005"/>
</g>
<g fill="rgb(0%, 0%, 0%)" fill-opacity="1">
<use xlink:href="#glyph-1-2" x="62.921031" y="103.059766"/>
</g>
<path fill="none" stroke-width="0.3985" stroke-linecap="butt" stroke-linejoin="miter" stroke="rgb(0%, 0%, 0%)" stroke-opacity="1" stroke-miterlimit="10" d="M -33.555412 -51.067191 L -18.426551 -74.920023 " transform="matrix(0.997163, 0, 0, -0.997163, 80.936771, 14.065978)"/>
<path fill-rule="nonzero" fill="rgb(100%, 69.999695%, 69.999695%)" fill-opacity="1" d="M 44.898438 152.773438 L 27.9375 209.304688 L 61.855469 209.304688 Z M 44.898438 152.773438 "/>
<g clip-path="url(#clip-1)">
<path fill="none" stroke-width="0.3985" stroke-linecap="butt" stroke-linejoin="miter" stroke="rgb(0%, 0%, 0%)" stroke-opacity="1" stroke-miterlimit="10" d="M -36.140873 -139.102121 L -53.150069 -195.794218 L -19.135594 -195.794218 Z M -36.140873 -139.102121 " transform="matrix(0.997163, 0, 0, -0.997163, 80.936771, 14.065978)"/>
</g>
<g fill="rgb(0%, 0%, 0%)" fill-opacity="1">
<use xlink:href="#glyph-0-2" x="40.880742" y="201.191553"/>
</g>
<path fill="none" stroke-width="0.3985" stroke-linecap="butt" stroke-linejoin="miter" stroke="rgb(0%, 0%, 0%)" stroke-opacity="1" stroke-miterlimit="10" d="M -21.603534 -94.64787 L -36.140873 -138.581112 " transform="matrix(0.997163, 0, 0, -0.997163, 80.936771, 14.065978)"/>
<path fill-rule="nonzero" fill="rgb(100%, 69.999695%, 69.999695%)" fill-opacity="1" d="M 80.230469 152.855469 L 63.269531 209.390625 L 97.191406 209.390625 Z M 80.230469 152.855469 "/>
<g clip-path="url(#clip-2)">
<path fill="none" stroke-width="0.3985" stroke-linecap="butt" stroke-linejoin="miter" stroke="rgb(0%, 0%, 0%)" stroke-opacity="1" stroke-miterlimit="10" d="M -0.708312 -139.184386 L -17.717508 -195.8804 L 16.300884 -195.8804 Z M -0.708312 -139.184386 " transform="matrix(0.997163, 0, 0, -0.997163, 80.936771, 14.065978)"/>
</g>
<g fill="rgb(0%, 0%, 0%)" fill-opacity="1">
<use xlink:href="#glyph-0-3" x="76.324893" y="201.191553"/>
</g>
<path fill="none" stroke-width="0.3985" stroke-linecap="butt" stroke-linejoin="miter" stroke="rgb(0%, 0%, 0%)" stroke-opacity="1" stroke-miterlimit="10" d="M -15.249569 -94.651787 L -0.708312 -138.663376 " transform="matrix(0.997163, 0, 0, -0.997163, 80.936771, 14.065978)"/>
<path fill="none" stroke-width="0.3985" stroke-linecap="butt" stroke-linejoin="miter" stroke="rgb(0%, 0%, 0%)" stroke-opacity="1" stroke-miterlimit="10" d="M 38.978507 -53.887694 L 21.96931 -110.579791 L 55.983785 -110.579791 Z M 38.978507 -53.887694 " transform="matrix(0.997163, 0, 0, -0.997163, 80.936771, 14.065978)"/>
<g fill="rgb(0%, 0%, 0%)" fill-opacity="1">
<use xlink:href="#glyph-0-4" x="115.55228" y="116.39283"/>
</g>
<path fill="none" stroke-width="0.3985" stroke-linecap="butt" stroke-linejoin="miter" stroke="rgb(0%, 0%, 0%)" stroke-opacity="1" stroke-miterlimit="10" d="M 5.966877 -8.172051 L 38.978507 -53.366684 " transform="matrix(0.997163, 0, 0, -0.997163, 80.936771, 14.065978)"/>
<path fill="none" stroke-width="0.3985" stroke-linecap="butt" stroke-linejoin="miter" stroke="rgb(0%, 0%, 0%)" stroke-opacity="1" stroke-miterlimit="10" d="M 186.071622 -0.000429142 C 186.071622 5.479964 181.629331 9.922255 176.148938 9.922255 C 170.668545 9.922255 166.226254 5.479964 166.226254 -0.000429142 C 166.226254 -5.480822 170.668545 -9.923113 176.148938 -9.923113 C 181.629331 -9.923113 186.071622 -5.480822 186.071622 -0.000429142 Z M 186.071622 -0.000429142 " transform="matrix(0.997163, 0, 0, -0.997163, 80.936771, 14.065978)"/>
<g fill="rgb(0%, 0%, 0%)" fill-opacity="1">
<use xlink:href="#glyph-0-0" x="251.771698" y="16.770284"/>
</g>
<g fill="rgb(0%, 0%, 0%)" fill-opacity="1">
<use xlink:href="#glyph-1-0" x="256.942984" y="18.260045"/>
</g>
<path fill-rule="nonzero" fill="rgb(75.762939%, 83.410645%, 91.529846%)" fill-opacity="1" stroke-width="0.3985" stroke-linecap="butt" stroke-linejoin="miter" stroke="rgb(0%, 0%, 0%)" stroke-opacity="1" stroke-miterlimit="10" d="M 147.093846 -42.519502 C 147.093846 -37.039109 142.651555 -32.600736 137.171162 -32.600736 C 131.690769 -32.600736 127.252396 -37.039109 127.252396 -42.519502 C 127.252396 -47.999895 131.690769 -52.442186 137.171162 -52.442186 C 142.651555 -52.442186 147.093846 -47.999895 147.093846 -42.519502 Z M 147.093846 -42.519502 " transform="matrix(0.997163, 0, 0, -0.997163, 80.936771, 14.065978)"/>
<g fill="rgb(0%, 0%, 0%)" fill-opacity="1">
<use xlink:href="#glyph-0-0" x="212.905284" y="59.169646"/>
</g>
<g fill="rgb(0%, 0%, 0%)" fill-opacity="1">
<use xlink:href="#glyph-1-2" x="218.07657" y="60.659407"/>
</g>
<path fill="none" stroke-width="0.3985" stroke-linecap="butt" stroke-linejoin="miter" stroke="rgb(0%, 0%, 0%)" stroke-opacity="1" stroke-miterlimit="10" d="M 168.365135 -6.467998 L 137.171162 -32.40095 " transform="matrix(0.997163, 0, 0, -0.997163, 80.936771, 14.065978)"/>
<path fill="none" stroke-width="0.3985" stroke-linecap="butt" stroke-linejoin="miter" stroke="rgb(0%, 0%, 0%)" stroke-opacity="1" stroke-miterlimit="10" d="M 126.543353 -85.038575 C 126.543353 -79.5621 122.101061 -75.119809 116.620669 -75.119809 C 111.140276 -75.119809 106.697985 -79.5621 106.697985 -85.038575 C 106.697985 -90.518968 111.140276 -94.961259 116.620669 -94.961259 C 122.101061 -94.961259 126.543353 -90.518968 126.543353 -85.038575 Z M 126.543353 -85.038575 " transform="matrix(0.997163, 0, 0, -0.997163, 80.936771, 14.065978)"/>
<g fill="rgb(0%, 0%, 0%)" fill-opacity="1">
<use xlink:href="#glyph-0-0" x="192.411594" y="101.570005"/>
</g>
<g fill="rgb(0%, 0%, 0%)" fill-opacity="1">
<use xlink:href="#glyph-1-1" x="197.58288" y="103.059766"/>
</g>
<path fill="none" stroke-width="0.3985" stroke-linecap="butt" stroke-linejoin="miter" stroke="rgb(0%, 0%, 0%)" stroke-opacity="1" stroke-miterlimit="10" d="M 131.74953 -51.067191 L 116.620669 -74.920023 " transform="matrix(0.997163, 0, 0, -0.997163, 80.936771, 14.065978)"/>
<path fill-rule="nonzero" fill="rgb(100%, 69.999695%, 69.999695%)" fill-opacity="1" d="M 179.558594 152.988281 L 162.601562 209.523438 L 196.519531 209.523438 Z M 179.558594 152.988281 "/>
<g clip-path="url(#clip-3)">
<path fill="none" stroke-width="0.3985" stroke-linecap="butt" stroke-linejoin="miter" stroke="rgb(0%, 0%, 0%)" stroke-opacity="1" stroke-miterlimit="10" d="M 98.902429 -139.317576 L 81.897151 -196.013591 L 115.911626 -196.013591 Z M 98.902429 -139.317576 " transform="matrix(0.997163, 0, 0, -0.997163, 80.936771, 14.065978)"/>
</g>
<g fill="rgb(0%, 0%, 0%)" fill-opacity="1">
<use xlink:href="#glyph-0-1" x="175.83476" y="201.191553"/>
</g>
<path fill="none" stroke-width="0.3985" stroke-linecap="butt" stroke-linejoin="miter" stroke="rgb(0%, 0%, 0%)" stroke-opacity="1" stroke-miterlimit="10" d="M 113.451521 -94.651787 L 98.902429 -138.800484 " transform="matrix(0.997163, 0, 0, -0.997163, 80.936771, 14.065978)"/>
<path fill-rule="nonzero" fill="rgb(100%, 69.999695%, 69.999695%)" fill-opacity="1" d="M 214.894531 152.773438 L 197.933594 209.304688 L 231.851562 209.304688 Z M 214.894531 152.773438 "/>
<g clip-path="url(#clip-4)">
<path fill="none" stroke-width="0.3985" stroke-linecap="butt" stroke-linejoin="miter" stroke="rgb(0%, 0%, 0%)" stroke-opacity="1" stroke-miterlimit="10" d="M 134.338908 -139.102121 L 117.329712 -195.794218 L 151.344186 -195.794218 Z M 134.338908 -139.102121 " transform="matrix(0.997163, 0, 0, -0.997163, 80.936771, 14.065978)"/>
</g>
<g fill="rgb(0%, 0%, 0%)" fill-opacity="1">
<use xlink:href="#glyph-0-2" x="210.876057" y="201.191553"/>
</g>
<path fill="none" stroke-width="0.3985" stroke-linecap="butt" stroke-linejoin="miter" stroke="rgb(0%, 0%, 0%)" stroke-opacity="1" stroke-miterlimit="10" d="M 119.801568 -94.64787 L 134.338908 -138.581112 " transform="matrix(0.997163, 0, 0, -0.997163, 80.936771, 14.065978)"/>
<path fill="none" stroke-width="0.3985" stroke-linecap="butt" stroke-linejoin="miter" stroke="rgb(0%, 0%, 0%)" stroke-opacity="1" stroke-miterlimit="10" d="M 157.721656 -96.665313 L 140.716377 -153.35741 L 174.730852 -153.35741 Z M 157.721656 -96.665313 " transform="matrix(0.997163, 0, 0, -0.997163, 80.936771, 14.065978)"/>
<g fill="rgb(0%, 0%, 0%)" fill-opacity="1">
<use xlink:href="#glyph-0-3" x="234.307389" y="158.792191"/>
</g>
<path fill="none" stroke-width="0.3985" stroke-linecap="butt" stroke-linejoin="miter" stroke="rgb(0%, 0%, 0%)" stroke-opacity="1" stroke-miterlimit="10" d="M 140.794724 -51.972102 L 157.721656 -96.144303 " transform="matrix(0.997163, 0, 0, -0.997163, 80.936771, 14.065978)"/>
<path fill="none" stroke-width="0.3985" stroke-linecap="butt" stroke-linejoin="miter" stroke="rgb(0%, 0%, 0%)" stroke-opacity="1" stroke-miterlimit="10" d="M 215.126713 -53.887694 L 198.117517 -110.579791 L 232.131992 -110.579791 Z M 215.126713 -53.887694 " transform="matrix(0.997163, 0, 0, -0.997163, 80.936771, 14.065978)"/>
<g fill="rgb(0%, 0%, 0%)" fill-opacity="1">
<use xlink:href="#glyph-0-4" x="291.201509" y="116.39283"/>
</g>
<path fill="none" stroke-width="0.3985" stroke-linecap="butt" stroke-linejoin="miter" stroke="rgb(0%, 0%, 0%)" stroke-opacity="1" stroke-miterlimit="10" d="M 182.119001 -8.172051 L 215.126713 -53.366684 " transform="matrix(0.997163, 0, 0, -0.997163, 80.936771, 14.065978)"/>
<path fill-rule="nonzero" fill="rgb(75.762939%, 83.410645%, 91.529846%)" fill-opacity="1" stroke-width="0.3985" stroke-linecap="butt" stroke-linejoin="miter" stroke="rgb(0%, 0%, 0%)" stroke-opacity="1" stroke-miterlimit="10" d="M 341.978807 -0.000429142 C 341.978807 5.479964 337.536516 9.922255 332.056123 9.922255 C 326.57573 9.922255 322.133439 5.479964 322.133439 -0.000429142 C 322.133439 -5.480822 326.57573 -9.923113 332.056123 -9.923113 C 337.536516 -9.923113 341.978807 -5.480822 341.978807 -0.000429142 Z M 341.978807 -0.000429142 " transform="matrix(0.997163, 0, 0, -0.997163, 80.936771, 14.065978)"/>
<g fill="rgb(0%, 0%, 0%)" fill-opacity="1">
<use xlink:href="#glyph-0-0" x="407.236357" y="16.770284"/>
</g>
<g fill="rgb(0%, 0%, 0%)" fill-opacity="1">
<use xlink:href="#glyph-1-2" x="412.407643" y="18.260045"/>
</g>
<path fill="none" stroke-width="0.3985" stroke-linecap="butt" stroke-linejoin="miter" stroke="rgb(0%, 0%, 0%)" stroke-opacity="1" stroke-miterlimit="10" d="M 303.001031 -42.519502 C 303.001031 -37.039109 298.55874 -32.600736 293.078347 -32.600736 C 287.601872 -32.600736 283.159581 -37.039109 283.159581 -42.519502 C 283.159581 -47.999895 287.601872 -52.442186 293.078347 -52.442186 C 298.55874 -52.442186 303.001031 -47.999895 303.001031 -42.519502 Z M 303.001031 -42.519502 " transform="matrix(0.997163, 0, 0, -0.997163, 80.936771, 14.065978)"/>
<g fill="rgb(0%, 0%, 0%)" fill-opacity="1">
<use xlink:href="#glyph-0-0" x="368.369943" y="59.169646"/>
</g>
<g fill="rgb(0%, 0%, 0%)" fill-opacity="1">
<use xlink:href="#glyph-1-1" x="373.541229" y="60.659407"/>
</g>
<path fill="none" stroke-width="0.3985" stroke-linecap="butt" stroke-linejoin="miter" stroke="rgb(0%, 0%, 0%)" stroke-opacity="1" stroke-miterlimit="10" d="M 324.27232 -6.467998 L 293.078347 -32.40095 " transform="matrix(0.997163, 0, 0, -0.997163, 80.936771, 14.065978)"/>
<path fill="none" stroke-width="0.3985" stroke-linecap="butt" stroke-linejoin="miter" stroke="rgb(0%, 0%, 0%)" stroke-opacity="1" stroke-miterlimit="10" d="M 272.527854 -96.798503 L 255.518657 -153.494518 L 289.53705 -153.494518 Z M 272.527854 -96.798503 " transform="matrix(0.997163, 0, 0, -0.997163, 80.936771, 14.065978)"/>
<g fill="rgb(0%, 0%, 0%)" fill-opacity="1">
<use xlink:href="#glyph-0-1" x="348.966152" y="158.792191"/>
</g>
<path fill="none" stroke-width="0.3985" stroke-linecap="butt" stroke-linejoin="miter" stroke="rgb(0%, 0%, 0%)" stroke-opacity="1" stroke-miterlimit="10" d="M 289.466537 -51.972102 L 272.527854 -96.277494 " transform="matrix(0.997163, 0, 0, -0.997163, 80.936771, 14.065978)"/>
<path fill="none" stroke-width="0.3985" stroke-linecap="butt" stroke-linejoin="miter" stroke="rgb(0%, 0%, 0%)" stroke-opacity="1" stroke-miterlimit="10" d="M 313.632758 -96.583048 L 296.623562 -153.275145 L 330.638037 -153.275145 Z M 313.632758 -96.583048 " transform="matrix(0.997163, 0, 0, -0.997163, 80.936771, 14.065978)"/>
<g fill="rgb(0%, 0%, 0%)" fill-opacity="1">
<use xlink:href="#glyph-0-2" x="389.661363" y="158.792191"/>
</g>
<path fill="none" stroke-width="0.3985" stroke-linecap="butt" stroke-linejoin="miter" stroke="rgb(0%, 0%, 0%)" stroke-opacity="1" stroke-miterlimit="10" d="M 296.705827 -51.968185 L 313.632758 -96.062039 " transform="matrix(0.997163, 0, 0, -0.997163, 80.936771, 14.065978)"/>
<path fill="none" stroke-width="0.3985" stroke-linecap="butt" stroke-linejoin="miter" stroke="rgb(0%, 0%, 0%)" stroke-opacity="1" stroke-miterlimit="10" d="M 380.952665 -42.519502 C 380.952665 -37.039109 376.514291 -32.600736 371.033898 -32.600736 C 365.553506 -32.600736 361.111214 -37.039109 361.111214 -42.519502 C 361.111214 -47.999895 365.553506 -52.442186 371.033898 -52.442186 C 376.514291 -52.442186 380.952665 -47.999895 380.952665 -42.519502 Z M 380.952665 -42.519502 " transform="matrix(0.997163, 0, 0, -0.997163, 80.936771, 14.065978)"/>
<g fill="rgb(0%, 0%, 0%)" fill-opacity="1">
<use xlink:href="#glyph-0-0" x="446.102771" y="59.169646"/>
</g>
<g fill="rgb(0%, 0%, 0%)" fill-opacity="1">
<use xlink:href="#glyph-1-0" x="451.274057" y="60.659407"/>
</g>
<path fill="none" stroke-width="0.3985" stroke-linecap="butt" stroke-linejoin="miter" stroke="rgb(0%, 0%, 0%)" stroke-opacity="1" stroke-miterlimit="10" d="M 339.839926 -6.467998 L 371.033898 -32.40095 " transform="matrix(0.997163, 0, 0, -0.997163, 80.936771, 14.065978)"/>
<path fill="none" stroke-width="0.3985" stroke-linecap="butt" stroke-linejoin="miter" stroke="rgb(0%, 0%, 0%)" stroke-opacity="1" stroke-miterlimit="10" d="M 350.483405 -96.665313 L 333.474209 -153.35741 L 367.488684 -153.35741 Z M 350.483405 -96.665313 " transform="matrix(0.997163, 0, 0, -0.997163, 80.936771, 14.065978)"/>
<g fill="rgb(0%, 0%, 0%)" fill-opacity="1">
<use xlink:href="#glyph-0-3" x="426.518494" y="158.792191"/>
</g>
<path fill="none" stroke-width="0.3985" stroke-linecap="butt" stroke-linejoin="miter" stroke="rgb(0%, 0%, 0%)" stroke-opacity="1" stroke-miterlimit="10" d="M 367.410336 -51.972102 L 350.483405 -96.144303 " transform="matrix(0.997163, 0, 0, -0.997163, 80.936771, 14.065978)"/>
<g clip-path="url(#clip-5)">
<path fill="none" stroke-width="0.3985" stroke-linecap="butt" stroke-linejoin="miter" stroke="rgb(0%, 0%, 0%)" stroke-opacity="1" stroke-miterlimit="10" d="M 391.584392 -96.406767 L 374.575196 -153.102781 L 408.593588 -153.102781 Z M 391.584392 -96.406767 " transform="matrix(0.997163, 0, 0, -0.997163, 80.936771, 14.065978)"/>
</g>
<g fill="rgb(0%, 0%, 0%)" fill-opacity="1">
<use xlink:href="#glyph-0-4" x="467.159858" y="158.792191"/>
</g>
<path fill="none" stroke-width="0.3985" stroke-linecap="butt" stroke-linejoin="miter" stroke="rgb(0%, 0%, 0%)" stroke-opacity="1" stroke-miterlimit="10" d="M 374.669213 -51.964268 L 391.584392 -95.885757 " transform="matrix(0.997163, 0, 0, -0.997163, 80.936771, 14.065978)"/>
<path fill="none" stroke-width="1.41731" stroke-linecap="butt" stroke-linejoin="miter" stroke="rgb(0%, 0%, 0%)" stroke-opacity="1" stroke-miterlimit="10" d="M 68.033598 -28.346478 L 84.972282 -28.346478 " transform="matrix(0.997163, 0, 0, -0.997163, 80.936771, 14.065978)"/>
<path fill-rule="nonzero" fill="rgb(0%, 0%, 0%)" fill-opacity="1" stroke-width="1.41731" stroke-linecap="butt" stroke-linejoin="miter" stroke="rgb(0%, 0%, 0%)" stroke-opacity="1" stroke-miterlimit="10" d="M 7.346951 0.000322185 L 2.289633 1.919831 L 3.981935 0.000322185 L 2.289633 -1.919186 Z M 7.346951 0.000322185 " transform="matrix(0.997163, 0, 0, -0.997163, 162.048894, 42.332353)"/>
<path fill="none" stroke-width="1.41731" stroke-linecap="butt" stroke-linejoin="miter" stroke="rgb(0%, 0%, 0%)" stroke-opacity="1" stroke-miterlimit="10" d="M 238.113808 -28.346478 L 255.052491 -28.346478 " transform="matrix(0.997163, 0, 0, -0.997163, 80.936771, 14.065978)"/>
<path fill-rule="nonzero" fill="rgb(0%, 0%, 0%)" fill-opacity="1" stroke-width="1.41731" stroke-linecap="butt" stroke-linejoin="miter" stroke="rgb(0%, 0%, 0%)" stroke-opacity="1" stroke-miterlimit="10" d="M 7.350217 0.000322185 L 2.288983 1.919831 L 3.981284 0.000322185 L 2.288983 -1.919186 Z M 7.350217 0.000322185 " transform="matrix(0.997163, 0, 0, -0.997163, 331.647199, 42.332353)"/>
<path fill="none" stroke-width="1.41731" stroke-linecap="butt" stroke-linejoin="miter" stroke="rgb(0%, 0%, 0%)" stroke-opacity="1" stroke-dasharray="1.41731 1.99255" stroke-miterlimit="10" d="M 65.197426 -110.552369 L 76.538196 -110.552369 " transform="matrix(0.997163, 0, 0, -0.997163, 80.936771, 14.065978)"/>
<path fill="none" stroke-width="1.41731" stroke-linecap="butt" stroke-linejoin="miter" stroke="rgb(0%, 0%, 0%)" stroke-opacity="1" stroke-dasharray="1.41731 1.99255" stroke-miterlimit="10" d="M 65.197426 -153.071442 L 76.538196 -153.071442 " transform="matrix(0.997163, 0, 0, -0.997163, 80.936771, 14.065978)"/>
<path fill="none" stroke-width="1.41731" stroke-linecap="butt" stroke-linejoin="miter" stroke="rgb(0%, 0%, 0%)" stroke-opacity="1" stroke-dasharray="1.41731 1.99255" stroke-miterlimit="10" d="M 65.197426 -195.594433 L 76.538196 -195.594433 " transform="matrix(0.997163, 0, 0, -0.997163, 80.936771, 14.065978)"/>
<path fill="none" stroke-width="1.41731" stroke-linecap="butt" stroke-linejoin="miter" stroke="rgb(0%, 0%, 0%)" stroke-opacity="1" stroke-dasharray="1.41731 1.99255" stroke-miterlimit="10" d="M 238.113808 -110.552369 L 249.45066 -110.552369 " transform="matrix(0.997163, 0, 0, -0.997163, 80.936771, 14.065978)"/>
<path fill="none" stroke-width="1.41731" stroke-linecap="butt" stroke-linejoin="miter" stroke="rgb(0%, 0%, 0%)" stroke-opacity="1" stroke-dasharray="1.41731 1.99255" stroke-miterlimit="10" d="M 238.113808 -153.071442 L 249.45066 -153.071442 " transform="matrix(0.997163, 0, 0, -0.997163, 80.936771, 14.065978)"/>
<path fill="none" stroke-width="1.41731" stroke-linecap="butt" stroke-linejoin="miter" stroke="rgb(0%, 0%, 0%)" stroke-opacity="1" stroke-dasharray="1.41731 1.99255" stroke-miterlimit="10" d="M 238.113808 -195.594433 L 249.45066 -195.594433 " transform="matrix(0.997163, 0, 0, -0.997163, 80.936771, 14.065978)"/>
</svg>
