<?xml version="1.0" encoding="UTF-8"?>
<svg xmlns="http://www.w3.org/2000/svg" xmlns:xlink="http://www.w3.org/1999/xlink" width="130.33" height="187.02" viewBox="0 0 130.33 187.02">
<defs>
<g>
<g id="glyph-0-0">
<path d="M 1.765625 -1.140625 C 1.375 -0.46875 0.984375 -0.34375 0.5625 -0.3125 C 0.4375 -0.296875 0.34375 -0.296875 0.34375 -0.109375 C 0.34375 -0.046875 0.390625 0 0.46875 0 C 0.75 0 1.046875 -0.03125 1.328125 -0.03125 C 1.65625 -0.03125 2 0 2.3125 0 C 2.375 0 2.5 0 2.5 -0.1875 C 2.5 -0.296875 2.421875 -0.3125 2.34375 -0.3125 C 2.125 -0.328125 1.875 -0.40625 1.875 -0.65625 C 1.875 -0.765625 1.9375 -0.875 2.015625 -1.015625 L 2.78125 -2.28125 L 5.265625 -2.28125 C 5.28125 -2.078125 5.421875 -0.734375 5.421875 -0.640625 C 5.421875 -0.34375 4.90625 -0.3125 4.703125 -0.3125 C 4.5625 -0.3125 4.46875 -0.3125 4.46875 -0.109375 C 4.46875 0 4.59375 0 4.609375 0 C 5.015625 0 5.4375 -0.03125 5.84375 -0.03125 C 6.09375 -0.03125 6.71875 0 6.96875 0 C 7.03125 0 7.140625 0 7.140625 -0.203125 C 7.140625 -0.3125 7.046875 -0.3125 6.921875 -0.3125 C 6.296875 -0.3125 6.296875 -0.375 6.265625 -0.65625 L 5.671875 -6.859375 C 5.640625 -7.046875 5.640625 -7.09375 5.484375 -7.09375 C 5.3125 -7.09375 5.28125 -7.03125 5.21875 -6.921875 Z M 2.96875 -2.59375 L 4.90625 -5.859375 L 5.234375 -2.59375 Z M 2.96875 -2.59375 "/>
</g>
<g id="glyph-0-1">
<path d="M 1.578125 -0.765625 C 1.484375 -0.390625 1.46875 -0.3125 0.6875 -0.3125 C 0.515625 -0.3125 0.421875 -0.3125 0.421875 -0.109375 C 0.421875 0 0.5 0 0.6875 0 L 4.21875 0 C 5.78125 0 6.953125 -1.171875 6.953125 -2.140625 C 6.953125 -2.859375 6.375 -3.421875 5.421875 -3.53125 C 6.453125 -3.71875 7.484375 -4.453125 7.484375 -5.40625 C 7.484375 -6.125 6.828125 -6.765625 5.640625 -6.765625 L 2.3125 -6.765625 C 2.125 -6.765625 2.03125 -6.765625 2.03125 -6.5625 C 2.03125 -6.453125 2.125 -6.453125 2.3125 -6.453125 C 2.328125 -6.453125 2.515625 -6.453125 2.6875 -6.4375 C 2.859375 -6.421875 2.953125 -6.40625 2.953125 -6.28125 C 2.953125 -6.234375 2.9375 -6.21875 2.90625 -6.09375 Z M 3.078125 -3.625 L 3.6875 -6.078125 C 3.78125 -6.421875 3.796875 -6.453125 4.234375 -6.453125 L 5.515625 -6.453125 C 6.375 -6.453125 6.59375 -5.875 6.59375 -5.4375 C 6.59375 -4.5625 5.734375 -3.625 4.53125 -3.625 Z M 2.640625 -0.3125 C 2.5 -0.3125 2.484375 -0.3125 2.421875 -0.3125 C 2.3125 -0.328125 2.28125 -0.34375 2.28125 -0.421875 C 2.28125 -0.453125 2.28125 -0.46875 2.34375 -0.640625 L 3.015625 -3.40625 L 4.890625 -3.40625 C 5.84375 -3.40625 6.03125 -2.671875 6.03125 -2.25 C 6.03125 -1.265625 5.15625 -0.3125 3.984375 -0.3125 Z M 2.640625 -0.3125 "/>
</g>
<g id="glyph-0-2">
<path d="M 7.53125 -6.890625 C 7.53125 -6.921875 7.515625 -6.984375 7.421875 -6.984375 C 7.390625 -6.984375 7.375 -6.96875 7.265625 -6.859375 L 6.578125 -6.109375 C 6.484375 -6.234375 6.03125 -6.984375 4.9375 -6.984375 C 2.71875 -6.984375 0.5 -4.796875 0.5 -2.5 C 0.5 -0.859375 1.671875 0.21875 3.1875 0.21875 C 4.046875 0.21875 4.796875 -0.171875 5.3125 -0.640625 C 6.234375 -1.453125 6.40625 -2.34375 6.40625 -2.375 C 6.40625 -2.484375 6.3125 -2.484375 6.296875 -2.484375 C 6.234375 -2.484375 6.1875 -2.453125 6.15625 -2.375 C 6.078125 -2.09375 5.84375 -1.390625 5.15625 -0.8125 C 4.484375 -0.25 3.859375 -0.09375 3.34375 -0.09375 C 2.453125 -0.09375 1.390625 -0.609375 1.390625 -2.15625 C 1.390625 -2.71875 1.609375 -4.3125 2.59375 -5.484375 C 3.203125 -6.1875 4.125 -6.671875 5.015625 -6.671875 C 6.015625 -6.671875 6.609375 -5.90625 6.609375 -4.765625 C 6.609375 -4.375 6.578125 -4.359375 6.578125 -4.265625 C 6.578125 -4.15625 6.6875 -4.15625 6.71875 -4.15625 C 6.859375 -4.15625 6.859375 -4.1875 6.90625 -4.359375 Z M 7.53125 -6.890625 "/>
</g>
<g id="glyph-0-3">
<path d="M 1.578125 -0.765625 C 1.46875 -0.390625 1.453125 -0.3125 0.671875 -0.3125 C 0.5 -0.3125 0.390625 -0.3125 0.390625 -0.125 C 0.390625 0 0.484375 0 0.671875 0 L 3.953125 0 C 6.015625 0 7.96875 -2.09375 7.96875 -4.265625 C 7.96875 -5.65625 7.125 -6.765625 5.640625 -6.765625 L 2.3125 -6.765625 C 2.125 -6.765625 2.015625 -6.765625 2.015625 -6.578125 C 2.015625 -6.453125 2.09375 -6.453125 2.296875 -6.453125 C 2.421875 -6.453125 2.609375 -6.453125 2.71875 -6.4375 C 2.875 -6.421875 2.9375 -6.390625 2.9375 -6.28125 C 2.9375 -6.234375 2.9375 -6.21875 2.90625 -6.09375 Z M 3.71875 -6.078125 C 3.796875 -6.421875 3.828125 -6.453125 4.25 -6.453125 L 5.3125 -6.453125 C 6.28125 -6.453125 7.109375 -5.9375 7.109375 -4.625 C 7.109375 -4.140625 6.90625 -2.515625 6.0625 -1.421875 C 5.78125 -1.0625 5 -0.3125 3.78125 -0.3125 L 2.65625 -0.3125 C 2.515625 -0.3125 2.5 -0.3125 2.4375 -0.3125 C 2.34375 -0.328125 2.3125 -0.34375 2.3125 -0.421875 C 2.3125 -0.453125 2.3125 -0.46875 2.359375 -0.640625 Z M 3.71875 -6.078125 "/>
</g>
<g id="glyph-0-4">
<path d="M 7.015625 -2.3125 C 7.03125 -2.359375 7.0625 -2.421875 7.0625 -2.453125 C 7.0625 -2.453125 7.0625 -2.5625 6.9375 -2.5625 C 6.859375 -2.5625 6.828125 -2.5 6.8125 -2.4375 C 6.171875 -0.96875 5.8125 -0.3125 4.109375 -0.3125 L 2.671875 -0.3125 C 2.53125 -0.3125 2.5 -0.3125 2.453125 -0.3125 C 2.34375 -0.328125 2.3125 -0.34375 2.3125 -0.421875 C 2.3125 -0.453125 2.3125 -0.46875 2.375 -0.640625 L 3.046875 -3.34375 L 4.015625 -3.34375 C 4.859375 -3.34375 4.859375 -3.140625 4.859375 -2.890625 C 4.859375 -2.828125 4.859375 -2.703125 4.796875 -2.40625 C 4.78125 -2.359375 4.765625 -2.328125 4.765625 -2.296875 C 4.765625 -2.25 4.796875 -2.1875 4.890625 -2.1875 C 4.96875 -2.1875 5 -2.234375 5.046875 -2.390625 L 5.609375 -4.703125 C 5.609375 -4.765625 5.5625 -4.8125 5.484375 -4.8125 C 5.40625 -4.8125 5.375 -4.75 5.34375 -4.640625 C 5.140625 -3.890625 4.96875 -3.65625 4.046875 -3.65625 L 3.125 -3.65625 L 3.71875 -6.046875 C 3.796875 -6.390625 3.8125 -6.421875 4.25 -6.421875 L 5.640625 -6.421875 C 6.859375 -6.421875 7.15625 -6.140625 7.15625 -5.328125 C 7.15625 -5.09375 7.15625 -5.078125 7.109375 -4.796875 C 7.109375 -4.75 7.109375 -4.671875 7.109375 -4.625 C 7.109375 -4.578125 7.125 -4.5 7.21875 -4.5 C 7.328125 -4.5 7.34375 -4.5625 7.359375 -4.75 L 7.5625 -6.46875 C 7.59375 -6.734375 7.53125 -6.734375 7.296875 -6.734375 L 2.28125 -6.734375 C 2.09375 -6.734375 1.984375 -6.734375 1.984375 -6.53125 C 1.984375 -6.421875 2.078125 -6.421875 2.265625 -6.421875 C 2.640625 -6.421875 2.90625 -6.421875 2.90625 -6.25 C 2.90625 -6.21875 2.90625 -6.1875 2.859375 -6.015625 L 1.5625 -0.765625 C 1.453125 -0.390625 1.4375 -0.3125 0.65625 -0.3125 C 0.484375 -0.3125 0.375 -0.3125 0.375 -0.125 C 0.375 0 0.46875 0 0.65625 0 L 5.796875 0 C 6.015625 0 6.03125 -0.015625 6.109375 -0.171875 Z M 7.015625 -2.3125 "/>
</g>
</g>
<clipPath id="clip-0">
<path clip-rule="nonzero" d="M 0.0078125 0 L 33 0 L 33 33 L 0.0078125 33 Z M 0.0078125 0 "/>
</clipPath>
<clipPath id="clip-1">
<path clip-rule="nonzero" d="M 97 153 L 129.65625 153 L 129.65625 186.046875 L 97 186.046875 Z M 97 153 "/>
</clipPath>
</defs>
<g clip-path="url(#clip-0)">
<path fill="none" stroke-width="0.3985" stroke-linecap="butt" stroke-linejoin="miter" stroke="rgb(0%, 0%, 0%)" stroke-opacity="1" stroke-miterlimit="10" d="M 11.337142 0.00160625 C 11.337142 6.260796 6.263821 11.338044 0.000704016 11.338044 C -6.262413 11.338044 -11.339661 6.260796 -11.339661 0.00160625 C -11.339661 -6.261511 -6.262413 -11.338758 0.000704016 -11.338758 C 6.263821 -11.338758 11.337142 -6.261511 11.337142 0.00160625 Z M 11.337142 0.00160625 " transform="matrix(0.994787, 0, 0, -0.994787, 15.448518, 15.439098)"/>
</g>
<g fill="rgb(0%, 0%, 0%)" fill-opacity="1">
<use xlink:href="#glyph-0-0" x="11.731993" y="18.825354"/>
</g>
<path fill="none" stroke-width="0.3985" stroke-linecap="butt" stroke-linejoin="miter" stroke="rgb(0%, 0%, 0%)" stroke-opacity="1" stroke-miterlimit="10" d="M 36.16186 -38.994641 C 36.16186 -32.731524 31.084612 -27.654276 24.821495 -27.654276 C 18.558378 -27.654276 13.481131 -32.731524 13.481131 -38.994641 C 13.481131 -45.257758 18.558378 -50.335005 24.821495 -50.335005 C 31.084612 -50.335005 36.16186 -45.257758 36.16186 -38.994641 Z M 36.16186 -38.994641 " transform="matrix(0.994787, 0, 0, -0.994787, 15.448518, 15.439098)"/>
<g fill="rgb(0%, 0%, 0%)" fill-opacity="1">
<use xlink:href="#glyph-0-1" x="36.133129" y="57.617082"/>
</g>
<path fill="none" stroke-width="0.3985" stroke-linecap="butt" stroke-linejoin="miter" stroke="rgb(0%, 0%, 0%)" stroke-opacity="1" stroke-miterlimit="10" d="M 60.982651 -77.990888 C 60.982651 -71.727771 55.905403 -66.650523 49.642286 -66.650523 C 43.37917 -66.650523 38.305849 -71.727771 38.305849 -77.990888 C 38.305849 -84.250078 43.37917 -89.327326 49.642286 -89.327326 C 55.905403 -89.327326 60.982651 -84.250078 60.982651 -77.990888 Z M 60.982651 -77.990888 " transform="matrix(0.994787, 0, 0, -0.994787, 15.448518, 15.439098)"/>
<g fill="rgb(0%, 0%, 0%)" fill-opacity="1">
<use xlink:href="#glyph-0-2" x="60.936159" y="96.407815"/>
</g>
<path fill="none" stroke-width="0.3985" stroke-linecap="butt" stroke-linejoin="miter" stroke="rgb(0%, 0%, 0%)" stroke-opacity="1" stroke-miterlimit="10" d="M 85.803442 -116.983208 C 85.803442 -110.720091 80.726195 -105.64677 74.463078 -105.64677 C 68.199961 -105.64677 63.12664 -110.720091 63.12664 -116.983208 C 63.12664 -123.246325 68.199961 -128.323573 74.463078 -128.323573 C 80.726195 -128.323573 85.803442 -123.246325 85.803442 -116.983208 Z M 85.803442 -116.983208 " transform="matrix(0.994787, 0, 0, -0.994787, 15.448518, 15.439098)"/>
<g fill="rgb(0%, 0%, 0%)" fill-opacity="1">
<use xlink:href="#glyph-0-3" x="85.283577" y="135.199543"/>
</g>
<g clip-path="url(#clip-1)">
<path fill="none" stroke-width="0.3985" stroke-linecap="butt" stroke-linejoin="miter" stroke="rgb(0%, 0%, 0%)" stroke-opacity="1" stroke-miterlimit="10" d="M 110.624234 -155.979455 C 110.624234 -149.716338 105.546986 -144.639091 99.283869 -144.639091 C 93.024679 -144.639091 87.947431 -149.716338 87.947431 -155.979455 C 87.947431 -162.242572 93.024679 -167.315893 99.283869 -167.315893 C 105.546986 -167.315893 110.624234 -162.242572 110.624234 -155.979455 Z M 110.624234 -155.979455 " transform="matrix(0.994787, 0, 0, -0.994787, 15.448518, 15.439098)"/>
</g>
<g fill="rgb(0%, 0%, 0%)" fill-opacity="1">
<use xlink:href="#glyph-0-4" x="110.272632" y="173.991272"/>
</g>
<path fill="none" stroke-width="0.3985" stroke-linecap="butt" stroke-linejoin="miter" stroke="rgb(0%, 0%, 0%)" stroke-opacity="1" stroke-miterlimit="10" d="M 6.197067 -9.73273 L 18.625133 -29.260304 " transform="matrix(0.994787, 0, 0, -0.994787, 15.448518, 15.439098)"/>
<path fill="none" stroke-width="0.3985" stroke-linecap="butt" stroke-linejoin="miter" stroke="rgb(0%, 0%, 0%)" stroke-opacity="1" stroke-miterlimit="10" d="M 31.017858 -48.728977 L 43.445924 -68.256551 " transform="matrix(0.994787, 0, 0, -0.994787, 15.448518, 15.439098)"/>
<path fill="none" stroke-width="0.3985" stroke-linecap="butt" stroke-linejoin="miter" stroke="rgb(0%, 0%, 0%)" stroke-opacity="1" stroke-miterlimit="10" d="M 55.838649 -87.721298 L 68.270642 -107.252798 " transform="matrix(0.994787, 0, 0, -0.994787, 15.448518, 15.439098)"/>
<path fill="none" stroke-width="0.3985" stroke-linecap="butt" stroke-linejoin="miter" stroke="rgb(0%, 0%, 0%)" stroke-opacity="1" stroke-miterlimit="10" d="M 80.65944 -126.717545 L 93.091433 -146.245119 " transform="matrix(0.994787, 0, 0, -0.994787, 15.448518, 15.439098)"/>
</svg>
