<?xml version="1.0" encoding="UTF-8"?>
<svg xmlns="http://www.w3.org/2000/svg" xmlns:xlink="http://www.w3.org/1999/xlink" width="211.05" height="144.43" viewBox="0 0 211.05 144.43">
<defs>
<g>
<g id="glyph-0-0">
<path d="M 3.375 0 L 4.234375 0 L 4.234375 -1.953125 L 5.203125 -1.953125 L 5.203125 -2.671875 L 4.234375 -2.671875 L 4.234375 -7.078125 L 3.21875 -7.078125 L 0.203125 -2.546875 L 0.203125 -1.953125 L 3.375 -1.953125 Z M 3.375 -2.671875 L 1.140625 -2.671875 L 2.796875 -5.09375 C 3 -5.453125 3.203125 -5.765625 3.390625 -6.109375 L 3.421875 -6.109375 C 3.40625 -5.734375 3.375 -5.109375 3.375 -4.75 Z M 3.375 -2.671875 "/>
</g>
<g id="glyph-0-1">
<path d="M 2.765625 0.125 C 4.171875 0.125 5.015625 -1.1875 5.015625 -3.5625 C 5.015625 -5.921875 4.171875 -7.203125 2.765625 -7.203125 C 1.34375 -7.203125 0.5 -5.9375 0.5 -3.5625 C 0.5 -1.1875 1.34375 0.125 2.765625 0.125 Z M 2.765625 -0.609375 C 1.9375 -0.609375 1.375 -1.484375 1.375 -3.5625 C 1.375 -5.640625 1.9375 -6.484375 2.765625 -6.484375 C 3.578125 -6.484375 4.140625 -5.640625 4.140625 -3.5625 C 4.140625 -1.484375 3.578125 -0.609375 2.765625 -0.609375 Z M 2.765625 -0.609375 "/>
</g>
<g id="glyph-0-2">
<path d="M 0.4375 0 L 5.015625 0 L 5.015625 -0.78125 L 2.953125 -0.78125 C 2.59375 -0.78125 2.140625 -0.75 1.765625 -0.71875 C 3.4375 -2.46875 4.65625 -3.796875 4.65625 -5.125 C 4.65625 -6.375 3.84375 -7.203125 2.546875 -7.203125 C 1.625 -7.203125 0.984375 -6.78125 0.390625 -6.125 L 0.921875 -5.625 C 1.328125 -6.09375 1.828125 -6.46875 2.4375 -6.46875 C 3.328125 -6.46875 3.765625 -5.890625 3.765625 -5.09375 C 3.765625 -3.921875 2.5625 -2.65625 0.4375 -0.53125 Z M 0.4375 0 "/>
</g>
<g id="glyph-0-3">
<path d="M 0.875 0 L 4.859375 0 L 4.859375 -0.75 L 3.40625 -0.75 L 3.40625 -7.078125 L 2.703125 -7.078125 C 2.3125 -6.84375 1.84375 -6.671875 1.203125 -6.546875 L 1.203125 -5.96875 L 2.5 -5.96875 L 2.5 -0.75 L 0.875 -0.75 Z M 0.875 0 "/>
</g>
<g id="glyph-0-4">
<path d="M 1.96875 0 L 2.90625 0 C 3.03125 -2.765625 3.375 -4.375 5.046875 -6.515625 L 5.046875 -7.078125 L 0.484375 -7.078125 L 0.484375 -6.296875 L 4.015625 -6.296875 C 2.625 -4.359375 2.09375 -2.671875 1.96875 0 Z M 1.96875 0 "/>
</g>
<g id="glyph-0-5">
<path d="M 2.59375 0.125 C 3.8125 0.125 4.984375 -0.734375 4.984375 -2.265625 C 4.984375 -3.796875 3.984375 -4.46875 2.78125 -4.46875 C 2.34375 -4.46875 2.03125 -4.375 1.703125 -4.1875 L 1.890625 -6.296875 L 4.625 -6.296875 L 4.625 -7.078125 L 1.09375 -7.078125 L 0.859375 -3.671875 L 1.34375 -3.359375 C 1.75 -3.640625 2.0625 -3.796875 2.546875 -3.796875 C 3.46875 -3.796875 4.0625 -3.21875 4.0625 -2.234375 C 4.0625 -1.25 3.375 -0.625 2.515625 -0.625 C 1.671875 -0.625 1.125 -1.015625 0.71875 -1.421875 L 0.265625 -0.828125 C 0.765625 -0.34375 1.453125 0.125 2.59375 0.125 Z M 2.59375 0.125 "/>
</g>
<g id="glyph-0-6">
<path d="M 2.609375 0.125 C 3.90625 0.125 4.953125 -0.625 4.953125 -1.890625 C 4.953125 -2.859375 4.265625 -3.484375 3.40625 -3.6875 L 3.40625 -3.734375 C 4.171875 -4.015625 4.703125 -4.546875 4.703125 -5.421875 C 4.703125 -6.546875 3.8125 -7.203125 2.578125 -7.203125 C 1.75 -7.203125 1.09375 -6.828125 0.5625 -6.3125 L 1.046875 -5.75 C 1.453125 -6.171875 1.96875 -6.46875 2.546875 -6.46875 C 3.3125 -6.46875 3.78125 -6.03125 3.78125 -5.34375 C 3.78125 -4.609375 3.28125 -4.03125 1.765625 -4.03125 L 1.765625 -3.328125 C 3.453125 -3.328125 4.03125 -2.765625 4.03125 -1.921875 C 4.03125 -1.125 3.421875 -0.625 2.546875 -0.625 C 1.71875 -0.625 1.1875 -1.015625 0.75 -1.453125 L 0.28125 -0.875 C 0.765625 -0.34375 1.484375 0.125 2.609375 0.125 Z M 2.609375 0.125 "/>
</g>
<g id="glyph-0-7">
<path d="M 2.78125 0.125 C 4.140625 0.125 5.046875 -0.6875 5.046875 -1.75 C 5.046875 -2.703125 4.453125 -3.203125 3.828125 -3.578125 L 3.828125 -3.625 C 4.25 -3.953125 4.796875 -4.578125 4.796875 -5.328125 C 4.796875 -6.421875 4.03125 -7.203125 2.796875 -7.203125 C 1.671875 -7.203125 0.796875 -6.484375 0.796875 -5.390625 C 0.796875 -4.65625 1.265625 -4.125 1.78125 -3.765625 L 1.78125 -3.71875 C 1.125 -3.359375 0.453125 -2.734375 0.453125 -1.8125 C 0.453125 -0.6875 1.421875 0.125 2.78125 0.125 Z M 3.28125 -3.84375 C 2.421875 -4.1875 1.625 -4.546875 1.625 -5.390625 C 1.625 -6.078125 2.109375 -6.53125 2.78125 -6.53125 C 3.5625 -6.53125 4.015625 -5.96875 4.015625 -5.28125 C 4.015625 -4.75 3.75 -4.28125 3.28125 -3.84375 Z M 2.78125 -0.546875 C 1.921875 -0.546875 1.265625 -1.109375 1.265625 -1.890625 C 1.265625 -2.546875 1.6875 -3.0625 2.265625 -3.4375 C 3.28125 -3.015625 4.1875 -2.703125 4.1875 -1.78125 C 4.1875 -1.046875 3.625 -0.546875 2.78125 -0.546875 Z M 2.78125 -0.546875 "/>
</g>
</g>
<clipPath id="clip-0">
<path clip-rule="nonzero" d="M 100 0.0390625 L 134 0.0390625 L 134 33 L 100 33 Z M 100 0.0390625 "/>
</clipPath>
<clipPath id="clip-1">
<path clip-rule="nonzero" d="M 93 111 L 127 111 L 127 143.824219 L 93 143.824219 Z M 93 111 "/>
</clipPath>
<clipPath id="clip-2">
<path clip-rule="nonzero" d="M 177 55 L 210.105469 55 L 210.105469 89 L 177 89 Z M 177 55 "/>
</clipPath>
</defs>
<g clip-path="url(#clip-0)">
<path fill="none" stroke-width="0.3985" stroke-linecap="butt" stroke-linejoin="miter" stroke="rgb(0%, 0%, 0%)" stroke-opacity="1" stroke-miterlimit="10" d="M 11.339693 -0.000860933 C 11.339693 6.261577 6.262252 11.339017 -0.000185383 11.339017 C -6.262623 11.339017 -11.340063 6.261577 -11.340063 -0.000860933 C -11.340063 -6.263299 -6.262623 -11.336815 -0.000185383 -11.336815 C 6.262252 -11.336815 11.339693 -6.263299 11.339693 -0.000860933 Z M 11.339693 -0.000860933 " transform="matrix(0.995519, 0, 0, -0.995519, 117.043153, 15.49133)"/>
</g>
<g fill="rgb(0%, 0%, 0%)" fill-opacity="1">
<use xlink:href="#glyph-0-0" x="111.538929" y="19.027413"/>
<use xlink:href="#glyph-0-1" x="117.043395" y="19.027413"/>
</g>
<path fill="none" stroke-width="0.3985" stroke-linecap="butt" stroke-linejoin="miter" stroke="rgb(0%, 0%, 0%)" stroke-opacity="1" stroke-miterlimit="10" d="M -31.182888 -28.346632 C -31.182888 -22.084194 -36.256404 -17.006754 -42.518842 -17.006754 C -48.78128 -17.006754 -53.85872 -22.084194 -53.85872 -28.346632 C -53.85872 -34.60907 -48.78128 -39.68651 -42.518842 -39.68651 C -36.256404 -39.68651 -31.182888 -34.60907 -31.182888 -28.346632 Z M -31.182888 -28.346632 " transform="matrix(0.995519, 0, 0, -0.995519, 117.043153, 15.49133)"/>
<g fill="rgb(0%, 0%, 0%)" fill-opacity="1">
<use xlink:href="#glyph-0-2" x="69.208472" y="47.247387"/>
<use xlink:href="#glyph-0-1" x="74.712937" y="47.247387"/>
</g>
<path fill="none" stroke-width="0.3985" stroke-linecap="butt" stroke-linejoin="miter" stroke="rgb(0%, 0%, 0%)" stroke-opacity="1" stroke-miterlimit="10" d="M -9.597881 -6.400633 L -32.921146 -21.94686 " transform="matrix(0.995519, 0, 0, -0.995519, 117.043153, 15.49133)"/>
<path fill="none" stroke-width="0.3985" stroke-linecap="butt" stroke-linejoin="miter" stroke="rgb(0%, 0%, 0%)" stroke-opacity="1" stroke-miterlimit="10" d="M -66.615102 -56.692403 C -66.615102 -50.429965 -71.692542 -45.356449 -77.95498 -45.356449 C -84.217418 -45.356449 -89.290934 -50.429965 -89.290934 -56.692403 C -89.290934 -62.954841 -84.217418 -68.032281 -77.95498 -68.032281 C -71.692542 -68.032281 -66.615102 -62.954841 -66.615102 -56.692403 Z M -66.615102 -56.692403 " transform="matrix(0.995519, 0, 0, -0.995519, 117.043153, 15.49133)"/>
<g fill="rgb(0%, 0%, 0%)" fill-opacity="1">
<use xlink:href="#glyph-0-3" x="33.934252" y="75.466365"/>
<use xlink:href="#glyph-0-4" x="39.438717" y="75.466365"/>
</g>
<path fill="none" stroke-width="0.3985" stroke-linecap="butt" stroke-linejoin="miter" stroke="rgb(0%, 0%, 0%)" stroke-opacity="1" stroke-miterlimit="10" d="M -51.527963 -35.554714 L -68.945859 -49.484322 " transform="matrix(0.995519, 0, 0, -0.995519, 117.043153, 15.49133)"/>
<path fill="none" stroke-width="0.3985" stroke-linecap="butt" stroke-linejoin="miter" stroke="rgb(0%, 0%, 0%)" stroke-opacity="1" stroke-miterlimit="10" d="M -90.711362 -85.042098 C -90.711362 -78.77966 -95.784878 -73.70222 -102.047316 -73.70222 C -108.309754 -73.70222 -113.387194 -78.77966 -113.387194 -85.042098 C -113.387194 -91.304536 -108.309754 -96.378052 -102.047316 -96.378052 C -95.784878 -96.378052 -90.711362 -91.304536 -90.711362 -85.042098 Z M -90.711362 -85.042098 " transform="matrix(0.995519, 0, 0, -0.995519, 117.043153, 15.49133)"/>
<g fill="rgb(0%, 0%, 0%)" fill-opacity="1">
<use xlink:href="#glyph-0-3" x="9.947225" y="103.621629"/>
<use xlink:href="#glyph-0-5" x="15.45169" y="103.621629"/>
</g>
<path fill="none" stroke-width="0.3985" stroke-linecap="butt" stroke-linejoin="miter" stroke="rgb(0%, 0%, 0%)" stroke-opacity="1" stroke-miterlimit="10" d="M -85.425958 -65.485713 L -94.576337 -76.248788 " transform="matrix(0.995519, 0, 0, -0.995519, 117.043153, 15.49133)"/>
<path fill="none" stroke-width="0.3985" stroke-linecap="butt" stroke-linejoin="miter" stroke="rgb(0%, 0%, 0%)" stroke-opacity="1" stroke-miterlimit="10" d="M 4.25325 -56.692403 C 4.25325 -50.429965 -0.82419 -45.356449 -7.086628 -45.356449 C -13.349066 -45.356449 -18.426506 -50.429965 -18.426506 -56.692403 C -18.426506 -62.954841 -13.349066 -68.032281 -7.086628 -68.032281 C -0.82419 -68.032281 4.25325 -62.954841 4.25325 -56.692403 Z M 4.25325 -56.692403 " transform="matrix(0.995519, 0, 0, -0.995519, 117.043153, 15.49133)"/>
<g fill="rgb(0%, 0%, 0%)" fill-opacity="1">
<use xlink:href="#glyph-0-6" x="104.483687" y="75.466365"/>
<use xlink:href="#glyph-0-4" x="109.988153" y="75.466365"/>
</g>
<path fill="none" stroke-width="0.3985" stroke-linecap="butt" stroke-linejoin="miter" stroke="rgb(0%, 0%, 0%)" stroke-opacity="1" stroke-miterlimit="10" d="M -33.509721 -35.554714 L -16.095749 -49.484322 " transform="matrix(0.995519, 0, 0, -0.995519, 117.043153, 15.49133)"/>
<path fill="none" stroke-width="0.3985" stroke-linecap="butt" stroke-linejoin="miter" stroke="rgb(0%, 0%, 0%)" stroke-opacity="1" stroke-miterlimit="10" d="M -19.84301 -85.042098 C -19.84301 -78.77966 -24.92045 -73.70222 -31.182888 -73.70222 C -37.445326 -73.70222 -42.518842 -78.77966 -42.518842 -85.042098 C -42.518842 -91.304536 -37.445326 -96.378052 -31.182888 -96.378052 C -24.92045 -96.378052 -19.84301 -91.304536 -19.84301 -85.042098 Z M -19.84301 -85.042098 " transform="matrix(0.995519, 0, 0, -0.995519, 117.043153, 15.49133)"/>
<g fill="rgb(0%, 0%, 0%)" fill-opacity="1">
<use xlink:href="#glyph-0-6" x="80.49666" y="103.686338"/>
<use xlink:href="#glyph-0-1" x="86.001126" y="103.686338"/>
</g>
<path fill="none" stroke-width="0.3985" stroke-linecap="butt" stroke-linejoin="miter" stroke="rgb(0%, 0%, 0%)" stroke-opacity="1" stroke-miterlimit="10" d="M -14.557607 -65.485713 L -23.707986 -76.248788 " transform="matrix(0.995519, 0, 0, -0.995519, 117.043153, 15.49133)"/>
<g clip-path="url(#clip-1)">
<path fill="none" stroke-width="0.3985" stroke-linecap="butt" stroke-linejoin="miter" stroke="rgb(0%, 0%, 0%)" stroke-opacity="1" stroke-miterlimit="10" d="M 4.25325 -113.387869 C 4.25325 -107.125432 -0.82419 -102.047991 -7.086628 -102.047991 C -13.349066 -102.047991 -18.426506 -107.125432 -18.426506 -113.387869 C -18.426506 -119.650307 -13.349066 -124.727747 -7.086628 -124.727747 C -0.82419 -124.727747 4.25325 -119.650307 4.25325 -113.387869 Z M 4.25325 -113.387869 " transform="matrix(0.995519, 0, 0, -0.995519, 117.043153, 15.49133)"/>
</g>
<g fill="rgb(0%, 0%, 0%)" fill-opacity="1">
<use xlink:href="#glyph-0-6" x="104.483687" y="131.906311"/>
<use xlink:href="#glyph-0-5" x="109.988153" y="131.906311"/>
</g>
<path fill="none" stroke-width="0.3985" stroke-linecap="butt" stroke-linejoin="miter" stroke="rgb(0%, 0%, 0%)" stroke-opacity="1" stroke-miterlimit="10" d="M -23.707986 -93.831485 L -14.557607 -104.594559 " transform="matrix(0.995519, 0, 0, -0.995519, 117.043153, 15.49133)"/>
<path fill="none" stroke-width="0.3985" stroke-linecap="butt" stroke-linejoin="miter" stroke="rgb(0%, 0%, 0%)" stroke-opacity="1" stroke-miterlimit="10" d="M 28.345586 -85.042098 C 28.345586 -78.77966 23.272069 -73.70222 17.009632 -73.70222 C 10.747194 -73.70222 5.669754 -78.77966 5.669754 -85.042098 C 5.669754 -91.304536 10.747194 -96.378052 17.009632 -96.378052 C 23.272069 -96.378052 28.345586 -91.304536 28.345586 -85.042098 Z M 28.345586 -85.042098 " transform="matrix(0.995519, 0, 0, -0.995519, 117.043153, 15.49133)"/>
<g fill="rgb(0%, 0%, 0%)" fill-opacity="1">
<use xlink:href="#glyph-0-6" x="128.470714" y="103.686338"/>
<use xlink:href="#glyph-0-7" x="133.97518" y="103.686338"/>
</g>
<path fill="none" stroke-width="0.3985" stroke-linecap="butt" stroke-linejoin="miter" stroke="rgb(0%, 0%, 0%)" stroke-opacity="1" stroke-miterlimit="10" d="M 0.38435 -65.485713 L 9.534729 -76.248788 " transform="matrix(0.995519, 0, 0, -0.995519, 117.043153, 15.49133)"/>
<path fill="none" stroke-width="0.3985" stroke-linecap="butt" stroke-linejoin="miter" stroke="rgb(0%, 0%, 0%)" stroke-opacity="1" stroke-miterlimit="10" d="M 53.858349 -28.346632 C 53.858349 -22.084194 48.780909 -17.006754 42.518471 -17.006754 C 36.256034 -17.006754 31.182517 -22.084194 31.182517 -28.346632 C 31.182517 -34.60907 36.256034 -39.68651 42.518471 -39.68651 C 48.780909 -39.68651 53.858349 -34.60907 53.858349 -28.346632 Z M 53.858349 -28.346632 " transform="matrix(0.995519, 0, 0, -0.995519, 117.043153, 15.49133)"/>
<g fill="rgb(0%, 0%, 0%)" fill-opacity="1">
<use xlink:href="#glyph-0-5" x="153.868392" y="47.182678"/>
<use xlink:href="#glyph-0-5" x="159.372857" y="47.182678"/>
</g>
<path fill="none" stroke-width="0.3985" stroke-linecap="butt" stroke-linejoin="miter" stroke="rgb(0%, 0%, 0%)" stroke-opacity="1" stroke-miterlimit="10" d="M 9.601434 -6.400633 L 32.920775 -21.94686 " transform="matrix(0.995519, 0, 0, -0.995519, 117.043153, 15.49133)"/>
<g clip-path="url(#clip-2)">
<path fill="none" stroke-width="0.3985" stroke-linecap="butt" stroke-linejoin="miter" stroke="rgb(0%, 0%, 0%)" stroke-opacity="1" stroke-miterlimit="10" d="M 89.294487 -56.692403 C 89.294487 -50.429965 84.217047 -45.356449 77.954609 -45.356449 C 71.692171 -45.356449 66.614731 -50.429965 66.614731 -56.692403 C 66.614731 -62.954841 71.692171 -68.032281 77.954609 -68.032281 C 84.217047 -68.032281 89.294487 -62.954841 89.294487 -56.692403 Z M 89.294487 -56.692403 " transform="matrix(0.995519, 0, 0, -0.995519, 117.043153, 15.49133)"/>
</g>
<g fill="rgb(0%, 0%, 0%)" fill-opacity="1">
<use xlink:href="#glyph-0-4" x="189.142612" y="75.466365"/>
<use xlink:href="#glyph-0-1" x="194.647078" y="75.466365"/>
</g>
<path fill="none" stroke-width="0.3985" stroke-linecap="butt" stroke-linejoin="miter" stroke="rgb(0%, 0%, 0%)" stroke-opacity="1" stroke-miterlimit="10" d="M 51.527592 -35.554714 L 68.945488 -49.484322 " transform="matrix(0.995519, 0, 0, -0.995519, 117.043153, 15.49133)"/>
</svg>
