<?xml version="1.0" encoding="UTF-8"?>
<svg xmlns="http://www.w3.org/2000/svg" xmlns:xlink="http://www.w3.org/1999/xlink" width="351.68" height="136.14" viewBox="0 0 351.68 136.14">
<defs>
<g>
<g id="glyph-0-0">
<path d="M 4.640625 -3.6875 C 4.640625 -4.21875 4.375 -4.375 4.203125 -4.375 C 3.953125 -4.375 3.71875 -4.125 3.71875 -3.90625 C 3.71875 -3.78125 3.765625 -3.71875 3.875 -3.609375 C 4.078125 -3.40625 4.203125 -3.15625 4.203125 -2.796875 C 4.203125 -2.375 3.609375 -0.109375 2.453125 -0.109375 C 1.9375 -0.109375 1.71875 -0.453125 1.71875 -0.96875 C 1.71875 -1.53125 1.984375 -2.25 2.28125 -3.078125 C 2.359375 -3.234375 2.40625 -3.375 2.40625 -3.5625 C 2.40625 -4.015625 2.09375 -4.375 1.59375 -4.375 C 0.65625 -4.375 0.28125 -2.9375 0.28125 -2.859375 C 0.28125 -2.75 0.390625 -2.75 0.40625 -2.75 C 0.5 -2.75 0.515625 -2.78125 0.5625 -2.9375 C 0.859375 -3.9375 1.28125 -4.15625 1.5625 -4.15625 C 1.640625 -4.15625 1.8125 -4.15625 1.8125 -3.84375 C 1.8125 -3.59375 1.71875 -3.328125 1.640625 -3.15625 C 1.203125 -2 1.078125 -1.546875 1.078125 -1.125 C 1.078125 -0.046875 1.953125 0.109375 2.40625 0.109375 C 4.078125 0.109375 4.640625 -3.171875 4.640625 -3.6875 Z M 4.640625 -3.6875 "/>
</g>
<g id="glyph-1-0">
<path d="M 2.328125 -4.40625 C 2.328125 -4.59375 2.3125 -4.609375 2.109375 -4.609375 C 1.671875 -4.171875 1.046875 -4.15625 0.75 -4.15625 L 0.75 -3.90625 C 0.921875 -3.90625 1.375 -3.90625 1.765625 -4.109375 L 1.765625 -0.5625 C 1.765625 -0.34375 1.765625 -0.25 1.0625 -0.25 L 0.8125 -0.25 L 0.8125 0 C 0.921875 0 1.78125 -0.03125 2.046875 -0.03125 C 2.25 -0.03125 3.125 0 3.28125 0 L 3.28125 -0.25 L 3.015625 -0.25 C 2.328125 -0.25 2.328125 -0.34375 2.328125 -0.5625 Z M 2.328125 -4.40625 "/>
</g>
<g id="glyph-1-1">
<path d="M 3.5 -1.265625 L 3.265625 -1.265625 C 3.25 -1.109375 3.171875 -0.703125 3.09375 -0.625 C 3.03125 -0.59375 2.5 -0.59375 2.40625 -0.59375 L 1.125 -0.59375 C 1.859375 -1.234375 2.09375 -1.421875 2.515625 -1.75 C 3.03125 -2.171875 3.5 -2.59375 3.5 -3.25 C 3.5 -4.09375 2.765625 -4.609375 1.875 -4.609375 C 1.015625 -4.609375 0.4375 -4 0.4375 -3.359375 C 0.4375 -3.015625 0.734375 -2.96875 0.8125 -2.96875 C 0.96875 -2.96875 1.171875 -3.09375 1.171875 -3.34375 C 1.171875 -3.46875 1.125 -3.71875 0.765625 -3.71875 C 0.984375 -4.203125 1.453125 -4.359375 1.78125 -4.359375 C 2.46875 -4.359375 2.828125 -3.8125 2.828125 -3.25 C 2.828125 -2.65625 2.40625 -2.171875 2.171875 -1.921875 L 0.5 -0.265625 C 0.4375 -0.203125 0.4375 -0.1875 0.4375 0 L 3.296875 0 Z M 3.5 -1.265625 "/>
</g>
<g id="glyph-1-2">
<path d="M 1.890625 -2.3125 C 2.4375 -2.3125 2.828125 -1.9375 2.828125 -1.203125 C 2.828125 -0.34375 2.328125 -0.078125 1.921875 -0.078125 C 1.640625 -0.078125 1.03125 -0.15625 0.75 -0.5625 C 1.0625 -0.578125 1.140625 -0.8125 1.140625 -0.953125 C 1.140625 -1.171875 0.984375 -1.34375 0.765625 -1.34375 C 0.5625 -1.34375 0.375 -1.21875 0.375 -0.9375 C 0.375 -0.28125 1.09375 0.140625 1.9375 0.140625 C 2.90625 0.140625 3.5625 -0.5 3.5625 -1.203125 C 3.5625 -1.734375 3.125 -2.28125 2.359375 -2.4375 C 3.09375 -2.703125 3.34375 -3.21875 3.34375 -3.65625 C 3.34375 -4.203125 2.71875 -4.609375 1.953125 -4.609375 C 1.171875 -4.609375 0.59375 -4.234375 0.59375 -3.671875 C 0.59375 -3.4375 0.75 -3.3125 0.953125 -3.3125 C 1.171875 -3.3125 1.296875 -3.46875 1.296875 -3.65625 C 1.296875 -3.859375 1.171875 -4.015625 0.953125 -4.03125 C 1.1875 -4.328125 1.671875 -4.40625 1.921875 -4.40625 C 2.234375 -4.40625 2.671875 -4.25 2.671875 -3.65625 C 2.671875 -3.359375 2.578125 -3.03125 2.40625 -2.828125 C 2.171875 -2.5625 1.984375 -2.546875 1.625 -2.53125 C 1.453125 -2.515625 1.4375 -2.515625 1.40625 -2.5 C 1.390625 -2.5 1.34375 -2.484375 1.34375 -2.421875 C 1.34375 -2.3125 1.40625 -2.3125 1.515625 -2.3125 Z M 1.890625 -2.3125 "/>
</g>
<g id="glyph-1-3">
<path d="M 3.671875 -1.140625 L 3.671875 -1.390625 L 2.90625 -1.390625 L 2.90625 -4.484375 C 2.90625 -4.625 2.90625 -4.671875 2.75 -4.671875 C 2.65625 -4.671875 2.640625 -4.671875 2.5625 -4.578125 L 0.265625 -1.390625 L 0.265625 -1.140625 L 2.3125 -1.140625 L 2.3125 -0.5625 C 2.3125 -0.328125 2.3125 -0.25 1.75 -0.25 L 1.5625 -0.25 L 1.5625 0 C 1.90625 -0.015625 2.359375 -0.03125 2.609375 -0.03125 C 2.859375 -0.03125 3.296875 -0.015625 3.65625 0 L 3.65625 -0.25 L 3.46875 -0.25 C 2.90625 -0.25 2.90625 -0.328125 2.90625 -0.5625 L 2.90625 -1.140625 Z M 2.359375 -3.921875 L 2.359375 -1.390625 L 0.53125 -1.390625 Z M 2.359375 -3.921875 "/>
</g>
<g id="glyph-1-4">
<path d="M 1.078125 -3.875 C 1.421875 -3.78125 1.640625 -3.78125 1.75 -3.78125 C 2.65625 -3.78125 3.203125 -4.40625 3.203125 -4.515625 C 3.203125 -4.578125 3.15625 -4.609375 3.125 -4.609375 C 3.109375 -4.609375 3.09375 -4.609375 3.0625 -4.578125 C 2.90625 -4.515625 2.53125 -4.390625 2.015625 -4.390625 C 1.828125 -4.390625 1.453125 -4.390625 1 -4.578125 C 0.9375 -4.609375 0.921875 -4.609375 0.921875 -4.609375 C 0.828125 -4.609375 0.828125 -4.53125 0.828125 -4.421875 L 0.828125 -2.375 C 0.828125 -2.25 0.828125 -2.171875 0.9375 -2.171875 C 1 -2.171875 1 -2.1875 1.078125 -2.265625 C 1.375 -2.65625 1.796875 -2.703125 2.046875 -2.703125 C 2.453125 -2.703125 2.640625 -2.375 2.671875 -2.3125 C 2.796875 -2.09375 2.84375 -1.828125 2.84375 -1.421875 C 2.84375 -1.21875 2.84375 -0.8125 2.640625 -0.5 C 2.46875 -0.25 2.171875 -0.078125 1.828125 -0.078125 C 1.375 -0.078125 0.90625 -0.328125 0.734375 -0.796875 C 1 -0.765625 1.125 -0.9375 1.125 -1.125 C 1.125 -1.421875 0.875 -1.484375 0.78125 -1.484375 C 0.765625 -1.484375 0.4375 -1.484375 0.4375 -1.109375 C 0.4375 -0.484375 1 0.140625 1.84375 0.140625 C 2.71875 0.140625 3.5 -0.515625 3.5 -1.390625 C 3.5 -2.171875 2.90625 -2.90625 2.046875 -2.90625 C 1.734375 -2.90625 1.375 -2.828125 1.078125 -2.5625 Z M 1.078125 -3.875 "/>
</g>
<g id="glyph-1-5">
<path d="M 1.046875 -2.265625 C 1.046875 -2.84375 1.09375 -3.34375 1.359375 -3.78125 C 1.59375 -4.15625 1.96875 -4.40625 2.40625 -4.40625 C 2.609375 -4.40625 2.890625 -4.34375 3.03125 -4.15625 C 2.859375 -4.15625 2.71875 -4.03125 2.71875 -3.828125 C 2.71875 -3.65625 2.828125 -3.5 3.03125 -3.5 C 3.25 -3.5 3.375 -3.640625 3.375 -3.84375 C 3.375 -4.25 3.078125 -4.609375 2.390625 -4.609375 C 1.390625 -4.609375 0.375 -3.6875 0.375 -2.203125 C 0.375 -0.40625 1.21875 0.140625 1.984375 0.140625 C 2.828125 0.140625 3.5625 -0.5 3.5625 -1.421875 C 3.5625 -2.296875 2.859375 -2.953125 2.046875 -2.953125 C 1.5 -2.953125 1.1875 -2.578125 1.046875 -2.265625 Z M 1.984375 -0.078125 C 1.640625 -0.078125 1.359375 -0.28125 1.21875 -0.59375 C 1.109375 -0.796875 1.0625 -1.140625 1.0625 -1.5625 C 1.0625 -2.234375 1.46875 -2.75 2.015625 -2.75 C 2.34375 -2.75 2.546875 -2.625 2.71875 -2.375 C 2.890625 -2.109375 2.90625 -1.8125 2.90625 -1.421875 C 2.90625 -1.015625 2.90625 -0.734375 2.71875 -0.453125 C 2.546875 -0.21875 2.328125 -0.078125 1.984375 -0.078125 Z M 1.984375 -0.078125 "/>
</g>
<g id="glyph-1-6">
<path d="M 3.71875 -4.1875 C 3.78125 -4.28125 3.78125 -4.28125 3.78125 -4.46875 L 1.96875 -4.46875 C 1.6875 -4.46875 1.609375 -4.46875 1.359375 -4.5 C 1 -4.515625 0.984375 -4.578125 0.96875 -4.6875 L 0.734375 -4.6875 L 0.484375 -3.203125 L 0.71875 -3.203125 C 0.734375 -3.3125 0.8125 -3.765625 0.921875 -3.84375 C 0.96875 -3.875 1.53125 -3.875 1.640625 -3.875 L 3.15625 -3.875 C 2.921875 -3.59375 2.578125 -3.15625 2.421875 -2.96875 C 1.515625 -1.765625 1.4375 -0.671875 1.4375 -0.25 C 1.4375 -0.1875 1.4375 0.140625 1.765625 0.140625 C 2.09375 0.140625 2.09375 -0.171875 2.09375 -0.265625 L 2.09375 -0.546875 C 2.09375 -1.890625 2.375 -2.5 2.671875 -2.875 Z M 3.71875 -4.1875 "/>
</g>
<g id="glyph-2-0">
<path d="M 1.265625 -0.765625 L 2.3125 -1.78125 C 3.859375 -3.15625 4.453125 -3.6875 4.453125 -4.671875 C 4.453125 -5.8125 3.5625 -6.59375 2.34375 -6.59375 C 1.234375 -6.59375 0.5 -5.6875 0.5 -4.796875 C 0.5 -4.25 0.984375 -4.25 1.015625 -4.25 C 1.1875 -4.25 1.53125 -4.375 1.53125 -4.78125 C 1.53125 -5.03125 1.359375 -5.296875 1.015625 -5.296875 C 0.9375 -5.296875 0.90625 -5.296875 0.875 -5.28125 C 1.109375 -5.921875 1.640625 -6.296875 2.21875 -6.296875 C 3.125 -6.296875 3.546875 -5.484375 3.546875 -4.671875 C 3.546875 -3.890625 3.046875 -3.09375 2.5 -2.484375 L 0.609375 -0.359375 C 0.5 -0.25 0.5 -0.234375 0.5 0 L 4.171875 0 L 4.453125 -1.71875 L 4.203125 -1.71875 C 4.15625 -1.421875 4.078125 -0.984375 3.984375 -0.84375 C 3.90625 -0.765625 3.265625 -0.765625 3.046875 -0.765625 Z M 1.265625 -0.765625 "/>
</g>
<g id="glyph-2-1">
<path d="M 2.90625 -6.34375 C 2.90625 -6.578125 2.90625 -6.59375 2.6875 -6.59375 C 2.078125 -5.96875 1.203125 -5.96875 0.875 -5.96875 L 0.875 -5.65625 C 1.078125 -5.65625 1.671875 -5.65625 2.171875 -5.90625 L 2.171875 -0.78125 C 2.171875 -0.421875 2.15625 -0.3125 1.265625 -0.3125 L 0.9375 -0.3125 L 0.9375 0 C 1.28125 -0.03125 2.15625 -0.03125 2.546875 -0.03125 C 2.9375 -0.03125 3.796875 -0.03125 4.15625 0 L 4.15625 -0.3125 L 3.828125 -0.3125 C 2.9375 -0.3125 2.90625 -0.421875 2.90625 -0.78125 Z M 2.90625 -6.34375 "/>
</g>
<g id="glyph-2-2">
<path d="M 2.875 -3.484375 C 3.6875 -3.75 4.265625 -4.453125 4.265625 -5.234375 C 4.265625 -6.046875 3.390625 -6.59375 2.4375 -6.59375 C 1.4375 -6.59375 0.6875 -6 0.6875 -5.25 C 0.6875 -4.921875 0.90625 -4.734375 1.1875 -4.734375 C 1.5 -4.734375 1.6875 -4.953125 1.6875 -5.234375 C 1.6875 -5.734375 1.234375 -5.734375 1.078125 -5.734375 C 1.390625 -6.21875 2.046875 -6.34375 2.390625 -6.34375 C 2.796875 -6.34375 3.34375 -6.125 3.34375 -5.234375 C 3.34375 -5.125 3.328125 -4.546875 3.078125 -4.109375 C 2.78125 -3.640625 2.4375 -3.609375 2.1875 -3.59375 C 2.109375 -3.59375 1.875 -3.5625 1.796875 -3.5625 C 1.71875 -3.5625 1.65625 -3.546875 1.65625 -3.453125 C 1.65625 -3.34375 1.71875 -3.34375 1.890625 -3.34375 L 2.328125 -3.34375 C 3.140625 -3.34375 3.5 -2.671875 3.5 -1.6875 C 3.5 -0.34375 2.828125 -0.0625 2.390625 -0.0625 C 1.96875 -0.0625 1.21875 -0.234375 0.875 -0.8125 C 1.21875 -0.765625 1.53125 -0.984375 1.53125 -1.359375 C 1.53125 -1.71875 1.265625 -1.90625 0.96875 -1.90625 C 0.734375 -1.90625 0.421875 -1.765625 0.421875 -1.34375 C 0.421875 -0.4375 1.34375 0.21875 2.421875 0.21875 C 3.625 0.21875 4.53125 -0.6875 4.53125 -1.6875 C 4.53125 -2.5 3.90625 -3.28125 2.875 -3.484375 Z M 2.875 -3.484375 "/>
</g>
<g id="glyph-2-3">
<path d="M 4.5625 -3.171875 C 4.5625 -3.96875 4.5 -4.75 4.15625 -5.484375 C 3.703125 -6.4375 2.890625 -6.59375 2.484375 -6.59375 C 1.875 -6.59375 1.15625 -6.34375 0.75 -5.421875 C 0.4375 -4.734375 0.390625 -3.96875 0.390625 -3.171875 C 0.390625 -2.421875 0.421875 -1.53125 0.828125 -0.78125 C 1.265625 0.015625 1.984375 0.21875 2.46875 0.21875 C 3 0.21875 3.75 0.015625 4.1875 -0.9375 C 4.5 -1.609375 4.5625 -2.390625 4.5625 -3.171875 Z M 2.46875 0 C 2.078125 0 1.5 -0.25 1.3125 -1.203125 C 1.203125 -1.796875 1.203125 -2.703125 1.203125 -3.28125 C 1.203125 -3.921875 1.203125 -4.578125 1.28125 -5.109375 C 1.46875 -6.296875 2.21875 -6.375 2.46875 -6.375 C 2.796875 -6.375 3.453125 -6.203125 3.640625 -5.21875 C 3.734375 -4.671875 3.734375 -3.90625 3.734375 -3.28125 C 3.734375 -2.546875 3.734375 -1.875 3.625 -1.234375 C 3.484375 -0.296875 2.90625 0 2.46875 0 Z M 2.46875 0 "/>
</g>
<g id="glyph-2-4">
<path d="M 2.90625 -1.640625 L 2.90625 -0.765625 C 2.90625 -0.421875 2.890625 -0.3125 2.15625 -0.3125 L 1.953125 -0.3125 L 1.953125 0 C 2.359375 -0.03125 2.875 -0.03125 3.28125 -0.03125 C 3.703125 -0.03125 4.234375 -0.03125 4.640625 0 L 4.640625 -0.3125 L 4.421875 -0.3125 C 3.6875 -0.3125 3.671875 -0.421875 3.671875 -0.765625 L 3.671875 -1.640625 L 4.671875 -1.640625 L 4.671875 -1.9375 L 3.671875 -1.9375 L 3.671875 -6.453125 C 3.671875 -6.640625 3.671875 -6.703125 3.515625 -6.703125 C 3.421875 -6.703125 3.390625 -6.703125 3.3125 -6.59375 L 0.28125 -1.9375 L 0.28125 -1.640625 Z M 2.96875 -1.9375 L 0.5625 -1.9375 L 2.96875 -5.640625 Z M 2.96875 -1.9375 "/>
</g>
<g id="glyph-2-5">
<path d="M 4.453125 -1.984375 C 4.453125 -3.171875 3.640625 -4.15625 2.5625 -4.15625 C 2.09375 -4.15625 1.671875 -4 1.3125 -3.65625 L 1.3125 -5.59375 C 1.5 -5.53125 1.828125 -5.453125 2.15625 -5.453125 C 3.375 -5.453125 4.0625 -6.359375 4.0625 -6.484375 C 4.0625 -6.546875 4.03125 -6.59375 3.96875 -6.59375 C 3.953125 -6.59375 3.9375 -6.59375 3.890625 -6.5625 C 3.6875 -6.484375 3.203125 -6.28125 2.53125 -6.28125 C 2.140625 -6.28125 1.6875 -6.34375 1.21875 -6.5625 C 1.140625 -6.59375 1.125 -6.59375 1.09375 -6.59375 C 1 -6.59375 1 -6.515625 1 -6.34375 L 1 -3.421875 C 1 -3.234375 1 -3.15625 1.140625 -3.15625 C 1.203125 -3.15625 1.234375 -3.1875 1.265625 -3.25 C 1.375 -3.40625 1.75 -3.9375 2.546875 -3.9375 C 3.0625 -3.9375 3.3125 -3.484375 3.390625 -3.3125 C 3.546875 -2.9375 3.5625 -2.5625 3.5625 -2.0625 C 3.5625 -1.71875 3.5625 -1.125 3.328125 -0.703125 C 3.09375 -0.3125 2.71875 -0.0625 2.265625 -0.0625 C 1.546875 -0.0625 0.984375 -0.578125 0.8125 -1.171875 C 0.84375 -1.15625 0.875 -1.15625 0.984375 -1.15625 C 1.3125 -1.15625 1.46875 -1.390625 1.46875 -1.640625 C 1.46875 -1.875 1.3125 -2.125 0.984375 -2.125 C 0.84375 -2.125 0.5 -2.046875 0.5 -1.59375 C 0.5 -0.75 1.171875 0.21875 2.28125 0.21875 C 3.4375 0.21875 4.453125 -0.734375 4.453125 -1.984375 Z M 4.453125 -1.984375 "/>
</g>
<g id="glyph-2-6">
<path d="M 1.609375 -4.53125 C 1.15625 -4.828125 1.125 -5.15625 1.125 -5.328125 C 1.125 -5.9375 1.765625 -6.34375 2.46875 -6.34375 C 3.1875 -6.34375 3.828125 -5.828125 3.828125 -5.125 C 3.828125 -4.5625 3.4375 -4.078125 2.84375 -3.734375 Z M 3.0625 -3.59375 C 3.78125 -3.953125 4.265625 -4.46875 4.265625 -5.125 C 4.265625 -6.03125 3.375 -6.59375 2.484375 -6.59375 C 1.484375 -6.59375 0.6875 -5.859375 0.6875 -4.9375 C 0.6875 -4.765625 0.703125 -4.3125 1.125 -3.859375 C 1.234375 -3.734375 1.59375 -3.484375 1.84375 -3.3125 C 1.265625 -3.03125 0.421875 -2.484375 0.421875 -1.5 C 0.421875 -0.453125 1.421875 0.21875 2.46875 0.21875 C 3.59375 0.21875 4.53125 -0.609375 4.53125 -1.671875 C 4.53125 -2.015625 4.421875 -2.46875 4.046875 -2.875 C 3.859375 -3.09375 3.6875 -3.1875 3.0625 -3.59375 Z M 2.078125 -3.171875 L 3.28125 -2.390625 C 3.5625 -2.203125 4.03125 -1.90625 4.03125 -1.3125 C 4.03125 -0.578125 3.28125 -0.0625 2.484375 -0.0625 C 1.625 -0.0625 0.90625 -0.671875 0.90625 -1.5 C 0.90625 -2.078125 1.234375 -2.703125 2.078125 -3.171875 Z M 2.078125 -3.171875 "/>
</g>
<g id="glyph-2-7">
<path d="M 1.3125 -3.25 L 1.3125 -3.484375 C 1.3125 -6 2.53125 -6.34375 3.046875 -6.34375 C 3.28125 -6.34375 3.6875 -6.296875 3.90625 -5.953125 C 3.765625 -5.953125 3.375 -5.953125 3.375 -5.515625 C 3.375 -5.203125 3.609375 -5.046875 3.828125 -5.046875 C 3.984375 -5.046875 4.28125 -5.140625 4.28125 -5.53125 C 4.28125 -6.125 3.84375 -6.59375 3.015625 -6.59375 C 1.75 -6.59375 0.421875 -5.3125 0.421875 -3.125 C 0.421875 -0.484375 1.5625 0.21875 2.484375 0.21875 C 3.59375 0.21875 4.53125 -0.71875 4.53125 -2.015625 C 4.53125 -3.28125 3.640625 -4.234375 2.546875 -4.234375 C 1.875 -4.234375 1.5 -3.71875 1.3125 -3.25 Z M 2.484375 -0.0625 C 1.859375 -0.0625 1.5625 -0.65625 1.5 -0.796875 C 1.328125 -1.265625 1.328125 -2.0625 1.328125 -2.234375 C 1.328125 -3.015625 1.640625 -4 2.53125 -4 C 2.6875 -4 3.15625 -4 3.453125 -3.390625 C 3.640625 -3.015625 3.640625 -2.515625 3.640625 -2.03125 C 3.640625 -1.5625 3.640625 -1.0625 3.46875 -0.703125 C 3.171875 -0.109375 2.71875 -0.0625 2.484375 -0.0625 Z M 2.484375 -0.0625 "/>
</g>
</g>
</defs>
<path fill="none" stroke-width="0.59776" stroke-linecap="butt" stroke-linejoin="miter" stroke="rgb(0%, 0%, 0%)" stroke-opacity="1" stroke-miterlimit="10" d="M 7.087437 -0.000922525 C 7.087437 3.91428 3.91518 7.086537 -0.0000220086 7.086537 C -3.915224 7.086537 -7.087481 3.91428 -7.087481 -0.000922525 C -7.087481 -3.912194 -3.915224 -7.088382 -0.0000220086 -7.088382 C 3.91518 -7.088382 7.087437 -3.912194 7.087437 -0.000922525 Z M 7.087437 -0.000922525 " transform="matrix(0.993723, 0, 0, -0.993723, 136.246116, 6.506896)"/>
<g fill="rgb(0%, 0%, 0%)" fill-opacity="1">
<use xlink:href="#glyph-0-0" x="131.626299" y="7.89612"/>
</g>
<g fill="rgb(0%, 0%, 0%)" fill-opacity="1">
<use xlink:href="#glyph-1-0" x="136.424986" y="9.380742"/>
</g>
<path fill="none" stroke-width="0.59776" stroke-linecap="butt" stroke-linejoin="miter" stroke="rgb(0%, 0%, 0%)" stroke-opacity="1" stroke-miterlimit="10" d="M 86.456762 -0.000922525 C 86.456762 3.91428 83.284505 7.086537 79.369303 7.086537 C 75.458031 7.086537 72.285774 3.91428 72.285774 -0.000922525 C 72.285774 -3.912194 75.458031 -7.088382 79.369303 -7.088382 C 83.284505 -7.088382 86.456762 -3.912194 86.456762 -0.000922525 Z M 86.456762 -0.000922525 " transform="matrix(0.993723, 0, 0, -0.993723, 136.246116, 6.506896)"/>
<g fill="rgb(0%, 0%, 0%)" fill-opacity="1">
<use xlink:href="#glyph-0-0" x="210.499058" y="7.89612"/>
</g>
<g fill="rgb(0%, 0%, 0%)" fill-opacity="1">
<use xlink:href="#glyph-1-1" x="215.297744" y="9.380742"/>
</g>
<path fill="none" stroke-width="0.59776" stroke-linecap="butt" stroke-linejoin="miter" stroke="rgb(0%, 0%, 0%)" stroke-opacity="1" stroke-miterlimit="10" d="M -49.038322 -56.122751 C -49.038322 -52.21148 -52.21058 -49.039223 -56.125782 -49.039223 C -60.037053 -49.039223 -63.20931 -52.21148 -63.20931 -56.122751 C -63.20931 -60.037954 -60.037053 -63.210211 -56.125782 -63.210211 C -52.21058 -63.210211 -49.038322 -60.037954 -49.038322 -56.122751 Z M -49.038322 -56.122751 " transform="matrix(0.993723, 0, 0, -0.993723, 136.246116, 6.506896)"/>
<g fill="rgb(0%, 0%, 0%)" fill-opacity="1">
<use xlink:href="#glyph-0-0" x="75.85461" y="63.667809"/>
</g>
<g fill="rgb(0%, 0%, 0%)" fill-opacity="1">
<use xlink:href="#glyph-1-2" x="80.653297" y="65.15243"/>
</g>
<path fill="none" stroke-width="0.59776" stroke-linecap="butt" stroke-linejoin="miter" stroke="rgb(0%, 0%, 0%)" stroke-opacity="1" stroke-miterlimit="10" d="M 63.209266 -56.122751 C 63.209266 -52.21148 60.037009 -49.039223 56.125738 -49.039223 C 52.210536 -49.039223 49.038278 -52.21148 49.038278 -56.122751 C 49.038278 -60.037954 52.210536 -63.210211 56.125738 -63.210211 C 60.037009 -63.210211 63.209266 -60.037954 63.209266 -56.122751 Z M 63.209266 -56.122751 " transform="matrix(0.993723, 0, 0, -0.993723, 136.246116, 6.506896)"/>
<g fill="rgb(0%, 0%, 0%)" fill-opacity="1">
<use xlink:href="#glyph-0-0" x="187.397988" y="63.667809"/>
</g>
<g fill="rgb(0%, 0%, 0%)" fill-opacity="1">
<use xlink:href="#glyph-1-3" x="192.196674" y="65.15243"/>
</g>
<path fill="none" stroke-width="0.59776" stroke-linecap="butt" stroke-linejoin="miter" stroke="rgb(0%, 0%, 0%)" stroke-opacity="1" stroke-miterlimit="10" d="M 142.582522 -56.122751 C 142.582522 -52.21148 139.410265 -49.039223 135.495062 -49.039223 C 131.57986 -49.039223 128.407603 -52.21148 128.407603 -56.122751 C 128.407603 -60.037954 131.57986 -63.210211 135.495062 -63.210211 C 139.410265 -63.210211 142.582522 -60.037954 142.582522 -56.122751 Z M 142.582522 -56.122751 " transform="matrix(0.993723, 0, 0, -0.993723, 136.246116, 6.506896)"/>
<g fill="rgb(0%, 0%, 0%)" fill-opacity="1">
<use xlink:href="#glyph-0-0" x="266.270747" y="63.667809"/>
</g>
<g fill="rgb(0%, 0%, 0%)" fill-opacity="1">
<use xlink:href="#glyph-1-4" x="271.069433" y="65.15243"/>
</g>
<path fill="none" stroke-width="0.59776" stroke-linecap="butt" stroke-linejoin="miter" stroke="rgb(0%, 0%, 0%)" stroke-opacity="1" stroke-miterlimit="10" d="M 7.087437 -112.248511 C 7.087437 -108.333309 3.91518 -105.161052 -0.0000220086 -105.161052 C -3.915224 -105.161052 -7.087481 -108.333309 -7.087481 -112.248511 C -7.087481 -116.163713 -3.915224 -119.335971 -0.0000220086 -119.335971 C 3.91518 -119.335971 7.087437 -116.163713 7.087437 -112.248511 Z M 7.087437 -112.248511 " transform="matrix(0.993723, 0, 0, -0.993723, 136.246116, 6.506896)"/>
<g fill="rgb(0%, 0%, 0%)" fill-opacity="1">
<use xlink:href="#glyph-0-0" x="131.626299" y="119.438504"/>
</g>
<g fill="rgb(0%, 0%, 0%)" fill-opacity="1">
<use xlink:href="#glyph-1-5" x="136.424986" y="120.923125"/>
</g>
<path fill="none" stroke-width="0.59776" stroke-linecap="butt" stroke-linejoin="miter" stroke="rgb(0%, 0%, 0%)" stroke-opacity="1" stroke-miterlimit="10" d="M 119.335026 -112.248511 C 119.335026 -108.333309 116.162769 -105.161052 112.247567 -105.161052 C 108.332364 -105.161052 105.160107 -108.333309 105.160107 -112.248511 C 105.160107 -116.163713 108.332364 -119.335971 112.247567 -119.335971 C 116.162769 -119.335971 119.335026 -116.163713 119.335026 -112.248511 Z M 119.335026 -112.248511 " transform="matrix(0.993723, 0, 0, -0.993723, 136.246116, 6.506896)"/>
<g fill="rgb(0%, 0%, 0%)" fill-opacity="1">
<use xlink:href="#glyph-0-0" x="243.169677" y="119.438504"/>
</g>
<g fill="rgb(0%, 0%, 0%)" fill-opacity="1">
<use xlink:href="#glyph-1-6" x="247.968363" y="120.923125"/>
</g>
<path fill="none" stroke-width="0.59776" stroke-linecap="butt" stroke-linejoin="miter" stroke="rgb(0%, 0%, 0%)" stroke-opacity="1" stroke-miterlimit="10" d="M 7.386188 -0.000922525 L 69.773912 -0.000922525 " transform="matrix(0.993723, 0, 0, -0.993723, 136.246116, 6.506896)"/>
<path fill-rule="nonzero" fill="rgb(0%, 0%, 0%)" fill-opacity="1" stroke-width="0.59776" stroke-linecap="butt" stroke-linejoin="round" stroke="rgb(0%, 0%, 0%)" stroke-opacity="1" stroke-miterlimit="10" d="M 0.915938 -0.000922525 C -0.227961 0.231002 -1.375792 0.68699 -2.751616 1.488898 C -1.375792 0.458996 -1.375792 -0.45691 -2.751616 -1.490743 C -1.375792 -0.688835 -0.227961 -0.228916 0.915938 -0.000922525 Z M 0.915938 -0.000922525 " transform="matrix(0.993723, 0, 0, -0.993723, 205.581999, 6.506896)"/>
<g fill="rgb(0%, 0%, 0%)" fill-opacity="1">
<use xlink:href="#glyph-2-0" x="173.207629" y="2.910614"/>
</g>
<path fill="none" stroke-width="0.59776" stroke-linecap="butt" stroke-linejoin="miter" stroke="rgb(0%, 0%, 0%)" stroke-opacity="1" stroke-miterlimit="10" d="M 5.224178 -5.221192 L 49.337029 -49.337973 " transform="matrix(0.993723, 0, 0, -0.993723, 136.246116, 6.506896)"/>
<path fill-rule="nonzero" fill="rgb(0%, 0%, 0%)" fill-opacity="1" stroke-width="0.59776" stroke-linecap="butt" stroke-linejoin="round" stroke="rgb(0%, 0%, 0%)" stroke-opacity="1" stroke-miterlimit="10" d="M 0.917089 -0.000667892 C -0.23089 0.23004 -1.37609 0.685896 -2.751997 1.489204 C -1.37609 0.457968 -1.37609 -0.459304 -2.749218 -1.48776 C -1.37609 -0.687232 -0.22811 -0.228596 0.917089 -0.000667892 Z M 0.917089 -0.000667892 " transform="matrix(0.702661, 0.702661, 0.702661, -0.702661, 185.274035, 55.534815)"/>
<g fill="rgb(0%, 0%, 0%)" fill-opacity="1">
<use xlink:href="#glyph-2-1" x="167.728242" y="30.795464"/>
</g>
<path fill="none" stroke-width="0.59776" stroke-linecap="butt" stroke-linejoin="miter" stroke="rgb(0%, 0%, 0%)" stroke-opacity="1" stroke-miterlimit="10" d="M 76.546898 -6.821079 L 59.797223 -47.258514 " transform="matrix(0.993723, 0, 0, -0.993723, 136.246116, 6.506896)"/>
<path fill-rule="nonzero" fill="rgb(0%, 0%, 0%)" fill-opacity="1" stroke-width="0.59776" stroke-linecap="butt" stroke-linejoin="round" stroke="rgb(0%, 0%, 0%)" stroke-opacity="1" stroke-miterlimit="10" d="M 0.915205 0.00122574 C -0.230097 0.22891 -1.373102 0.687318 -2.748831 1.491852 C -1.375399 0.456594 -1.375199 -0.458155 -2.747518 -1.490382 C -1.373864 -0.687374 -0.227429 -0.229528 0.915205 0.00122574 Z M 0.915205 0.00122574 " transform="matrix(-0.380258, 0.918031, 0.918031, 0.380258, 195.667201, 53.467942)"/>
<g fill="rgb(0%, 0%, 0%)" fill-opacity="1">
<use xlink:href="#glyph-2-2" x="207.165118" y="44.369715"/>
</g>
<path fill="none" stroke-width="0.59776" stroke-linecap="butt" stroke-linejoin="miter" stroke="rgb(0%, 0%, 0%)" stroke-opacity="1" stroke-miterlimit="10" d="M 84.593503 -5.221192 L 128.710284 -49.337973 " transform="matrix(0.993723, 0, 0, -0.993723, 136.246116, 6.506896)"/>
<path fill-rule="nonzero" fill="rgb(0%, 0%, 0%)" fill-opacity="1" stroke-width="0.59776" stroke-linecap="butt" stroke-linejoin="round" stroke="rgb(0%, 0%, 0%)" stroke-opacity="1" stroke-miterlimit="10" d="M 0.91577 -0.00198698 C -0.22943 0.2315 -1.374629 0.687357 -2.750537 1.490664 C -1.374629 0.459428 -1.374629 -0.457843 -2.750537 -1.489079 C -1.374629 -0.685771 -0.22943 -0.229915 0.91577 -0.00198698 Z M 0.91577 -0.00198698 " transform="matrix(0.702661, 0.702661, 0.702661, -0.702661, 264.146982, 55.534815)"/>
<g fill="rgb(0%, 0%, 0%)" fill-opacity="1">
<use xlink:href="#glyph-2-1" x="246.601995" y="30.795464"/>
<use xlink:href="#glyph-2-3" x="251.552025" y="30.795464"/>
</g>
<path fill="none" stroke-width="0.59776" stroke-linecap="butt" stroke-linejoin="miter" stroke="rgb(0%, 0%, 0%)" stroke-opacity="1" stroke-miterlimit="10" d="M -50.901581 -50.902482 L -6.7848 -6.785701 " transform="matrix(0.993723, 0, 0, -0.993723, 136.246116, 6.506896)"/>
<path fill-rule="nonzero" fill="rgb(0%, 0%, 0%)" fill-opacity="1" stroke-width="0.59776" stroke-linecap="butt" stroke-linejoin="round" stroke="rgb(0%, 0%, 0%)" stroke-opacity="1" stroke-miterlimit="10" d="M 0.915976 0.00214284 C -0.229223 0.230071 -1.374423 0.685927 -2.75033 1.489235 C -1.374423 0.457999 -1.374423 -0.459273 -2.75033 -1.490508 C -1.374423 -0.687201 -0.229223 -0.231344 0.915976 0.00214284 Z M 0.915976 0.00214284 " transform="matrix(0.702661, -0.702661, -0.702661, -0.702661, 129.502416, 13.250596)"/>
<g fill="rgb(0%, 0%, 0%)" fill-opacity="1">
<use xlink:href="#glyph-2-4" x="99.813263" y="30.796458"/>
</g>
<path fill="none" stroke-width="0.59776" stroke-linecap="butt" stroke-linejoin="miter" stroke="rgb(0%, 0%, 0%)" stroke-opacity="1" stroke-miterlimit="10" d="M -50.901581 -61.346952 L -6.7848 -105.459802 " transform="matrix(0.993723, 0, 0, -0.993723, 136.246116, 6.506896)"/>
<path fill-rule="nonzero" fill="rgb(0%, 0%, 0%)" fill-opacity="1" stroke-width="0.59776" stroke-linecap="butt" stroke-linejoin="round" stroke="rgb(0%, 0%, 0%)" stroke-opacity="1" stroke-miterlimit="10" d="M 0.914281 -0.000447732 C -0.228139 0.23026 -1.376118 0.688896 -2.749246 1.489424 C -1.373338 0.458188 -1.373338 -0.459084 -2.749246 -1.490319 C -1.373338 -0.687012 -0.230918 -0.228376 0.914281 -0.000447732 Z M 0.914281 -0.000447732 " transform="matrix(0.702661, 0.702661, 0.702661, -0.702661, 129.502416, 111.306474)"/>
<g fill="rgb(0%, 0%, 0%)" fill-opacity="1">
<use xlink:href="#glyph-2-5" x="111.956553" y="86.567153"/>
</g>
<path fill="none" stroke-width="0.59776" stroke-linecap="butt" stroke-linejoin="miter" stroke="rgb(0%, 0%, 0%)" stroke-opacity="1" stroke-miterlimit="10" d="M 48.739528 -56.122751 L -46.526461 -56.122751 " transform="matrix(0.993723, 0, 0, -0.993723, 136.246116, 6.506896)"/>
<path fill-rule="nonzero" fill="rgb(0%, 0%, 0%)" fill-opacity="1" stroke-width="0.59776" stroke-linecap="butt" stroke-linejoin="round" stroke="rgb(0%, 0%, 0%)" stroke-opacity="1" stroke-miterlimit="10" d="M 0.915707 -0.00119861 C -0.228193 0.230726 -1.376023 0.686713 -2.747916 1.488622 C -1.376023 0.45872 -1.376023 -0.457186 -2.747916 -1.49102 C -1.376023 -0.689111 -0.228193 -0.229192 0.915707 -0.00119861 Z M 0.915707 -0.00119861 " transform="matrix(-0.993723, 0, 0, 0.993723, 90.011521, 62.278535)"/>
<g fill="rgb(0%, 0%, 0%)" fill-opacity="1">
<use xlink:href="#glyph-2-0" x="133.770753" y="72.25556"/>
</g>
<path fill="none" stroke-width="0.59776" stroke-linecap="butt" stroke-linejoin="miter" stroke="rgb(0%, 0%, 0%)" stroke-opacity="1" stroke-miterlimit="10" d="M 63.508017 -56.122751 L 125.899672 -56.122751 " transform="matrix(0.993723, 0, 0, -0.993723, 136.246116, 6.506896)"/>
<path fill-rule="nonzero" fill="rgb(0%, 0%, 0%)" fill-opacity="1" stroke-width="0.59776" stroke-linecap="butt" stroke-linejoin="round" stroke="rgb(0%, 0%, 0%)" stroke-opacity="1" stroke-miterlimit="10" d="M 0.917738 0.00119861 C -0.230092 0.229192 -1.373992 0.689111 -2.749816 1.49102 C -1.373992 0.457186 -1.373992 -0.45872 -2.749816 -1.488622 C -1.373992 -0.686713 -0.230092 -0.230726 0.917738 0.00119861 Z M 0.917738 0.00119861 " transform="matrix(0.993723, 0, 0, -0.993723, 261.353648, 62.278535)"/>
<g fill="rgb(0%, 0%, 0%)" fill-opacity="1">
<use xlink:href="#glyph-2-0" x="228.979318" y="58.682302"/>
</g>
<path fill="none" stroke-width="0.59776" stroke-linecap="butt" stroke-linejoin="miter" stroke="rgb(0%, 0%, 0%)" stroke-opacity="1" stroke-miterlimit="10" d="M 50.901537 -61.346952 L 6.784756 -105.459802 " transform="matrix(0.993723, 0, 0, -0.993723, 136.246116, 6.506896)"/>
<path fill-rule="nonzero" fill="rgb(0%, 0%, 0%)" fill-opacity="1" stroke-width="0.59776" stroke-linecap="butt" stroke-linejoin="round" stroke="rgb(0%, 0%, 0%)" stroke-opacity="1" stroke-miterlimit="10" d="M 0.914312 0.000416607 C -0.230887 0.228345 -1.373307 0.686981 -2.749215 1.490288 C -1.373307 0.459052 -1.373307 -0.458219 -2.749215 -1.489455 C -1.376087 -0.688927 -0.228108 -0.230291 0.914312 0.000416607 Z M 0.914312 0.000416607 " transform="matrix(-0.702661, 0.702661, 0.702661, 0.702661, 142.989815, 111.306474)"/>
<g fill="rgb(0%, 0%, 0%)" fill-opacity="1">
<use xlink:href="#glyph-2-6" x="167.728242" y="100.141404"/>
</g>
<path fill="none" stroke-width="0.59776" stroke-linecap="butt" stroke-linejoin="miter" stroke="rgb(0%, 0%, 0%)" stroke-opacity="1" stroke-miterlimit="10" d="M 61.346007 -61.346952 L 105.462789 -105.459802 " transform="matrix(0.993723, 0, 0, -0.993723, 136.246116, 6.506896)"/>
<path fill-rule="nonzero" fill="rgb(0%, 0%, 0%)" fill-opacity="1" stroke-width="0.59776" stroke-linecap="butt" stroke-linejoin="round" stroke="rgb(0%, 0%, 0%)" stroke-opacity="1" stroke-miterlimit="10" d="M 0.916841 0.00211172 C -0.228359 0.23004 -1.376338 0.688676 -2.749466 1.489204 C -1.373559 0.457968 -1.373559 -0.459304 -2.749466 -1.490539 C -1.373559 -0.687232 -0.231139 -0.228596 0.916841 0.00211172 Z M 0.916841 0.00211172 " transform="matrix(0.702661, 0.702661, 0.702661, -0.702661, 241.045694, 111.306474)"/>
<g fill="rgb(0%, 0%, 0%)" fill-opacity="1">
<use xlink:href="#glyph-2-4" x="223.499931" y="86.567153"/>
</g>
<path fill="none" stroke-width="0.59776" stroke-linecap="butt" stroke-linejoin="miter" stroke="rgb(0%, 0%, 0%)" stroke-opacity="1" stroke-miterlimit="10" d="M 132.668727 -62.946839 L 115.919051 -103.380342 " transform="matrix(0.993723, 0, 0, -0.993723, 136.246116, 6.506896)"/>
<path fill-rule="nonzero" fill="rgb(0%, 0%, 0%)" fill-opacity="1" stroke-width="0.59776" stroke-linecap="butt" stroke-linejoin="round" stroke="rgb(0%, 0%, 0%)" stroke-opacity="1" stroke-miterlimit="10" d="M 0.917689 -0.000041437 C -0.227613 0.227643 -1.375754 0.688178 -2.749979 1.48908 C -1.37442 0.458959 -1.372715 -0.459422 -2.75017 -1.489521 C -1.376517 -0.686513 -0.230081 -0.228668 0.917689 -0.000041437 Z M 0.917689 -0.000041437 " transform="matrix(-0.380258, 0.918031, 0.918031, 0.380258, 251.43884, 109.239581)"/>
<g fill="rgb(0%, 0%, 0%)" fill-opacity="1">
<use xlink:href="#glyph-2-7" x="262.936807" y="100.141404"/>
</g>
<path fill="none" stroke-width="0.59776" stroke-linecap="butt" stroke-linejoin="miter" stroke="rgb(0%, 0%, 0%)" stroke-opacity="1" stroke-miterlimit="10" d="M 104.861357 -112.248511 L 9.595368 -112.248511 " transform="matrix(0.993723, 0, 0, -0.993723, 136.246116, 6.506896)"/>
<path fill-rule="nonzero" fill="rgb(0%, 0%, 0%)" fill-opacity="1" stroke-width="0.59776" stroke-linecap="butt" stroke-linejoin="round" stroke="rgb(0%, 0%, 0%)" stroke-opacity="1" stroke-miterlimit="10" d="M 0.917828 0.000601174 C -0.230003 0.228595 -1.373902 0.688513 -2.749726 1.490422 C -1.373902 0.456589 -1.373902 -0.459317 -2.749726 -1.48922 C -1.373902 -0.687311 -0.230003 -0.227393 0.917828 0.000601174 Z M 0.917828 0.000601174 " transform="matrix(-0.993723, 0, 0, 0.993723, 145.78316, 118.050184)"/>
<g fill="rgb(0%, 0%, 0%)" fill-opacity="1">
<use xlink:href="#glyph-2-1" x="189.542441" y="128.027248"/>
</g>
</svg>
