<?xml version="1.0" encoding="UTF-8"?>
<svg xmlns="http://www.w3.org/2000/svg" xmlns:xlink="http://www.w3.org/1999/xlink" width="239.56" height="85.21" viewBox="0 0 239.56 85.21">
<defs>
<g>
<g id="glyph-0-0">
<path d="M 7.5 -6.859375 C 7.5 -6.890625 7.484375 -6.96875 7.390625 -6.96875 C 7.359375 -6.96875 7.359375 -6.953125 7.25 -6.84375 L 6.5625 -6.078125 C 6.46875 -6.21875 6.015625 -6.96875 4.921875 -6.96875 C 2.71875 -6.96875 0.5 -4.78125 0.5 -2.484375 C 0.5 -0.921875 1.59375 0.21875 3.1875 0.21875 C 3.625 0.21875 4.0625 0.125 4.421875 -0.015625 C 4.921875 -0.21875 5.109375 -0.421875 5.28125 -0.625 C 5.375 -0.375 5.625 -0.015625 5.734375 -0.015625 C 5.78125 -0.015625 5.796875 -0.046875 5.796875 -0.046875 C 5.8125 -0.0625 5.921875 -0.4375 5.96875 -0.65625 L 6.15625 -1.40625 C 6.1875 -1.578125 6.234375 -1.75 6.28125 -1.921875 C 6.390625 -2.359375 6.40625 -2.375 6.96875 -2.390625 C 7.015625 -2.390625 7.125 -2.40625 7.125 -2.59375 C 7.125 -2.65625 7.078125 -2.703125 6.984375 -2.703125 C 6.765625 -2.703125 6.1875 -2.671875 5.953125 -2.671875 C 5.65625 -2.671875 4.875 -2.703125 4.578125 -2.703125 C 4.484375 -2.703125 4.359375 -2.703125 4.359375 -2.5 C 4.359375 -2.390625 4.4375 -2.390625 4.65625 -2.390625 C 4.671875 -2.390625 4.953125 -2.390625 5.1875 -2.375 C 5.4375 -2.34375 5.484375 -2.3125 5.484375 -2.1875 C 5.484375 -2.09375 5.375 -1.65625 5.28125 -1.28125 C 5 -0.203125 3.71875 -0.09375 3.375 -0.09375 C 2.421875 -0.09375 1.390625 -0.65625 1.390625 -2.15625 C 1.390625 -2.46875 1.484375 -4.09375 2.53125 -5.375 C 3.0625 -6.046875 4.015625 -6.65625 5 -6.65625 C 6 -6.65625 6.59375 -5.890625 6.59375 -4.75 C 6.59375 -4.359375 6.5625 -4.34375 6.5625 -4.25 C 6.5625 -4.140625 6.671875 -4.140625 6.703125 -4.140625 C 6.828125 -4.140625 6.828125 -4.171875 6.890625 -4.34375 Z M 7.5 -6.859375 "/>
</g>
<g id="glyph-0-1">
<path d="M 2.984375 -3.125 L 4.671875 -3.125 C 6.078125 -3.125 7.453125 -4.140625 7.453125 -5.25 C 7.453125 -6.015625 6.796875 -6.75 5.5 -6.75 L 2.296875 -6.75 C 2.109375 -6.75 2 -6.75 2 -6.5625 C 2 -6.4375 2.09375 -6.4375 2.296875 -6.4375 C 2.421875 -6.4375 2.59375 -6.421875 2.71875 -6.421875 C 2.875 -6.40625 2.9375 -6.375 2.9375 -6.265625 C 2.9375 -6.21875 2.921875 -6.1875 2.890625 -6.078125 L 1.5625 -0.765625 C 1.46875 -0.390625 1.453125 -0.3125 0.671875 -0.3125 C 0.5 -0.3125 0.390625 -0.3125 0.390625 -0.125 C 0.390625 0 0.515625 0 0.546875 0 C 0.8125 0 1.515625 -0.03125 1.796875 -0.03125 C 2 -0.03125 2.21875 -0.015625 2.421875 -0.015625 C 2.640625 -0.015625 2.859375 0 3.078125 0 C 3.140625 0 3.265625 0 3.265625 -0.203125 C 3.265625 -0.3125 3.1875 -0.3125 2.984375 -0.3125 C 2.625 -0.3125 2.34375 -0.3125 2.34375 -0.484375 C 2.34375 -0.546875 2.375 -0.59375 2.375 -0.65625 Z M 3.703125 -6.0625 C 3.796875 -6.40625 3.8125 -6.4375 4.234375 -6.4375 L 5.1875 -6.4375 C 6 -6.4375 6.53125 -6.171875 6.53125 -5.484375 C 6.53125 -5.109375 6.328125 -4.25 5.9375 -3.90625 C 5.453125 -3.453125 4.859375 -3.375 4.421875 -3.375 L 3.03125 -3.375 Z M 3.703125 -6.0625 "/>
</g>
<g id="glyph-0-2">
<path d="M 4.796875 -4.0625 L 3.953125 -6.03125 C 3.9375 -6.109375 3.90625 -6.140625 3.90625 -6.15625 C 3.90625 -6.21875 4.078125 -6.40625 4.5 -6.4375 C 4.59375 -6.453125 4.6875 -6.453125 4.6875 -6.625 C 4.6875 -6.75 4.578125 -6.75 4.546875 -6.75 C 4.140625 -6.75 3.71875 -6.71875 3.296875 -6.71875 C 3.046875 -6.71875 2.4375 -6.75 2.1875 -6.75 C 2.140625 -6.75 2.015625 -6.75 2.015625 -6.546875 C 2.015625 -6.4375 2.109375 -6.4375 2.234375 -6.4375 C 2.828125 -6.4375 2.890625 -6.34375 2.984375 -6.125 L 4.140625 -3.375 L 2.0625 -1.125 L 1.9375 -1.015625 C 1.453125 -0.5 0.984375 -0.328125 0.484375 -0.3125 C 0.359375 -0.296875 0.265625 -0.296875 0.265625 -0.109375 C 0.265625 -0.09375 0.265625 0 0.390625 0 C 0.6875 0 1.015625 -0.03125 1.328125 -0.03125 C 1.6875 -0.03125 2.078125 0 2.421875 0 C 2.484375 0 2.609375 0 2.609375 -0.203125 C 2.609375 -0.296875 2.515625 -0.3125 2.484375 -0.3125 C 2.40625 -0.3125 2.09375 -0.328125 2.09375 -0.609375 C 2.09375 -0.765625 2.234375 -0.921875 2.359375 -1.0625 L 3.375 -2.125 L 4.25 -3.09375 L 5.25 -0.734375 C 5.296875 -0.625 5.296875 -0.609375 5.296875 -0.59375 C 5.296875 -0.515625 5.109375 -0.34375 4.734375 -0.3125 C 4.625 -0.296875 4.53125 -0.28125 4.53125 -0.125 C 4.53125 0 4.640625 0 4.6875 0 C 4.953125 0 5.65625 -0.03125 5.921875 -0.03125 C 6.171875 -0.03125 6.78125 0 7.015625 0 C 7.09375 0 7.203125 0 7.203125 -0.1875 C 7.203125 -0.3125 7.109375 -0.3125 7.03125 -0.3125 C 6.375 -0.3125 6.34375 -0.34375 6.1875 -0.734375 C 5.796875 -1.65625 5.140625 -3.203125 4.90625 -3.796875 C 5.578125 -4.484375 6.609375 -5.65625 6.9375 -5.9375 C 7.21875 -6.171875 7.59375 -6.40625 8.1875 -6.4375 C 8.3125 -6.453125 8.40625 -6.453125 8.40625 -6.640625 C 8.40625 -6.640625 8.40625 -6.75 8.28125 -6.75 C 7.984375 -6.75 7.65625 -6.71875 7.34375 -6.71875 C 6.984375 -6.71875 6.609375 -6.75 6.25 -6.75 C 6.1875 -6.75 6.0625 -6.75 6.0625 -6.546875 C 6.0625 -6.484375 6.109375 -6.453125 6.1875 -6.4375 C 6.265625 -6.421875 6.578125 -6.40625 6.578125 -6.125 C 6.578125 -6 6.46875 -5.859375 6.390625 -5.78125 Z M 4.796875 -4.0625 "/>
</g>
<g id="glyph-0-3">
<path d="M 6.375 -6.859375 C 6.375 -6.890625 6.34375 -6.96875 6.265625 -6.96875 C 6.21875 -6.96875 6.203125 -6.953125 6.078125 -6.8125 L 5.609375 -6.25 C 5.359375 -6.71875 4.84375 -6.96875 4.203125 -6.96875 C 2.9375 -6.96875 1.75 -5.828125 1.75 -4.625 C 1.75 -3.828125 2.28125 -3.375 2.78125 -3.234375 L 3.84375 -2.953125 C 4.203125 -2.859375 4.75 -2.71875 4.75 -1.90625 C 4.75 -1.015625 3.9375 -0.09375 2.96875 -0.09375 C 2.34375 -0.09375 1.25 -0.3125 1.25 -1.53125 C 1.25 -1.765625 1.296875 -2 1.296875 -2.0625 C 1.3125 -2.109375 1.328125 -2.109375 1.328125 -2.140625 C 1.328125 -2.234375 1.25 -2.234375 1.203125 -2.234375 C 1.15625 -2.234375 1.140625 -2.234375 1.109375 -2.203125 C 1.0625 -2.15625 0.515625 0.09375 0.515625 0.125 C 0.515625 0.171875 0.5625 0.21875 0.625 0.21875 C 0.671875 0.21875 0.6875 0.203125 0.796875 0.0625 L 1.28125 -0.5 C 1.703125 0.078125 2.375 0.21875 2.953125 0.21875 C 4.296875 0.21875 5.453125 -1.09375 5.453125 -2.328125 C 5.453125 -3 5.125 -3.34375 4.984375 -3.46875 C 4.75 -3.703125 4.609375 -3.75 3.71875 -3.96875 C 3.5 -4.03125 3.15625 -4.125 3.0625 -4.140625 C 2.796875 -4.234375 2.453125 -4.515625 2.453125 -5.046875 C 2.453125 -5.84375 3.25 -6.6875 4.1875 -6.6875 C 5 -6.6875 5.609375 -6.265625 5.609375 -5.15625 C 5.609375 -4.84375 5.5625 -4.65625 5.5625 -4.609375 C 5.5625 -4.59375 5.5625 -4.5 5.6875 -4.5 C 5.78125 -4.5 5.796875 -4.53125 5.84375 -4.703125 Z M 6.375 -6.859375 "/>
</g>
</g>
<clipPath id="clip-0">
<path clip-rule="nonzero" d="M 0.882812 54 L 31 54 L 31 84.425781 L 0.882812 84.425781 Z M 0.882812 54 "/>
</clipPath>
<clipPath id="clip-1">
<path clip-rule="nonzero" d="M 131 54 L 164 54 L 164 84.425781 L 131 84.425781 Z M 131 54 "/>
</clipPath>
<clipPath id="clip-2">
<path clip-rule="nonzero" d="M 209 27 L 238.242188 27 L 238.242188 57 L 209 57 Z M 209 27 "/>
</clipPath>
</defs>
<path fill-rule="nonzero" fill="rgb(0%, 0%, 0%)" fill-opacity="1" stroke-width="0.3985" stroke-linecap="butt" stroke-linejoin="miter" stroke="rgb(0%, 0%, 0%)" stroke-opacity="1" stroke-miterlimit="10" d="M 9.856493 -0.0000627274 C 9.856493 5.444482 5.440931 9.856101 0.000328483 9.856101 C -5.444217 9.856101 -9.855836 5.444482 -9.855836 -0.0000627274 C -9.855836 -5.444608 -5.444217 -9.856227 0.000328483 -9.856227 C 5.440931 -9.856227 9.856493 -5.444608 9.856493 -0.0000627274 Z M 9.856493 -0.0000627274 " transform="matrix(0.990814, 0, 0, -0.990814, 64.374675, 13.914)"/>
<g fill="rgb(100%, 100%, 100%)" fill-opacity="1">
<use xlink:href="#glyph-0-0" x="60.493656" y="17.286731"/>
</g>
<path fill-rule="nonzero" fill="rgb(100%, 0%, 0%)" fill-opacity="1" stroke-width="0.3985" stroke-linecap="butt" stroke-linejoin="miter" stroke="rgb(100%, 0%, 0%)" stroke-opacity="1" stroke-miterlimit="10" d="M -18.474066 -28.346391 C -18.474066 -22.893961 -22.89357 -18.474457 -28.346 -18.474457 C -33.79843 -18.474457 -38.217934 -22.893961 -38.217934 -28.346391 C -38.217934 -33.798821 -33.79843 -38.218325 -28.346 -38.218325 C -22.89357 -38.218325 -18.474066 -33.798821 -18.474066 -28.346391 Z M -18.474066 -28.346391 " transform="matrix(0.990814, 0, 0, -0.990814, 64.374675, 13.914)"/>
<g fill="rgb(100%, 100%, 100%)" fill-opacity="1">
<use xlink:href="#glyph-0-1" x="32.433805" y="45.373334"/>
</g>
<path fill="none" stroke-width="0.3985" stroke-linecap="butt" stroke-linejoin="miter" stroke="rgb(0%, 0%, 0%)" stroke-opacity="1" stroke-miterlimit="10" d="M -7.107937 -7.108328 L -21.225907 -21.226298 " transform="matrix(0.990814, 0, 0, -0.990814, 64.374675, 13.914)"/>
<path fill-rule="nonzero" fill="rgb(100%, 0%, 0%)" fill-opacity="1" d="M 25.417969 70.085938 C 25.417969 64.457031 20.855469 59.890625 15.222656 59.890625 C 9.59375 59.890625 5.027344 64.457031 5.027344 70.085938 C 5.027344 75.71875 9.59375 80.28125 15.222656 80.28125 C 20.855469 80.28125 25.417969 75.71875 25.417969 70.085938 Z M 25.417969 70.085938 "/>
<g clip-path="url(#clip-0)">
<path fill="none" stroke-width="0.3985" stroke-linecap="butt" stroke-linejoin="miter" stroke="rgb(100%, 0%, 0%)" stroke-opacity="1" stroke-miterlimit="10" d="M -39.317882 -56.692719 C -39.317882 -51.011626 -43.922682 -46.402884 -49.607717 -46.402884 C -55.28881 -46.402884 -59.897552 -51.011626 -59.897552 -56.692719 C -59.897552 -62.377755 -55.28881 -66.982555 -49.607717 -66.982555 C -43.922682 -66.982555 -39.317882 -62.377755 -39.317882 -56.692719 Z M -39.317882 -56.692719 " transform="matrix(0.990814, 0, 0, -0.990814, 64.374675, 13.914)"/>
</g>
<g fill="rgb(100%, 100%, 100%)" fill-opacity="1">
<use xlink:href="#glyph-0-2" x="10.746869" y="73.459937"/>
</g>
<path fill="none" stroke-width="0.3985" stroke-linecap="butt" stroke-linejoin="miter" stroke="rgb(0%, 0%, 0%)" stroke-opacity="1" stroke-miterlimit="10" d="M -34.3898 -36.400848 L -43.311599 -48.303152 " transform="matrix(0.990814, 0, 0, -0.990814, 64.374675, 13.914)"/>
<path fill-rule="nonzero" fill="rgb(100%, 0%, 0%)" fill-opacity="1" stroke-width="0.3985" stroke-linecap="butt" stroke-linejoin="miter" stroke="rgb(100%, 0%, 0%)" stroke-opacity="1" stroke-miterlimit="10" d="M 37.804632 -28.346391 C 37.804632 -23.122624 33.570424 -18.888416 28.346657 -18.888416 C 23.12289 -18.888416 18.888682 -23.122624 18.888682 -28.346391 C 18.888682 -33.570158 23.12289 -37.804366 28.346657 -37.804366 C 33.570424 -37.804366 37.804632 -33.570158 37.804632 -28.346391 Z M 37.804632 -28.346391 " transform="matrix(0.990814, 0, 0, -0.990814, 64.374675, 13.914)"/>
<g fill="rgb(100%, 100%, 100%)" fill-opacity="1">
<use xlink:href="#glyph-0-3" x="89.149977" y="45.373334"/>
</g>
<path fill="none" stroke-width="0.3985" stroke-linecap="butt" stroke-linejoin="miter" stroke="rgb(0%, 0%, 0%)" stroke-opacity="1" stroke-miterlimit="10" d="M 7.108594 -7.108328 L 21.518306 -21.51804 " transform="matrix(0.990814, 0, 0, -0.990814, 64.374675, 13.914)"/>
<path fill-rule="nonzero" fill="rgb(100%, 0%, 0%)" fill-opacity="1" stroke-width="0.3985" stroke-linecap="butt" stroke-linejoin="miter" stroke="rgb(100%, 0%, 0%)" stroke-opacity="1" stroke-miterlimit="10" d="M 143.34838 -0.0000627274 C 143.34838 5.444482 138.936761 9.856101 133.496159 9.856101 C 128.051614 9.856101 123.639994 5.444482 123.639994 -0.0000627274 C 123.639994 -5.444608 128.051614 -9.856227 133.496159 -9.856227 C 138.936761 -9.856227 143.34838 -5.444608 143.34838 -0.0000627274 Z M 143.34838 -0.0000627274 " transform="matrix(0.990814, 0, 0, -0.990814, 64.374675, 13.914)"/>
<g fill="rgb(100%, 100%, 100%)" fill-opacity="1">
<use xlink:href="#glyph-0-0" x="192.763356" y="17.286731"/>
</g>
<path fill-rule="nonzero" fill="rgb(0%, 0%, 0%)" fill-opacity="1" stroke-width="0.3985" stroke-linecap="butt" stroke-linejoin="miter" stroke="rgb(0%, 0%, 0%)" stroke-opacity="1" stroke-miterlimit="10" d="M 115.017822 -28.346391 C 115.017822 -22.893961 110.598318 -18.474457 105.14983 -18.474457 C 99.6974 -18.474457 95.277896 -22.893961 95.277896 -28.346391 C 95.277896 -33.798821 99.6974 -38.218325 105.14983 -38.218325 C 110.598318 -38.218325 115.017822 -33.798821 115.017822 -28.346391 Z M 115.017822 -28.346391 " transform="matrix(0.990814, 0, 0, -0.990814, 64.374675, 13.914)"/>
<g fill="rgb(100%, 100%, 100%)" fill-opacity="1">
<use xlink:href="#glyph-0-1" x="164.703505" y="45.373334"/>
</g>
<path fill="none" stroke-width="0.3985" stroke-linecap="butt" stroke-linejoin="miter" stroke="rgb(0%, 0%, 0%)" stroke-opacity="1" stroke-miterlimit="10" d="M 126.387893 -7.108328 L 112.269923 -21.226298 " transform="matrix(0.990814, 0, 0, -0.990814, 64.374675, 13.914)"/>
<path fill-rule="nonzero" fill="rgb(100%, 0%, 0%)" fill-opacity="1" d="M 157.6875 70.085938 C 157.6875 64.457031 153.125 59.890625 147.492188 59.890625 C 141.863281 59.890625 137.296875 64.457031 137.296875 70.085938 C 137.296875 75.71875 141.863281 80.28125 147.492188 80.28125 C 153.125 80.28125 157.6875 75.71875 157.6875 70.085938 Z M 157.6875 70.085938 "/>
<g clip-path="url(#clip-1)">
<path fill="none" stroke-width="0.3985" stroke-linecap="butt" stroke-linejoin="miter" stroke="rgb(100%, 0%, 0%)" stroke-opacity="1" stroke-miterlimit="10" d="M 94.177948 -56.692719 C 94.177948 -51.011626 89.573149 -46.402884 83.888113 -46.402884 C 78.20702 -46.402884 73.598278 -51.011626 73.598278 -56.692719 C 73.598278 -62.377755 78.20702 -66.982555 83.888113 -66.982555 C 89.573149 -66.982555 94.177948 -62.377755 94.177948 -56.692719 Z M 94.177948 -56.692719 " transform="matrix(0.990814, 0, 0, -0.990814, 64.374675, 13.914)"/>
</g>
<g fill="rgb(100%, 100%, 100%)" fill-opacity="1">
<use xlink:href="#glyph-0-2" x="143.016569" y="73.459937"/>
</g>
<path fill="none" stroke-width="0.3985" stroke-linecap="butt" stroke-linejoin="miter" stroke="rgb(0%, 0%, 0%)" stroke-opacity="1" stroke-miterlimit="10" d="M 99.106031 -36.400848 L 90.180288 -48.303152 " transform="matrix(0.990814, 0, 0, -0.990814, 64.374675, 13.914)"/>
<path fill-rule="nonzero" fill="rgb(0%, 0%, 0%)" fill-opacity="1" d="M 234.101562 42 C 234.101562 36.824219 229.90625 32.628906 224.730469 32.628906 C 219.554688 32.628906 215.359375 36.824219 215.359375 42 C 215.359375 47.175781 219.554688 51.371094 224.730469 51.371094 C 229.90625 51.371094 234.101562 47.175781 234.101562 42 Z M 234.101562 42 "/>
<g clip-path="url(#clip-2)">
<path fill="none" stroke-width="0.3985" stroke-linecap="butt" stroke-linejoin="miter" stroke="rgb(0%, 0%, 0%)" stroke-opacity="1" stroke-miterlimit="10" d="M 171.300462 -28.346391 C 171.300462 -23.122624 167.066254 -18.888416 161.842487 -18.888416 C 156.61872 -18.888416 152.384512 -23.122624 152.384512 -28.346391 C 152.384512 -33.570158 156.61872 -37.804366 161.842487 -37.804366 C 167.066254 -37.804366 171.300462 -33.570158 171.300462 -28.346391 Z M 171.300462 -28.346391 " transform="matrix(0.990814, 0, 0, -0.990814, 64.374675, 13.914)"/>
</g>
<g fill="rgb(100%, 100%, 100%)" fill-opacity="1">
<use xlink:href="#glyph-0-3" x="221.418686" y="45.373334"/>
</g>
<path fill="none" stroke-width="0.3985" stroke-linecap="butt" stroke-linejoin="miter" stroke="rgb(0%, 0%, 0%)" stroke-opacity="1" stroke-miterlimit="10" d="M 140.604424 -7.108328 L 155.014136 -21.51804 " transform="matrix(0.990814, 0, 0, -0.990814, 64.374675, 13.914)"/>
<path fill="none" stroke-width="1.41731" stroke-linecap="butt" stroke-linejoin="miter" stroke="rgb(0%, 0%, 0%)" stroke-opacity="1" stroke-miterlimit="10" d="M 56.692985 -28.346391 L 70.795185 -28.346391 " transform="matrix(0.990814, 0, 0, -0.990814, 64.374675, 13.914)"/>
<path fill-rule="nonzero" fill="rgb(0%, 0%, 0%)" fill-opacity="1" stroke-width="1.41731" stroke-linecap="butt" stroke-linejoin="miter" stroke="rgb(0%, 0%, 0%)" stroke-opacity="1" stroke-miterlimit="10" d="M 7.347372 0.000409083 L 2.289189 1.92039 L 3.980506 0.000409083 L 2.289189 -1.919572 Z M 7.347372 0.000409083 " transform="matrix(0.990814, 0, 0, -0.990814, 130.927152, 42.000405)"/>
</svg>
