<?xml version="1.0" encoding="UTF-8"?>
<svg xmlns="http://www.w3.org/2000/svg" xmlns:xlink="http://www.w3.org/1999/xlink" width="193.83" height="134.91" viewBox="0 0 193.83 134.91">
<defs>
<g>
<g id="glyph-0-0">
<path d="M 4.65625 -3.703125 C 4.65625 -4.234375 4.40625 -4.40625 4.21875 -4.40625 C 3.96875 -4.40625 3.734375 -4.140625 3.734375 -3.921875 C 3.734375 -3.796875 3.78125 -3.734375 3.890625 -3.625 C 4.09375 -3.421875 4.234375 -3.171875 4.234375 -2.8125 C 4.234375 -2.390625 3.625 -0.109375 2.453125 -0.109375 C 1.953125 -0.109375 1.71875 -0.453125 1.71875 -0.96875 C 1.71875 -1.53125 1.984375 -2.265625 2.296875 -3.078125 C 2.375 -3.25 2.421875 -3.390625 2.421875 -3.578125 C 2.421875 -4.03125 2.09375 -4.40625 1.609375 -4.40625 C 0.671875 -4.40625 0.28125 -2.953125 0.28125 -2.859375 C 0.28125 -2.765625 0.390625 -2.765625 0.40625 -2.765625 C 0.5 -2.765625 0.515625 -2.78125 0.5625 -2.953125 C 0.859375 -3.953125 1.28125 -4.1875 1.578125 -4.1875 C 1.65625 -4.1875 1.828125 -4.1875 1.828125 -3.859375 C 1.828125 -3.609375 1.71875 -3.34375 1.65625 -3.171875 C 1.21875 -2.015625 1.078125 -1.546875 1.078125 -1.125 C 1.078125 -0.046875 1.953125 0.109375 2.421875 0.109375 C 4.09375 0.109375 4.65625 -3.1875 4.65625 -3.703125 Z M 4.65625 -3.703125 "/>
</g>
<g id="glyph-1-0">
<path d="M 2.328125 -4.4375 C 2.328125 -4.625 2.328125 -4.625 2.125 -4.625 C 1.671875 -4.1875 1.046875 -4.1875 0.765625 -4.1875 L 0.765625 -3.9375 C 0.921875 -3.9375 1.390625 -3.9375 1.765625 -4.125 L 1.765625 -0.578125 C 1.765625 -0.34375 1.765625 -0.25 1.078125 -0.25 L 0.8125 -0.25 L 0.8125 0 C 0.9375 0 1.796875 -0.03125 2.046875 -0.03125 C 2.265625 -0.03125 3.140625 0 3.296875 0 L 3.296875 -0.25 L 3.03125 -0.25 C 2.328125 -0.25 2.328125 -0.34375 2.328125 -0.578125 Z M 2.328125 -4.4375 "/>
</g>
<g id="glyph-1-1">
<path d="M 3.515625 -1.265625 L 3.28125 -1.265625 C 3.265625 -1.109375 3.1875 -0.703125 3.09375 -0.640625 C 3.046875 -0.59375 2.515625 -0.59375 2.40625 -0.59375 L 1.125 -0.59375 C 1.859375 -1.234375 2.109375 -1.4375 2.515625 -1.765625 C 3.03125 -2.171875 3.515625 -2.609375 3.515625 -3.265625 C 3.515625 -4.109375 2.78125 -4.625 1.890625 -4.625 C 1.03125 -4.625 0.4375 -4.015625 0.4375 -3.375 C 0.4375 -3.03125 0.734375 -2.984375 0.8125 -2.984375 C 0.96875 -2.984375 1.171875 -3.109375 1.171875 -3.359375 C 1.171875 -3.484375 1.125 -3.734375 0.765625 -3.734375 C 0.984375 -4.21875 1.453125 -4.375 1.78125 -4.375 C 2.484375 -4.375 2.84375 -3.828125 2.84375 -3.265625 C 2.84375 -2.65625 2.40625 -2.1875 2.1875 -1.9375 L 0.515625 -0.265625 C 0.4375 -0.203125 0.4375 -0.1875 0.4375 0 L 3.3125 0 Z M 3.515625 -1.265625 "/>
</g>
<g id="glyph-1-2">
<path d="M 1.90625 -2.328125 C 2.453125 -2.328125 2.84375 -1.953125 2.84375 -1.203125 C 2.84375 -0.34375 2.328125 -0.078125 1.9375 -0.078125 C 1.65625 -0.078125 1.03125 -0.15625 0.75 -0.578125 C 1.078125 -0.578125 1.15625 -0.8125 1.15625 -0.96875 C 1.15625 -1.1875 0.984375 -1.34375 0.765625 -1.34375 C 0.578125 -1.34375 0.375 -1.21875 0.375 -0.9375 C 0.375 -0.28125 1.09375 0.140625 1.9375 0.140625 C 2.90625 0.140625 3.578125 -0.515625 3.578125 -1.203125 C 3.578125 -1.75 3.140625 -2.296875 2.375 -2.453125 C 3.09375 -2.71875 3.359375 -3.234375 3.359375 -3.671875 C 3.359375 -4.21875 2.734375 -4.625 1.953125 -4.625 C 1.1875 -4.625 0.59375 -4.25 0.59375 -3.6875 C 0.59375 -3.453125 0.75 -3.328125 0.953125 -3.328125 C 1.171875 -3.328125 1.3125 -3.484375 1.3125 -3.671875 C 1.3125 -3.875 1.171875 -4.03125 0.953125 -4.046875 C 1.203125 -4.34375 1.671875 -4.421875 1.9375 -4.421875 C 2.25 -4.421875 2.6875 -4.265625 2.6875 -3.671875 C 2.6875 -3.375 2.59375 -3.046875 2.40625 -2.84375 C 2.1875 -2.578125 1.984375 -2.5625 1.640625 -2.53125 C 1.46875 -2.515625 1.453125 -2.515625 1.421875 -2.515625 C 1.40625 -2.515625 1.34375 -2.5 1.34375 -2.421875 C 1.34375 -2.328125 1.40625 -2.328125 1.53125 -2.328125 Z M 1.90625 -2.328125 "/>
</g>
<g id="glyph-1-3">
<path d="M 3.6875 -1.140625 L 3.6875 -1.390625 L 2.90625 -1.390625 L 2.90625 -4.5 C 2.90625 -4.640625 2.90625 -4.703125 2.765625 -4.703125 C 2.671875 -4.703125 2.640625 -4.703125 2.578125 -4.59375 L 0.265625 -1.390625 L 0.265625 -1.140625 L 2.328125 -1.140625 L 2.328125 -0.578125 C 2.328125 -0.328125 2.328125 -0.25 1.75 -0.25 L 1.5625 -0.25 L 1.5625 0 C 1.921875 -0.015625 2.359375 -0.03125 2.609375 -0.03125 C 2.875 -0.03125 3.3125 -0.015625 3.671875 0 L 3.671875 -0.25 L 3.484375 -0.25 C 2.90625 -0.25 2.90625 -0.328125 2.90625 -0.578125 L 2.90625 -1.140625 Z M 2.375 -3.9375 L 2.375 -1.390625 L 0.53125 -1.390625 Z M 2.375 -3.9375 "/>
</g>
<g id="glyph-1-4">
<path d="M 1.078125 -3.890625 C 1.4375 -3.796875 1.640625 -3.796875 1.75 -3.796875 C 2.671875 -3.796875 3.21875 -4.421875 3.21875 -4.53125 C 3.21875 -4.609375 3.171875 -4.625 3.140625 -4.625 C 3.125 -4.625 3.109375 -4.625 3.078125 -4.609375 C 2.90625 -4.546875 2.546875 -4.40625 2.03125 -4.40625 C 1.828125 -4.40625 1.46875 -4.421875 1.015625 -4.59375 C 0.9375 -4.625 0.921875 -4.625 0.921875 -4.625 C 0.828125 -4.625 0.828125 -4.546875 0.828125 -4.4375 L 0.828125 -2.390625 C 0.828125 -2.265625 0.828125 -2.1875 0.9375 -2.1875 C 1 -2.1875 1.015625 -2.1875 1.078125 -2.28125 C 1.375 -2.65625 1.8125 -2.71875 2.046875 -2.71875 C 2.46875 -2.71875 2.65625 -2.390625 2.6875 -2.328125 C 2.8125 -2.09375 2.859375 -1.828125 2.859375 -1.421875 C 2.859375 -1.21875 2.859375 -0.8125 2.640625 -0.5 C 2.46875 -0.25 2.171875 -0.078125 1.828125 -0.078125 C 1.375 -0.078125 0.90625 -0.328125 0.734375 -0.796875 C 1 -0.78125 1.140625 -0.953125 1.140625 -1.140625 C 1.140625 -1.4375 0.875 -1.484375 0.78125 -1.484375 C 0.78125 -1.484375 0.4375 -1.484375 0.4375 -1.109375 C 0.4375 -0.484375 1.015625 0.140625 1.84375 0.140625 C 2.734375 0.140625 3.515625 -0.515625 3.515625 -1.40625 C 3.515625 -2.1875 2.921875 -2.90625 2.0625 -2.90625 C 1.75 -2.90625 1.390625 -2.84375 1.078125 -2.578125 Z M 1.078125 -3.890625 "/>
</g>
<g id="glyph-1-5">
<path d="M 1.046875 -2.28125 C 1.046875 -2.84375 1.09375 -3.359375 1.359375 -3.796875 C 1.59375 -4.171875 1.96875 -4.421875 2.421875 -4.421875 C 2.625 -4.421875 2.90625 -4.375 3.046875 -4.1875 C 2.875 -4.171875 2.71875 -4.046875 2.71875 -3.84375 C 2.71875 -3.671875 2.84375 -3.515625 3.046875 -3.515625 C 3.265625 -3.515625 3.390625 -3.65625 3.390625 -3.859375 C 3.390625 -4.265625 3.09375 -4.625 2.40625 -4.625 C 1.40625 -4.625 0.375 -3.703125 0.375 -2.203125 C 0.375 -0.40625 1.21875 0.140625 2 0.140625 C 2.84375 0.140625 3.578125 -0.515625 3.578125 -1.421875 C 3.578125 -2.3125 2.875 -2.96875 2.0625 -2.96875 C 1.5 -2.96875 1.203125 -2.59375 1.046875 -2.28125 Z M 2 -0.078125 C 1.640625 -0.078125 1.375 -0.28125 1.21875 -0.59375 C 1.125 -0.796875 1.0625 -1.15625 1.0625 -1.5625 C 1.0625 -2.25 1.46875 -2.765625 2.03125 -2.765625 C 2.34375 -2.765625 2.5625 -2.640625 2.734375 -2.390625 C 2.90625 -2.125 2.90625 -1.828125 2.90625 -1.421875 C 2.90625 -1.03125 2.90625 -0.734375 2.71875 -0.453125 C 2.5625 -0.21875 2.328125 -0.078125 2 -0.078125 Z M 2 -0.078125 "/>
</g>
<g id="glyph-1-6">
<path d="M 3.734375 -4.203125 C 3.796875 -4.296875 3.796875 -4.3125 3.796875 -4.484375 L 1.96875 -4.484375 C 1.6875 -4.484375 1.609375 -4.5 1.359375 -4.515625 C 1 -4.546875 0.984375 -4.59375 0.96875 -4.703125 L 0.734375 -4.703125 L 0.484375 -3.21875 L 0.71875 -3.21875 C 0.734375 -3.328125 0.8125 -3.78125 0.921875 -3.859375 C 0.96875 -3.890625 1.546875 -3.890625 1.640625 -3.890625 L 3.15625 -3.890625 C 2.9375 -3.609375 2.578125 -3.171875 2.4375 -2.96875 C 1.53125 -1.78125 1.4375 -0.671875 1.4375 -0.265625 C 1.4375 -0.1875 1.4375 0.140625 1.765625 0.140625 C 2.109375 0.140625 2.109375 -0.171875 2.109375 -0.265625 L 2.109375 -0.546875 C 2.109375 -1.890625 2.390625 -2.515625 2.6875 -2.890625 Z M 3.734375 -4.203125 "/>
</g>
<g id="glyph-2-0">
<path d="M 1.265625 -0.765625 L 2.3125 -1.796875 C 3.875 -3.171875 4.46875 -3.703125 4.46875 -4.703125 C 4.46875 -5.828125 3.578125 -6.625 2.359375 -6.625 C 1.234375 -6.625 0.5 -5.71875 0.5 -4.828125 C 0.5 -4.265625 1 -4.265625 1.03125 -4.265625 C 1.1875 -4.265625 1.546875 -4.390625 1.546875 -4.796875 C 1.546875 -5.0625 1.359375 -5.3125 1.015625 -5.3125 C 0.9375 -5.3125 0.921875 -5.3125 0.890625 -5.3125 C 1.109375 -5.953125 1.65625 -6.3125 2.234375 -6.3125 C 3.140625 -6.3125 3.5625 -5.515625 3.5625 -4.703125 C 3.5625 -3.90625 3.0625 -3.109375 2.515625 -2.5 L 0.609375 -0.375 C 0.5 -0.265625 0.5 -0.234375 0.5 0 L 4.1875 0 L 4.46875 -1.734375 L 4.21875 -1.734375 C 4.171875 -1.4375 4.09375 -1 4 -0.84375 C 3.9375 -0.765625 3.28125 -0.765625 3.0625 -0.765625 Z M 1.265625 -0.765625 "/>
</g>
<g id="glyph-2-1">
<path d="M 2.921875 -6.375 C 2.921875 -6.609375 2.921875 -6.625 2.703125 -6.625 C 2.078125 -5.984375 1.203125 -5.984375 0.890625 -5.984375 L 0.890625 -5.6875 C 1.078125 -5.6875 1.671875 -5.6875 2.1875 -5.9375 L 2.1875 -0.78125 C 2.1875 -0.421875 2.15625 -0.3125 1.265625 -0.3125 L 0.953125 -0.3125 L 0.953125 0 C 1.296875 -0.03125 2.15625 -0.03125 2.5625 -0.03125 C 2.953125 -0.03125 3.828125 -0.03125 4.171875 0 L 4.171875 -0.3125 L 3.859375 -0.3125 C 2.953125 -0.3125 2.921875 -0.421875 2.921875 -0.78125 Z M 2.921875 -6.375 "/>
</g>
<g id="glyph-2-2">
<path d="M 2.890625 -3.5 C 3.703125 -3.765625 4.28125 -4.46875 4.28125 -5.25 C 4.28125 -6.078125 3.40625 -6.625 2.453125 -6.625 C 1.4375 -6.625 0.6875 -6.03125 0.6875 -5.28125 C 0.6875 -4.953125 0.90625 -4.75 1.1875 -4.75 C 1.5 -4.75 1.703125 -4.96875 1.703125 -5.265625 C 1.703125 -5.765625 1.234375 -5.765625 1.078125 -5.765625 C 1.390625 -6.25 2.046875 -6.375 2.40625 -6.375 C 2.8125 -6.375 3.359375 -6.15625 3.359375 -5.265625 C 3.359375 -5.140625 3.34375 -4.5625 3.078125 -4.125 C 2.78125 -3.65625 2.453125 -3.625 2.203125 -3.609375 C 2.125 -3.609375 1.875 -3.578125 1.8125 -3.578125 C 1.734375 -3.578125 1.65625 -3.5625 1.65625 -3.46875 C 1.65625 -3.359375 1.734375 -3.359375 1.90625 -3.359375 L 2.34375 -3.359375 C 3.15625 -3.359375 3.515625 -2.671875 3.515625 -1.703125 C 3.515625 -0.34375 2.84375 -0.0625 2.40625 -0.0625 C 1.96875 -0.0625 1.21875 -0.234375 0.875 -0.8125 C 1.21875 -0.765625 1.53125 -0.984375 1.53125 -1.359375 C 1.53125 -1.71875 1.265625 -1.921875 0.96875 -1.921875 C 0.734375 -1.921875 0.421875 -1.78125 0.421875 -1.34375 C 0.421875 -0.4375 1.34375 0.21875 2.421875 0.21875 C 3.640625 0.21875 4.546875 -0.6875 4.546875 -1.703125 C 4.546875 -2.515625 3.921875 -3.296875 2.890625 -3.5 Z M 2.890625 -3.5 "/>
</g>
<g id="glyph-2-3">
<path d="M 4.578125 -3.1875 C 4.578125 -3.984375 4.53125 -4.78125 4.1875 -5.515625 C 3.71875 -6.46875 2.90625 -6.625 2.484375 -6.625 C 1.890625 -6.625 1.171875 -6.375 0.75 -5.4375 C 0.4375 -4.75 0.390625 -3.984375 0.390625 -3.1875 C 0.390625 -2.4375 0.421875 -1.546875 0.84375 -0.78125 C 1.265625 0.015625 1.984375 0.21875 2.484375 0.21875 C 3.015625 0.21875 3.765625 0.015625 4.203125 -0.9375 C 4.53125 -1.625 4.578125 -2.40625 4.578125 -3.1875 Z M 2.484375 0 C 2.09375 0 1.5 -0.25 1.328125 -1.203125 C 1.21875 -1.796875 1.21875 -2.71875 1.21875 -3.296875 C 1.21875 -3.9375 1.21875 -4.59375 1.296875 -5.140625 C 1.484375 -6.3125 2.234375 -6.40625 2.484375 -6.40625 C 2.8125 -6.40625 3.46875 -6.234375 3.65625 -5.25 C 3.75 -4.6875 3.75 -3.9375 3.75 -3.296875 C 3.75 -2.5625 3.75 -1.875 3.640625 -1.25 C 3.5 -0.296875 2.921875 0 2.484375 0 Z M 2.484375 0 "/>
</g>
<g id="glyph-2-4">
<path d="M 2.921875 -1.640625 L 2.921875 -0.78125 C 2.921875 -0.421875 2.90625 -0.3125 2.171875 -0.3125 L 1.953125 -0.3125 L 1.953125 0 C 2.375 -0.03125 2.890625 -0.03125 3.296875 -0.03125 C 3.71875 -0.03125 4.25 -0.03125 4.65625 0 L 4.65625 -0.3125 L 4.453125 -0.3125 C 3.71875 -0.3125 3.6875 -0.421875 3.6875 -0.78125 L 3.6875 -1.640625 L 4.6875 -1.640625 L 4.6875 -1.953125 L 3.6875 -1.953125 L 3.6875 -6.484375 C 3.6875 -6.671875 3.6875 -6.734375 3.53125 -6.734375 C 3.4375 -6.734375 3.40625 -6.734375 3.328125 -6.625 L 0.28125 -1.953125 L 0.28125 -1.640625 Z M 2.984375 -1.953125 L 0.5625 -1.953125 L 2.984375 -5.65625 Z M 2.984375 -1.953125 "/>
</g>
<g id="glyph-2-5">
<path d="M 4.46875 -2 C 4.46875 -3.1875 3.65625 -4.1875 2.578125 -4.1875 C 2.09375 -4.1875 1.671875 -4.015625 1.3125 -3.671875 L 1.3125 -5.609375 C 1.515625 -5.546875 1.84375 -5.484375 2.15625 -5.484375 C 3.390625 -5.484375 4.078125 -6.390625 4.078125 -6.515625 C 4.078125 -6.578125 4.046875 -6.625 3.984375 -6.625 C 3.96875 -6.625 3.953125 -6.625 3.90625 -6.59375 C 3.703125 -6.515625 3.21875 -6.3125 2.546875 -6.3125 C 2.15625 -6.3125 1.6875 -6.375 1.21875 -6.59375 C 1.140625 -6.625 1.125 -6.625 1.109375 -6.625 C 1 -6.625 1 -6.546875 1 -6.375 L 1 -3.4375 C 1 -3.25 1 -3.171875 1.140625 -3.171875 C 1.21875 -3.171875 1.234375 -3.203125 1.28125 -3.265625 C 1.390625 -3.421875 1.75 -3.96875 2.5625 -3.96875 C 3.078125 -3.96875 3.328125 -3.5 3.40625 -3.328125 C 3.5625 -2.953125 3.578125 -2.5625 3.578125 -2.0625 C 3.578125 -1.71875 3.578125 -1.125 3.34375 -0.703125 C 3.109375 -0.3125 2.734375 -0.0625 2.28125 -0.0625 C 1.546875 -0.0625 0.984375 -0.59375 0.8125 -1.171875 C 0.84375 -1.171875 0.875 -1.15625 0.984375 -1.15625 C 1.3125 -1.15625 1.484375 -1.40625 1.484375 -1.640625 C 1.484375 -1.875 1.3125 -2.125 0.984375 -2.125 C 0.84375 -2.125 0.5 -2.0625 0.5 -1.609375 C 0.5 -0.75 1.1875 0.21875 2.296875 0.21875 C 3.453125 0.21875 4.46875 -0.734375 4.46875 -2 Z M 4.46875 -2 "/>
</g>
<g id="glyph-2-6">
<path d="M 1.625 -4.546875 C 1.171875 -4.84375 1.125 -5.1875 1.125 -5.359375 C 1.125 -5.96875 1.765625 -6.375 2.484375 -6.375 C 3.203125 -6.375 3.84375 -5.859375 3.84375 -5.140625 C 3.84375 -4.578125 3.453125 -4.09375 2.859375 -3.75 Z M 3.078125 -3.609375 C 3.796875 -3.96875 4.28125 -4.484375 4.28125 -5.140625 C 4.28125 -6.0625 3.390625 -6.625 2.484375 -6.625 C 1.5 -6.625 0.6875 -5.890625 0.6875 -4.96875 C 0.6875 -4.78125 0.703125 -4.34375 1.125 -3.875 C 1.234375 -3.75 1.609375 -3.5 1.84375 -3.328125 C 1.28125 -3.046875 0.421875 -2.484375 0.421875 -1.5 C 0.421875 -0.453125 1.4375 0.21875 2.484375 0.21875 C 3.609375 0.21875 4.546875 -0.609375 4.546875 -1.671875 C 4.546875 -2.03125 4.4375 -2.484375 4.0625 -2.890625 C 3.875 -3.109375 3.71875 -3.203125 3.078125 -3.609375 Z M 2.078125 -3.1875 L 3.296875 -2.40625 C 3.578125 -2.21875 4.046875 -1.921875 4.046875 -1.3125 C 4.046875 -0.578125 3.296875 -0.0625 2.484375 -0.0625 C 1.625 -0.0625 0.921875 -0.671875 0.921875 -1.5 C 0.921875 -2.078125 1.234375 -2.71875 2.078125 -3.1875 Z M 2.078125 -3.1875 "/>
</g>
<g id="glyph-2-7">
<path d="M 1.3125 -3.265625 L 1.3125 -3.5 C 1.3125 -6.015625 2.546875 -6.375 3.0625 -6.375 C 3.296875 -6.375 3.71875 -6.3125 3.9375 -5.984375 C 3.78125 -5.984375 3.390625 -5.984375 3.390625 -5.53125 C 3.390625 -5.21875 3.625 -5.078125 3.84375 -5.078125 C 4 -5.078125 4.296875 -5.171875 4.296875 -5.546875 C 4.296875 -6.15625 3.859375 -6.625 3.03125 -6.625 C 1.765625 -6.625 0.421875 -5.34375 0.421875 -3.140625 C 0.421875 -0.484375 1.578125 0.21875 2.5 0.21875 C 3.609375 0.21875 4.546875 -0.71875 4.546875 -2.03125 C 4.546875 -3.296875 3.65625 -4.25 2.5625 -4.25 C 1.875 -4.25 1.515625 -3.75 1.3125 -3.265625 Z M 2.5 -0.0625 C 1.875 -0.0625 1.578125 -0.65625 1.515625 -0.8125 C 1.328125 -1.28125 1.328125 -2.0625 1.328125 -2.25 C 1.328125 -3.03125 1.65625 -4.015625 2.546875 -4.015625 C 2.703125 -4.015625 3.171875 -4.015625 3.46875 -3.40625 C 3.65625 -3.03125 3.65625 -2.53125 3.65625 -2.046875 C 3.65625 -1.5625 3.65625 -1.0625 3.484375 -0.703125 C 3.1875 -0.109375 2.734375 -0.0625 2.5 -0.0625 Z M 2.5 -0.0625 "/>
</g>
</g>
<clipPath id="clip-0">
<path clip-rule="nonzero" d="M 166 51 L 193.660156 51 L 193.660156 83 L 166 83 Z M 166 51 "/>
</clipPath>
</defs>
<path fill="none" stroke-width="0.59776" stroke-linecap="butt" stroke-linejoin="miter" stroke="rgb(0%, 0%, 0%)" stroke-opacity="1" stroke-miterlimit="10" d="M 7.086898 -0.000799567 C 7.086898 3.912786 3.912241 7.087443 -0.00134483 7.087443 C -3.914931 7.087443 -7.085678 3.912786 -7.085678 -0.000799567 C -7.085678 -3.914385 -3.914931 -7.085132 -0.00134483 -7.085132 C 3.912241 -7.085132 7.086898 -3.914385 7.086898 -0.000799567 Z M 7.086898 -0.000799567 " transform="matrix(0.999124, 0, 0, -0.999124, 61.427125, 17.342951)"/>
<g fill="rgb(0%, 0%, 0%)" fill-opacity="1">
<use xlink:href="#glyph-0-0" x="56.782199" y="18.739726"/>
</g>
<g fill="rgb(0%, 0%, 0%)" fill-opacity="1">
<use xlink:href="#glyph-1-0" x="61.606967" y="20.233416"/>
</g>
<path fill="none" stroke-width="0.59776" stroke-linecap="butt" stroke-linejoin="miter" stroke="rgb(0%, 0%, 0%)" stroke-opacity="1" stroke-miterlimit="10" d="M 77.953685 -0.000799567 C 77.953685 3.912786 74.779028 7.087443 70.865442 7.087443 C 66.951857 7.087443 63.78111 3.912786 63.78111 -0.000799567 C 63.78111 -3.914385 66.951857 -7.085132 70.865442 -7.085132 C 74.779028 -7.085132 77.953685 -3.914385 77.953685 -0.000799567 Z M 77.953685 -0.000799567 " transform="matrix(0.999124, 0, 0, -0.999124, 61.427125, 17.342951)"/>
<g fill="rgb(0%, 0%, 0%)" fill-opacity="1">
<use xlink:href="#glyph-0-0" x="127.587099" y="18.739726"/>
</g>
<g fill="rgb(0%, 0%, 0%)" fill-opacity="1">
<use xlink:href="#glyph-1-1" x="132.411867" y="20.233416"/>
</g>
<path fill="none" stroke-width="0.59776" stroke-linecap="butt" stroke-linejoin="miter" stroke="rgb(0%, 0%, 0%)" stroke-opacity="1" stroke-miterlimit="10" d="M -43.02342 -50.111117 C -43.02342 -46.197531 -46.198076 -43.022874 -50.111662 -43.022874 C -54.025248 -43.022874 -57.195995 -46.197531 -57.195995 -50.111117 C -57.195995 -54.024703 -54.025248 -57.19545 -50.111662 -57.19545 C -46.198076 -57.19545 -43.02342 -54.024703 -43.02342 -50.111117 Z M -43.02342 -50.111117 " transform="matrix(0.999124, 0, 0, -0.999124, 61.427125, 17.342951)"/>
<g fill="rgb(0%, 0%, 0%)" fill-opacity="1">
<use xlink:href="#glyph-0-0" x="6.71511" y="68.805815"/>
</g>
<g fill="rgb(0%, 0%, 0%)" fill-opacity="1">
<use xlink:href="#glyph-1-2" x="11.539879" y="70.299505"/>
</g>
<path fill="none" stroke-width="0.59776" stroke-linecap="butt" stroke-linejoin="miter" stroke="rgb(0%, 0%, 0%)" stroke-opacity="1" stroke-miterlimit="10" d="M 57.197215 -50.111117 C 57.197215 -46.197531 54.026468 -43.022874 50.108973 -43.022874 C 46.195387 -43.022874 43.02464 -46.197531 43.02464 -50.111117 C 43.02464 -54.024703 46.195387 -57.19545 50.108973 -57.19545 C 54.026468 -57.19545 57.197215 -54.024703 57.197215 -50.111117 Z M 57.197215 -50.111117 " transform="matrix(0.999124, 0, 0, -0.999124, 61.427125, 17.342951)"/>
<g fill="rgb(0%, 0%, 0%)" fill-opacity="1">
<use xlink:href="#glyph-0-0" x="106.848288" y="68.805815"/>
</g>
<g fill="rgb(0%, 0%, 0%)" fill-opacity="1">
<use xlink:href="#glyph-1-3" x="111.673056" y="70.299505"/>
</g>
<g clip-path="url(#clip-0)">
<path fill="none" stroke-width="0.59776" stroke-linecap="butt" stroke-linejoin="miter" stroke="rgb(0%, 0%, 0%)" stroke-opacity="1" stroke-miterlimit="10" d="M 128.064002 -50.111117 C 128.064002 -46.197531 124.893255 -43.022874 120.97576 -43.022874 C 117.062174 -43.022874 113.891427 -46.197531 113.891427 -50.111117 C 113.891427 -54.024703 117.062174 -57.19545 120.97576 -57.19545 C 124.893255 -57.19545 128.064002 -54.024703 128.064002 -50.111117 Z M 128.064002 -50.111117 " transform="matrix(0.999124, 0, 0, -0.999124, 61.427125, 17.342951)"/>
</g>
<g fill="rgb(0%, 0%, 0%)" fill-opacity="1">
<use xlink:href="#glyph-0-0" x="177.653188" y="68.805815"/>
</g>
<g fill="rgb(0%, 0%, 0%)" fill-opacity="1">
<use xlink:href="#glyph-1-4" x="182.477956" y="70.299505"/>
</g>
<path fill="none" stroke-width="0.59776" stroke-linecap="butt" stroke-linejoin="miter" stroke="rgb(0%, 0%, 0%)" stroke-opacity="1" stroke-miterlimit="10" d="M 7.086898 -100.221434 C 7.086898 -96.307849 3.912241 -93.133192 -0.00134483 -93.133192 C -3.914931 -93.133192 -7.085678 -96.307849 -7.085678 -100.221434 C -7.085678 -104.13502 -3.914931 -107.309677 -0.00134483 -107.309677 C 3.912241 -107.309677 7.086898 -104.13502 7.086898 -100.221434 Z M 7.086898 -100.221434 " transform="matrix(0.999124, 0, 0, -0.999124, 61.427125, 17.342951)"/>
<g fill="rgb(0%, 0%, 0%)" fill-opacity="1">
<use xlink:href="#glyph-0-0" x="56.782199" y="118.872904"/>
</g>
<g fill="rgb(0%, 0%, 0%)" fill-opacity="1">
<use xlink:href="#glyph-1-5" x="61.606967" y="120.366594"/>
</g>
<path fill="none" stroke-width="0.59776" stroke-linecap="butt" stroke-linejoin="miter" stroke="rgb(0%, 0%, 0%)" stroke-opacity="1" stroke-miterlimit="10" d="M 107.307532 -100.221434 C 107.307532 -96.307849 104.136785 -93.133192 100.21929 -93.133192 C 96.305704 -93.133192 93.134957 -96.307849 93.134957 -100.221434 C 93.134957 -104.13502 96.305704 -107.309677 100.21929 -107.309677 C 104.136785 -107.309677 107.307532 -104.13502 107.307532 -100.221434 Z M 107.307532 -100.221434 " transform="matrix(0.999124, 0, 0, -0.999124, 61.427125, 17.342951)"/>
<g fill="rgb(0%, 0%, 0%)" fill-opacity="1">
<use xlink:href="#glyph-0-0" x="156.915376" y="118.872904"/>
</g>
<g fill="rgb(0%, 0%, 0%)" fill-opacity="1">
<use xlink:href="#glyph-1-6" x="161.740145" y="120.366594"/>
</g>
<path fill="none" stroke-width="0.59776" stroke-linecap="butt" stroke-linejoin="miter" stroke="rgb(0%, 0%, 0%)" stroke-opacity="1" stroke-miterlimit="10" d="M 7.384033 -0.000799567 L 61.767626 -0.000799567 " transform="matrix(0.999124, 0, 0, -0.999124, 61.427125, 17.342951)"/>
<path fill-rule="nonzero" fill="rgb(0%, 0%, 0%)" fill-opacity="1" stroke-width="0.59776" stroke-linecap="butt" stroke-linejoin="round" stroke="rgb(0%, 0%, 0%)" stroke-opacity="1" stroke-miterlimit="10" d="M 0.914611 -0.000799567 C -0.230925 0.229871 -1.37646 0.687303 -2.748756 1.488787 C -1.37646 0.456633 -1.37646 -0.458232 -2.748756 -1.490386 C -1.37646 -0.688903 -0.230925 -0.227561 0.914611 -0.000799567 Z M 0.914611 -0.000799567 " transform="matrix(0.999124, 0, 0, -0.999124, 123.140878, 17.342951)"/>
<g fill="rgb(0%, 0%, 0%)" fill-opacity="1">
<use xlink:href="#glyph-2-0" x="94.341257" y="13.727122"/>
</g>
<path fill="none" stroke-width="0.59776" stroke-linecap="butt" stroke-linejoin="miter" stroke="rgb(0%, 0%, 0%)" stroke-opacity="1" stroke-miterlimit="10" d="M 5.221982 -5.224127 L 43.677555 -43.67579 " transform="matrix(0.999124, 0, 0, -0.999124, 61.427125, 17.342951)"/>
<path fill-rule="nonzero" fill="rgb(0%, 0%, 0%)" fill-opacity="1" stroke-width="0.59776" stroke-linecap="butt" stroke-linejoin="round" stroke="rgb(0%, 0%, 0%)" stroke-opacity="1" stroke-miterlimit="10" d="M 0.918044 0.00124826 C -0.229259 0.230709 -1.376561 0.686865 -2.747795 1.488595 C -1.373797 0.457405 -1.376561 -0.457673 -2.75056 -1.488863 C -1.373797 -0.687133 -0.229259 -0.228212 0.918044 0.00124826 Z M 0.918044 0.00124826 " transform="matrix(0.70648, 0.70648, 0.70648, -0.70648, 105.065382, 60.981208)"/>
<g fill="rgb(0%, 0%, 0%)" fill-opacity="1">
<use xlink:href="#glyph-2-1" x="90.076997" y="38.760167"/>
</g>
<path fill="none" stroke-width="0.59776" stroke-linecap="butt" stroke-linejoin="miter" stroke="rgb(0%, 0%, 0%)" stroke-opacity="1" stroke-miterlimit="10" d="M 68.042656 -6.823184 L 53.592494 -41.705314 " transform="matrix(0.999124, 0, 0, -0.999124, 61.427125, 17.342951)"/>
<path fill-rule="nonzero" fill="rgb(0%, 0%, 0%)" fill-opacity="1" stroke-width="0.59776" stroke-linecap="butt" stroke-linejoin="round" stroke="rgb(0%, 0%, 0%)" stroke-opacity="1" stroke-miterlimit="10" d="M 0.915603 -0.00161533 C -0.230112 0.230566 -1.375659 0.687116 -2.749059 1.489417 C -1.374332 0.459136 -1.374752 -0.459389 -2.750489 -1.490525 C -1.373425 -0.687369 -0.229574 -0.230502 0.915603 -0.00161533 Z M 0.915603 -0.00161533 " transform="matrix(-0.382325, 0.92302, 0.92302, 0.382325, 114.972642, 59.010966)"/>
<g fill="rgb(0%, 0%, 0%)" fill-opacity="1">
<use xlink:href="#glyph-2-2" x="125.478948" y="52.407198"/>
</g>
<path fill="none" stroke-width="0.59776" stroke-linecap="butt" stroke-linejoin="miter" stroke="rgb(0%, 0%, 0%)" stroke-opacity="1" stroke-miterlimit="10" d="M 76.08877 -5.224127 L 114.544343 -43.67579 " transform="matrix(0.999124, 0, 0, -0.999124, 61.427125, 17.342951)"/>
<path fill-rule="nonzero" fill="rgb(0%, 0%, 0%)" fill-opacity="1" stroke-width="0.59776" stroke-linecap="butt" stroke-linejoin="round" stroke="rgb(0%, 0%, 0%)" stroke-opacity="1" stroke-miterlimit="10" d="M 0.917873 0.00107661 C -0.22943 0.230537 -1.376733 0.686694 -2.747967 1.488423 C -1.373968 0.457233 -1.376733 -0.457844 -2.750732 -1.489035 C -1.373968 -0.687305 -0.22943 -0.228384 0.917873 0.00107661 Z M 0.917873 0.00107661 " transform="matrix(0.70648, 0.70648, 0.70648, -0.70648, 175.870312, 60.981208)"/>
<g fill="rgb(0%, 0%, 0%)" fill-opacity="1">
<use xlink:href="#glyph-2-1" x="160.881897" y="38.760167"/>
<use xlink:href="#glyph-2-3" x="165.858832" y="38.760167"/>
</g>
<path fill="none" stroke-width="0.59776" stroke-linecap="butt" stroke-linejoin="miter" stroke="rgb(0%, 0%, 0%)" stroke-opacity="1" stroke-miterlimit="10" d="M -44.888335 -44.88779 L -6.432762 -6.432217 " transform="matrix(0.999124, 0, 0, -0.999124, 61.427125, 17.342951)"/>
<path fill-rule="nonzero" fill="rgb(0%, 0%, 0%)" fill-opacity="1" stroke-width="0.59776" stroke-linecap="butt" stroke-linejoin="round" stroke="rgb(0%, 0%, 0%)" stroke-opacity="1" stroke-miterlimit="10" d="M 0.914563 0.00038556 C -0.227211 0.229846 -1.374514 0.686003 -2.748512 1.490497 C -1.374514 0.459307 -1.374514 -0.458536 -2.748512 -1.489726 C -1.374514 -0.685232 -0.227211 -0.229075 0.914563 0.00038556 Z M 0.914563 0.00038556 " transform="matrix(0.70648, -0.70648, -0.70648, -0.70648, 54.998683, 23.771393)"/>
<g fill="rgb(0%, 0%, 0%)" fill-opacity="1">
<use xlink:href="#glyph-2-4" x="27.800617" y="38.760167"/>
</g>
<path fill="none" stroke-width="0.59776" stroke-linecap="butt" stroke-linejoin="miter" stroke="rgb(0%, 0%, 0%)" stroke-opacity="1" stroke-miterlimit="10" d="M -44.888335 -55.334444 L -6.432762 -93.786108 " transform="matrix(0.999124, 0, 0, -0.999124, 61.427125, 17.342951)"/>
<path fill-rule="nonzero" fill="rgb(0%, 0%, 0%)" fill-opacity="1" stroke-width="0.59776" stroke-linecap="butt" stroke-linejoin="round" stroke="rgb(0%, 0%, 0%)" stroke-opacity="1" stroke-miterlimit="10" d="M 0.91528 -0.00110246 C -0.229259 0.231123 -1.376561 0.687279 -2.747795 1.489009 C -1.373797 0.457819 -1.376561 -0.457259 -2.75056 -1.488449 C -1.373797 -0.68672 -0.229259 -0.227798 0.91528 -0.00110246 Z M 0.91528 -0.00110246 " transform="matrix(0.70648, 0.70648, 0.70648, -0.70648, 54.998683, 111.047907)"/>
<g fill="rgb(0%, 0%, 0%)" fill-opacity="1">
<use xlink:href="#glyph-2-5" x="40.009909" y="88.826256"/>
</g>
<path fill="none" stroke-width="0.59776" stroke-linecap="butt" stroke-linejoin="miter" stroke="rgb(0%, 0%, 0%)" stroke-opacity="1" stroke-miterlimit="10" d="M 42.723595 -50.111117 L -41.009936 -50.111117 " transform="matrix(0.999124, 0, 0, -0.999124, 61.427125, 17.342951)"/>
<path fill-rule="nonzero" fill="rgb(0%, 0%, 0%)" fill-opacity="1" stroke-width="0.59776" stroke-linecap="butt" stroke-linejoin="round" stroke="rgb(0%, 0%, 0%)" stroke-opacity="1" stroke-miterlimit="10" d="M 0.91727 0.000506919 C -0.228265 0.227268 -1.3738 0.68861 -2.750006 1.490093 C -1.3738 0.457939 -1.3738 -0.456925 -2.750006 -1.48908 C -1.3738 -0.687596 -0.228265 -0.230164 0.91727 0.000506919 Z M 0.91727 0.000506919 " transform="matrix(-0.999124, 0, 0, 0.999124, 20.451623, 67.40965)"/>
<g fill="rgb(0%, 0%, 0%)" fill-opacity="1">
<use xlink:href="#glyph-2-0" x="58.938308" y="77.441241"/>
</g>
<path fill="none" stroke-width="0.59776" stroke-linecap="butt" stroke-linejoin="miter" stroke="rgb(0%, 0%, 0%)" stroke-opacity="1" stroke-miterlimit="10" d="M 57.494351 -50.111117 L 111.877944 -50.111117 " transform="matrix(0.999124, 0, 0, -0.999124, 61.427125, 17.342951)"/>
<path fill-rule="nonzero" fill="rgb(0%, 0%, 0%)" fill-opacity="1" stroke-width="0.59776" stroke-linecap="butt" stroke-linejoin="round" stroke="rgb(0%, 0%, 0%)" stroke-opacity="1" stroke-miterlimit="10" d="M 0.918218 -0.000506919 C -0.227317 0.230164 -1.376762 0.687596 -2.749059 1.48908 C -1.376762 0.456925 -1.376762 -0.457939 -2.749059 -1.490093 C -1.376762 -0.68861 -0.227317 -0.227268 0.918218 -0.000506919 Z M 0.918218 -0.000506919 " transform="matrix(0.999124, 0, 0, -0.999124, 173.207587, 67.40965)"/>
<g fill="rgb(0%, 0%, 0%)" fill-opacity="1">
<use xlink:href="#glyph-2-0" x="144.407346" y="63.793212"/>
</g>
<path fill="none" stroke-width="0.59776" stroke-linecap="butt" stroke-linejoin="miter" stroke="rgb(0%, 0%, 0%)" stroke-opacity="1" stroke-miterlimit="10" d="M 44.889555 -55.334444 L 6.433982 -93.786108 " transform="matrix(0.999124, 0, 0, -0.999124, 61.427125, 17.342951)"/>
<path fill-rule="nonzero" fill="rgb(0%, 0%, 0%)" fill-opacity="1" stroke-width="0.59776" stroke-linecap="butt" stroke-linejoin="round" stroke="rgb(0%, 0%, 0%)" stroke-opacity="1" stroke-miterlimit="10" d="M 0.917182 -0.000799429 C -0.230121 0.228661 -1.374659 0.687582 -2.751423 1.489312 C -1.377424 0.458122 -1.374659 -0.456956 -2.748658 -1.488146 C -1.374659 -0.689181 -0.230121 -0.23026 0.917182 -0.000799429 Z M 0.917182 -0.000799429 " transform="matrix(-0.70648, 0.70648, 0.70648, 0.70648, 67.855567, 111.047907)"/>
<g fill="rgb(0%, 0%, 0%)" fill-opacity="1">
<use xlink:href="#glyph-2-6" x="90.076997" y="102.474286"/>
</g>
<path fill="none" stroke-width="0.59776" stroke-linecap="butt" stroke-linejoin="miter" stroke="rgb(0%, 0%, 0%)" stroke-opacity="1" stroke-miterlimit="10" d="M 55.3323 -55.334444 L 93.787873 -93.786108 " transform="matrix(0.999124, 0, 0, -0.999124, 61.427125, 17.342951)"/>
<path fill-rule="nonzero" fill="rgb(0%, 0%, 0%)" fill-opacity="1" stroke-width="0.59776" stroke-linecap="butt" stroke-linejoin="round" stroke="rgb(0%, 0%, 0%)" stroke-opacity="1" stroke-miterlimit="10" d="M 0.91763 0.00124826 C -0.229672 0.230709 -1.376975 0.686865 -2.748209 1.488595 C -1.374211 0.457405 -1.376975 -0.457673 -2.750974 -1.488863 C -1.374211 -0.687133 -0.229672 -0.228212 0.91763 0.00124826 Z M 0.91763 0.00124826 " transform="matrix(0.70648, 0.70648, 0.70648, -0.70648, 155.13208, 111.047907)"/>
<g fill="rgb(0%, 0%, 0%)" fill-opacity="1">
<use xlink:href="#glyph-2-4" x="140.143086" y="88.826256"/>
</g>
<path fill="none" stroke-width="0.59776" stroke-linecap="butt" stroke-linejoin="miter" stroke="rgb(0%, 0%, 0%)" stroke-opacity="1" stroke-miterlimit="10" d="M 118.152974 -56.933502 L 103.702811 -91.815631 " transform="matrix(0.999124, 0, 0, -0.999124, 61.427125, 17.342951)"/>
<path fill-rule="nonzero" fill="rgb(0%, 0%, 0%)" fill-opacity="1" stroke-width="0.59776" stroke-linecap="butt" stroke-linejoin="round" stroke="rgb(0%, 0%, 0%)" stroke-opacity="1" stroke-miterlimit="10" d="M 0.915449 -0.00200696 C -0.230267 0.230175 -1.375813 0.686724 -2.749214 1.489025 C -1.374486 0.458744 -1.374906 -0.45978 -2.750644 -1.490916 C -1.373579 -0.68776 -0.229729 -0.230894 0.915449 -0.00200696 Z M 0.915449 -0.00200696 " transform="matrix(-0.382325, 0.92302, 0.92302, 0.382325, 165.039351, 109.077665)"/>
<g fill="rgb(0%, 0%, 0%)" fill-opacity="1">
<use xlink:href="#glyph-2-7" x="175.546036" y="102.474286"/>
</g>
<path fill="none" stroke-width="0.59776" stroke-linecap="butt" stroke-linejoin="miter" stroke="rgb(0%, 0%, 0%)" stroke-opacity="1" stroke-miterlimit="10" d="M 92.833912 -100.221434 L 9.100381 -100.221434 " transform="matrix(0.999124, 0, 0, -0.999124, 61.427125, 17.342951)"/>
<path fill-rule="nonzero" fill="rgb(0%, 0%, 0%)" fill-opacity="1" stroke-width="0.59776" stroke-linecap="butt" stroke-linejoin="round" stroke="rgb(0%, 0%, 0%)" stroke-opacity="1" stroke-miterlimit="10" d="M 0.917543 0.000214272 C -0.227992 0.230885 -1.373527 0.688317 -2.749733 1.489801 C -1.373527 0.457646 -1.373527 -0.457218 -2.749733 -1.489372 C -1.373527 -0.687889 -0.227992 -0.230457 0.917543 0.000214272 Z M 0.917543 0.000214272 " transform="matrix(-0.999124, 0, 0, 0.999124, 70.518301, 117.476348)"/>
<g fill="rgb(0%, 0%, 0%)" fill-opacity="1">
<use xlink:href="#glyph-2-1" x="109.005396" y="127.507331"/>
</g>
</svg>
