<?xml version="1.0" encoding="UTF-8"?>
<svg xmlns="http://www.w3.org/2000/svg" xmlns:xlink="http://www.w3.org/1999/xlink" width="334.35" height="121.75" viewBox="0 0 334.35 121.75">
<defs>
<g>
<g id="glyph-0-0">
<path d="M 0.875 0 L 4.875 0 L 4.875 -0.75 L 3.40625 -0.75 L 3.40625 -7.078125 L 2.71875 -7.078125 C 2.3125 -6.84375 1.84375 -6.671875 1.203125 -6.5625 L 1.203125 -5.984375 L 2.5 -5.984375 L 2.5 -0.75 L 0.875 -0.75 Z M 0.875 0 "/>
</g>
<g id="glyph-0-1">
<path d="M 2.765625 0.125 C 4.171875 0.125 5.03125 -1.1875 5.03125 -3.5625 C 5.03125 -5.9375 4.171875 -7.21875 2.765625 -7.21875 C 1.34375 -7.21875 0.5 -5.9375 0.5 -3.5625 C 0.5 -1.1875 1.34375 0.125 2.765625 0.125 Z M 2.765625 -0.609375 C 1.9375 -0.609375 1.375 -1.484375 1.375 -3.5625 C 1.375 -5.640625 1.9375 -6.484375 2.765625 -6.484375 C 3.59375 -6.484375 4.15625 -5.640625 4.15625 -3.5625 C 4.15625 -1.484375 3.59375 -0.609375 2.765625 -0.609375 Z M 2.765625 -0.609375 "/>
</g>
<g id="glyph-0-2">
<path d="M 0.4375 0 L 5.015625 0 L 5.015625 -0.78125 L 2.96875 -0.78125 C 2.59375 -0.78125 2.140625 -0.75 1.765625 -0.71875 C 3.453125 -2.46875 4.671875 -3.8125 4.671875 -5.140625 C 4.671875 -6.390625 3.84375 -7.21875 2.546875 -7.21875 C 1.625 -7.21875 0.984375 -6.796875 0.390625 -6.140625 L 0.921875 -5.640625 C 1.328125 -6.109375 1.84375 -6.484375 2.4375 -6.484375 C 3.34375 -6.484375 3.78125 -5.90625 3.78125 -5.09375 C 3.78125 -3.9375 2.578125 -2.65625 0.4375 -0.53125 Z M 0.4375 0 "/>
</g>
<g id="glyph-0-3">
<path d="M 3.375 0 L 4.234375 0 L 4.234375 -1.953125 L 5.203125 -1.953125 L 5.203125 -2.6875 L 4.234375 -2.6875 L 4.234375 -7.078125 L 3.234375 -7.078125 L 0.203125 -2.546875 L 0.203125 -1.953125 L 3.375 -1.953125 Z M 3.375 -2.6875 L 1.140625 -2.6875 L 2.796875 -5.109375 C 3.015625 -5.46875 3.203125 -5.78125 3.390625 -6.109375 L 3.421875 -6.109375 C 3.40625 -5.75 3.375 -5.125 3.375 -4.765625 Z M 3.375 -2.6875 "/>
</g>
<g id="glyph-0-4">
<path d="M 2.609375 0.125 C 3.828125 0.125 4.984375 -0.734375 4.984375 -2.265625 C 4.984375 -3.796875 4 -4.484375 2.796875 -4.484375 C 2.359375 -4.484375 2.03125 -4.375 1.703125 -4.1875 L 1.890625 -6.296875 L 4.625 -6.296875 L 4.625 -7.078125 L 1.09375 -7.078125 L 0.859375 -3.671875 L 1.34375 -3.375 C 1.765625 -3.640625 2.0625 -3.8125 2.546875 -3.8125 C 3.46875 -3.8125 4.0625 -3.21875 4.0625 -2.234375 C 4.0625 -1.25 3.375 -0.625 2.515625 -0.625 C 1.671875 -0.625 1.140625 -1.015625 0.71875 -1.4375 L 0.265625 -0.828125 C 0.765625 -0.34375 1.453125 0.125 2.609375 0.125 Z M 2.609375 0.125 "/>
</g>
<g id="glyph-0-5">
<path d="M 2.984375 0.125 C 4.109375 0.125 5.0625 -0.78125 5.0625 -2.140625 C 5.0625 -3.59375 4.265625 -4.328125 3.046875 -4.328125 C 2.46875 -4.328125 1.84375 -3.984375 1.390625 -3.421875 C 1.4375 -5.6875 2.265625 -6.453125 3.265625 -6.453125 C 3.71875 -6.453125 4.15625 -6.25 4.4375 -5.90625 L 4.9375 -6.46875 C 4.546875 -6.890625 4 -7.21875 3.234375 -7.21875 C 1.8125 -7.21875 0.53125 -6.125 0.53125 -3.28125 C 0.53125 -1 1.578125 0.125 2.984375 0.125 Z M 1.40625 -2.703125 C 1.890625 -3.40625 2.4375 -3.640625 2.90625 -3.640625 C 3.78125 -3.640625 4.21875 -3.0625 4.21875 -2.140625 C 4.21875 -1.203125 3.671875 -0.59375 2.96875 -0.59375 C 2.078125 -0.59375 1.53125 -1.328125 1.40625 -2.703125 Z M 1.40625 -2.703125 "/>
</g>
<g id="glyph-0-6">
<path d="M 2.609375 0.125 C 3.921875 0.125 4.953125 -0.625 4.953125 -1.890625 C 4.953125 -2.859375 4.265625 -3.484375 3.421875 -3.703125 L 3.421875 -3.734375 C 4.1875 -4.015625 4.703125 -4.5625 4.703125 -5.421875 C 4.703125 -6.5625 3.8125 -7.21875 2.578125 -7.21875 C 1.75 -7.21875 1.109375 -6.84375 0.5625 -6.328125 L 1.046875 -5.75 C 1.453125 -6.1875 1.96875 -6.484375 2.546875 -6.484375 C 3.3125 -6.484375 3.78125 -6.046875 3.78125 -5.359375 C 3.78125 -4.609375 3.28125 -4.03125 1.765625 -4.03125 L 1.765625 -3.328125 C 3.453125 -3.328125 4.03125 -2.765625 4.03125 -1.921875 C 4.03125 -1.125 3.421875 -0.625 2.546875 -0.625 C 1.734375 -0.625 1.1875 -1.03125 0.75 -1.453125 L 0.28125 -0.875 C 0.765625 -0.34375 1.484375 0.125 2.609375 0.125 Z M 2.609375 0.125 "/>
</g>
<g id="glyph-0-7">
<path d="M 1.96875 0 L 2.90625 0 C 3.03125 -2.765625 3.375 -4.375 5.046875 -6.53125 L 5.046875 -7.078125 L 0.484375 -7.078125 L 0.484375 -6.296875 L 4.03125 -6.296875 C 2.625 -4.359375 2.09375 -2.671875 1.96875 0 Z M 1.96875 0 "/>
</g>
<g id="glyph-0-8">
<path d="M 2.78125 0.125 C 4.140625 0.125 5.0625 -0.703125 5.0625 -1.75 C 5.0625 -2.703125 4.46875 -3.203125 3.828125 -3.59375 L 3.828125 -3.625 C 4.265625 -3.953125 4.796875 -4.59375 4.796875 -5.34375 C 4.796875 -6.421875 4.046875 -7.21875 2.796875 -7.21875 C 1.671875 -7.21875 0.8125 -6.484375 0.8125 -5.40625 C 0.8125 -4.65625 1.265625 -4.140625 1.78125 -3.765625 L 1.78125 -3.734375 C 1.140625 -3.375 0.453125 -2.734375 0.453125 -1.8125 C 0.453125 -0.6875 1.4375 0.125 2.78125 0.125 Z M 3.28125 -3.859375 C 2.421875 -4.1875 1.625 -4.546875 1.625 -5.40625 C 1.625 -6.09375 2.109375 -6.53125 2.796875 -6.53125 C 3.5625 -6.53125 4.03125 -5.984375 4.03125 -5.28125 C 4.03125 -4.765625 3.75 -4.296875 3.28125 -3.859375 Z M 2.796875 -0.546875 C 1.921875 -0.546875 1.265625 -1.109375 1.265625 -1.890625 C 1.265625 -2.546875 1.6875 -3.078125 2.265625 -3.4375 C 3.296875 -3.015625 4.1875 -2.71875 4.1875 -1.78125 C 4.1875 -1.046875 3.640625 -0.546875 2.796875 -0.546875 Z M 2.796875 -0.546875 "/>
</g>
<g id="glyph-0-9">
<path d="M 2.28125 0.125 C 3.6875 0.125 4.984375 -0.96875 4.984375 -3.8125 C 4.984375 -6.078125 3.921875 -7.21875 2.53125 -7.21875 C 1.390625 -7.21875 0.4375 -6.296875 0.4375 -4.9375 C 0.4375 -3.5 1.234375 -2.765625 2.453125 -2.765625 C 3.046875 -2.765625 3.671875 -3.09375 4.125 -3.65625 C 4.078125 -1.390625 3.234375 -0.625 2.25 -0.625 C 1.8125 -0.625 1.359375 -0.828125 1.078125 -1.1875 L 0.578125 -0.609375 C 0.953125 -0.1875 1.515625 0.125 2.28125 0.125 Z M 4.109375 -4.390625 C 3.625 -3.703125 3.0625 -3.421875 2.609375 -3.421875 C 1.734375 -3.421875 1.296875 -4.015625 1.296875 -4.9375 C 1.296875 -5.890625 1.828125 -6.515625 2.53125 -6.515625 C 3.421875 -6.515625 3.984375 -5.765625 4.109375 -4.390625 Z M 4.109375 -4.390625 "/>
</g>
</g>
<clipPath id="clip-0">
<path clip-rule="nonzero" d="M 0.0195312 83 L 39 83 L 39 121.5 L 0.0195312 121.5 Z M 0.0195312 83 "/>
</clipPath>
<clipPath id="clip-1">
<path clip-rule="nonzero" d="M 41 83 L 81 83 L 81 121.5 L 41 121.5 Z M 41 83 "/>
</clipPath>
<clipPath id="clip-2">
<path clip-rule="nonzero" d="M 83 83 L 123 83 L 123 121.5 L 83 121.5 Z M 83 83 "/>
</clipPath>
<clipPath id="clip-3">
<path clip-rule="nonzero" d="M 125 83 L 166 83 L 166 121.5 L 125 121.5 Z M 125 83 "/>
</clipPath>
<clipPath id="clip-4">
<path clip-rule="nonzero" d="M 168 83 L 208 83 L 208 121.5 L 168 121.5 Z M 168 83 "/>
</clipPath>
<clipPath id="clip-5">
<path clip-rule="nonzero" d="M 210 83 L 251 83 L 251 121.5 L 210 121.5 Z M 210 83 "/>
</clipPath>
<clipPath id="clip-6">
<path clip-rule="nonzero" d="M 295 40 L 333.683594 40 L 333.683594 81 L 295 81 Z M 295 40 "/>
</clipPath>
<clipPath id="clip-7">
<path clip-rule="nonzero" d="M 253 83 L 293 83 L 293 121.5 L 253 121.5 Z M 253 83 "/>
</clipPath>
<clipPath id="clip-8">
<path clip-rule="nonzero" d="M 295 83 L 333.683594 83 L 333.683594 121.5 L 295 121.5 Z M 295 83 "/>
</clipPath>
</defs>
<path fill="none" stroke-width="0.3985" stroke-linecap="butt" stroke-linejoin="miter" stroke="rgb(0%, 0%, 0%)" stroke-opacity="1" stroke-miterlimit="10" d="M 14.17188 -0.0000169405 C 14.17188 7.828525 7.826847 14.173559 -0.00169559 14.173559 C -7.826323 14.173559 -14.175271 7.828525 -14.175271 -0.0000169405 C -14.175271 -7.828559 -7.826323 -14.173592 -0.00169559 -14.173592 C 7.826847 -14.173592 14.17188 -7.828559 14.17188 -0.0000169405 Z M 14.17188 -0.0000169405 " transform="matrix(0.997951, 0, 0, -0.997951, 188.068098, 18.316389)"/>
<g fill="rgb(0%, 0%, 0%)" fill-opacity="1">
<use xlink:href="#glyph-0-0" x="182.550428" y="21.861111"/>
<use xlink:href="#glyph-0-1" x="188.068341" y="21.861111"/>
</g>
<path fill="none" stroke-width="0.3985" stroke-linecap="butt" stroke-linejoin="miter" stroke="rgb(0%, 0%, 0%)" stroke-opacity="1" stroke-miterlimit="10" d="M -113.386385 -42.520743 C -113.386385 -34.692201 -119.731418 -28.347168 -127.55996 -28.347168 C -135.388503 -28.347168 -141.733536 -34.692201 -141.733536 -42.520743 C -141.733536 -50.349285 -135.388503 -56.694319 -127.55996 -56.694319 C -119.731418 -56.694319 -113.386385 -50.349285 -113.386385 -42.520743 Z M -113.386385 -42.520743 " transform="matrix(0.997951, 0, 0, -0.997951, 188.068098, 18.316389)"/>
<g fill="rgb(0%, 0%, 0%)" fill-opacity="1">
<use xlink:href="#glyph-0-2" x="55.250824" y="64.29398"/>
<use xlink:href="#glyph-0-1" x="60.768736" y="64.29398"/>
</g>
<path fill="none" stroke-width="0.3985" stroke-linecap="butt" stroke-linejoin="miter" stroke="rgb(0%, 0%, 0%)" stroke-opacity="1" stroke-miterlimit="10" d="M -13.635102 -4.544486 L -113.926554 -37.976275 " transform="matrix(0.997951, 0, 0, -0.997951, 188.068098, 18.316389)"/>
<g clip-path="url(#clip-0)">
<path fill="none" stroke-width="0.3985" stroke-linecap="butt" stroke-linejoin="miter" stroke="rgb(0%, 0%, 0%)" stroke-opacity="1" stroke-miterlimit="10" d="M -155.907111 -85.04147 C -155.907111 -77.212928 -162.252145 -70.867894 -170.080687 -70.867894 C -177.909229 -70.867894 -184.254262 -77.212928 -184.254262 -85.04147 C -184.254262 -92.870012 -177.909229 -99.215045 -170.080687 -99.215045 C -162.252145 -99.215045 -155.907111 -92.870012 -155.907111 -85.04147 Z M -155.907111 -85.04147 " transform="matrix(0.997951, 0, 0, -0.997951, 188.068098, 18.316389)"/>
</g>
<g fill="rgb(0%, 0%, 0%)" fill-opacity="1">
<use xlink:href="#glyph-0-3" x="12.817955" y="106.726848"/>
<use xlink:href="#glyph-0-1" x="18.335868" y="106.726848"/>
</g>
<path fill="none" stroke-width="0.3985" stroke-linecap="butt" stroke-linejoin="miter" stroke="rgb(0%, 0%, 0%)" stroke-opacity="1" stroke-miterlimit="10" d="M -137.725322 -52.682191 L -159.919239 -74.876108 " transform="matrix(0.997951, 0, 0, -0.997951, 188.068098, 18.316389)"/>
<g clip-path="url(#clip-1)">
<path fill="none" stroke-width="0.3985" stroke-linecap="butt" stroke-linejoin="miter" stroke="rgb(0%, 0%, 0%)" stroke-opacity="1" stroke-miterlimit="10" d="M -113.386385 -85.04147 C -113.386385 -77.212928 -119.731418 -70.867894 -127.55996 -70.867894 C -135.388503 -70.867894 -141.733536 -77.212928 -141.733536 -85.04147 C -141.733536 -92.870012 -135.388503 -99.215045 -127.55996 -99.215045 C -119.731418 -99.215045 -113.386385 -92.870012 -113.386385 -85.04147 Z M -113.386385 -85.04147 " transform="matrix(0.997951, 0, 0, -0.997951, 188.068098, 18.316389)"/>
</g>
<g fill="rgb(0%, 0%, 0%)" fill-opacity="1">
<use xlink:href="#glyph-0-4" x="55.250824" y="106.726848"/>
<use xlink:href="#glyph-0-1" x="60.768736" y="106.726848"/>
</g>
<path fill="none" stroke-width="0.3985" stroke-linecap="butt" stroke-linejoin="miter" stroke="rgb(0%, 0%, 0%)" stroke-opacity="1" stroke-miterlimit="10" d="M -127.55996 -56.893947 L -127.55996 -70.668266 " transform="matrix(0.997951, 0, 0, -0.997951, 188.068098, 18.316389)"/>
<g clip-path="url(#clip-2)">
<path fill="none" stroke-width="0.3985" stroke-linecap="butt" stroke-linejoin="miter" stroke="rgb(0%, 0%, 0%)" stroke-opacity="1" stroke-miterlimit="10" d="M -70.865659 -85.04147 C -70.865659 -77.212928 -77.210692 -70.867894 -85.039234 -70.867894 C -92.867776 -70.867894 -99.21281 -77.212928 -99.21281 -85.04147 C -99.21281 -92.870012 -92.867776 -99.215045 -85.039234 -99.215045 C -77.210692 -99.215045 -70.865659 -92.870012 -70.865659 -85.04147 Z M -70.865659 -85.04147 " transform="matrix(0.997951, 0, 0, -0.997951, 188.068098, 18.316389)"/>
</g>
<g fill="rgb(0%, 0%, 0%)" fill-opacity="1">
<use xlink:href="#glyph-0-5" x="97.683693" y="106.726848"/>
<use xlink:href="#glyph-0-1" x="103.201605" y="106.726848"/>
</g>
<path fill="none" stroke-width="0.3985" stroke-linecap="butt" stroke-linejoin="miter" stroke="rgb(0%, 0%, 0%)" stroke-opacity="1" stroke-miterlimit="10" d="M -117.402427 -52.686105 L -95.204596 -74.876108 " transform="matrix(0.997951, 0, 0, -0.997951, 188.068098, 18.316389)"/>
<path fill="none" stroke-width="0.3985" stroke-linecap="butt" stroke-linejoin="miter" stroke="rgb(0%, 0%, 0%)" stroke-opacity="1" stroke-miterlimit="10" d="M 14.17188 -42.520743 C 14.17188 -34.692201 7.826847 -28.347168 -0.00169559 -28.347168 C -7.826323 -28.347168 -14.175271 -34.692201 -14.175271 -42.520743 C -14.175271 -50.349285 -7.826323 -56.694319 -0.00169559 -56.694319 C 7.826847 -56.694319 14.17188 -50.349285 14.17188 -42.520743 Z M 14.17188 -42.520743 " transform="matrix(0.997951, 0, 0, -0.997951, 188.068098, 18.316389)"/>
<g fill="rgb(0%, 0%, 0%)" fill-opacity="1">
<use xlink:href="#glyph-0-6" x="182.550428" y="64.29398"/>
<use xlink:href="#glyph-0-1" x="188.068341" y="64.29398"/>
</g>
<path fill="none" stroke-width="0.3985" stroke-linecap="butt" stroke-linejoin="miter" stroke="rgb(0%, 0%, 0%)" stroke-opacity="1" stroke-miterlimit="10" d="M -0.00169559 -14.37322 L -0.00169559 -28.14754 " transform="matrix(0.997951, 0, 0, -0.997951, 188.068098, 18.316389)"/>
<g clip-path="url(#clip-3)">
<path fill="none" stroke-width="0.3985" stroke-linecap="butt" stroke-linejoin="miter" stroke="rgb(0%, 0%, 0%)" stroke-opacity="1" stroke-miterlimit="10" d="M -28.344932 -85.04147 C -28.344932 -77.212928 -34.69388 -70.867894 -42.518508 -70.867894 C -50.34705 -70.867894 -56.692083 -77.212928 -56.692083 -85.04147 C -56.692083 -92.870012 -50.34705 -99.215045 -42.518508 -99.215045 C -34.69388 -99.215045 -28.344932 -92.870012 -28.344932 -85.04147 Z M -28.344932 -85.04147 " transform="matrix(0.997951, 0, 0, -0.997951, 188.068098, 18.316389)"/>
</g>
<g fill="rgb(0%, 0%, 0%)" fill-opacity="1">
<use xlink:href="#glyph-0-7" x="140.116561" y="106.726848"/>
<use xlink:href="#glyph-0-1" x="145.634474" y="106.726848"/>
</g>
<path fill="none" stroke-width="0.3985" stroke-linecap="butt" stroke-linejoin="miter" stroke="rgb(0%, 0%, 0%)" stroke-opacity="1" stroke-miterlimit="10" d="M -10.163143 -52.682191 L -32.35706 -74.876108 " transform="matrix(0.997951, 0, 0, -0.997951, 188.068098, 18.316389)"/>
<g clip-path="url(#clip-4)">
<path fill="none" stroke-width="0.3985" stroke-linecap="butt" stroke-linejoin="miter" stroke="rgb(0%, 0%, 0%)" stroke-opacity="1" stroke-miterlimit="10" d="M 14.17188 -85.04147 C 14.17188 -77.212928 7.826847 -70.867894 -0.00169559 -70.867894 C -7.826323 -70.867894 -14.175271 -77.212928 -14.175271 -85.04147 C -14.175271 -92.870012 -7.826323 -99.215045 -0.00169559 -99.215045 C 7.826847 -99.215045 14.17188 -92.870012 14.17188 -85.04147 Z M 14.17188 -85.04147 " transform="matrix(0.997951, 0, 0, -0.997951, 188.068098, 18.316389)"/>
</g>
<g fill="rgb(0%, 0%, 0%)" fill-opacity="1">
<use xlink:href="#glyph-0-8" x="182.550428" y="106.726848"/>
<use xlink:href="#glyph-0-1" x="188.068341" y="106.726848"/>
</g>
<path fill="none" stroke-width="0.3985" stroke-linecap="butt" stroke-linejoin="miter" stroke="rgb(0%, 0%, 0%)" stroke-opacity="1" stroke-miterlimit="10" d="M -0.00169559 -56.893947 L -0.00169559 -70.668266 " transform="matrix(0.997951, 0, 0, -0.997951, 188.068098, 18.316389)"/>
<g clip-path="url(#clip-5)">
<path fill="none" stroke-width="0.3985" stroke-linecap="butt" stroke-linejoin="miter" stroke="rgb(0%, 0%, 0%)" stroke-opacity="1" stroke-miterlimit="10" d="M 56.692606 -85.04147 C 56.692606 -77.212928 50.347573 -70.867894 42.519031 -70.867894 C 34.690489 -70.867894 28.345455 -77.212928 28.345455 -85.04147 C 28.345455 -92.870012 34.690489 -99.215045 42.519031 -99.215045 C 50.347573 -99.215045 56.692606 -92.870012 56.692606 -85.04147 Z M 56.692606 -85.04147 " transform="matrix(0.997951, 0, 0, -0.997951, 188.068098, 18.316389)"/>
</g>
<g fill="rgb(0%, 0%, 0%)" fill-opacity="1">
<use xlink:href="#glyph-0-9" x="224.983297" y="106.726848"/>
<use xlink:href="#glyph-0-1" x="230.50121" y="106.726848"/>
</g>
<path fill="none" stroke-width="0.3985" stroke-linecap="butt" stroke-linejoin="miter" stroke="rgb(0%, 0%, 0%)" stroke-opacity="1" stroke-miterlimit="10" d="M 10.159752 -52.686105 L 32.357583 -74.876108 " transform="matrix(0.997951, 0, 0, -0.997951, 188.068098, 18.316389)"/>
<g clip-path="url(#clip-6)">
<path fill="none" stroke-width="0.3985" stroke-linecap="butt" stroke-linejoin="miter" stroke="rgb(0%, 0%, 0%)" stroke-opacity="1" stroke-miterlimit="10" d="M 141.734059 -42.520743 C 141.734059 -34.692201 135.389026 -28.347168 127.560484 -28.347168 C 119.731941 -28.347168 113.386908 -34.692201 113.386908 -42.520743 C 113.386908 -50.349285 119.731941 -56.694319 127.560484 -56.694319 C 135.389026 -56.694319 141.734059 -50.349285 141.734059 -42.520743 Z M 141.734059 -42.520743 " transform="matrix(0.997951, 0, 0, -0.997951, 188.068098, 18.316389)"/>
</g>
<g fill="rgb(0%, 0%, 0%)" fill-opacity="1">
<use xlink:href="#glyph-0-6" x="309.849035" y="64.29398"/>
<use xlink:href="#glyph-0-4" x="315.366947" y="64.29398"/>
</g>
<path fill="none" stroke-width="0.3985" stroke-linecap="butt" stroke-linejoin="miter" stroke="rgb(0%, 0%, 0%)" stroke-opacity="1" stroke-miterlimit="10" d="M 13.635625 -4.544486 L 113.927078 -37.976275 " transform="matrix(0.997951, 0, 0, -0.997951, 188.068098, 18.316389)"/>
<g clip-path="url(#clip-7)">
<path fill="none" stroke-width="0.3985" stroke-linecap="butt" stroke-linejoin="miter" stroke="rgb(0%, 0%, 0%)" stroke-opacity="1" stroke-miterlimit="10" d="M 99.213333 -85.04147 C 99.213333 -77.212928 92.868299 -70.867894 85.039757 -70.867894 C 77.211215 -70.867894 70.866182 -77.212928 70.866182 -85.04147 C 70.866182 -92.870012 77.211215 -99.215045 85.039757 -99.215045 C 92.868299 -99.215045 99.213333 -92.870012 99.213333 -85.04147 Z M 99.213333 -85.04147 " transform="matrix(0.997951, 0, 0, -0.997951, 188.068098, 18.316389)"/>
</g>
<g fill="rgb(0%, 0%, 0%)" fill-opacity="1">
<use xlink:href="#glyph-0-0" x="264.65783" y="106.726848"/>
<use xlink:href="#glyph-0-1" x="270.175743" y="106.726848"/>
<use xlink:href="#glyph-0-1" x="275.693655" y="106.726848"/>
</g>
<path fill="none" stroke-width="0.3985" stroke-linecap="butt" stroke-linejoin="miter" stroke="rgb(0%, 0%, 0%)" stroke-opacity="1" stroke-miterlimit="10" d="M 117.399036 -52.682191 L 95.205119 -74.876108 " transform="matrix(0.997951, 0, 0, -0.997951, 188.068098, 18.316389)"/>
<g clip-path="url(#clip-8)">
<path fill="none" stroke-width="0.3985" stroke-linecap="butt" stroke-linejoin="miter" stroke="rgb(0%, 0%, 0%)" stroke-opacity="1" stroke-miterlimit="10" d="M 141.734059 -85.04147 C 141.734059 -77.212928 135.389026 -70.867894 127.560484 -70.867894 C 119.731941 -70.867894 113.386908 -77.212928 113.386908 -85.04147 C 113.386908 -92.870012 119.731941 -99.215045 127.560484 -99.215045 C 135.389026 -99.215045 141.734059 -92.870012 141.734059 -85.04147 Z M 141.734059 -85.04147 " transform="matrix(0.997951, 0, 0, -0.997951, 188.068098, 18.316389)"/>
</g>
<g fill="rgb(0%, 0%, 0%)" fill-opacity="1">
<use xlink:href="#glyph-0-0" x="307.090699" y="106.726848"/>
<use xlink:href="#glyph-0-0" x="312.608611" y="106.726848"/>
<use xlink:href="#glyph-0-1" x="318.126524" y="106.726848"/>
</g>
<path fill="none" stroke-width="0.3985" stroke-linecap="butt" stroke-linejoin="miter" stroke="rgb(0%, 0%, 0%)" stroke-opacity="1" stroke-miterlimit="10" d="M 127.560484 -56.893947 L 127.560484 -70.668266 " transform="matrix(0.997951, 0, 0, -0.997951, 188.068098, 18.316389)"/>
</svg>
