<?xml version="1.0" encoding="UTF-8"?>
<svg xmlns="http://www.w3.org/2000/svg" xmlns:xlink="http://www.w3.org/1999/xlink" width="307.42" height="116.09" viewBox="0 0 307.42 116.09">
<defs>
<g>
<g id="glyph-0-0">
<path d="M 0.046875 0 L 0.953125 0 L 1.65625 -2.21875 L 4.3125 -2.21875 L 5 0 L 5.96875 0 L 3.515625 -7.25 L 2.5 -7.25 Z M 1.890625 -2.9375 L 2.25 -4.0625 C 2.5 -4.875 2.734375 -5.65625 2.96875 -6.515625 L 3 -6.515625 C 3.25 -5.671875 3.46875 -4.875 3.734375 -4.0625 L 4.078125 -2.9375 Z M 1.890625 -2.9375 "/>
</g>
<g id="glyph-0-1">
<path d="M 1 0 L 3.296875 0 C 4.921875 0 6.046875 -0.703125 6.046875 -2.125 C 6.046875 -3.109375 5.4375 -3.6875 4.578125 -3.859375 L 4.578125 -3.90625 C 5.265625 -4.125 5.640625 -4.75 5.640625 -5.484375 C 5.640625 -6.75 4.609375 -7.25 3.140625 -7.25 L 1 -7.25 Z M 1.90625 -4.171875 L 1.90625 -6.53125 L 3.03125 -6.53125 C 4.15625 -6.53125 4.734375 -6.21875 4.734375 -5.359375 C 4.734375 -4.625 4.234375 -4.171875 2.984375 -4.171875 Z M 1.90625 -0.734375 L 1.90625 -3.46875 L 3.171875 -3.46875 C 4.453125 -3.46875 5.15625 -3.0625 5.15625 -2.15625 C 5.15625 -1.171875 4.421875 -0.734375 3.171875 -0.734375 Z M 1.90625 -0.734375 "/>
</g>
<g id="glyph-0-2">
<path d="M 1 0 L 2.84375 0 C 5.03125 0 6.21875 -1.359375 6.21875 -3.65625 C 6.21875 -5.96875 5.03125 -7.25 2.8125 -7.25 L 1 -7.25 Z M 1.90625 -0.75 L 1.90625 -6.515625 L 2.734375 -6.515625 C 4.4375 -6.515625 5.28125 -5.484375 5.28125 -3.65625 C 5.28125 -1.8125 4.4375 -0.75 2.734375 -0.75 Z M 1.90625 -0.75 "/>
</g>
<g id="glyph-0-3">
<path d="M 1 0 L 1.90625 0 L 1.90625 -3.421875 L 5.296875 -3.421875 L 5.296875 0 L 6.21875 0 L 6.21875 -7.25 L 5.296875 -7.25 L 5.296875 -4.21875 L 1.90625 -4.21875 L 1.90625 -7.25 L 1 -7.25 Z M 1 0 "/>
</g>
<g id="glyph-0-4">
<path d="M 1 0 L 1.90625 0 L 1.90625 -7.25 L 1 -7.25 Z M 1 0 "/>
</g>
<g id="glyph-0-5">
<path d="M 1 0 L 5.28125 0 L 5.28125 -0.78125 L 1.90625 -0.78125 L 1.90625 -3.421875 L 4.65625 -3.421875 L 4.65625 -4.203125 L 1.90625 -4.203125 L 1.90625 -6.484375 L 5.171875 -6.484375 L 5.171875 -7.25 L 1 -7.25 Z M 1 0 "/>
</g>
<g id="glyph-0-6">
<path d="M 2.34375 0.125 C 3.765625 0.125 4.34375 -0.875 4.34375 -2.125 L 4.34375 -7.25 L 3.421875 -7.25 L 3.421875 -2.21875 C 3.421875 -1.125 3.03125 -0.671875 2.25 -0.671875 C 1.734375 -0.671875 1.328125 -0.90625 1 -1.5 L 0.34375 -1.015625 C 0.765625 -0.265625 1.421875 0.125 2.34375 0.125 Z M 2.34375 0.125 "/>
</g>
<g id="glyph-0-7">
<path d="M 3.734375 0.125 C 4.671875 0.125 5.375 -0.25 5.953125 -0.90625 L 5.453125 -1.5 C 4.984375 -0.984375 4.453125 -0.671875 3.765625 -0.671875 C 2.390625 -0.671875 1.515625 -1.8125 1.515625 -3.65625 C 1.515625 -5.453125 2.4375 -6.578125 3.796875 -6.578125 C 4.421875 -6.578125 4.890625 -6.296875 5.28125 -5.890625 L 5.78125 -6.484375 C 5.359375 -6.953125 4.671875 -7.375 3.78125 -7.375 C 1.953125 -7.375 0.578125 -5.96875 0.578125 -3.625 C 0.578125 -1.265625 1.921875 0.125 3.734375 0.125 Z M 3.734375 0.125 "/>
</g>
<g id="glyph-0-8">
<path d="M 1 0 L 1.90625 0 L 1.90625 -3.25 L 4.671875 -3.25 L 4.671875 -4.03125 L 1.90625 -4.03125 L 1.90625 -6.484375 L 5.171875 -6.484375 L 5.171875 -7.25 L 1 -7.25 Z M 1 0 "/>
</g>
<g id="glyph-0-9">
<path d="M 3.84375 0.125 C 4.8125 0.125 5.625 -0.234375 6.078125 -0.71875 L 6.078125 -3.765625 L 3.703125 -3.765625 L 3.703125 -3 L 5.234375 -3 L 5.234375 -1.09375 C 4.953125 -0.828125 4.453125 -0.671875 3.9375 -0.671875 C 2.390625 -0.671875 1.515625 -1.8125 1.515625 -3.65625 C 1.515625 -5.453125 2.46875 -6.578125 3.921875 -6.578125 C 4.65625 -6.578125 5.125 -6.265625 5.484375 -5.890625 L 5.984375 -6.484375 C 5.5625 -6.921875 4.90625 -7.375 3.890625 -7.375 C 1.984375 -7.375 0.578125 -5.96875 0.578125 -3.625 C 0.578125 -1.265625 1.9375 0.125 3.84375 0.125 Z M 3.84375 0.125 "/>
</g>
</g>
<clipPath id="clip-0">
<path clip-rule="nonzero" d="M 0.90625 82 L 34 82 L 34 115.1875 L 0.90625 115.1875 Z M 0.90625 82 "/>
</clipPath>
<clipPath id="clip-1">
<path clip-rule="nonzero" d="M 41 82 L 76 82 L 76 115.1875 L 41 115.1875 Z M 41 82 "/>
</clipPath>
<clipPath id="clip-2">
<path clip-rule="nonzero" d="M 83 82 L 118 82 L 118 115.1875 L 83 115.1875 Z M 83 82 "/>
</clipPath>
<clipPath id="clip-3">
<path clip-rule="nonzero" d="M 273 54 L 305.9375 54 L 305.9375 89 L 273 89 Z M 273 54 "/>
</clipPath>
</defs>
<path fill="none" stroke-width="0.3985" stroke-linecap="butt" stroke-linejoin="miter" stroke="rgb(0%, 0%, 0%)" stroke-opacity="1" stroke-miterlimit="10" d="M 11.339288 0.000984323 C 11.339288 6.260608 6.260726 11.33917 0.0011026 11.33917 C -6.262458 11.33917 -11.337083 6.260608 -11.337083 0.000984323 C -11.337083 -6.262576 -6.262458 -11.337202 0.0011026 -11.337202 C 6.260726 -11.337202 11.339288 -6.262576 11.339288 0.000984323 Z M 11.339288 0.000984323 " transform="matrix(0.992222, 0, 0, -0.992222, 163.971562, 15.407227)"/>
<g fill="rgb(0%, 0%, 0%)" fill-opacity="1">
<use xlink:href="#glyph-0-0" x="160.966121" y="19.02983"/>
</g>
<path fill="none" stroke-width="0.3985" stroke-linecap="butt" stroke-linejoin="miter" stroke="rgb(0%, 0%, 0%)" stroke-opacity="1" stroke-miterlimit="10" d="M -73.701043 -28.348417 C -73.701043 -22.084857 -78.779605 -17.006295 -85.039228 -17.006295 C -91.302789 -17.006295 -96.377414 -22.084857 -96.377414 -28.348417 C -96.377414 -34.608041 -91.302789 -39.686603 -85.039228 -39.686603 C -78.779605 -39.686603 -73.701043 -34.608041 -73.701043 -28.348417 Z M -73.701043 -28.348417 " transform="matrix(0.992222, 0, 0, -0.992222, 163.971562, 15.407227)"/>
<g fill="rgb(0%, 0%, 0%)" fill-opacity="1">
<use xlink:href="#glyph-0-1" x="76.345441" y="47.156353"/>
</g>
<path fill="none" stroke-width="0.3985" stroke-linecap="butt" stroke-linejoin="miter" stroke="rgb(0%, 0%, 0%)" stroke-opacity="1" stroke-miterlimit="10" d="M -10.947333 -3.648494 L -74.09473 -24.698939 " transform="matrix(0.992222, 0, 0, -0.992222, 163.971562, 15.407227)"/>
<path fill="none" stroke-width="0.3985" stroke-linecap="butt" stroke-linejoin="miter" stroke="rgb(0%, 0%, 0%)" stroke-opacity="1" stroke-miterlimit="10" d="M -116.223177 -56.693882 C -116.223177 -50.430322 -121.297802 -45.355696 -127.561362 -45.355696 C -133.824923 -45.355696 -138.899548 -50.430322 -138.899548 -56.693882 C -138.899548 -62.957442 -133.824923 -68.032068 -127.561362 -68.032068 C -121.297802 -68.032068 -116.223177 -62.957442 -116.223177 -56.693882 Z M -116.223177 -56.693882 " transform="matrix(0.992222, 0, 0, -0.992222, 163.971562, 15.407227)"/>
<g fill="rgb(0%, 0%, 0%)" fill-opacity="1">
<use xlink:href="#glyph-0-2" x="34.002358" y="75.282877"/>
</g>
<path fill="none" stroke-width="0.3985" stroke-linecap="butt" stroke-linejoin="miter" stroke="rgb(0%, 0%, 0%)" stroke-opacity="1" stroke-miterlimit="10" d="M -94.641255 -34.745831 L -117.959336 -50.292531 " transform="matrix(0.992222, 0, 0, -0.992222, 163.971562, 15.407227)"/>
<g clip-path="url(#clip-0)">
<path fill="none" stroke-width="0.3985" stroke-linecap="butt" stroke-linejoin="miter" stroke="rgb(0%, 0%, 0%)" stroke-opacity="1" stroke-miterlimit="10" d="M -137.482275 -85.039347 C -137.482275 -78.779723 -142.556901 -73.701161 -148.820461 -73.701161 C -155.084021 -73.701161 -160.158647 -78.779723 -160.158647 -85.039347 C -160.158647 -91.302907 -155.084021 -96.377533 -148.820461 -96.377533 C -142.556901 -96.377533 -137.482275 -91.302907 -137.482275 -85.039347 Z M -137.482275 -85.039347 " transform="matrix(0.992222, 0, 0, -0.992222, 163.971562, 15.407227)"/>
</g>
<g fill="rgb(0%, 0%, 0%)" fill-opacity="1">
<use xlink:href="#glyph-0-3" x="12.710261" y="103.4094"/>
</g>
<path fill="none" stroke-width="0.3985" stroke-linecap="butt" stroke-linejoin="miter" stroke="rgb(0%, 0%, 0%)" stroke-opacity="1" stroke-miterlimit="10" d="M -134.48238 -65.921906 L -141.899443 -75.811323 " transform="matrix(0.992222, 0, 0, -0.992222, 163.971562, 15.407227)"/>
<g clip-path="url(#clip-1)">
<path fill="none" stroke-width="0.3985" stroke-linecap="butt" stroke-linejoin="miter" stroke="rgb(0%, 0%, 0%)" stroke-opacity="1" stroke-miterlimit="10" d="M -94.960141 -85.039347 C -94.960141 -78.779723 -100.038704 -73.701161 -106.302264 -73.701161 C -112.561887 -73.701161 -117.64045 -78.779723 -117.64045 -85.039347 C -117.64045 -91.302907 -112.561887 -96.377533 -106.302264 -96.377533 C -100.038704 -96.377533 -94.960141 -91.302907 -94.960141 -85.039347 Z M -94.960141 -85.039347 " transform="matrix(0.992222, 0, 0, -0.992222, 163.971562, 15.407227)"/>
</g>
<g fill="rgb(0%, 0%, 0%)" fill-opacity="1">
<use xlink:href="#glyph-0-4" x="57.049696" y="103.4094"/>
</g>
<path fill="none" stroke-width="0.3985" stroke-linecap="butt" stroke-linejoin="miter" stroke="rgb(0%, 0%, 0%)" stroke-opacity="1" stroke-miterlimit="10" d="M -120.636408 -65.921906 L -113.223281 -75.811323 " transform="matrix(0.992222, 0, 0, -0.992222, 163.971562, 15.407227)"/>
<path fill="none" stroke-width="0.3985" stroke-linecap="butt" stroke-linejoin="miter" stroke="rgb(0%, 0%, 0%)" stroke-opacity="1" stroke-miterlimit="10" d="M -31.182845 -56.693882 C -31.182845 -50.430322 -36.257471 -45.355696 -42.521031 -45.355696 C -48.780655 -45.355696 -53.859217 -50.430322 -53.859217 -56.693882 C -53.859217 -62.957442 -48.780655 -68.032068 -42.521031 -68.032068 C -36.257471 -68.032068 -31.182845 -62.957442 -31.182845 -56.693882 Z M -31.182845 -56.693882 " transform="matrix(0.992222, 0, 0, -0.992222, 163.971562, 15.407227)"/>
<g fill="rgb(0%, 0%, 0%)" fill-opacity="1">
<use xlink:href="#glyph-0-5" x="118.871093" y="75.282877"/>
</g>
<path fill="none" stroke-width="0.3985" stroke-linecap="butt" stroke-linejoin="miter" stroke="rgb(0%, 0%, 0%)" stroke-opacity="1" stroke-miterlimit="10" d="M -75.441139 -34.745831 L -52.119121 -50.292531 " transform="matrix(0.992222, 0, 0, -0.992222, 163.971562, 15.407227)"/>
<g clip-path="url(#clip-2)">
<path fill="none" stroke-width="0.3985" stroke-linecap="butt" stroke-linejoin="miter" stroke="rgb(0%, 0%, 0%)" stroke-opacity="1" stroke-miterlimit="10" d="M -52.441944 -85.039347 C -52.441944 -78.779723 -57.51657 -73.701161 -63.78013 -73.701161 C -70.04369 -73.701161 -75.118316 -78.779723 -75.118316 -85.039347 C -75.118316 -91.302907 -70.04369 -96.377533 -63.78013 -96.377533 C -57.51657 -96.377533 -52.441944 -91.302907 -52.441944 -85.039347 Z M -52.441944 -85.039347 " transform="matrix(0.992222, 0, 0, -0.992222, 163.971562, 15.407227)"/>
</g>
<g fill="rgb(0%, 0%, 0%)" fill-opacity="1">
<use xlink:href="#glyph-0-6" x="98.043357" y="103.344906"/>
</g>
<path fill="none" stroke-width="0.3985" stroke-linecap="butt" stroke-linejoin="miter" stroke="rgb(0%, 0%, 0%)" stroke-opacity="1" stroke-miterlimit="10" d="M -49.442049 -65.921906 L -56.859112 -75.811323 " transform="matrix(0.992222, 0, 0, -0.992222, 163.971562, 15.407227)"/>
<path fill="none" stroke-width="0.3985" stroke-linecap="butt" stroke-linejoin="miter" stroke="rgb(0%, 0%, 0%)" stroke-opacity="1" stroke-miterlimit="10" d="M 96.37962 -28.348417 C 96.37962 -22.084857 91.301057 -17.006295 85.041434 -17.006295 C 78.777873 -17.006295 73.703248 -22.084857 73.703248 -28.348417 C 73.703248 -34.608041 78.777873 -39.686603 85.041434 -39.686603 C 91.301057 -39.686603 96.37962 -34.608041 96.37962 -28.348417 Z M 96.37962 -28.348417 " transform="matrix(0.992222, 0, 0, -0.992222, 163.971562, 15.407227)"/>
<g fill="rgb(0%, 0%, 0%)" fill-opacity="1">
<use xlink:href="#glyph-0-7" x="245.196858" y="47.156353"/>
</g>
<path fill="none" stroke-width="0.3985" stroke-linecap="butt" stroke-linejoin="miter" stroke="rgb(0%, 0%, 0%)" stroke-opacity="1" stroke-miterlimit="10" d="M 10.945601 -3.648494 L 74.096935 -24.698939 " transform="matrix(0.992222, 0, 0, -0.992222, 163.971562, 15.407227)"/>
<path fill="none" stroke-width="0.3985" stroke-linecap="butt" stroke-linejoin="miter" stroke="rgb(0%, 0%, 0%)" stroke-opacity="1" stroke-miterlimit="10" d="M 53.857486 -56.693882 C 53.857486 -50.430322 48.78286 -45.355696 42.5193 -45.355696 C 36.259676 -45.355696 31.181114 -50.430322 31.181114 -56.693882 C 31.181114 -62.957442 36.259676 -68.032068 42.5193 -68.032068 C 48.78286 -68.032068 53.857486 -62.957442 53.857486 -56.693882 Z M 53.857486 -56.693882 " transform="matrix(0.992222, 0, 0, -0.992222, 163.971562, 15.407227)"/>
<g fill="rgb(0%, 0%, 0%)" fill-opacity="1">
<use xlink:href="#glyph-0-8" x="203.433232" y="75.282877"/>
</g>
<path fill="none" stroke-width="0.3985" stroke-linecap="butt" stroke-linejoin="miter" stroke="rgb(0%, 0%, 0%)" stroke-opacity="1" stroke-miterlimit="10" d="M 75.439407 -34.745831 L 52.121326 -50.292531 " transform="matrix(0.992222, 0, 0, -0.992222, 163.971562, 15.407227)"/>
<g clip-path="url(#clip-3)">
<path fill="none" stroke-width="0.3985" stroke-linecap="butt" stroke-linejoin="miter" stroke="rgb(0%, 0%, 0%)" stroke-opacity="1" stroke-miterlimit="10" d="M 138.897817 -56.693882 C 138.897817 -50.430322 133.823191 -45.355696 127.559631 -45.355696 C 121.300007 -45.355696 116.221445 -50.430322 116.221445 -56.693882 C 116.221445 -62.957442 121.300007 -68.032068 127.559631 -68.032068 C 133.823191 -68.032068 138.897817 -62.957442 138.897817 -56.693882 Z M 138.897817 -56.693882 " transform="matrix(0.992222, 0, 0, -0.992222, 163.971562, 15.407227)"/>
</g>
<g fill="rgb(0%, 0%, 0%)" fill-opacity="1">
<use xlink:href="#glyph-0-9" x="287.135114" y="75.282877"/>
</g>
<path fill="none" stroke-width="0.3985" stroke-linecap="butt" stroke-linejoin="miter" stroke="rgb(0%, 0%, 0%)" stroke-opacity="1" stroke-miterlimit="10" d="M 94.639523 -34.745831 L 117.961541 -50.292531 " transform="matrix(0.992222, 0, 0, -0.992222, 163.971562, 15.407227)"/>
</svg>
